<svg width="27" height="29" viewBox="0 0 27 29" fill="none" xmlns="http://www.w3.org/2000/svg">
<path d="M3.7177 28.0384H23.2823C25.3333 28.0384 27 26.3717 27 24.3207V5.79458C27 3.74363 25.3333 2.07688 23.2823 2.07688H21.8077V1.03844C21.8077 0.467281 21.3403 0 20.7692 0C20.198 0 19.7307 0.467281 19.7307 1.03844V2.07688H7.26926V1.03844C7.26926 0.467281 6.8019 0 6.23074 0C5.65958 0 5.19229 0.467281 5.19229 1.03844V2.07688H3.7177C1.66674 2.07688 0 3.74363 0 5.79458V24.3207C0 26.3717 1.66674 28.0384 3.7177 28.0384ZM2.07697 5.79458C2.07697 4.89115 2.81427 4.15385 3.7177 4.15385H5.19229V5.19229C5.19229 5.76345 5.65958 6.23074 6.23074 6.23074C6.8019 6.23074 7.26918 5.76345 7.26918 5.19229V4.15385H19.7307V5.19229C19.7307 5.76345 20.198 6.23074 20.7692 6.23074C21.3403 6.23074 21.8076 5.76345 21.8076 5.19229V4.15385H23.2822C24.1856 4.15385 24.9229 4.89115 24.9229 5.79458V8.82693H2.07697V5.79458ZM2.07697 10.9038H24.9231V24.3207C24.9231 25.2242 24.1858 25.9615 23.2824 25.9615H3.7177C2.81427 25.9615 2.07697 25.2242 2.07697 24.3207V10.9038Z" fill="#2C2C2C"/>
</svg>
