<svg width="28" height="28" viewBox="0 0 28 28" fill="none" xmlns="http://www.w3.org/2000/svg">
<path d="M18.9889 16.4725L15.0849 13.5445V7.58018C15.0849 6.98048 14.6002 6.49573 14.0005 6.49573C13.4008 6.49573 12.916 6.98048 12.916 7.58018V14.0868C12.916 14.4284 13.0765 14.7505 13.3498 14.9544L17.6875 18.2077C17.8827 18.3541 18.1105 18.4245 18.3371 18.4245C18.6678 18.4245 18.9932 18.276 19.2057 17.9897C19.5659 17.5114 19.4682 16.8314 18.9889 16.4725Z" fill="#2C2C2C"/>
<path d="M14 0C6.27993 0 0 6.27993 0 14C0 21.7201 6.27993 28 14 28C21.7201 28 28 21.7201 28 14C28 6.27993 21.7201 0 14 0ZM14 25.8311C7.47715 25.8311 2.16885 20.5229 2.16885 14C2.16885 7.47715 7.47715 2.16885 14 2.16885C20.5239 2.16885 25.8311 7.47715 25.8311 14C25.8311 20.5229 20.5229 25.8311 14 25.8311Z" fill="#2C2C2C"/>
</svg>
