<svg width="28" height="28" viewBox="0 0 28 28" fill="none" xmlns="http://www.w3.org/2000/svg">
<path d="M18.9889 16.4724L15.0849 13.5444V7.58006C15.0849 6.98036 14.6002 6.49561 14.0005 6.49561C13.4008 6.49561 12.916 6.98036 12.916 7.58006V14.0867C12.916 14.4282 13.0765 14.7504 13.3498 14.9542L17.6875 18.2075C17.8827 18.3539 18.1105 18.4244 18.3371 18.4244C18.6678 18.4244 18.9932 18.2758 19.2057 17.9896C19.5659 17.5113 19.4682 16.8313 18.9889 16.4724Z" fill="#2C2C2C"/>
<path d="M14 0C6.27993 0 0 6.27993 0 14C0 21.7201 6.27993 28 14 28C21.7201 28 28 21.7201 28 14C28 6.27993 21.7201 0 14 0ZM14 25.8311C7.47715 25.8311 2.16885 20.5229 2.16885 14C2.16885 7.47715 7.47715 2.16885 14 2.16885C20.5239 2.16885 25.8311 7.47715 25.8311 14C25.8311 20.5229 20.5229 25.8311 14 25.8311Z" fill="#2C2C2C"/>
</svg>
