<svg width="37" height="37" viewBox="0 0 37 37" fill="none" xmlns="http://www.w3.org/2000/svg">
<path d="M31.5815 5.41851C28.0873 1.92435 23.4414 0 18.5 0C13.5586 0 8.91267 1.92435 5.41851 5.41851C1.92435 8.91267 0 13.5586 0 18.5C0 23.4414 1.92435 28.0873 5.41851 31.5815C8.91267 35.0756 13.5586 37 18.5 37C23.4414 37 28.0873 35.0756 31.5815 31.5815C35.0756 28.0873 37 23.4414 37 18.5C37 13.5586 35.0756 8.91267 31.5815 5.41851ZM8.02911 31.0234C8.63998 25.7672 13.1591 21.709 18.5 21.709C21.3155 21.709 23.9631 22.806 25.9547 24.7973C27.6371 26.48 28.6982 28.677 28.9712 31.0231C26.1342 33.3991 22.4814 34.832 18.5 34.832C14.5186 34.832 10.8661 33.3994 8.02911 31.0234ZM18.5 19.4762C15.4019 19.4762 12.8811 16.9553 12.8811 13.8572C12.8811 10.7588 15.4019 8.23828 18.5 8.23828C21.5981 8.23828 24.1189 10.7588 24.1189 13.8572C24.1189 16.9553 21.5981 19.4762 18.5 19.4762ZM30.8371 29.1905C30.2847 26.9633 29.1326 24.9096 27.4875 23.2645C26.1551 21.9321 24.5788 20.9325 22.8596 20.3061C24.9263 18.9045 26.2869 16.5367 26.2869 13.8572C26.2869 9.56362 22.7936 6.07031 18.5 6.07031C14.2064 6.07031 10.7131 9.56362 10.7131 13.8572C10.7131 16.5381 12.0749 18.9068 14.1432 20.3081C12.5615 20.8845 11.0979 21.7757 9.83857 22.9489C8.01499 24.6471 6.74865 26.8125 6.16149 29.1888C3.67482 26.3222 2.16797 22.5839 2.16797 18.5C2.16797 9.49446 9.49446 2.16797 18.5 2.16797C27.5055 2.16797 34.832 9.49446 34.832 18.5C34.832 22.5847 33.3246 26.3239 30.8371 29.1905Z" fill="white"/>
</svg>
