<svg width="208" height="208" viewBox="0 0 208 208" fill="none" xmlns="http://www.w3.org/2000/svg">
<path d="M103.655 207.31C160.902 207.31 207.31 160.902 207.31 103.655C207.31 46.4079 160.902 0 103.655 0C46.4079 0 0 46.4079 0 103.655C0 160.902 46.4079 207.31 103.655 207.31Z" fill="url(#paint0_linear_415_2566)"/>
<path fill-rule="evenodd" clip-rule="evenodd" d="M114.628 112.713C115.041 113.696 115.311 114.624 115.71 115.504C117.319 119.044 119.969 121.602 123.235 123.587C125.482 124.953 127.887 125.982 130.356 126.867C131.553 127.295 131.551 127.274 130.823 128.298C128.182 132.01 124.902 135.039 121.017 137.403C118.151 139.145 115.072 140.376 111.842 141.313C107.008 142.715 102.071 142.864 97.1371 142.538C91.4747 142.162 86.1198 140.501 81.2324 137.56C75.6737 134.216 71.3933 129.65 68.4518 123.847C67.6519 122.27 67.0311 120.63 66.4075 118.972C65.5028 116.573 64.92 114.122 64.5279 111.617C63.9958 108.205 63.8161 104.775 64.0896 101.316C64.2705 99.0244 64.5336 96.7491 65.0398 94.5125C66.3493 88.7188 68.7478 83.4404 72.5508 78.8301C75.7992 74.8912 79.7548 71.8754 84.3634 69.7228C86.7106 68.6264 89.1753 67.8668 91.705 67.2501C94.5665 66.5522 97.4717 66.3103 100.375 66.2107C102.855 66.1266 105.348 66.3742 107.822 66.7871C109.796 67.1165 111.72 67.5732 113.619 68.1807C116.697 69.1654 119.607 70.491 122.282 72.3223C126.313 75.0818 129.634 78.5151 132.204 82.6728C134.09 85.7266 135.51 88.9871 136.432 92.4526C137.351 95.9072 138.026 99.4062 137.916 103.002C137.836 105.63 139.219 107.23 141.428 108.315C143.518 109.341 145.731 110.008 147.978 110.581C150.102 111.121 152.208 111.729 154.339 112.24C156.156 112.675 157.962 113.144 159.745 113.697C164.879 115.291 169.808 117.262 173.624 121.276C175.99 123.767 177.407 126.694 178.057 130.081C178.561 132.703 178.59 135.31 178.234 137.907C177.367 144.246 174.384 149.345 169.078 153.04C166.139 155.086 162.929 156.482 159.51 157.498C156.558 158.377 153.545 158.971 150.495 159.174C147.695 159.362 144.898 159.731 142.047 159.352C140.128 159.097 138.172 159.007 136.264 158.64C130.792 157.592 125.644 155.728 121.239 152.202C118.106 149.697 115.741 146.59 114.299 142.809C114.124 142.348 114.165 142.153 114.64 141.976C116.836 141.157 118.98 140.219 121.017 139.05C123.559 137.591 125.901 135.867 127.957 133.776C128.494 133.231 129.039 133.004 129.802 133.032C131.3 133.087 132.804 133.083 134.303 133.035C135.035 133.011 135.191 133.278 135.248 133.976C135.464 136.605 135.999 139.124 138.243 140.891C139.403 141.804 140.732 142.325 142.153 142.653C144.492 143.19 146.873 143.321 149.217 142.916C151.605 142.503 153.944 141.753 155.138 139.35C156.456 136.702 156.072 134.223 153.123 132.655C151.201 131.634 149.125 131.032 147.058 130.404C144.7 129.686 142.339 128.977 139.973 128.285C138.277 127.787 136.565 127.346 134.872 126.839C130.443 125.513 126.072 124.033 122.299 121.251C119.308 119.048 117.139 116.241 116.159 112.582C115.758 111.081 115.519 109.575 115.451 108.023C115.359 105.874 115.455 103.712 115.271 101.579C114.904 97.3238 114.026 93.1961 111.33 89.6856C109.512 87.3189 107.152 85.707 104.289 85.0217C99.4129 83.8574 95.1043 85.0454 91.5593 88.6612C89.7408 90.5172 88.6351 92.7947 87.8871 95.2588C86.8546 98.6599 86.4457 102.162 86.6242 105.686C86.8327 109.803 87.397 113.875 89.5381 117.549C91.352 120.664 93.8841 122.879 97.402 123.784C101.708 124.892 105.727 124.256 109.238 121.395C111.649 119.428 113.144 116.841 114.044 113.889C114.159 113.511 114.228 113.109 114.628 112.713Z" fill="white"/>
<path fill-rule="evenodd" clip-rule="evenodd" d="M164.659 107.013C161.457 107.013 158.256 107.015 155.055 107.012C154.039 107.012 154.017 107.005 154.037 106.025C154.085 103.811 152.97 102.286 151.253 101.04C148.508 99.047 145.498 99.0597 142.376 99.726C141.518 99.9091 140.692 100.177 139.952 100.66C139.504 100.954 139.214 100.85 139.222 100.312C139.244 98.9773 138.916 97.6903 138.73 96.3848C138.427 94.261 137.85 92.2023 137.208 90.1603C136.625 88.3009 135.83 86.5266 135.01 84.7657C134.763 84.2347 135.014 84.0885 135.435 83.9888C140.23 82.8584 145.09 82.8999 149.961 83.208C152.48 83.3663 154.962 83.8034 157.389 84.4749C162.8 85.9715 167.579 88.5191 171.023 93.1145C172.637 95.2682 173.758 97.6747 174.423 100.299C174.909 102.214 175.302 104.13 175.316 106.117C175.321 106.806 175.1 107.031 174.415 107.026C171.163 106.998 167.912 107.013 164.659 107.013Z" fill="white"/>
<path fill-rule="evenodd" clip-rule="evenodd" d="M59.5364 68.5194C61.036 68.524 62.4434 68.7025 63.8398 69.0659C66.6045 69.784 68.7698 71.3929 70.4617 73.9826C70.8435 74.5659 71.1757 75.1976 71.4257 75.8489C71.493 76.0263 71.5558 76.2048 71.6318 76.3776C71.7084 76.5532 71.793 76.7686 71.9439 76.893C72.0913 77.015 72.3367 76.9563 72.4766 76.8434C72.658 76.6972 72.8146 76.4991 72.9782 76.3332C73.1463 76.1628 73.3133 75.9929 73.4809 75.8242C73.8166 75.4879 74.1547 75.1544 74.4979 74.8256C75.1791 74.1732 75.8799 73.542 76.6061 72.9397C77.3288 72.3402 78.0745 71.7707 78.8468 71.2369C79.6196 70.7002 80.4177 70.202 81.2354 69.7385C82.0584 69.2714 82.9008 68.8419 83.7456 68.4192C83.847 68.3679 83.9478 68.3132 84.0503 68.2654C85.2544 67.7097 86.485 67.215 87.7381 66.7791C88.542 66.4998 88.1066 66.6645 89.4167 66.0737C90.2068 65.7172 88.9318 63.5842 88.4827 62.8944C87.4323 61.2779 86.4309 59.6091 85.2123 58.1118C83.0972 55.5107 80.545 53.2879 77.5954 51.6783C76.3959 51.023 75.1233 50.4834 73.831 50.036C69.7297 48.6171 65.2795 47.9018 60.2263 47.8494C56.531 47.812 52.4643 47.7918 47.4307 47.7918C44.9291 47.7918 42.4276 47.7907 39.9266 47.7947C37.4274 47.7993 34.9287 47.7947 32.4295 47.7947H31.7569C30.7797 47.7947 30.2251 47.8039 29.6003 48.4466C28.9922 49.0714 29.2104 49.8419 29.2104 50.8226V89.4582C29.2104 89.4582 28.991 114.248 28.9922 122.841C28.9928 124.967 29.5658 125.651 31.6907 125.651C34.259 125.652 36.7726 125.656 39.3404 125.659C42.0441 125.662 44.7195 125.665 47.422 125.665C51.9857 125.665 55.7018 125.656 59.1454 125.638C61.2761 125.626 66.2423 125.216 66.2423 125.216C67.485 124.928 64.4071 119.563 63.3573 114.108C62.2355 108.28 62.8862 104.804 61.4857 104.889C60.7728 104.933 59.5508 105.042 58.7936 105.054C57.8728 105.069 56.8944 105.076 55.7231 105.076C54.7982 105.076 53.8596 105.071 52.9353 105.067C52.3675 105.064 51.0932 105.06 51.0932 105.06V86.8444L51.1162 82.3452C51.1191 77.8028 51.1427 73.1101 51.1214 68.4854C53.119 68.5159 55.1397 68.5159 57.0948 68.5165C57.9085 68.5176 58.7233 68.5176 59.5364 68.5194Z" fill="white"/>
<path d="M59.7031 171.487V148.913H64.6693V167.004H75.924V171.487H59.7031Z" fill="white"/>
<path d="M97.1226 176.735C96.6602 178.004 95.9991 179.063 95.1393 179.912C94.279 180.762 93.2367 181.395 92.0113 181.815C90.7858 182.235 89.4205 182.444 87.9157 182.444C84.8844 182.444 82.498 181.606 80.7566 179.929C79.0152 178.252 78.1445 175.747 78.1445 172.415V159.515H83.1108V172.286C83.1108 174.135 83.5409 175.527 84.4007 176.462C85.2604 177.398 86.4531 177.866 87.9802 177.866C89.5063 177.866 90.6995 177.414 91.5598 176.511C92.4196 175.608 92.8497 174.253 92.8497 172.447V159.515H97.8159V172.254C97.8159 173.973 97.5844 175.467 97.1226 176.735Z" fill="white"/>
<path d="M119.482 180.729C119.077 181.517 118.498 182.174 117.744 182.699C116.99 183.224 116.084 183.618 115.024 183.882C113.964 184.144 112.79 184.275 111.5 184.275H100.586V161.294H111.237C113.596 161.294 115.448 161.831 116.792 162.902C118.135 163.975 118.807 165.419 118.807 167.236V167.301C118.807 167.958 118.726 168.538 118.563 169.042C118.4 169.545 118.182 169.999 117.91 170.403C117.638 170.809 117.323 171.164 116.964 171.471C116.605 171.778 116.219 172.04 115.806 172.258C117.135 172.762 118.181 173.446 118.943 174.311C119.706 175.176 120.087 176.373 120.087 177.905V177.971C120.088 179.022 119.886 179.941 119.482 180.729ZM113.818 168.089C113.818 167.323 113.532 166.738 112.964 166.333C112.395 165.928 111.574 165.725 110.502 165.725H105.512V170.584H110.174C111.29 170.584 112.177 170.393 112.833 170.01C113.49 169.627 113.818 169.008 113.818 168.154L113.818 168.089ZM115.098 177.281C115.098 176.516 114.803 175.908 114.211 175.459C113.621 175.012 112.669 174.786 111.355 174.786H105.511V179.842H111.519C112.635 179.842 113.511 179.64 114.146 179.234C114.78 178.83 115.098 178.201 115.098 177.347V177.281H115.098Z" fill="white"/>
<path d="M57.4288 153.28C56.277 153.951 55.7478 154.501 54.9727 154.911C54.0801 155.384 52.918 155.621 51.6281 155.621C50.6607 155.621 49.7381 155.432 48.9319 155.057C48.1263 154.681 47.4197 154.169 46.8502 153.525C46.2801 152.88 45.9881 152.127 45.6656 151.268C45.3432 150.408 45.3351 149.494 45.3351 148.526V148.461C45.3351 147.494 45.3339 146.587 45.6564 145.737C45.9789 144.888 46.3492 144.141 46.9291 143.496C47.5095 142.85 48.1626 142.346 48.9688 141.98C49.7744 141.614 50.6301 141.432 51.5763 141.432C52.7159 141.432 53.874 141.658 54.7884 142.109C55.6378 142.529 56.2759 143.105 57.4276 143.822V137.966C56.8517 137.919 57.0907 137.864 56.9871 137.82C56.2776 137.52 55.4161 137.283 54.5454 137.111C53.6747 136.939 52.6767 136.853 51.6241 136.853C49.8827 136.853 48.2731 137.16 46.8335 137.772C45.3927 138.385 44.1482 139.224 43.1163 140.288C42.0844 141.351 41.4405 142.588 40.8601 143.996C40.2796 145.404 40.1523 146.914 40.1523 148.527V148.591C40.1523 150.203 40.2756 151.719 40.856 153.138C41.4365 154.556 42.1592 155.788 43.1912 156.83C44.2231 157.873 45.4065 158.695 46.8254 159.297C48.2443 159.899 49.7606 160.2 51.4162 160.2C52.5126 160.2 53.4916 160.108 54.3732 159.925C55.2543 159.743 56.2033 159.474 56.945 159.119C57.0654 159.061 56.8529 158.991 57.4288 158.93V153.28Z" fill="white"/>
<path d="M93.6988 38.2296C95.7772 38.2296 97.4621 36.5447 97.4621 34.4663C97.4621 32.3879 95.7772 30.7031 93.6988 30.7031C91.6204 30.7031 89.9355 32.3879 89.9355 34.4663C89.9355 36.5447 91.6204 38.2296 93.6988 38.2296Z" fill="white"/>
<path opacity="0.8" d="M109.788 39.8936C113.027 39.8936 115.653 37.2674 115.653 34.0279C115.653 30.7883 113.027 28.1622 109.788 28.1622C106.548 28.1622 103.922 30.7883 103.922 34.0279C103.922 37.2674 106.548 39.8936 109.788 39.8936Z" fill="white"/>
<path opacity="0.6" d="M125.55 44.0652C129.308 44.0652 132.355 41.0183 132.355 37.2597C132.355 33.5011 129.308 30.4542 125.55 30.4542C121.791 30.4542 118.744 33.5011 118.744 37.2597C118.744 41.0183 121.791 44.0652 125.55 44.0652Z" fill="white"/>
<path opacity="0.4" d="M140.146 50.8061C143.887 50.8061 146.92 47.7736 146.92 44.0328C146.92 40.292 143.887 37.2595 140.146 37.2595C136.406 37.2595 133.373 40.292 133.373 44.0328C133.373 47.7736 136.406 50.8061 140.146 50.8061Z" fill="white"/>
<path opacity="0.2" d="M152.806 59.7171C155.983 59.7171 158.558 57.1414 158.558 53.9642C158.558 50.787 155.983 48.2114 152.806 48.2114C149.628 48.2114 147.053 50.787 147.053 53.9642C147.053 57.1414 149.628 59.7171 152.806 59.7171Z" fill="white"/>
<path opacity="0.1" d="M162.874 70.057C164.83 70.057 166.416 68.4711 166.416 66.5148C166.416 64.5586 164.83 62.9727 162.874 62.9727C160.918 62.9727 159.332 64.5586 159.332 66.5148C159.332 68.4711 160.918 70.057 162.874 70.057Z" fill="white"/>
<defs>
<linearGradient id="paint0_linear_415_2566" x1="0.000230344" y1="103.655" x2="207.31" y2="103.655" gradientUnits="userSpaceOnUse">
<stop stop-color="#1692C8"/>
<stop offset="1" stop-color="#00B457"/>
</linearGradient>
</defs>
</svg>
