<svg width="876" height="856" viewBox="0 0 876 856" fill="none" xmlns="http://www.w3.org/2000/svg">
<path d="M718.977 5.58305e-05C471.535 -0.0489873 270.905 200.579 270.855 448.117C270.824 609.814 357.854 758.995 498.602 838.497C502.902 840.975 508.021 841.609 512.796 840.254C517.537 838.93 521.564 835.787 524.001 831.51L662.202 587.172C667.27 578.194 664.112 566.805 655.142 561.726C592.192 526.355 569.823 446.629 605.182 383.654C640.54 320.679 720.234 298.301 783.184 333.674C846.134 369.046 868.503 448.771 833.145 511.746C821.393 532.678 804.107 549.969 783.184 561.726C774.215 566.805 771.056 578.194 776.125 587.172L913.952 831.51C916.382 835.801 920.411 838.959 925.158 840.291C926.784 840.762 928.469 841.002 930.163 841C933.385 840.996 936.55 840.159 939.352 838.571C1154.86 716.937 1231 443.56 1109.41 227.966C1029.94 87.0498 880.712 -0.080515 718.977 5.58305e-05Z" fill="#4CAF50"/>
<path d="M718.977 5.58305e-05C471.535 -0.0489873 270.905 200.579 270.855 448.117C270.824 609.814 357.854 758.995 498.602 838.497C502.902 840.975 508.021 841.609 512.796 840.254C517.537 838.93 521.564 835.787 524.001 831.51L662.202 587.172C667.27 578.194 664.112 566.805 655.142 561.726C592.192 526.355 569.823 446.629 605.182 383.654C640.54 320.679 720.234 298.301 783.184 333.674C846.134 369.046 868.503 448.771 833.145 511.746C821.393 532.678 804.107 549.969 783.184 561.726C774.215 566.805 771.056 578.194 776.125 587.172L913.952 831.51C916.382 835.801 920.411 838.959 925.158 840.291C926.784 840.762 928.469 841.002 930.163 841C933.385 840.996 936.55 840.159 939.352 838.571C1154.86 716.937 1231 443.56 1109.41 227.966C1029.94 87.0498 880.712 -0.080515 718.977 5.58305e-05Z" fill="#4CAF50"/>
<path d="M242.216 848.5C371.854 848.5 476.933 743.301 476.933 613.548C476.933 483.795 371.854 378.595 242.216 378.595C112.579 378.595 7.5 483.795 7.5 613.548C7.5 743.301 112.579 848.5 242.216 848.5Z" fill="url(#paint0_linear_316_847)" stroke="white" stroke-width="15"/>
<path fill-rule="evenodd" clip-rule="evenodd" d="M266.273 633.424C267.179 635.581 267.771 637.618 268.646 639.55C272.173 647.317 277.982 652.929 285.14 657.286C290.065 660.283 295.337 662.54 300.75 664.484C303.373 665.423 303.368 665.377 301.772 667.624C295.985 675.769 288.795 682.416 280.278 687.603C273.997 691.424 267.246 694.127 260.165 696.183C249.57 699.259 238.748 699.586 227.932 698.869C215.52 698.044 203.782 694.401 193.068 687.948C180.883 680.609 171.501 670.59 165.053 657.856C163.299 654.395 161.939 650.796 160.572 647.159C158.588 641.895 157.311 636.516 156.451 631.019C155.285 623.532 154.891 616.007 155.491 608.415C155.887 603.388 156.464 598.395 157.574 593.487C160.444 580.774 165.702 569.191 174.038 559.075C181.159 550.432 189.829 543.814 199.932 539.091C205.077 536.685 210.48 535.018 216.025 533.665C222.297 532.133 228.666 531.602 235.029 531.384C240.466 531.199 245.93 531.743 251.354 532.649C255.682 533.371 259.899 534.373 264.062 535.707C270.809 537.867 277.186 540.776 283.051 544.795C291.887 550.85 299.167 558.384 304.8 567.507C308.935 574.208 312.046 581.363 314.069 588.967C316.083 596.548 317.563 604.225 317.32 612.117C317.145 617.883 320.178 621.394 325.019 623.775C329.6 626.025 334.451 627.489 339.378 628.746C344.033 629.933 348.651 631.266 353.32 632.386C357.304 633.34 361.264 634.37 365.171 635.585C376.424 639.082 387.231 643.408 395.594 652.215C400.781 657.682 403.887 664.103 405.312 671.536C406.417 677.289 406.481 683.01 405.701 688.709C403.799 702.619 397.26 713.808 385.629 721.915C379.188 726.405 372.15 729.468 364.657 731.698C358.185 733.625 351.581 734.93 344.896 735.376C338.757 735.788 332.626 736.598 326.378 735.766C322.17 735.206 317.882 735.008 313.7 734.204C301.706 731.903 290.421 727.814 280.765 720.077C273.897 714.579 268.713 707.763 265.552 699.466C265.168 698.454 265.258 698.025 266.299 697.636C271.112 695.841 275.812 693.782 280.278 691.216C285.85 688.016 290.985 684.232 295.491 679.645C296.668 678.448 297.863 677.95 299.534 678.012C302.819 678.132 306.115 678.123 309.402 678.017C311.006 677.964 311.347 678.55 311.472 680.083C311.947 685.852 313.119 691.379 318.039 695.257C320.581 697.261 323.494 698.403 326.61 699.122C331.736 700.301 336.956 700.588 342.095 699.7C347.328 698.794 352.454 697.147 355.074 691.875C357.962 686.064 357.12 680.624 350.656 677.184C346.443 674.944 341.891 673.624 337.361 672.244C332.192 670.669 327.016 669.114 321.831 667.595C318.113 666.503 314.359 665.535 310.648 664.422C300.941 661.512 291.358 658.264 283.088 652.16C276.533 647.325 271.776 641.166 269.629 633.137C268.749 629.843 268.227 626.54 268.078 623.134C267.876 618.418 268.085 613.675 267.683 608.993C266.877 599.656 264.953 590.598 259.044 582.895C255.059 577.702 249.885 574.165 243.61 572.661C232.921 570.106 223.476 572.713 215.706 580.647C211.719 584.72 209.296 589.718 207.656 595.125C205.392 602.588 204.496 610.273 204.888 618.005C205.344 627.04 206.582 635.975 211.275 644.037C215.251 650.872 220.801 655.732 228.513 657.718C237.952 660.15 246.761 658.755 254.459 652.477C259.744 648.16 263.021 642.483 264.994 636.005C265.245 635.175 265.396 634.295 266.273 633.424Z" fill="white"/>
<path fill-rule="evenodd" clip-rule="evenodd" d="M375.945 620.918C368.926 620.918 361.909 620.922 354.892 620.915C352.665 620.915 352.616 620.901 352.662 618.751C352.766 613.891 350.321 610.545 346.558 607.812C340.542 603.438 333.943 603.466 327.099 604.928C325.219 605.33 323.409 605.917 321.785 606.978C320.803 607.623 320.167 607.395 320.186 606.214C320.234 603.285 319.516 600.461 319.108 597.596C318.444 592.936 317.178 588.419 315.772 583.938C314.493 579.858 312.751 575.964 310.952 572.1C310.411 570.935 310.961 570.614 311.885 570.396C322.396 567.915 333.048 568.006 343.726 568.682C349.248 569.03 354.689 569.989 360.008 571.462C371.869 574.746 382.346 580.337 389.895 590.42C393.433 595.146 395.891 600.427 397.349 606.185C398.414 610.387 399.275 614.591 399.305 618.953C399.317 620.464 398.832 620.957 397.33 620.946C390.203 620.886 383.074 620.918 375.945 620.918Z" fill="white"/>
<path fill-rule="evenodd" clip-rule="evenodd" d="M145.509 536.449C148.796 536.459 151.881 536.851 154.942 537.648C161.003 539.224 165.749 542.754 169.458 548.437C170.295 549.717 171.023 551.103 171.571 552.532C171.718 552.921 171.856 553.313 172.023 553.692C172.191 554.078 172.376 554.55 172.707 554.823C173.03 555.091 173.568 554.962 173.874 554.714C174.272 554.393 174.615 553.959 174.974 553.595C175.343 553.221 175.709 552.848 176.076 552.478C176.812 551.74 177.553 551.008 178.305 550.287C179.798 548.855 181.335 547.47 182.926 546.148C184.511 544.833 186.145 543.583 187.838 542.412C189.532 541.234 191.282 540.141 193.074 539.124C194.878 538.099 196.725 537.156 198.577 536.229C198.799 536.116 199.02 535.996 199.244 535.892C201.884 534.672 204.581 533.587 207.328 532.63C209.09 532.017 208.136 532.379 211.008 531.082C212.74 530.3 209.945 525.62 208.96 524.106C206.658 520.559 204.463 516.897 201.792 513.611C197.155 507.904 191.561 503.026 185.095 499.494C182.466 498.056 179.676 496.872 176.843 495.89C167.853 492.777 158.098 491.207 147.021 491.092C138.921 491.01 130.007 490.966 118.973 490.966C113.489 490.966 108.006 490.963 102.523 490.972C97.045 490.982 91.5679 490.972 86.0894 490.972H84.6151C82.4729 490.972 81.2573 490.992 79.8877 492.403C78.5547 493.774 79.0331 495.464 79.0331 497.616V582.395C79.0331 582.395 78.5522 636.793 78.5547 655.649C78.556 660.313 79.812 661.814 84.4699 661.814C90.0998 661.817 95.6098 661.824 101.238 661.831C107.165 661.838 113.03 661.845 118.954 661.845C128.958 661.845 137.103 661.826 144.652 661.786C149.322 661.76 160.209 660.86 160.209 660.86C162.933 660.228 156.186 648.455 153.884 636.485C151.425 623.697 152.852 616.068 149.782 616.255C148.219 616.353 145.541 616.59 143.881 616.618C141.862 616.65 139.718 616.665 137.15 616.665C135.123 616.665 133.065 616.655 131.039 616.646C129.794 616.64 127.001 616.631 127.001 616.631V576.66L127.051 566.787C127.058 556.82 127.11 546.522 127.063 536.374C131.442 536.441 135.871 536.441 140.157 536.442C141.94 536.445 143.727 536.445 145.509 536.449Z" fill="white"/>
<path d="M145.873 762.394V712.86H156.759V752.558H181.43V762.394H145.873Z" fill="white"/>
<path d="M227.896 773.911C226.882 776.694 225.433 779.018 223.548 780.882C221.662 782.747 219.378 784.136 216.691 785.057C214.005 785.978 211.012 786.437 207.714 786.437C201.069 786.437 195.838 784.598 192.021 780.919C188.204 777.239 186.295 771.742 186.295 764.43V736.125H197.181V764.148C197.181 768.205 198.124 771.26 200.009 773.312C201.893 775.364 204.508 776.391 207.855 776.391C211.2 776.391 213.816 775.399 215.702 773.418C217.586 771.438 218.529 768.464 218.529 764.502V736.125H229.416V764.077C229.416 767.849 228.908 771.128 227.896 773.911Z" fill="white"/>
<path d="M276.909 782.675C276.022 784.403 274.753 785.845 273.1 786.998C271.448 788.15 269.46 789.014 267.137 789.592C264.814 790.167 262.239 790.456 259.413 790.456H235.488V740.027H258.836C264.006 740.027 268.066 741.205 271.012 743.557C273.957 745.911 275.43 749.08 275.43 753.065V753.209C275.43 754.651 275.251 755.922 274.894 757.028C274.537 758.134 274.06 759.128 273.464 760.017C272.868 760.906 272.177 761.686 271.39 762.359C270.602 763.033 269.758 763.608 268.851 764.087C271.765 765.192 274.057 766.694 275.728 768.59C277.4 770.488 278.235 773.117 278.235 776.478V776.622C278.238 778.928 277.795 780.946 276.909 782.675ZM264.492 754.938C264.492 753.258 263.868 751.974 262.622 751.084C261.375 750.197 259.574 749.751 257.225 749.751H246.286V760.413H256.506C258.952 760.413 260.896 759.994 262.335 759.152C263.775 758.312 264.494 756.955 264.494 755.081L264.492 754.938ZM267.3 775.108C267.3 773.429 266.652 772.096 265.356 771.11C264.061 770.128 261.974 769.634 259.095 769.634H246.285V780.727H259.455C261.901 780.727 263.82 780.284 265.212 779.394C266.603 778.507 267.299 777.126 267.299 775.253V775.108H267.3Z" fill="white"/>
<path d="M140.886 722.442C138.362 723.916 137.202 725.121 135.503 726.022C133.546 727.059 130.999 727.579 128.171 727.579C126.05 727.579 124.028 727.166 122.261 726.342C120.495 725.517 118.946 724.394 117.698 722.98C116.448 721.564 115.808 719.914 115.101 718.027C114.394 716.14 114.376 714.135 114.376 712.011V711.869C114.376 709.746 114.374 707.755 115.081 705.891C115.788 704.027 116.599 702.388 117.871 700.973C119.143 699.557 120.574 698.45 122.342 697.646C124.108 696.844 125.983 696.444 128.057 696.444C130.556 696.444 133.094 696.94 135.099 697.93C136.96 698.852 138.359 700.115 140.884 701.69V688.839C139.621 688.736 140.145 688.615 139.918 688.519C138.363 687.859 136.474 687.34 134.566 686.963C132.657 686.586 130.47 686.396 128.162 686.396C124.345 686.396 120.817 687.07 117.661 688.414C114.503 689.757 111.775 691.6 109.513 693.934C107.251 696.267 105.839 698.982 104.567 702.07C103.295 705.16 103.016 708.474 103.016 712.012V712.154C103.016 715.692 103.286 719.018 104.558 722.131C105.831 725.244 107.415 727.946 109.677 730.232C111.939 732.522 114.533 734.325 117.643 735.646C120.754 736.966 124.077 737.627 127.706 737.627C130.11 737.627 132.256 737.425 134.188 737.024C136.12 736.625 138.2 736.035 139.826 735.255C140.09 735.129 139.624 734.973 140.886 734.84V722.442Z" fill="white"/>
<path d="M220.39 469.984C224.946 469.984 228.639 466.286 228.639 461.726C228.639 457.165 224.946 453.468 220.39 453.468C215.834 453.468 212.141 457.165 212.141 461.726C212.141 466.286 215.834 469.984 220.39 469.984Z" fill="white"/>
<path opacity="0.8" d="M255.659 473.635C262.76 473.635 268.517 467.872 268.517 460.764C268.517 453.655 262.76 447.893 255.659 447.893C248.557 447.893 242.801 453.655 242.801 460.764C242.801 467.872 248.557 473.635 255.659 473.635Z" fill="white"/>
<path opacity="0.6" d="M290.209 482.79C298.448 482.79 305.127 476.104 305.127 467.856C305.127 459.609 298.448 452.923 290.209 452.923C281.97 452.923 275.291 459.609 275.291 467.856C275.291 476.104 281.97 482.79 290.209 482.79Z" fill="white"/>
<path opacity="0.4" d="M322.207 497.581C330.407 497.581 337.054 490.927 337.054 482.718C337.054 474.51 330.407 467.855 322.207 467.855C314.007 467.855 307.359 474.51 307.359 482.718C307.359 490.927 314.007 497.581 322.207 497.581Z" fill="white"/>
<path opacity="0.2" d="M349.958 517.133C356.923 517.133 362.569 511.482 362.569 504.51C362.569 497.538 356.923 491.886 349.958 491.886C342.994 491.886 337.348 497.538 337.348 504.51C337.348 511.482 342.994 517.133 349.958 517.133Z" fill="white"/>
<path opacity="0.1" d="M372.026 539.824C376.314 539.824 379.791 536.344 379.791 532.052C379.791 527.759 376.314 524.279 372.026 524.279C367.738 524.279 364.262 527.759 364.262 532.052C364.262 536.344 367.738 539.824 372.026 539.824Z" fill="white"/>
<defs>
<linearGradient id="paint0_linear_316_847" x1="15.0005" y1="613.548" x2="469.433" y2="613.548" gradientUnits="userSpaceOnUse">
<stop stop-color="#1692C8"/>
<stop offset="1" stop-color="#00B457"/>
</linearGradient>
</defs>
</svg>
