<svg width="1120" height="820" viewBox="0 0 1120 820" fill="none" xmlns="http://www.w3.org/2000/svg">
<path d="M689.545 5.34406e-05C452.449 -0.0468903 260.207 191.993 260.16 428.935C260.13 583.711 343.521 726.505 478.384 802.604C482.504 804.977 487.41 805.583 491.985 804.286C496.528 803.018 500.386 800.011 502.722 795.916L635.144 562.038C640 553.443 636.974 542.542 628.379 537.68C568.061 503.824 546.627 427.51 580.507 367.231C614.388 306.952 690.749 285.532 751.067 319.39C811.386 353.248 832.819 429.561 798.939 489.84C787.679 509.876 771.115 526.427 751.067 537.68C742.473 542.542 739.446 553.443 744.303 562.038L876.368 795.916C878.696 800.024 882.557 803.047 887.105 804.321C888.663 804.772 890.277 805.002 891.901 805C894.988 804.997 898.021 804.195 900.706 802.675C1107.2 686.247 1180.16 424.573 1063.65 218.208C987.502 83.3236 844.518 -0.0770684 689.545 5.34406e-05Z" fill="#4CAF50"/>
<path d="M689.545 5.34406e-05C452.449 -0.0468903 260.207 191.993 260.16 428.935C260.13 583.711 343.521 726.505 478.384 802.604C482.504 804.977 487.41 805.583 491.985 804.286C496.528 803.018 500.386 800.011 502.722 795.916L635.144 562.038C640 553.443 636.974 542.542 628.379 537.68C568.061 503.824 546.627 427.51 580.507 367.231C614.388 306.952 690.749 285.532 751.067 319.39C811.386 353.248 832.819 429.561 798.939 489.84C787.679 509.876 771.115 526.427 751.067 537.68C742.473 542.542 739.446 553.443 744.303 562.038L876.368 795.916C878.696 800.024 882.557 803.047 887.105 804.321C888.663 804.772 890.277 805.002 891.901 805C894.988 804.997 898.021 804.195 900.706 802.675C1107.2 686.247 1180.16 424.573 1063.65 218.208C987.502 83.3236 844.518 -0.0770684 689.545 5.34406e-05Z" fill="#4CAF50"/>
<path d="M232.716 812.5C357.099 812.5 457.932 711.668 457.932 587.284C457.932 462.901 357.099 362.068 232.716 362.068C108.333 362.068 7.5 462.901 7.5 587.284C7.5 711.668 108.333 812.5 232.716 812.5Z" fill="url(#paint0_linear_306_866)" stroke="white" stroke-width="15"/>
<path fill-rule="evenodd" clip-rule="evenodd" d="M255.766 606.31C256.634 608.374 257.201 610.324 258.04 612.173C261.419 619.608 266.985 624.98 273.844 629.15C278.563 632.019 283.615 634.18 288.802 636.04C291.315 636.939 291.31 636.895 289.781 639.046C284.236 646.842 277.346 653.204 269.185 658.169C263.167 661.827 256.698 664.414 249.914 666.382C239.761 669.326 229.392 669.639 219.028 668.954C207.135 668.164 195.888 664.677 185.622 658.5C173.947 651.475 164.956 641.884 158.778 629.696C157.098 626.383 155.794 622.938 154.484 619.457C152.584 614.418 151.36 609.269 150.536 604.008C149.419 596.841 149.041 589.639 149.616 582.372C149.996 577.559 150.548 572.78 151.612 568.082C154.362 555.913 159.4 544.827 167.387 535.143C174.21 526.87 182.519 520.536 192.199 516.014C197.129 513.711 202.305 512.116 207.619 510.821C213.629 509.355 219.731 508.847 225.828 508.637C231.038 508.461 236.274 508.981 241.471 509.848C245.618 510.54 249.659 511.499 253.648 512.775C260.113 514.843 266.223 517.628 271.843 521.474C280.309 527.27 287.285 534.481 292.682 543.214C296.644 549.628 299.626 556.477 301.563 563.756C303.494 571.012 304.911 578.361 304.679 585.914C304.511 591.434 307.418 594.795 312.056 597.074C316.445 599.228 321.094 600.628 325.814 601.832C330.275 602.968 334.7 604.244 339.174 605.316C342.991 606.23 346.785 607.215 350.529 608.378C361.312 611.726 371.667 615.866 379.68 624.297C384.65 629.529 387.626 635.676 388.992 642.79C390.05 648.297 390.112 653.773 389.365 659.228C387.542 672.542 381.276 683.253 370.132 691.013C363.96 695.311 357.216 698.243 350.037 700.377C343.835 702.222 337.507 703.47 331.101 703.897C325.219 704.291 319.345 705.067 313.358 704.271C309.326 703.735 305.217 703.545 301.21 702.776C289.717 700.573 278.904 696.659 269.652 689.253C263.071 683.991 258.104 677.466 255.075 669.525C254.707 668.556 254.793 668.146 255.791 667.773C260.403 666.054 264.906 664.084 269.185 661.628C274.524 658.565 279.445 654.942 283.763 650.552C284.89 649.406 286.035 648.93 287.637 648.989C290.784 649.104 293.942 649.096 297.092 648.994C298.629 648.943 298.956 649.504 299.075 650.972C299.53 656.493 300.654 661.784 305.367 665.496C307.803 667.414 310.595 668.507 313.58 669.196C318.492 670.324 323.493 670.599 328.417 669.748C333.432 668.881 338.344 667.305 340.854 662.259C343.621 656.696 342.814 651.489 336.62 648.197C332.584 646.052 328.223 644.788 323.882 643.468C318.929 641.961 313.97 640.472 309.001 639.018C305.439 637.973 301.842 637.046 298.286 635.981C288.984 633.195 279.803 630.087 271.878 624.243C265.597 619.616 261.039 613.72 258.982 606.035C258.139 602.882 257.638 599.72 257.495 596.46C257.302 591.946 257.503 587.406 257.117 582.924C256.345 573.987 254.502 565.317 248.84 557.944C245.021 552.973 240.063 549.587 234.051 548.148C223.809 545.702 214.759 548.198 207.313 555.792C203.493 559.691 201.171 564.474 199.6 569.65C197.431 576.793 196.572 584.15 196.947 591.551C197.385 600.199 198.57 608.752 203.067 616.468C206.878 623.011 212.196 627.663 219.585 629.564C228.63 631.891 237.07 630.556 244.446 624.547C249.51 620.415 252.65 614.981 254.54 608.781C254.781 607.986 254.926 607.143 255.766 606.31Z" fill="white"/>
<path fill-rule="evenodd" clip-rule="evenodd" d="M360.853 594.339C354.128 594.339 347.404 594.342 340.681 594.336C338.547 594.336 338.5 594.323 338.543 592.265C338.644 587.613 336.301 584.41 332.695 581.794C326.931 577.607 320.607 577.634 314.049 579.033C312.248 579.418 310.514 579.98 308.958 580.995C308.017 581.613 307.408 581.394 307.426 580.265C307.472 577.461 306.784 574.758 306.393 572.016C305.757 567.555 304.543 563.231 303.196 558.942C301.971 555.036 300.302 551.31 298.578 547.611C298.059 546.496 298.587 546.189 299.472 545.979C309.544 543.605 319.75 543.692 329.981 544.339C335.273 544.672 340.486 545.59 345.583 547C356.948 550.144 366.987 555.495 374.22 565.147C377.61 569.67 379.965 574.725 381.362 580.237C382.383 584.259 383.208 588.283 383.237 592.458C383.248 593.905 382.783 594.376 381.344 594.365C374.515 594.309 367.685 594.339 360.853 594.339Z" fill="white"/>
<path fill-rule="evenodd" clip-rule="evenodd" d="M140.051 513.485C143.201 513.495 146.157 513.87 149.09 514.633C154.897 516.142 159.445 519.521 162.999 524.96C163.801 526.186 164.498 527.512 165.023 528.88C165.165 529.253 165.297 529.628 165.456 529.991C165.617 530.36 165.795 530.812 166.112 531.073C166.422 531.33 166.937 531.206 167.231 530.969C167.612 530.662 167.941 530.246 168.284 529.898C168.637 529.54 168.988 529.183 169.34 528.828C170.045 528.122 170.755 527.422 171.476 526.731C172.907 525.361 174.379 524.035 175.904 522.77C177.422 521.511 178.989 520.314 180.611 519.193C182.234 518.066 183.91 517.02 185.628 516.046C187.356 515.065 189.126 514.163 190.9 513.275C191.113 513.167 191.325 513.052 191.54 512.952C194.069 511.785 196.654 510.746 199.286 509.83C200.974 509.244 200.06 509.59 202.812 508.349C204.471 507.6 201.793 503.12 200.85 501.671C198.644 498.276 196.54 494.77 193.981 491.626C189.538 486.162 184.178 481.493 177.982 478.113C175.463 476.736 172.79 475.603 170.076 474.663C161.461 471.683 152.114 470.181 141.5 470.07C133.739 469.992 125.197 469.95 114.625 469.95C109.37 469.95 104.116 469.947 98.8631 469.956C93.6137 469.965 88.3656 469.956 83.1162 469.956H81.7035C79.6509 469.956 78.4861 469.975 77.1738 471.325C75.8965 472.637 76.3549 474.255 76.3549 476.315V557.465C76.3549 557.465 75.8941 609.534 75.8965 627.583C75.8977 632.048 77.1012 633.484 81.5644 633.484C86.9589 633.487 92.2385 633.494 97.6318 633.5C103.311 633.507 108.93 633.513 114.606 633.513C124.192 633.513 131.997 633.495 139.23 633.458C143.705 633.432 154.136 632.571 154.136 632.571C156.747 631.966 150.282 620.697 148.077 609.239C145.72 596.999 147.087 589.697 144.146 589.876C142.648 589.969 140.082 590.196 138.491 590.223C136.557 590.253 134.502 590.268 132.042 590.268C130.099 590.268 128.128 590.258 126.186 590.25C124.994 590.244 122.317 590.235 122.317 590.235V551.975L122.366 542.525C122.372 532.984 122.421 523.128 122.376 513.414C126.572 513.478 130.817 513.478 134.923 513.479C136.632 513.482 138.343 513.482 140.051 513.485Z" fill="white"/>
<path d="M140.4 729.759V682.345H150.831V720.344H174.471V729.759H140.4Z" fill="white"/>
<path d="M218.994 740.782C218.023 743.447 216.634 745.671 214.829 747.455C213.022 749.241 210.832 750.57 208.258 751.452C205.684 752.333 202.817 752.773 199.656 752.773C193.289 752.773 188.277 751.013 184.619 747.491C180.962 743.968 179.133 738.707 179.133 731.707V704.614H189.564V731.438C189.564 735.321 190.467 738.245 192.273 740.209C194.079 742.173 196.584 743.157 199.792 743.157C202.997 743.157 205.503 742.207 207.31 740.311C209.116 738.415 210.019 735.569 210.019 731.776V704.614H220.45V731.37C220.45 734.98 219.964 738.119 218.994 740.782Z" fill="white"/>
<path d="M265.958 749.172C265.109 750.826 263.892 752.207 262.309 753.31C260.726 754.413 258.821 755.24 256.595 755.793C254.369 756.343 251.902 756.62 249.194 756.62H226.27V708.35H248.641C253.595 708.35 257.485 709.477 260.308 711.728C263.13 713.982 264.542 717.015 264.542 720.83V720.968C264.542 722.348 264.37 723.565 264.028 724.623C263.685 725.682 263.228 726.633 262.657 727.484C262.086 728.335 261.425 729.081 260.67 729.726C259.915 730.371 259.106 730.921 258.237 731.38C261.029 732.438 263.226 733.875 264.827 735.69C266.428 737.507 267.229 740.023 267.229 743.24V743.378C267.232 745.586 266.807 747.517 265.958 749.172ZM254.061 722.623C254.061 721.014 253.462 719.785 252.268 718.934C251.073 718.084 249.349 717.657 247.098 717.657H236.616V727.864H246.408C248.752 727.864 250.615 727.462 251.994 726.656C253.374 725.852 254.062 724.553 254.062 722.759L254.061 722.623ZM256.751 741.929C256.751 740.322 256.13 739.046 254.888 738.102C253.647 737.162 251.648 736.689 248.889 736.689H236.615V747.308H249.234C251.578 747.308 253.416 746.883 254.75 746.032C256.083 745.183 256.75 743.861 256.75 742.068V741.929H256.751Z" fill="white"/>
<path d="M135.623 691.517C133.204 692.928 132.093 694.082 130.464 694.944C128.59 695.937 126.149 696.434 123.44 696.434C121.408 696.434 119.47 696.039 117.776 695.25C116.084 694.46 114.6 693.386 113.404 692.033C112.207 690.677 111.593 689.097 110.916 687.291C110.239 685.485 110.222 683.566 110.222 681.533V681.397C110.222 679.365 110.219 677.459 110.897 675.675C111.574 673.891 112.352 672.322 113.57 670.967C114.789 669.611 116.161 668.552 117.854 667.783C119.546 667.015 121.343 666.632 123.331 666.632C125.724 666.632 128.157 667.107 130.077 668.055C131.861 668.937 133.202 670.146 135.621 671.653V659.352C134.411 659.254 134.913 659.138 134.695 659.046C133.205 658.415 131.396 657.918 129.567 657.557C127.738 657.196 125.642 657.014 123.431 657.014C119.773 657.014 116.393 657.659 113.369 658.946C110.343 660.232 107.729 661.995 105.561 664.229C103.394 666.463 102.042 669.061 100.822 672.017C99.6032 674.975 99.3359 678.147 99.3359 681.534V681.669C99.3359 685.056 99.5948 688.239 100.814 691.22C102.033 694.199 103.551 696.786 105.719 698.974C107.886 701.166 110.372 702.892 113.352 704.156C116.332 705.42 119.517 706.052 122.994 706.052C125.297 706.052 127.354 705.859 129.205 705.475C131.056 705.093 133.049 704.528 134.607 703.782C134.86 703.661 134.414 703.512 135.623 703.384V691.517Z" fill="white"/>
<path d="M211.803 449.866C216.168 449.866 219.707 446.327 219.707 441.961C219.707 437.596 216.168 434.057 211.803 434.057C207.437 434.057 203.898 437.596 203.898 441.961C203.898 446.327 207.437 449.866 211.803 449.866Z" fill="white"/>
<path opacity="0.8" d="M245.596 453.361C252.4 453.361 257.916 447.845 257.916 441.041C257.916 434.236 252.4 428.72 245.596 428.72C238.791 428.72 233.275 434.236 233.275 441.041C233.275 447.845 238.791 453.361 245.596 453.361Z" fill="white"/>
<path opacity="0.6" d="M278.702 462.124C286.597 462.124 292.997 455.724 292.997 447.829C292.997 439.935 286.597 433.535 278.702 433.535C270.808 433.535 264.408 439.935 264.408 447.829C264.408 455.724 270.808 462.124 278.702 462.124Z" fill="white"/>
<path opacity="0.4" d="M309.361 476.282C317.218 476.282 323.588 469.912 323.588 462.055C323.588 454.198 317.218 447.829 309.361 447.829C301.504 447.829 295.135 454.198 295.135 462.055C295.135 469.912 301.504 476.282 309.361 476.282Z" fill="white"/>
<path opacity="0.2" d="M335.952 494.997C342.626 494.997 348.036 489.587 348.036 482.914C348.036 476.24 342.626 470.831 335.952 470.831C329.279 470.831 323.869 476.24 323.869 482.914C323.869 489.587 329.279 494.997 335.952 494.997Z" fill="white"/>
<path opacity="0.1" d="M357.098 516.717C361.207 516.717 364.538 513.386 364.538 509.277C364.538 505.168 361.207 501.837 357.098 501.837C352.989 501.837 349.658 505.168 349.658 509.277C349.658 513.386 352.989 516.717 357.098 516.717Z" fill="white"/>
<defs>
<linearGradient id="paint0_linear_306_866" x1="15.0005" y1="587.284" x2="450.432" y2="587.284" gradientUnits="userSpaceOnUse">
<stop stop-color="#1692C8"/>
<stop offset="1" stop-color="#00B457"/>
</linearGradient>
</defs>
</svg>
