<svg width="904" height="605" viewBox="0 0 904 605" fill="none" xmlns="http://www.w3.org/2000/svg">
<path d="M452.424 4.01634e-05C274.389 -0.0352405 130.035 144.293 130 322.367C129.977 438.689 192.595 546.007 293.864 603.199C296.958 604.982 300.641 605.438 304.076 604.463C307.488 603.511 310.385 601.25 312.139 598.173L411.574 422.401C415.221 415.942 412.949 407.749 406.495 404.095C361.202 378.65 345.108 321.296 370.548 275.993C395.989 230.691 453.328 214.592 498.621 240.039C543.914 265.485 560.009 322.837 534.568 368.14C526.113 383.199 513.675 395.638 498.621 404.095C492.168 407.749 489.895 415.942 493.542 422.401L592.709 598.173C594.458 601.26 597.356 603.532 600.771 604.49C601.942 604.829 603.154 605.001 604.373 605C606.691 604.997 608.969 604.395 610.984 603.252C766.042 515.751 820.824 319.089 733.342 163.995C676.16 62.622 568.793 -0.057921 452.424 4.01634e-05Z" fill="#4CAF50"/>
<path d="M452.424 4.01634e-05C274.389 -0.0352405 130.035 144.293 130 322.367C129.977 438.689 192.595 546.007 293.864 603.199C296.958 604.982 300.641 605.438 304.076 604.463C307.488 603.511 310.385 601.25 312.139 598.173L411.574 422.401C415.221 415.942 412.949 407.749 406.495 404.095C361.202 378.65 345.108 321.296 370.548 275.993C395.989 230.691 453.328 214.592 498.621 240.039C543.914 265.485 560.009 322.837 534.568 368.14C526.113 383.199 513.675 395.638 498.621 404.095C492.168 407.749 489.895 415.942 493.542 422.401L592.709 598.173C594.458 601.26 597.356 603.532 600.771 604.49C601.942 604.829 603.154 605.001 604.373 605C606.691 604.997 608.969 604.395 610.984 603.252C766.042 515.751 820.824 319.089 733.342 163.995C676.16 62.622 568.793 -0.057921 452.424 4.01634e-05Z" fill="#4CAF50"/>
<path d="M276 158C276 221.513 224.513 273 161 273C97.4873 273 46 221.513 46 158C46 94.4873 97.4873 43 161 43C224.513 43 276 94.4873 276 158Z" fill="url(#paint0_linear_275_857)" stroke="white" stroke-width="8"/>
<path fill-rule="evenodd" clip-rule="evenodd" d="M173.599 168.399C174.074 169.527 174.384 170.593 174.842 171.604C176.689 175.668 179.731 178.604 183.48 180.883C186.059 182.452 188.821 183.632 191.656 184.649C193.03 185.14 193.027 185.116 192.191 186.292C189.16 190.553 185.394 194.031 180.934 196.745C177.644 198.744 174.109 200.158 170.4 201.234C164.851 202.843 159.183 203.014 153.519 202.639C147.018 202.208 140.871 200.302 135.26 196.925C128.878 193.085 123.964 187.844 120.587 181.182C119.669 179.371 118.956 177.488 118.24 175.585C117.201 172.831 116.532 170.017 116.082 167.141C115.471 163.224 115.265 159.287 115.579 155.315C115.787 152.684 116.089 150.072 116.67 147.505C118.173 140.853 120.927 134.793 125.293 129.5C129.022 124.978 133.563 121.516 138.854 119.045C141.549 117.786 144.378 116.914 147.283 116.206C150.568 115.405 153.903 115.127 157.236 115.013C160.083 114.916 162.945 115.201 165.786 115.675C168.052 116.053 170.261 116.577 172.441 117.275C175.975 118.405 179.315 119.927 182.386 122.029C187.014 125.197 190.827 129.139 193.777 133.912C195.942 137.418 197.572 141.161 198.631 145.14C199.686 149.106 200.461 153.123 200.334 157.251C200.242 160.268 201.831 162.105 204.366 163.351C206.765 164.528 209.306 165.294 211.886 165.952C214.325 166.572 216.743 167.27 219.188 167.856C221.275 168.355 223.349 168.894 225.395 169.529C231.289 171.359 236.949 173.622 241.328 178.23C244.045 181.09 245.672 184.45 246.418 188.339C246.997 191.349 247.03 194.342 246.622 197.323C245.626 204.601 242.201 210.455 236.11 214.697C232.736 217.045 229.05 218.648 225.126 219.815C221.736 220.823 218.277 221.505 214.776 221.739C211.561 221.954 208.35 222.378 205.078 221.943C202.874 221.65 200.628 221.546 198.438 221.126C192.156 219.922 186.246 217.783 181.189 213.735C177.592 210.858 174.877 207.292 173.221 202.951C173.02 202.422 173.067 202.198 173.613 201.994C176.134 201.055 178.595 199.978 180.934 198.635C183.852 196.961 186.541 194.981 188.902 192.581C189.518 191.955 190.144 191.695 191.019 191.727C192.739 191.79 194.466 191.785 196.187 191.73C197.027 191.702 197.206 192.009 197.271 192.81C197.52 195.828 198.134 198.72 200.71 200.749C202.042 201.798 203.568 202.395 205.199 202.771C207.884 203.388 210.618 203.538 213.309 203.074C216.05 202.6 218.735 201.738 220.107 198.98C221.619 195.939 221.178 193.093 217.793 191.294C215.587 190.122 213.203 189.431 210.83 188.709C208.123 187.885 205.412 187.071 202.696 186.277C200.749 185.706 198.783 185.199 196.84 184.617C191.756 183.094 186.737 181.395 182.406 178.201C178.972 175.672 176.481 172.45 175.357 168.249C174.896 166.525 174.622 164.797 174.544 163.016C174.438 160.548 174.548 158.066 174.337 155.617C173.916 150.732 172.908 145.993 169.813 141.963C167.726 139.246 165.016 137.395 161.73 136.609C156.132 135.272 151.185 136.636 147.115 140.787C145.028 142.918 143.758 145.532 142.9 148.361C141.714 152.266 141.245 156.287 141.45 160.332C141.689 165.059 142.337 169.734 144.795 173.952C146.877 177.528 149.784 180.07 153.823 181.109C158.767 182.381 163.38 181.652 167.412 178.367C170.18 176.109 171.896 173.138 172.929 169.75C173.061 169.315 173.14 168.854 173.599 168.399Z" fill="white"/>
<path fill-rule="evenodd" clip-rule="evenodd" d="M231.037 161.856C227.362 161.856 223.687 161.858 220.011 161.855C218.845 161.855 218.819 161.847 218.843 160.722C218.898 158.18 217.618 156.429 215.647 154.999C212.496 152.711 209.04 152.725 205.455 153.49C204.471 153.701 203.523 154.008 202.672 154.563C202.158 154.9 201.825 154.781 201.835 154.163C201.86 152.631 201.484 151.153 201.27 149.655C200.922 147.216 200.259 144.853 199.523 142.509C198.853 140.374 197.941 138.337 196.999 136.315C196.715 135.706 197.003 135.538 197.487 135.423C202.992 134.126 208.571 134.173 214.163 134.527C217.056 134.709 219.905 135.211 222.691 135.981C228.903 137.7 234.39 140.624 238.343 145.9C240.196 148.373 241.484 151.135 242.247 154.148C242.805 156.346 243.256 158.546 243.272 160.828C243.278 161.619 243.024 161.877 242.237 161.871C238.505 161.839 234.771 161.856 231.037 161.856Z" fill="white"/>
<path fill-rule="evenodd" clip-rule="evenodd" d="M110.351 117.663C112.073 117.668 113.688 117.873 115.292 118.29C118.466 119.115 120.951 120.962 122.894 123.935C123.332 124.605 123.714 125.33 124 126.078C124.078 126.281 124.15 126.486 124.237 126.684C124.325 126.886 124.422 127.133 124.595 127.276C124.765 127.416 125.046 127.349 125.207 127.219C125.415 127.051 125.595 126.824 125.783 126.634C125.976 126.438 126.168 126.243 126.36 126.049C126.745 125.663 127.133 125.28 127.527 124.903C128.31 124.154 129.114 123.429 129.948 122.738C130.778 122.049 131.634 121.396 132.52 120.783C133.407 120.167 134.324 119.595 135.262 119.062C136.207 118.526 137.174 118.033 138.144 117.548C138.261 117.489 138.376 117.426 138.494 117.371C139.876 116.733 141.289 116.165 142.728 115.665C143.651 115.344 143.151 115.533 144.655 114.855C145.562 114.446 144.098 111.997 143.583 111.205C142.377 109.349 141.227 107.434 139.828 105.715C137.4 102.728 134.47 100.177 131.084 98.3287C129.707 97.5764 128.245 96.9569 126.762 96.4432C122.053 94.8143 116.944 93.9931 111.143 93.933C106.901 93.89 102.232 93.8669 96.4533 93.8669C93.5814 93.8669 90.7095 93.8655 87.8383 93.8702C84.9691 93.8755 82.1006 93.8702 79.2313 93.8702H78.4592C77.3372 93.8702 76.7006 93.8808 75.9833 94.6186C75.2852 95.3359 75.5357 96.2204 75.5357 97.3463V141.702C75.5357 141.702 75.2838 170.162 75.2852 180.027C75.2858 182.467 75.9436 183.252 78.3831 183.252C81.3317 183.254 84.2174 183.258 87.1653 183.261C90.2692 183.265 93.3408 183.268 96.4434 183.268C101.683 183.268 105.949 183.258 109.902 183.238C112.348 183.224 118.05 182.753 118.05 182.753C119.476 182.423 115.943 176.263 114.738 170C113.45 163.31 114.197 159.319 112.589 159.417C111.771 159.468 110.368 159.592 109.498 159.606C108.441 159.623 107.318 159.631 105.973 159.631C104.912 159.631 103.834 159.626 102.773 159.621C102.121 159.618 100.658 159.613 100.658 159.613V138.701L100.684 133.536C100.688 128.321 100.715 122.933 100.69 117.624C102.984 117.659 105.304 117.659 107.548 117.66C108.482 117.661 109.418 117.661 110.351 117.663Z" fill="white"/>
<path d="M110.541 235.875V209.959H116.242V230.728H129.163V235.875H110.541Z" fill="white"/>
<path d="M153.5 241.9C152.97 243.356 152.211 244.572 151.224 245.547C150.236 246.523 149.039 247.25 147.632 247.732C146.226 248.214 144.658 248.454 142.931 248.454C139.451 248.454 136.711 247.492 134.712 245.567C132.712 243.641 131.713 240.766 131.713 236.94V222.131H137.414V236.792C137.414 238.915 137.908 240.513 138.895 241.587C139.882 242.66 141.251 243.198 143.005 243.198C144.757 243.198 146.126 242.679 147.114 241.642C148.101 240.606 148.595 239.051 148.595 236.977V222.131H154.296V236.755C154.296 238.729 154.031 240.444 153.5 241.9Z" fill="white"/>
<path d="M179.17 246.485C178.706 247.39 178.04 248.144 177.175 248.747C176.31 249.35 175.268 249.802 174.052 250.104C172.836 250.405 171.487 250.556 170.007 250.556H157.477V224.173H169.704C172.412 224.173 174.539 224.789 176.082 226.019C177.624 227.251 178.395 228.909 178.395 230.994V231.07C178.395 231.824 178.302 232.489 178.114 233.067C177.927 233.646 177.677 234.166 177.365 234.631C177.053 235.096 176.692 235.504 176.279 235.857C175.867 236.209 175.424 236.51 174.95 236.76C176.476 237.339 177.676 238.124 178.551 239.117C179.427 240.11 179.864 241.485 179.864 243.243V243.319C179.866 244.525 179.634 245.581 179.17 246.485ZM172.667 231.974C172.667 231.095 172.34 230.423 171.687 229.958C171.034 229.493 170.091 229.26 168.861 229.26H163.132V234.839H168.484C169.765 234.839 170.783 234.619 171.537 234.179C172.291 233.739 172.668 233.029 172.668 232.049L172.667 231.974ZM174.137 242.527C174.137 241.648 173.798 240.951 173.119 240.435C172.441 239.921 171.348 239.663 169.84 239.663H163.131V245.467H170.028C171.31 245.467 172.315 245.235 173.044 244.769C173.772 244.305 174.137 243.582 174.137 242.603V242.527H174.137Z" fill="white"/>
<path d="M107.93 214.972C106.607 215.743 106 216.374 105.11 216.845C104.085 217.388 102.751 217.66 101.27 217.66C100.16 217.66 99.1006 217.443 98.175 217.012C97.2501 216.581 96.4389 215.994 95.7851 215.254C95.1306 214.513 94.7954 213.649 94.4252 212.662C94.055 211.675 94.0457 210.626 94.0457 209.515V209.441C94.0457 208.33 94.0444 207.288 94.4146 206.313C94.7848 205.338 95.2099 204.48 95.8757 203.74C96.5421 202.999 97.2918 202.42 98.2173 201.999C99.1422 201.579 100.125 201.37 101.211 201.37C102.519 201.37 103.849 201.63 104.899 202.148C105.874 202.63 106.606 203.291 107.928 204.115V197.391C107.267 197.338 107.542 197.274 107.423 197.224C106.608 196.879 105.619 196.607 104.62 196.41C103.62 196.212 102.474 196.113 101.266 196.113C99.2665 196.113 97.4187 196.466 95.7659 197.169C94.1118 197.872 92.6832 198.836 91.4984 200.057C90.3137 201.278 89.5746 202.698 88.9082 204.314C88.2418 205.93 88.0957 207.664 88.0957 209.515V209.589C88.0957 211.44 88.2372 213.181 88.9036 214.81C89.57 216.438 90.3997 217.852 91.5844 219.048C92.7691 220.246 94.1277 221.189 95.7567 221.88C97.3856 222.571 99.1264 222.917 101.027 222.917C102.286 222.917 103.41 222.811 104.422 222.601C105.433 222.392 106.523 222.084 107.374 221.676C107.513 221.61 107.269 221.528 107.93 221.458V214.972Z" fill="white"/>
<path d="M149.57 82.8893C151.956 82.8893 153.891 80.955 153.891 78.5689C153.891 76.1828 151.956 74.2485 149.57 74.2485C147.184 74.2485 145.25 76.1828 145.25 78.5689C145.25 80.955 147.184 82.8893 149.57 82.8893Z" fill="white"/>
<path opacity="0.8" d="M168.039 84.7997C171.758 84.7997 174.773 81.7848 174.773 78.0656C174.773 74.3465 171.758 71.3315 168.039 71.3315C164.32 71.3315 161.305 74.3465 161.305 78.0656C161.305 81.7848 164.32 84.7997 168.039 84.7997Z" fill="white"/>
<path opacity="0.6" d="M186.135 89.5894C190.45 89.5894 193.948 86.0914 193.948 81.7764C193.948 77.4614 190.45 73.9634 186.135 73.9634C181.82 73.9634 178.322 77.4614 178.322 81.7764C178.322 86.0914 181.82 89.5894 186.135 89.5894Z" fill="white"/>
<path opacity="0.4" d="M202.893 97.3279C207.188 97.3279 210.669 93.8464 210.669 89.5519C210.669 85.2573 207.188 81.7759 202.893 81.7759C198.599 81.7759 195.117 85.2573 195.117 89.5519C195.117 93.8464 198.599 97.3279 202.893 97.3279Z" fill="white"/>
<path opacity="0.2" d="M217.427 107.558C221.074 107.558 224.031 104.601 224.031 100.953C224.031 97.3056 221.074 94.3486 217.427 94.3486C213.779 94.3486 210.822 97.3056 210.822 100.953C210.822 104.601 213.779 107.558 217.427 107.558Z" fill="white"/>
<path opacity="0.1" d="M228.984 119.429C231.23 119.429 233.051 117.608 233.051 115.362C233.051 113.117 231.23 111.296 228.984 111.296C226.739 111.296 224.918 113.117 224.918 115.362C224.918 117.608 226.739 119.429 228.984 119.429Z" fill="white"/>
<circle cx="110" cy="511" r="19" fill="#4CAF50"/>
<circle cx="35.5" cy="557.5" r="34.5" stroke="#4CAF50" stroke-width="2"/>
<circle cx="794" cy="94" r="19" transform="rotate(-180 794 94)" fill="#4CAF50"/>
<circle cx="868.5" cy="47.5" r="34.5" transform="rotate(-180 868.5 47.5)" stroke="#4CAF50" stroke-width="2"/>
<path d="M353.22 116.08C353.3 116.52 353.08 116.86 352.6 116.72C350.74 116.14 348.8 116 346.86 116C346.46 116.94 346.08 117.88 345.74 118.82C345.34 119.9 344.98 121 344.68 122.1C344.54 122.62 344.38 123.16 344.3 123.68C344.26 123.86 344.28 124.14 344.24 124.32C344.24 124.36 344.24 124.42 344.24 124.46C344.58 124.68 344.88 125 344.94 125.38C345.02 125.78 344.78 126.18 344.32 126C342.24 125.26 342.28 123.3 342.74 121.5C343.2 119.64 343.82 117.82 344.54 116.04C341.92 116.14 339.3 116.38 336.7 116.78C336.08 116.88 335.46 116.98 334.84 117.1C331.92 121 329.4 125.2 327.32 129.62C326.92 130.5 325.22 129.06 325.56 128.32C327.28 124.66 329.3 121.14 331.62 117.8C328.18 118.64 324.82 119.74 321.56 121.12C320.8 121.42 319.4 119.72 320.26 119.34C324.48 117.58 328.88 116.24 333.36 115.38C334.3 114.14 335.26 112.94 336.28 111.78C338.4 109.3 340.72 106.98 343.16 104.82C345.7 102.62 348.38 100.34 351.52 99.06C352.04 98.84 352.78 99.54 352.94 99.96C353.8 101.98 352.3 104.22 351.48 106.06C350.52 108.16 349.48 110.22 348.5 112.32C348.2 112.96 347.92 113.58 347.62 114.22C349.14 114.3 350.66 114.5 352.1 114.96C352.58 115.12 353.14 115.58 353.22 116.08ZM345.3 114.2C346.32 111.84 347.44 109.54 348.54 107.24C349.06 106.14 349.58 105.04 350.08 103.94C350.36 103.32 350.62 102.72 350.88 102.1C350.94 101.96 351 101.82 351.08 101.66C348.66 102.98 346.54 104.84 344.5 106.64C342.14 108.72 339.92 110.98 337.86 113.36C337.44 113.84 337.02 114.34 336.62 114.84C339.14 114.48 341.68 114.26 344.22 114.22C344.58 114.2 344.94 114.2 345.3 114.2ZM373.533 103.1C376.793 106.44 376.953 111.16 375.613 115.38C374.513 118.94 372.673 123.6 369.293 125.62C367.633 126.62 365.893 126.18 364.633 124.78C363.313 123.32 362.833 121.22 362.793 119.3C362.693 115.3 364.253 111.18 366.293 107.8C367.333 106.08 368.533 104.48 369.953 103.06C371.253 101.74 372.673 100.64 374.553 100.44C375.353 100.36 376.593 102.14 375.473 102.26C374.733 102.34 374.073 102.62 373.453 103C373.473 103.04 373.513 103.06 373.533 103.1ZM374.113 113.2C374.933 110.16 375.013 106.4 372.653 103.98C372.593 103.92 372.533 103.84 372.453 103.74C371.913 104.22 371.433 104.74 370.953 105.24C369.733 106.6 368.633 108.08 367.713 109.66C366.113 112.48 364.893 115.72 364.633 118.96C364.513 120.5 364.533 122.6 365.533 123.88C366.713 125.38 368.813 123.28 369.633 122.36C371.853 119.88 373.273 116.38 374.113 113.2ZM385.218 113.42C386.138 114.3 386.178 115.58 385.758 116.7C384.978 118.74 382.778 121.44 380.378 121.4C379.958 121.4 379.418 120.9 379.178 120.42C377.178 123.5 375.638 126.96 374.458 130.38C374.158 131.28 372.438 129.88 372.698 129.1C374.498 123.82 376.278 118.52 378.078 113.24C378.378 112.36 380.118 113.76 379.858 114.54C379.618 115.22 379.378 115.92 379.138 116.6C379.898 115.62 380.738 114.7 381.678 113.92C382.758 112.98 383.978 112.26 385.218 113.42ZM383.898 115.6C383.998 115.38 384.038 115.12 384.078 114.88C383.998 114.92 383.918 114.98 383.838 115.04C383.638 115.18 383.458 115.34 383.258 115.5C382.438 116.2 381.718 117 381.038 117.82C380.598 118.38 380.158 118.98 379.738 119.58C381.558 119.36 383.258 117.1 383.898 115.6ZM396.884 115.72C397.604 115.16 398.724 116.38 398.064 116.8C395.364 118.56 392.524 120.6 389.444 121.68C388.324 122.1 387.164 122.16 386.364 121.1C385.124 119.44 386.724 117.02 387.844 115.8C388.864 114.68 390.664 113.42 392.004 114.84C393.944 116.86 389.384 118.62 388.164 119.2C388.164 119.22 388.164 119.22 388.144 119.22C388.044 119.46 387.964 119.72 387.884 119.98C389.924 119.72 394.864 117.28 396.884 115.72ZM410.746 115.58C411.486 115.24 412.286 116.44 411.426 116.84C409.646 117.68 407.986 118.7 406.326 119.74C405.286 120.38 404.146 121.28 402.946 121.56C401.746 121.84 400.646 120.72 400.826 119.54C400.926 118.86 401.206 118.18 401.546 117.52C399.586 118.6 397.866 120.02 396.406 121.76C395.826 122.46 394.566 120.94 394.726 120.32C395.166 118.58 396.006 116.9 396.886 115.34C397.366 114.48 399.046 115.94 398.666 116.62C398.626 116.68 398.606 116.72 398.586 116.76C400.126 115.7 401.806 114.88 403.606 114.32C404.366 114.08 405.486 115.28 405.046 116C404.446 116.96 403.946 117.94 403.446 118.94C405.826 117.76 408.406 116.68 410.746 115.58ZM417.155 115.44C417.935 115.14 418.635 116.52 417.755 116.86C416.495 117.36 415.315 118.02 414.235 118.84C414.395 119.32 414.435 119.82 414.355 120.34C414.135 122 412.475 124.14 410.735 122.7C408.875 121.16 410.195 119.24 412.095 117.7C411.635 117.1 411.035 116.62 410.675 115.92C410.075 114.7 410.315 112.78 412.035 112.92C412.555 112.94 413.055 113.38 413.275 113.84C413.435 114.16 413.475 114.76 412.955 114.72C411.855 114.64 412.175 115.9 412.595 116.4C412.755 116.6 412.915 116.78 413.095 116.96C414.795 116.16 416.435 115.72 417.155 115.44ZM421.418 115.52C421.598 117.28 421.118 119.04 420.018 120.44C418.998 121.74 417.398 122.32 416.158 120.94C413.818 118.36 417.678 114.58 419.858 113.5C420.538 113.16 421.798 114.58 421.318 115.14C421.358 115.26 421.398 115.38 421.418 115.52ZM419.078 117.78C419.298 117.32 419.458 116.84 419.538 116.34C419.198 116.64 418.898 116.96 418.598 117.32C418.258 117.74 417.978 118.2 417.738 118.7C417.618 118.92 417.518 119.16 417.438 119.4C417.418 119.46 417.398 119.64 417.378 119.82C417.638 119.6 417.878 119.48 418.118 119.2C418.518 118.78 418.838 118.3 419.078 117.78ZM435.766 115.66C436.366 115.04 437.426 116.16 436.826 116.78C435.486 118.16 434.106 119.64 432.486 120.7C431.726 121.22 430.906 121.64 430.046 121.12C429.106 120.56 428.866 119.6 429.006 118.6C429.006 118.54 429.026 118.5 429.026 118.46C427.946 119.46 426.806 120.4 425.566 121.16C424.426 121.84 423.186 122.12 422.286 120.92C421.066 119.3 422.626 116.5 423.726 115.22C424.266 114.58 425.866 116.14 425.306 116.8C424.806 117.38 424.466 118.08 424.166 118.76C424.046 119.04 423.926 119.34 423.846 119.64C424.406 119.34 424.926 118.94 425.426 118.56C427.086 117.26 428.586 115.76 430.146 114.36C430.786 113.78 432.026 115.14 431.826 115.8C431.506 116.8 431.226 117.8 430.986 118.82C430.966 118.9 430.946 119 430.926 119.1C432.346 118.78 434.666 116.8 435.766 115.66ZM442.235 115.52C442.455 115.9 442.375 116.36 441.915 116.4C441.535 116.44 441.195 116.18 440.935 115.88C440.495 115.88 439.495 116.62 439.235 116.82C438.735 117.2 438.275 117.64 437.855 118.1C436.895 119.12 436.095 120.26 435.515 121.52C435.115 122.42 433.475 120.98 433.755 120.24C434.515 118.22 435.335 116.24 436.075 114.22C436.335 113.48 437.575 114.32 437.815 115.08C439.375 113.88 441.055 113.52 442.235 115.52ZM454.635 115.68C455.375 115.34 456.175 116.48 455.315 116.86C453.275 117.76 451.235 118.66 449.195 119.56C447.615 120.24 445.615 121.4 443.935 120.36C440.855 118.42 444.035 112.44 447.355 114.38C447.735 114.6 448.335 115.1 448.275 115.62C448.235 116.1 447.755 116.16 447.395 115.94C446.095 115.18 445.075 117.04 444.735 118C444.415 118.86 444.715 118.96 444.855 118.94C446.455 118.8 452.175 116.76 454.635 115.68ZM463.759 115.72C464.479 115.16 465.599 116.38 464.939 116.8C462.239 118.56 459.399 120.6 456.319 121.68C455.199 122.1 454.039 122.16 453.239 121.1C451.999 119.44 453.599 117.02 454.719 115.8C455.739 114.68 457.539 113.42 458.879 114.84C460.819 116.86 456.259 118.62 455.039 119.2C455.039 119.22 455.039 119.22 455.019 119.22C454.919 119.46 454.839 119.72 454.759 119.98C456.799 119.72 461.739 117.28 463.759 115.72ZM487.84 116.5C488.42 115.88 490.02 117.46 489.42 118.1C487.7 119.96 485.8 121.66 483.74 123.16C482 124.42 480 125.88 477.92 126.48C476.26 126.96 474.54 126.68 473.44 125.26C472.16 123.62 472.44 121.18 472.74 119.28C473.46 114.8 475.48 110.46 478.04 106.76C479.28 105 480.66 103.22 482.36 101.86C483.78 100.72 485.76 99.46 487.46 100.84C488.88 102 488.94 103.8 488.7 105.48C488.38 107.8 487.66 110 486.58 112.08C486.12 112.94 484.44 111.48 484.8 110.78C485.78 108.94 486.48 106.98 486.84 104.92C486.96 104.1 487.14 103.14 486.94 102.32C486.86 101.98 486.9 101.96 486.56 102C486.38 102 486.12 102.14 485.96 102.2C485.48 102.4 485.04 102.66 484.62 102.94C481.82 104.86 479.66 108 478.04 110.92C476.34 113.96 474.94 117.38 474.48 120.84C474.36 121.78 474.3 122.74 474.38 123.7C474.46 124.64 474.74 124.98 475.7 124.9C477.3 124.78 478.82 123.74 480.14 122.92C482.98 121.14 485.56 118.96 487.84 116.5ZM492.941 115.52C493.121 117.28 492.641 119.04 491.541 120.44C490.521 121.74 488.921 122.32 487.681 120.94C485.341 118.36 489.201 114.58 491.381 113.5C492.061 113.16 493.321 114.58 492.841 115.14C492.881 115.26 492.921 115.38 492.941 115.52ZM490.601 117.78C490.821 117.32 490.981 116.84 491.061 116.34C490.721 116.64 490.421 116.96 490.121 117.32C489.781 117.74 489.501 118.2 489.261 118.7C489.141 118.92 489.041 119.16 488.961 119.4C488.941 119.46 488.921 119.64 488.901 119.82C489.161 119.6 489.401 119.48 489.641 119.2C490.041 118.78 490.361 118.3 490.601 117.78ZM514.45 115.76C515.15 115.2 516.11 116.28 515.47 116.8C513.81 118.12 512.11 119.44 510.27 120.5C509.57 120.9 508.77 121.36 507.95 121.38C507.09 121.42 506.25 120.82 506.01 119.98C505.91 119.62 505.99 119.26 506.05 118.9C506.05 118.88 506.07 118.86 506.07 118.84C505.97 118.88 505.89 118.92 505.83 118.94C505.51 119.14 505.19 119.4 504.89 119.62C504.25 120.08 503.61 120.54 502.97 120.98C502.25 121.5 501.13 120.26 501.29 119.54C501.47 118.78 501.65 118.02 501.81 117.26C501.85 117.06 501.93 116.84 502.01 116.58C501.73 116.76 501.45 116.94 501.23 117.06C500.45 117.48 499.71 117.94 498.99 118.46C497.65 119.4 496.41 120.46 495.25 121.62C494.69 122.18 493.47 120.96 493.55 120.36C493.77 118.58 494.29 116.92 495.13 115.34C495.57 114.48 497.25 115.92 496.89 116.62C496.73 116.94 496.57 117.26 496.43 117.58C497.99 116.36 499.69 115.32 501.49 114.5C502.63 113.98 503.91 114.62 504.07 115.96C504.13 116.5 503.95 117.08 503.81 117.64C504.05 117.48 504.29 117.32 504.53 117.18C505.19 116.78 505.91 116.58 506.63 116.9C507.35 117.22 507.93 117.96 508.01 118.74C508.03 118.9 508.03 119.08 508.01 119.24C508.93 119 512.69 117.18 514.45 115.76ZM533.707 115.76C534.407 115.2 535.367 116.28 534.727 116.8C533.067 118.12 531.367 119.44 529.527 120.5C528.827 120.9 528.027 121.36 527.207 121.38C526.347 121.42 525.507 120.82 525.267 119.98C525.167 119.62 525.247 119.26 525.307 118.9C525.307 118.88 525.327 118.86 525.327 118.84C525.227 118.88 525.147 118.92 525.087 118.94C524.767 119.14 524.447 119.4 524.147 119.62C523.507 120.08 522.867 120.54 522.227 120.98C521.507 121.5 520.387 120.26 520.547 119.54C520.727 118.78 520.907 118.02 521.067 117.26C521.107 117.06 521.187 116.84 521.267 116.58C520.987 116.76 520.707 116.94 520.487 117.06C519.707 117.48 518.967 117.94 518.247 118.46C516.907 119.4 515.667 120.46 514.507 121.62C513.947 122.18 512.727 120.96 512.807 120.36C513.027 118.58 513.547 116.92 514.387 115.34C514.827 114.48 516.507 115.92 516.147 116.62C515.987 116.94 515.827 117.26 515.687 117.58C517.247 116.36 518.947 115.32 520.747 114.5C521.887 113.98 523.167 114.62 523.327 115.96C523.387 116.5 523.207 117.08 523.067 117.64C523.307 117.48 523.547 117.32 523.787 117.18C524.447 116.78 525.167 116.58 525.887 116.9C526.607 117.22 527.187 117.96 527.267 118.74C527.287 118.9 527.287 119.08 527.267 119.24C528.187 119 531.947 117.18 533.707 115.76ZM545.805 115.66C546.405 115.04 547.465 116.16 546.865 116.78C545.525 118.16 544.145 119.64 542.525 120.7C541.765 121.22 540.945 121.64 540.085 121.12C539.145 120.56 538.905 119.6 539.045 118.6C539.045 118.54 539.065 118.5 539.065 118.46C537.985 119.46 536.845 120.4 535.605 121.16C534.465 121.84 533.225 122.12 532.325 120.92C531.105 119.3 532.665 116.5 533.765 115.22C534.305 114.58 535.905 116.14 535.345 116.8C534.845 117.38 534.505 118.08 534.205 118.76C534.085 119.04 533.965 119.34 533.885 119.64C534.445 119.34 534.965 118.94 535.465 118.56C537.125 117.26 538.625 115.76 540.185 114.36C540.825 113.78 542.065 115.14 541.865 115.8C541.545 116.8 541.265 117.8 541.025 118.82C541.005 118.9 540.985 119 540.965 119.1C542.385 118.78 544.705 116.8 545.805 115.66ZM559.594 115.58C560.334 115.24 561.134 116.44 560.274 116.84C558.494 117.68 556.834 118.7 555.174 119.74C554.134 120.38 552.994 121.28 551.794 121.56C550.594 121.84 549.494 120.72 549.674 119.54C549.774 118.86 550.054 118.18 550.394 117.52C548.434 118.6 546.714 120.02 545.254 121.76C544.674 122.46 543.414 120.94 543.574 120.32C544.014 118.58 544.854 116.9 545.734 115.34C546.214 114.48 547.894 115.94 547.514 116.62C547.474 116.68 547.454 116.72 547.434 116.76C548.974 115.7 550.654 114.88 552.454 114.32C553.214 114.08 554.334 115.28 553.894 116C553.294 116.96 552.794 117.94 552.294 118.94C554.674 117.76 557.254 116.68 559.594 115.58ZM565.942 115.78C566.622 115.2 567.722 116.24 567.082 116.78C565.982 117.72 564.822 118.62 563.622 119.44C562.642 120.08 561.542 120.88 560.362 121.12C559.042 121.4 557.762 120.16 557.742 118.82C557.702 117.32 558.842 115.58 559.582 114.32C560.062 113.46 561.742 114.92 561.342 115.6C560.762 116.62 560.242 117.6 559.842 118.7C559.782 118.84 559.722 118.98 559.682 119.14C561.062 118.88 564.342 117.12 565.942 115.78ZM563.022 112.2C562.762 113.08 561.022 111.7 561.262 110.9C561.702 109.44 562.282 108.04 563.022 106.7C563.502 105.84 565.182 107.3 564.802 107.98C564.062 109.34 563.462 110.74 563.022 112.2ZM583.188 106.88C583.588 107.1 584.168 107.62 584.108 108.14C584.068 108.62 583.608 108.66 583.228 108.46C581.448 107.52 579.448 107.32 577.468 107.2C575.508 107.06 573.548 107.02 571.608 107.06C571.568 107.06 571.528 107.06 571.508 107.06C568.508 113.68 565.987 120.58 566.107 127.92C566.127 129.02 564.307 127.78 564.287 127C564.167 120.04 566.368 113.46 569.127 107.14C565.847 107.32 562.587 107.72 559.367 108.34C558.547 108.5 557.227 106.74 558.067 106.58C561.987 105.82 565.967 105.38 569.968 105.26C570.688 103.68 571.428 102.12 572.188 100.56C572.608 99.7 574.288 101.14 573.948 101.86C573.408 102.96 572.888 104.08 572.348 105.22C575.968 105.16 579.988 105.2 583.188 106.88ZM585.434 115.58C586.134 115.2 587.234 116.44 586.394 116.94C583.254 118.8 580.414 121.3 577.814 123.86C576.014 127.56 573.854 131.08 571.354 134.36C570.874 134.98 569.794 133.74 569.674 133.32C569.074 131.16 570.214 129.18 571.474 127.5C572.594 126 573.874 124.62 575.194 123.3C575.514 122.98 575.834 122.66 576.154 122.34C576.934 120.72 577.634 119.04 578.274 117.36C577.534 117.94 576.774 118.5 575.974 119.04C574.274 120.18 572.414 121.44 570.334 120.52C569.934 120.34 569.354 119.76 569.414 119.28C569.574 117.46 570.194 115.84 571.354 114.42C571.874 113.76 573.494 115.32 572.934 116C572.214 116.9 571.694 117.92 571.414 119.02C572.054 118.88 572.694 118.52 573.174 118.22C573.994 117.74 574.794 117.2 575.574 116.62C577.074 115.54 578.454 114.32 579.774 113C580.394 112.38 581.634 113.8 581.434 114.44C581.014 115.94 580.514 117.4 579.954 118.86C581.594 117.5 583.694 116.54 585.434 115.58Z" fill="white"/>
<defs>
<linearGradient id="paint0_linear_275_857" x1="42.0003" y1="158" x2="280" y2="158" gradientUnits="userSpaceOnUse">
<stop stop-color="#1692C8"/>
<stop offset="1" stop-color="#00B457"/>
</linearGradient>
</defs>
</svg>
