<svg width="268" height="271" viewBox="0 0 268 271" fill="none" xmlns="http://www.w3.org/2000/svg">
<g filter="url(#filter0_d_292_3578)">
<path d="M182.347 85.4718C172.566 85.4718 164.636 77.412 164.636 67.4684C164.636 57.5248 172.566 49.4649 182.347 49.4649C192.13 49.4649 200.061 57.5248 200.061 67.4684C200.061 77.412 192.13 85.4718 182.347 85.4718ZM228.112 74.3356L222.519 71.381C221.616 70.9047 221.05 69.9449 221.089 68.9116C221.131 67.8193 221.13 66.7324 221.082 65.6544C221.036 64.6248 221.593 63.6632 222.488 63.1797L228.049 60.1785C229.142 59.5876 229.689 58.3037 229.364 57.0878L228.034 52.1402C227.709 50.9225 226.597 50.0988 225.359 50.1561L219.053 50.4408C218.035 50.4874 217.076 49.9359 216.597 49.019C216.102 48.0718 215.572 47.1442 215.003 46.2399C214.454 45.3661 214.452 44.2469 214.993 43.3677L218.339 37.9276C218.996 36.8604 218.838 35.4708 217.957 34.5844L214.374 30.9726C213.494 30.0862 212.125 29.9376 211.08 30.6163L205.771 34.0597C204.912 34.6166 203.814 34.6256 202.948 34.0777C202.056 33.51 201.135 32.9782 200.191 32.484C199.282 32.0076 198.729 31.0371 198.766 29.9985L198.988 23.5933C199.03 22.3344 198.211 21.2116 197.011 20.8911L192.132 19.5857C190.931 19.2652 189.675 19.831 189.104 20.9502L186.198 26.6356C185.729 27.5542 184.785 28.129 183.769 28.0878C182.694 28.0449 181.625 28.0485 180.563 28.0968C179.55 28.1416 178.606 27.5775 178.128 26.666L175.176 21.0147C174.595 19.9009 173.332 19.3458 172.136 19.6788L167.267 21.029C166.071 21.3603 165.261 22.4902 165.315 23.749L165.596 30.1561C165.641 31.1875 165.108 32.1634 164.213 32.6469C163.269 33.1537 162.349 33.6998 161.449 34.2836C160.595 34.8405 159.497 34.8315 158.636 34.2854L153.286 30.8831C152.235 30.2152 150.87 30.3763 149.998 31.2717L146.445 34.9139C145.573 35.8092 145.425 37.2006 146.093 38.2625L149.482 43.6578C150.029 44.5316 150.038 45.649 149.497 46.5282C148.941 47.4343 148.418 48.3708 147.93 49.3306C147.461 50.2546 146.506 50.8187 145.487 50.7811L139.184 50.5536C137.946 50.5107 136.841 51.3433 136.526 52.5628L135.242 57.523C134.927 58.7424 135.483 60.021 136.584 60.6011L142.179 63.5557C143.08 64.0321 143.646 64.9919 143.605 66.0251C143.565 67.1156 143.567 68.2025 143.614 69.2823C143.66 70.312 143.103 71.2718 142.207 71.7552L136.648 74.7582C135.552 75.3491 135.006 76.633 135.332 77.8489L136.662 82.7965C136.986 84.0124 138.099 84.8361 139.337 84.7806L145.642 84.4959C146.654 84.4493 147.614 84.9919 148.09 85.9034C148.589 86.8614 149.128 87.7979 149.702 88.7111C150.25 89.5796 150.241 90.6952 149.702 91.5709L146.355 97.0073C145.698 98.0764 145.856 99.4659 146.737 100.354L150.322 103.964C151.203 104.85 152.569 104.999 153.614 104.32L158.923 100.877C159.783 100.318 160.884 100.309 161.747 100.859C162.638 101.425 163.559 101.957 164.505 102.453C165.414 102.929 165.967 103.9 165.932 104.938L165.708 111.343C165.664 112.602 166.485 113.725 167.685 114.046L172.564 115.351C173.764 115.67 175.021 115.104 175.592 113.987L178.5 108.299C178.967 107.383 179.911 106.808 180.927 106.847C182.002 106.892 183.071 106.888 184.133 106.84C185.144 106.795 186.09 107.359 186.566 108.269L189.52 113.922C190.101 115.036 191.364 115.591 192.56 115.258L197.427 113.91C198.623 113.576 199.435 112.447 199.381 111.188L199.099 104.779C199.053 103.742 199.596 102.77 200.499 102.283C201.431 101.781 202.343 101.239 203.233 100.66C204.093 100.102 205.193 100.1 206.058 100.651L211.41 104.054C212.46 104.722 213.826 104.562 214.698 103.667L218.251 100.021C219.125 99.1257 219.269 97.7361 218.602 96.6743L215.214 91.279C214.667 90.4051 214.656 89.2877 215.197 88.4085C215.755 87.5006 216.278 86.5659 216.766 85.6043C217.235 84.6803 218.188 84.1181 219.211 84.1557L225.512 84.3813C226.75 84.4261 227.855 83.5934 228.17 82.3739L229.454 77.412C229.77 76.1943 229.213 74.9158 228.112 74.3356Z" fill="black"/>
<path d="M47.7364 163.457C39.7926 163.457 33.353 156.911 33.353 148.837C33.353 140.761 39.7926 134.215 47.7364 134.215C55.6802 134.215 62.1199 140.761 62.1199 148.837C62.1199 156.911 55.6802 163.457 47.7364 163.457ZM84.8996 154.411L80.3569 152.013C79.6239 151.626 79.1649 150.847 79.1971 150.008C79.231 149.121 79.2289 148.239 79.1906 147.362C79.1541 146.527 79.6054 145.747 80.3326 145.354L84.8482 142.916C85.7374 142.436 86.1806 141.394 85.9157 140.406L84.837 136.388C84.5721 135.401 83.6694 134.732 82.6636 134.777L77.5435 135.008C76.7154 135.046 75.938 134.599 75.5497 133.854C75.148 133.084 74.7159 132.331 74.2542 131.596C73.8077 130.888 73.8066 129.978 74.2461 129.264L76.9643 124.848C77.4982 123.98 77.3696 122.853 76.6544 122.131L73.7434 119.2C73.0282 118.479 71.9175 118.359 71.0687 118.909L66.7582 121.706C66.0601 122.159 65.1677 122.166 64.4655 121.72C63.7407 121.26 62.9937 120.829 62.2259 120.427C61.4878 120.039 61.0384 119.251 61.0676 118.408L61.2487 113.207C61.2842 112.185 60.6179 111.272 59.6443 111.012L55.6811 109.953C54.7074 109.693 53.6862 110.153 53.222 111.061L50.8624 115.678C50.4817 116.423 49.7149 116.89 48.8894 116.857C48.0175 116.822 47.1494 116.824 46.287 116.864C45.4644 116.9 44.697 116.442 44.3108 115.703L41.9125 111.113C41.4403 110.209 40.415 109.759 39.4437 110.028L35.4902 111.124C34.5189 111.393 33.8608 112.311 33.9056 113.333L34.1335 118.537C34.1702 119.373 33.7374 120.167 33.0087 120.559C32.2436 120.97 31.4955 121.414 30.7661 121.888C30.0717 122.34 29.1802 122.333 28.4814 121.888L24.1369 119.126C23.2833 118.584 22.1738 118.715 21.4651 119.441L18.5805 122.4C17.8717 123.127 17.7532 124.257 18.2948 125.119L21.0462 129.501C21.4917 130.21 21.4992 131.118 21.0604 131.831C20.6075 132.568 20.183 133.327 19.787 134.107C19.4066 134.859 18.6316 135.314 17.8016 135.286L12.6847 135.1C11.6786 135.064 10.782 135.741 10.5258 136.731L9.48322 140.76C9.22705 141.75 9.67959 142.788 10.5732 143.26L15.1158 145.659C15.8488 146.046 16.3078 146.825 16.2756 147.664C16.2417 148.551 16.2438 149.433 16.2821 150.31C16.3186 151.145 15.8673 151.925 15.1401 152.317L10.6245 154.756C9.73529 155.236 9.29194 156.278 9.55702 157.266L10.6358 161.284C10.9008 162.271 11.8034 162.941 12.8093 162.895L17.9285 162.664C18.752 162.626 19.5313 163.066 19.9171 163.806C20.3225 164.584 20.759 165.345 21.2258 166.085C21.6701 166.793 21.6633 167.698 21.2262 168.408L18.5086 172.824C17.9746 173.692 18.1033 174.821 18.8185 175.541L21.7293 178.472C22.4445 179.192 23.5553 179.313 24.404 178.763L28.7145 175.966C29.4125 175.513 30.3048 175.505 31.007 175.952C31.7319 176.412 32.479 176.843 33.2468 177.245C33.9851 177.633 34.4346 178.421 34.4052 179.264L34.224 184.465C34.1885 185.489 34.8548 186.4 35.8284 186.66L39.7915 187.719C40.7653 187.979 41.7865 187.519 42.2507 186.611L44.6106 181.993C44.9913 181.249 45.7581 180.782 46.5835 180.815C47.4553 180.849 48.3233 180.848 49.1857 180.808C50.0083 180.772 50.7757 181.23 51.1619 181.969L53.5602 186.559C54.0324 187.463 55.0576 187.913 56.029 187.644L59.9826 186.548C60.954 186.279 61.6121 185.361 61.5672 184.339L61.3394 179.133C61.3025 178.293 61.7431 177.502 62.4754 177.107C63.2328 176.699 63.9735 176.261 64.6958 175.791C65.3942 175.337 66.2878 175.337 66.9904 175.782L71.3358 178.546C72.1894 179.089 73.299 178.957 74.0076 178.231L76.8922 175.272C77.6009 174.545 77.7195 173.415 77.1779 172.553L74.4265 168.171C73.981 167.462 73.9735 166.554 74.4122 165.841C74.8652 165.104 75.2898 164.345 75.6857 163.565C76.0663 162.815 76.8411 162.357 77.6711 162.386L82.788 162.572C83.7942 162.608 84.6908 161.931 84.9469 160.94L85.9896 156.912C86.2456 155.922 85.793 154.884 84.8996 154.411Z" fill="black"/>
<path d="M47.7371 134.54C39.9821 134.54 33.6732 140.954 33.6732 148.837C33.6732 156.718 39.9821 163.132 47.7371 163.132C55.492 163.132 61.801 156.718 61.801 148.837C61.801 140.954 55.492 134.54 47.7371 134.54ZM47.7371 163.782C39.6298 163.782 33.034 157.077 33.034 148.837C33.034 140.595 39.6298 133.89 47.7371 133.89C55.8444 133.89 62.4401 140.595 62.4401 148.837C62.4401 157.077 55.8444 163.782 47.7371 163.782ZM29.8748 175.299C30.3281 175.299 30.7809 175.424 31.1772 175.676C31.8873 176.127 32.6329 176.558 33.3939 176.956C34.2366 177.399 34.759 178.309 34.7253 179.276L34.544 184.477C34.5137 185.354 35.0755 186.122 35.9106 186.345L39.8736 187.406C40.7106 187.63 41.5699 187.241 41.9678 186.462L44.3276 181.844C44.7667 180.985 45.655 180.449 46.5967 180.49C47.4568 180.525 48.3235 180.522 49.1725 180.484C50.1094 180.441 50.9996 180.964 51.4449 181.817L53.8431 186.407C54.2486 187.182 55.1146 187.562 55.9455 187.331L59.8994 186.235C60.7319 186.003 61.2873 185.23 61.2488 184.353L61.021 179.148C60.9785 178.185 61.4907 177.271 62.3263 176.821C63.0712 176.419 63.8109 175.98 64.5247 175.518C65.3209 175 66.3559 174.994 67.1609 175.508L71.5059 178.27C72.2385 178.735 73.1736 178.625 73.7815 178.002L76.666 175.042C77.2737 174.42 77.3739 173.467 76.9092 172.728L74.1579 168.346C73.6479 167.534 73.6418 166.482 74.1421 165.669C74.5867 164.946 75.011 164.187 75.4023 163.415C75.837 162.559 76.7356 162.03 77.6832 162.061L82.7999 162.247C83.6626 162.274 84.419 161.706 84.6389 160.857L85.6812 156.829C85.9009 155.981 85.5194 155.106 84.7531 154.7L80.2103 152.302C79.3648 151.855 78.842 150.949 78.8787 149.995C78.912 149.121 78.9098 148.242 78.872 147.377C78.8305 146.427 79.3452 145.52 80.1835 145.067L84.6991 142.63C85.4615 142.217 85.8355 141.339 85.6083 140.493L84.5293 136.473C84.3024 135.626 83.5493 135.063 82.6785 135.102L77.5587 135.333C76.6115 135.373 75.7114 134.856 75.2682 134.007C74.8727 133.248 74.4413 132.496 73.9856 131.772C73.4763 130.963 73.4726 129.911 73.976 129.093L76.6942 124.675C77.1521 123.932 77.0434 122.981 76.4301 122.363L73.5191 119.431C72.9057 118.813 71.9691 118.711 71.2416 119.184L66.9307 121.98C66.1318 122.498 65.0984 122.505 64.2968 121.996C63.584 121.544 62.8384 121.112 62.0804 120.714C61.2379 120.273 60.7154 119.363 60.7492 118.396L60.9303 113.195C60.9604 112.318 60.3987 111.55 59.5638 111.327L55.6003 110.266C54.7663 110.043 53.9044 110.431 53.5064 111.21L51.1469 115.828C50.7071 116.687 49.8123 117.219 48.8779 117.182C48.0158 117.147 47.1493 117.15 46.302 117.188C45.3601 117.231 44.4747 116.708 44.0296 115.855L41.631 111.265C41.2256 110.49 40.3602 110.111 39.5286 110.341L35.5751 111.437C34.7422 111.669 34.1873 112.442 34.2256 113.319L34.4535 118.523C34.4959 119.487 33.9878 120.4 33.1592 120.845C32.4044 121.252 31.6576 121.694 30.9391 122.162C30.1494 122.676 29.1185 122.676 28.3127 122.164L23.9682 119.402C23.2363 118.937 22.3005 119.047 21.6926 119.671L18.8081 122.629C18.2004 123.252 18.1002 124.205 18.565 124.944L21.3163 129.326C21.8265 130.138 21.8327 131.19 21.3321 132.003C20.8861 132.729 20.462 133.488 20.0718 134.257C19.6376 135.113 18.7329 135.639 17.7909 135.611L12.6743 135.427C11.8032 135.393 11.0553 135.965 10.8356 136.815L9.79289 140.843C9.57319 141.691 9.9549 142.566 10.7211 142.972L15.2637 145.37C16.1093 145.817 16.6321 146.723 16.5956 147.677C16.5622 148.554 16.5643 149.435 16.6021 150.295C16.6437 151.245 16.1291 152.152 15.2906 152.605L10.7751 155.042C10.0126 155.455 9.63865 156.333 9.86626 157.179L10.9449 161.199C11.1721 162.046 11.9286 162.609 12.7956 162.57L17.9149 162.339C18.8687 162.297 19.7619 162.812 20.2004 163.654C20.6011 164.423 21.0368 165.183 21.4957 165.912C22.001 166.714 22.002 167.763 21.4978 168.58L18.7804 172.997C18.3225 173.741 18.4307 174.691 19.0444 175.309L21.9552 178.241C22.5682 178.859 23.505 178.961 24.2328 178.488L28.5434 175.692C28.9473 175.43 29.4113 175.299 29.8748 175.299ZM40.3494 188.119C40.1382 188.119 39.9242 188.091 39.7108 188.034L35.7482 186.975C34.622 186.673 33.8642 185.637 33.9054 184.454L34.0868 179.253C34.1116 178.536 33.7247 177.862 33.1011 177.534C32.3245 177.127 31.5633 176.687 30.8383 176.226C30.2459 175.851 29.4797 175.855 28.8874 176.239L24.5768 179.036C23.5955 179.674 22.333 179.536 21.505 178.704L18.5943 175.771C17.7673 174.938 17.6208 173.655 18.2385 172.652L20.9561 168.237C21.3296 167.629 21.3303 166.854 20.9572 166.261C20.4891 165.518 20.0444 164.743 19.6355 163.959C19.3119 163.338 18.6442 162.955 17.9436 162.988L12.8243 163.22C11.6552 163.274 10.6346 162.511 10.3281 161.369L9.24959 157.35C8.94267 156.209 9.44681 155.024 10.4754 154.469L14.991 152.032C15.6125 151.695 15.9942 151.026 15.9635 150.324C15.9252 149.446 15.9231 148.546 15.957 147.651C15.9839 146.947 15.5962 146.279 14.9692 145.947L10.4265 143.548C9.39308 143.003 8.87849 141.822 9.17495 140.678L10.2177 136.65C10.5139 135.504 11.5451 134.735 12.6967 134.777L17.8134 134.961C18.5253 134.987 19.1823 134.593 19.5038 133.959C19.9017 133.173 20.3346 132.4 20.7902 131.66C21.1608 131.056 21.1558 130.277 20.7775 129.676L18.0263 125.295C17.3996 124.296 17.5344 123.012 18.3543 122.172L21.2388 119.212C22.0581 118.373 23.3195 118.224 24.3072 118.852L28.6517 121.614C29.2487 121.993 30.0116 121.993 30.5946 121.615C31.3276 121.138 32.0899 120.686 32.8601 120.272C33.4715 119.943 33.8464 119.267 33.8149 118.551L33.587 113.347C33.5355 112.166 34.2837 111.123 35.4066 110.811L39.3601 109.714C40.4843 109.404 41.6495 109.915 42.1953 110.96L44.5938 115.551C44.9241 116.183 45.5867 116.57 46.2736 116.539C47.1391 116.501 48.0233 116.498 48.9027 116.532C48.9254 116.534 48.9481 116.534 48.9709 116.534C49.6384 116.534 50.2646 116.144 50.5794 115.528L52.9391 110.911C53.4761 109.861 54.6375 109.338 55.763 109.638L59.7266 110.699C60.8525 110.999 61.61 112.035 61.5687 113.218L61.3878 118.419C61.3627 119.136 61.7498 119.81 62.3731 120.138C63.1467 120.543 63.908 120.983 64.6358 121.444C65.2282 121.821 65.9944 121.817 66.5869 121.433L70.8976 118.636C71.8796 117.998 73.1423 118.136 73.9691 118.97L76.8801 121.901C77.707 122.734 77.8533 124.017 77.2359 125.02L74.5177 129.436C74.1445 130.043 74.1471 130.823 74.5244 131.423C74.9891 132.161 75.4295 132.929 75.8331 133.702C76.1611 134.331 76.834 134.718 77.53 134.684L82.6501 134.452C83.8196 134.398 84.8395 135.161 85.146 136.303L86.2249 140.322C86.5314 141.463 86.027 142.648 84.9987 143.203L80.4831 145.64C79.8618 145.977 79.4799 146.646 79.5106 147.348C79.5493 148.23 79.5515 149.13 79.5171 150.021C79.4904 150.725 79.8779 151.393 80.505 151.725L85.0477 154.124C86.081 154.669 86.5958 155.85 86.2993 156.994L85.2568 161.022C84.9606 162.168 83.946 162.938 82.7774 162.896L77.6607 162.711C76.9503 162.688 76.2918 163.079 75.9703 163.713C75.5708 164.5 75.1382 165.275 74.6839 166.014C74.3136 166.616 74.3187 167.393 74.6966 167.997L77.4478 172.377C78.0745 173.376 77.9397 174.66 77.1198 175.5L74.2353 178.459C73.416 179.3 72.1543 179.448 71.1671 178.822L66.8218 176.058C66.2254 175.679 65.4586 175.681 64.8689 176.064C64.1406 176.538 63.3859 176.985 62.6259 177.395C62.0073 177.728 61.6281 178.405 61.6596 179.119L61.8874 184.325C61.939 185.507 61.1904 186.549 60.0675 186.861L56.1137 187.958C54.9914 188.27 53.8248 187.756 53.2788 186.712L50.8807 182.121C50.5502 181.49 49.8856 181.104 49.2009 181.133C48.3344 181.171 47.4499 181.174 46.5717 181.14C45.89 181.112 45.2206 181.506 44.895 182.144L42.5352 186.762C42.0998 187.613 41.2539 188.119 40.3494 188.119Z" fill="black"/>
<path d="M127.405 261.588C104.499 261.588 81.3578 253.641 61.1217 238.634C60.9789 238.529 60.9475 238.325 61.0517 238.18C61.1554 238.036 61.3551 238.004 61.4981 238.109C85.1746 255.666 112.848 263.51 139.42 260.194C139.601 260.174 139.755 260.299 139.776 260.477C139.797 260.655 139.673 260.818 139.498 260.839C135.487 261.34 131.448 261.588 127.405 261.588Z" fill="black"/>
<path d="M127.781 255.304C110.165 255.304 92.4104 250.237 76.0895 240.503C75.9372 240.412 75.8863 240.213 75.9757 240.059C76.0646 239.904 76.2605 239.852 76.4129 239.942C94.3769 250.656 114.087 255.682 133.411 254.479C133.594 254.468 133.739 254.606 133.749 254.784C133.761 254.964 133.626 255.117 133.451 255.129C131.564 255.245 129.672 255.304 127.781 255.304Z" fill="black"/>
<path d="M253.352 55.1865C253.244 55.1865 253.138 55.1298 253.076 55.0296C237.929 29.4038 215.412 11.1305 189.678 3.57569C189.507 3.52652 189.41 3.34688 189.461 3.1729C189.507 3.00081 189.684 2.90247 189.855 2.95164C215.745 10.5518 238.394 28.9273 253.625 54.6948C253.714 54.848 253.666 55.0485 253.515 55.1392C253.463 55.1714 253.408 55.1865 253.352 55.1865Z" fill="black"/>
<path d="M240.292 47.5164C240.194 47.5164 240.098 47.4703 240.034 47.3854C227.552 30.3446 211.303 17.8437 193.045 11.2384C192.88 11.1775 192.791 10.9913 192.851 10.8216C192.911 10.6538 193.094 10.5653 193.259 10.6261C211.636 17.2758 227.989 29.8522 240.547 46.9963C240.653 47.1402 240.624 47.3449 240.482 47.4518C240.424 47.4942 240.357 47.5164 240.292 47.5164Z" fill="black"/>
<path d="M126.78 3.22583C126.697 3.22583 126.613 3.19355 126.551 3.12899L125.642 2.18515C125.519 2.05792 125.52 1.85092 125.646 1.72558C125.773 1.60024 125.976 1.60216 126.099 1.73129L127.008 2.67511C127.131 2.80234 127.129 3.00744 127.003 3.13468C126.941 3.19545 126.861 3.22583 126.78 3.22583Z" fill="black"/>
<path d="M131.137 7.74487C131.054 7.74487 130.972 7.71306 130.91 7.64756L129.999 6.7044C129.876 6.57528 129.878 6.36944 130.005 6.24406C130.131 6.11868 130.333 6.12055 130.456 6.24967L131.366 7.19283C131.489 7.32195 131.488 7.52592 131.361 7.65317C131.299 7.71492 131.218 7.74487 131.137 7.74487Z" fill="black"/>
<path d="M125.87 7.74487C125.789 7.74487 125.708 7.71493 125.646 7.65131C125.52 7.52593 125.519 7.32008 125.642 7.19283L126.551 6.24967C126.675 6.12055 126.878 6.11868 127.003 6.24406C127.129 6.36944 127.131 6.57528 127.008 6.7044L126.099 7.64756C126.036 7.71306 125.953 7.74487 125.87 7.74487Z" fill="black"/>
<path d="M130.228 3.22583C130.148 3.22583 130.067 3.19546 130.005 3.13279C129.878 3.00745 129.876 2.80234 129.999 2.67511L130.91 1.72938C131.033 1.60214 131.235 1.60024 131.361 1.72558C131.488 1.85092 131.489 2.05602 131.366 2.18515L130.456 3.12899C130.394 3.19355 130.312 3.22583 130.228 3.22583Z" fill="black"/>
<path d="M254.29 65.1155C254.206 65.1155 254.123 65.0841 254.061 65.0175L253.152 64.0749C253.028 63.9455 253.03 63.7403 253.157 63.6147C253.283 63.489 253.485 63.4908 253.608 63.6202L254.517 64.5629C254.641 64.6922 254.639 64.8974 254.514 65.0231C254.452 65.0841 254.37 65.1155 254.29 65.1155Z" fill="black"/>
<path d="M258.649 69.636C258.566 69.636 258.485 69.6041 258.42 69.5385L257.511 68.5951C257.389 68.4657 257.389 68.2613 257.516 68.1356C257.643 68.01 257.844 68.0118 257.968 68.1394L258.878 69.0846C259.001 69.2121 258.998 69.4184 258.872 69.5441C258.811 69.606 258.73 69.636 258.649 69.636Z" fill="black"/>
<path d="M253.379 69.6367C253.299 69.6367 253.219 69.6053 253.157 69.5443C253.03 69.4186 253.028 69.2116 253.152 69.0841L254.061 68.1396C254.185 68.0121 254.386 68.0102 254.514 68.1359C254.639 68.2616 254.641 68.4667 254.517 68.5943L253.608 69.5387C253.545 69.6034 253.463 69.6367 253.379 69.6367Z" fill="black"/>
<path d="M257.739 65.116C257.658 65.116 257.577 65.0841 257.516 65.0222C257.389 64.8965 257.389 64.6921 257.511 64.5627L258.42 63.6193C258.544 63.4918 258.747 63.4899 258.872 63.6156C258.998 63.7412 259.001 63.9457 258.878 64.0751L257.968 65.0184C257.905 65.0822 257.822 65.116 257.739 65.116Z" fill="black"/>
<path d="M259.179 137.707C258.011 137.707 257.061 138.696 257.061 139.91C257.061 141.126 258.011 142.115 259.179 142.115C260.347 142.115 261.297 141.126 261.297 139.91C261.297 138.696 260.347 137.707 259.179 137.707ZM259.179 142.765C257.659 142.765 256.422 141.484 256.422 139.91C256.422 138.337 257.659 137.056 259.179 137.056C260.699 137.056 261.936 138.337 261.936 139.91C261.936 141.484 260.699 142.765 259.179 142.765Z" fill="black"/>
<path d="M12.7803 123.574C11.6127 123.574 10.6626 124.563 10.6626 125.779C10.6626 126.993 11.6127 127.982 12.7803 127.982C13.9478 127.982 14.8977 126.993 14.8977 125.779C14.8977 124.563 13.9478 123.574 12.7803 123.574ZM12.7803 128.632C11.26 128.632 10.0234 127.353 10.0234 125.779C10.0234 124.205 11.26 122.925 12.7803 122.925C14.3002 122.925 15.5368 124.205 15.5368 125.779C15.5368 127.353 14.3002 128.632 12.7803 128.632Z" fill="black"/>
<path d="M232.044 98.9827L223.315 98.981C222.238 98.981 221.26 99.6311 220.811 100.645L218.527 105.8L215.694 100.459C215.209 99.5466 214.285 98.981 213.28 98.981H205.253C203.731 98.981 202.498 97.6997 202.498 96.1217V78.4366C202.498 76.8586 203.731 75.579 205.253 75.579L232.046 75.5808C233.566 75.5808 234.799 76.8603 234.799 78.4383V96.1234C234.798 97.7014 233.566 98.9827 232.044 98.9827Z" fill="white"/>
<path d="M205.255 75.903C203.914 75.903 202.82 77.0391 202.82 78.4358V96.1207C202.82 96.7975 203.073 97.4363 203.535 97.9146C203.994 98.3911 204.605 98.6553 205.254 98.6553H213.284C214.406 98.6553 215.439 99.2872 215.979 100.304L218.504 105.066L220.522 100.511C221.021 99.3839 222.119 98.6553 223.316 98.6553H232.047C232.696 98.6553 233.306 98.3929 233.766 97.9163C234.228 97.4381 234.481 96.801 234.481 96.1225L234.483 78.4376C234.483 77.759 234.228 77.1219 233.768 76.6437C233.308 76.1672 232.696 75.9047 232.047 75.9047L205.255 75.903ZM218.53 106.124C218.413 106.124 218.306 106.057 218.248 105.953L215.415 100.613C214.987 99.8069 214.17 99.3045 213.284 99.3045H205.254C204.432 99.3045 203.659 98.973 203.078 98.3687C202.499 97.7678 202.18 96.9685 202.18 96.1207L202.181 78.4358C202.181 76.6799 203.56 75.2521 205.255 75.2521L232.047 75.2538C232.871 75.2538 233.642 75.5853 234.223 76.1896C234.804 76.7905 235.121 77.5881 235.121 78.4376V96.1225C235.121 96.9719 234.802 97.7696 234.223 98.3704C233.64 98.9747 232.869 99.3062 232.047 99.3062L223.316 99.3045C222.37 99.3045 221.502 99.8828 221.105 100.777L218.82 105.933C218.771 106.045 218.662 106.119 218.542 106.124C218.537 106.124 218.533 106.124 218.53 106.124Z" fill="black"/>
<path d="M209.575 82.9497C209.4 82.9497 209.256 82.8044 209.256 82.6254C209.256 82.4463 209.399 82.2993 209.575 82.2993L228.846 82.2486C228.848 82.2486 228.848 82.2486 228.848 82.2486C229.024 82.2486 229.167 82.3922 229.167 82.573C229.167 82.752 229.025 82.8973 228.849 82.8973L209.577 82.9497H209.575Z" fill="black"/>
<path d="M209.122 87.6343C208.946 87.6343 208.802 87.4903 208.801 87.3115C208.801 87.131 208.944 86.9853 209.12 86.9853L223.403 86.9473C223.403 86.9473 223.403 86.9473 223.405 86.9473C223.579 86.9473 223.724 87.0929 223.724 87.2717C223.724 87.4505 223.581 87.5962 223.405 87.5979L209.122 87.6343Z" fill="black"/>
<path d="M209.657 92.4348C209.479 92.4348 209.336 92.2895 209.336 92.1103C209.336 91.9312 209.479 91.7859 209.655 91.7859L228.927 91.7335C228.927 91.7335 228.927 91.7335 228.928 91.7335C229.103 91.7335 229.248 91.8788 229.248 92.058C229.248 92.2371 229.105 92.3824 228.928 92.3841L209.657 92.4348Z" fill="black"/>
<path d="M87.0977 11.6636C87.1057 5.42947 92.0211 0.352934 98.0766 0.324328C104.132 0.29763 109.034 5.3303 109.026 11.5644C109.019 17.8004 104.103 22.877 98.0475 22.9037C91.992 22.9304 87.0896 17.8996 87.0977 11.6636Z" fill="white"/>
<path d="M87.4185 11.6651C87.4147 14.62 88.5361 17.3859 90.5759 19.4532C92.5658 21.469 95.201 22.5781 97.9995 22.5781C98.0155 22.5781 98.0315 22.5781 98.0474 22.5781C103.918 22.5513 108.701 17.6112 108.708 11.5639C108.712 8.60898 107.591 5.84303 105.551 3.77573C103.56 1.75806 100.925 0.649008 98.1272 0.649008C98.1113 0.649008 98.0955 0.649008 98.0795 0.649008C92.2086 0.675732 87.4264 5.61778 87.4185 11.6651ZM97.9994 23.229C95.0303 23.229 92.2356 22.0531 90.1245 19.9133C87.9634 17.7238 86.7752 14.7937 86.7793 11.6632C86.7878 5.26083 91.8554 0.0286262 98.0763 -6.81725e-06C98.0934 -6.81725e-06 98.1103 -6.81725e-06 98.1276 -6.81725e-06C101.096 -6.81725e-06 103.891 1.17586 106.002 3.3157C108.164 5.50517 109.351 8.43528 109.347 11.5658C109.34 17.9682 104.272 23.2004 98.0504 23.229C98.0332 23.229 98.0164 23.229 97.9994 23.229Z" fill="black"/>
<path d="M103.625 6.3738L100.284 8.39578C100.111 8.50053 100.106 8.75678 100.274 8.86901L100.769 9.19447C100.893 9.27864 100.93 9.44886 100.849 9.57792L99.3002 12.0656C99.2202 12.1947 99.0535 12.2321 98.9284 12.1498L96.0542 10.2513C95.9289 10.169 95.7623 10.2064 95.6819 10.3355L92.2241 15.8533C92.1441 15.9824 92.1805 16.1526 92.3056 16.2368L93.3562 16.9307C93.4815 17.013 93.6479 16.9756 93.7283 16.8465L96.2223 12.8774C96.3026 12.7483 96.4693 12.7109 96.5944 12.7932L99.4677 14.6918C99.5928 14.7741 99.7595 14.7367 99.8401 14.6076L102.351 10.5749C102.431 10.4458 102.598 10.4084 102.724 10.4907L103.256 10.8442C103.427 10.9564 103.651 10.8442 103.67 10.6366L104.029 6.63941C104.05 6.41308 103.814 6.2597 103.625 6.3738Z" fill="black"/>
<path d="M169.918 143.436C169.155 143.436 168.411 143.718 167.83 144.238C167.136 144.859 166.739 145.754 166.739 146.698V209.597C166.739 211.751 168.31 213.582 170.393 213.854L259.634 225.528C260.532 225.646 261.439 225.363 262.121 224.752C262.815 224.132 263.212 223.236 263.212 222.291V159.393C263.212 157.238 261.641 155.407 259.561 155.136L170.318 143.462C170.186 143.445 170.051 143.436 169.918 143.436ZM260.035 226.203C259.874 226.203 259.712 226.193 259.551 226.173L170.31 214.499C167.909 214.184 166.1 212.077 166.1 209.597V146.698C166.1 145.569 166.576 144.494 167.408 143.751C168.229 143.016 169.318 142.676 170.4 142.818L259.641 154.492C262.043 154.805 263.852 156.912 263.852 159.393V222.291C263.852 223.422 263.376 224.497 262.543 225.24C261.846 225.864 260.952 226.203 260.035 226.203Z" fill="black"/>
<path d="M257.738 222.935C258.305 223.01 258.884 222.831 259.316 222.444C259.756 222.05 260.01 221.481 260.01 220.882V160.209C260.01 158.687 258.899 157.394 257.43 157.201L172.217 146.055C171.649 145.98 171.073 146.16 170.639 146.548C170.199 146.94 169.945 147.511 169.945 148.11V208.781C169.945 210.303 171.056 211.596 172.525 211.789L257.738 222.935ZM257.992 223.602C257.881 223.602 257.769 223.595 257.656 223.581L172.445 212.433C170.655 212.2 169.307 210.629 169.307 208.781V148.11C169.307 147.324 169.639 146.576 170.217 146.059C170.789 145.549 171.547 145.312 172.299 145.411L257.51 156.558C259.3 156.792 260.648 158.361 260.648 160.209V220.882C260.648 221.668 260.316 222.414 259.739 222.931C259.253 223.365 258.63 223.602 257.992 223.602Z" fill="black"/>
<path d="M207.53 262.893L115.749 250.753C115.031 250.658 114.626 250.042 114.635 249.424C114.642 248.998 114.674 246.002 114.674 246.002L163.204 217.545C165.637 216.121 168.781 215.57 171.559 215.935L262.181 227.925C262.726 227.999 263.195 228.361 263.41 228.88L263.556 229.23C263.556 229.23 263.477 231.73 263.509 232.313C263.536 232.77 263.333 233.24 262.867 233.514L215.557 261.26C213.126 262.684 210.308 263.258 207.53 262.893Z" fill="black"/>
<path d="M207.53 259.558L116.076 247.44C114.863 247.281 114.544 245.63 115.607 245.007L162.663 217.438C165.095 216.014 167.913 215.44 170.69 215.805L262.143 227.924C263.357 228.083 263.678 229.735 262.615 230.357L215.556 257.926C213.126 259.35 210.309 259.923 207.53 259.558Z" fill="white"/>
<path d="M225.435 244.255L146.132 233.671C145.037 233.527 144.749 232.035 145.708 231.473L164.353 220.66C166.55 219.372 169.095 218.855 171.604 219.185L250.905 229.769C252.002 229.914 252.291 231.406 251.331 231.968L232.686 242.781C230.489 244.067 227.944 244.584 225.435 244.255Z" fill="black"/>
<path d="M209.15 259.988C208.595 259.988 208.041 259.952 207.492 259.88L116.037 247.762C115.349 247.672 114.814 247.163 114.677 246.464C114.54 245.763 114.843 245.08 115.449 244.725L162.506 217.156C164.983 215.706 167.908 215.113 170.733 215.483L183.682 217.199C183.856 217.222 183.982 217.385 183.957 217.563C183.935 217.741 183.774 217.868 183.599 217.843L170.651 216.127C167.96 215.774 165.182 216.34 162.826 217.72L115.767 245.287C115.325 245.547 115.238 246 115.303 246.338C115.37 246.671 115.619 247.052 116.119 247.118L207.572 259.236C210.263 259.59 213.045 259.024 215.4 257.644L262.456 230.076C262.899 229.816 262.987 229.364 262.921 229.026C262.856 228.692 262.606 228.312 262.104 228.245L196.599 219.566C196.422 219.543 196.301 219.38 196.323 219.201C196.346 219.025 196.503 218.897 196.681 218.921L262.187 227.602C262.876 227.692 263.41 228.201 263.547 228.899C263.686 229.601 263.384 230.283 262.777 230.638L215.719 258.207C213.723 259.376 211.44 259.988 209.15 259.988Z" fill="black"/>
<path d="M22.1972 28.5709C21.666 28.5709 21.1821 28.7811 20.8351 29.1617C20.4808 29.5491 20.3089 30.0704 20.3504 30.6264L25.1476 94.9183C25.2342 96.079 26.2237 97.0225 27.3533 97.0225H123.951C124.481 97.0225 124.966 96.8123 125.312 96.4317C125.667 96.0443 125.838 95.523 125.797 94.967L121 30.6751C120.914 29.5144 119.923 28.5709 118.794 28.5709H22.1972ZM123.951 97.6724H27.3533C25.8969 97.6724 24.6216 96.4578 24.51 94.967L19.713 30.6751C19.658 29.9366 19.8898 29.2416 20.3663 28.7203C20.8357 28.2042 21.4859 27.921 22.1972 27.921H118.794C120.251 27.921 121.526 29.1356 121.638 30.6264L126.435 94.9183C126.49 95.6568 126.258 96.3501 125.782 96.8731C125.312 97.3874 124.662 97.6724 123.951 97.6724Z" fill="black"/>
<path d="M26.3563 32.8282C25.8491 32.8282 25.394 33.0216 25.075 33.3724C24.7778 33.6993 24.6344 34.1306 24.6703 34.5859L29.111 90.9544C29.1896 91.9522 30.0948 92.7635 31.129 92.7635H120.546C121.054 92.7635 121.508 92.5701 121.827 92.2175C122.124 91.8906 122.268 91.461 122.233 91.0058L117.792 34.6372C117.713 33.6394 116.809 32.8282 115.774 32.8282H26.3563ZM120.546 93.4138H31.129C29.7694 93.4138 28.5781 92.3339 28.4736 91.0058L24.0329 34.6372C23.9827 33.9988 24.1859 33.393 24.6053 32.9326C25.047 32.4448 25.6686 32.1778 26.3563 32.1778H115.774C117.134 32.1778 118.324 33.2578 118.429 34.5859L122.869 90.9544C122.92 91.5911 122.716 92.197 122.298 92.6591C121.855 93.1451 121.233 93.4138 120.546 93.4138Z" fill="black"/>
<path d="M94.4062 43.4028C94.4062 43.4028 102.663 46.6703 112.597 38.3963C117.155 34.5987 119.929 28.9931 120.317 22.9827C120.392 21.8082 120.904 20.7082 121.747 19.9095L128.866 15.2551C128.866 15.2551 128.362 16.0538 127.813 18.1178C127.264 20.1818 125.593 21.9988 125.379 22.8575L128.866 21.7919C128.866 21.7919 128.496 24.0374 126.791 25.5386C125.086 27.0399 124.505 30.8048 124.505 30.8048C124.505 30.8048 122.079 60.8041 96.5301 60.3194L94.4062 43.4028Z" fill="white"/>
<path d="M96.8131 59.9974C96.9272 59.9993 97.04 59.9993 97.1531 59.9993C107.31 59.9993 114.932 55.1557 119.817 45.594C123.543 38.2969 124.182 30.8526 124.188 30.7781C124.215 30.5963 124.81 26.8542 126.583 25.293C127.69 24.3188 128.207 22.9939 128.422 22.2669L125.472 23.1684C125.361 23.2029 125.241 23.1738 125.158 23.092C125.075 23.0102 125.041 22.8903 125.07 22.7776C125.169 22.385 125.489 21.8834 125.894 21.2491C126.471 20.3477 127.188 19.2281 127.506 18.0322C127.722 17.218 127.933 16.5946 128.111 16.1348L121.945 20.1659C121.171 20.9093 120.708 21.9161 120.637 23.003C120.241 29.126 117.385 34.8274 112.801 38.6459C104.215 45.7994 96.7421 44.4054 94.7873 43.862L96.8131 59.9974ZM97.1328 60.6499C96.9313 60.6499 96.7301 60.6481 96.5254 60.6445C96.367 60.6408 96.2347 60.519 96.2144 60.3591L94.0904 43.444C94.0763 43.3295 94.1219 43.2168 94.2107 43.1459C94.2989 43.0769 94.4181 43.0587 94.5231 43.1005C94.6041 43.1314 102.738 46.1902 112.395 38.1443C116.844 34.4385 119.615 28.9043 119.999 22.9612C120.081 21.698 120.624 20.5312 121.529 19.6716C121.543 19.6588 121.559 19.6461 121.574 19.6352L128.695 14.9807C128.822 14.8989 128.988 14.9171 129.094 15.0243C129.2 15.1334 129.218 15.3006 129.138 15.4296C129.133 15.4369 128.648 16.2275 128.124 18.2012C127.779 19.4953 127.031 20.6639 126.43 21.6035C126.261 21.8689 126.101 22.1179 125.974 22.336L128.776 21.4799C128.882 21.4472 128.996 21.4727 129.08 21.5472C129.162 21.6217 129.201 21.7344 129.183 21.8453C129.167 21.9416 128.773 24.2243 127.001 25.7837C125.404 27.1904 124.829 30.8181 124.823 30.8544C124.819 30.9071 124.17 38.4823 120.384 45.8939C116.929 52.6567 110.099 60.6499 97.1328 60.6499Z" fill="black"/>
<path d="M41.9308 92.9932H81.5693C81.7375 78.4286 87.3933 60.6342 87.3933 60.6342L98.4491 61.4767L99.7577 41.4134C99.7577 41.4134 88.4878 40.5592 79.3663 39.7518C73.2073 39.2079 61.7928 41.4968 55.0279 43.0417C51.5606 43.8325 48.4866 45.8729 46.3571 48.7891L40.0195 57.4694L46.899 61.4767C41.0032 71.6836 41.0554 84.6632 41.9308 92.9932Z" fill="black"/>
<path d="M68.2473 63.7091L69.9428 92.5125C69.9686 92.9503 69.7353 93.3607 69.3561 93.5422L36.6091 109.186C35.9666 109.494 35.2295 109.026 35.1857 108.283L33.4902 79.4791C33.4645 79.0413 33.6977 78.631 34.0772 78.4494L66.8242 62.8045C67.4666 62.4978 68.2036 62.9662 68.2473 63.7091Z" fill="white"/>
<path d="M67.241 63.0346C67.1462 63.0346 67.0513 63.056 66.9611 63.0987L34.2146 78.7441C33.9551 78.8677 33.7928 79.1547 33.8105 79.46L35.5061 108.262C35.5208 108.513 35.6522 108.737 35.8574 108.861C36.0493 108.975 36.2736 108.988 36.4745 108.893L69.221 93.2476C69.4808 93.124 69.643 92.8354 69.6253 92.5317L67.9296 63.7292C67.9149 63.4773 67.7837 63.2544 67.5784 63.1293C67.4725 63.0667 67.3572 63.0346 67.241 63.0346ZM36.1936 109.609C35.9656 109.609 35.7383 109.545 35.5311 109.42C35.1435 109.186 34.8957 108.768 34.8682 108.301L33.1724 79.4982C33.139 78.9227 33.4412 78.3945 33.9428 78.1564L66.6893 62.511C67.0847 62.3217 67.5276 62.3431 67.9046 62.5706C68.2923 62.8056 68.54 63.2239 68.5675 63.6895L70.2633 92.492C70.2966 93.0598 69.9873 93.5987 69.4933 93.8353L36.7466 109.481C36.5682 109.565 36.3807 109.609 36.1936 109.609Z" fill="black"/>
<path d="M66.013 61.4365L67.7084 90.24C67.7342 90.6787 67.501 91.0882 67.1216 91.2683L34.3745 106.913C33.7322 107.221 32.9951 106.753 32.9514 106.009L31.2558 77.206C31.2301 76.7672 31.4633 76.3578 31.8426 76.1776L64.5898 60.5313C65.2321 60.225 65.9691 60.693 66.013 61.4365Z" fill="white"/>
<path d="M65.0085 60.7631C64.9136 60.7631 64.8186 60.7831 64.7286 60.8262L31.982 76.4727C31.7225 76.596 31.5602 76.884 31.5779 77.1875L33.2736 105.99C33.2883 106.242 33.4196 106.466 33.6247 106.589C33.817 106.704 34.0414 106.717 34.242 106.621L66.9886 90.9747C67.2483 90.8514 67.4105 90.5634 67.3927 90.2599L65.6971 61.4563C65.6822 61.2067 65.551 60.9818 65.3458 60.8586C65.24 60.7939 65.1246 60.7631 65.0085 60.7631ZM33.9612 107.336C33.733 107.336 33.5057 107.273 33.2986 107.148C32.9109 106.914 32.663 106.496 32.6357 106.03L30.9399 77.226C30.9067 76.6591 31.2165 76.12 31.7102 75.8843L64.4566 60.2393C64.8521 60.0498 65.2946 60.0714 65.6721 60.2994C66.0595 60.5335 66.3074 60.951 66.335 61.4178L68.0307 90.2198C68.0637 90.7883 67.7541 91.3274 67.2603 91.5631L34.514 107.21C34.3357 107.294 34.1481 107.336 33.9612 107.336Z" fill="black"/>
<path d="M42.1168 58.5152L52.0662 64.5163C52.0662 64.5163 43.7628 78.4249 56.3836 93.1534L64.5395 92.1274C64.5395 92.1274 62.7863 93.468 60.9804 93.8044C59.1745 94.1407 58.7882 96.1137 58.7882 96.1137L62.495 98.1998C62.495 98.1998 57.9359 102.55 55.0814 100.853C52.2268 99.1561 28.4696 80.9032 42.1168 58.5152Z" fill="white"/>
<path d="M42.2258 58.9609C38.4434 65.2983 37.3473 71.8747 38.9683 78.5116C41.8787 90.4243 52.7169 99.0728 55.2438 100.575C57.4395 101.881 60.8698 99.1892 61.9444 98.2625L58.6346 96.4C58.5127 96.3317 58.4489 96.192 58.4759 96.0523C58.4933 95.9638 58.9276 93.8576 60.924 93.4866C61.7273 93.3376 62.5264 92.9744 63.1507 92.6314L56.4239 93.4773C56.3187 93.4913 56.2135 93.4509 56.1434 93.3687C49.5498 85.6747 48.7145 78.1997 49.1751 73.284C49.5993 68.7549 51.1308 65.5777 51.6348 64.6355L42.2258 58.9609ZM56.5895 101.573C56.0075 101.573 55.4417 101.446 54.921 101.136C52.348 99.6067 41.312 90.7999 38.3478 78.6684C36.6605 71.7598 37.8377 64.9227 41.8467 58.3463C41.9381 58.1957 42.1319 58.1476 42.2814 58.2376L52.2308 64.2397C52.3037 64.2832 52.3569 64.3562 52.3773 64.44C52.3982 64.5238 52.385 64.6123 52.3408 64.6868C52.3202 64.7209 50.2883 68.1837 49.8088 73.3756C49.3692 78.1282 50.1812 85.3488 56.5143 92.8114L64.5012 91.8057C64.6441 91.787 64.7823 91.8693 64.8367 92.0059C64.891 92.1425 64.8481 92.2992 64.7327 92.3877C64.6588 92.4451 62.8978 93.78 61.0388 94.1261C59.8075 94.3543 59.3198 95.4718 59.1642 95.9561L62.651 97.918C62.7403 97.9676 62.8008 98.0592 62.8133 98.1617C62.826 98.2656 62.7892 98.3681 62.715 98.4395C62.5548 98.5916 59.3911 101.573 56.5895 101.573Z" fill="black"/>
<path d="M69.7775 33.7088C68.7878 34.3403 67.2322 35.3348 65.4997 34.8036C63.655 34.2383 62.1239 32.1024 62.4661 30.6731C62.766 29.4209 64.3273 29.4495 64.5663 28.1454C64.7909 26.9165 63.4885 26.4514 63.3995 24.9416C63.2807 22.9309 65.4009 20.5302 67.3663 20.473C68.5723 20.439 68.6937 21.3155 70.0888 21.4014C71.9882 21.5177 72.3658 19.9292 74.5221 19.7145C76.0754 19.5606 77.3431 20.2386 78.4112 20.8111C79.9951 21.659 81.0353 22.2153 81.1335 23.0865C81.3344 24.8718 77.2672 25.1562 73.511 29.6624C72.1451 31.301 71.6318 32.5228 69.7775 33.7088Z" fill="black"/>
<path d="M76.1868 35.1982C77.652 31.1186 74.4552 25.9315 74.2202 25.5039C74.2202 25.5039 72.4123 27.0495 70 26.8831C67.588 26.7166 67.789 30.0654 67.789 30.0654C66.4773 29.7693 66.2487 30.6735 66.5733 32.5205C66.8978 34.3676 68.6859 33.8278 68.6859 33.8278C68.9352 34.1327 69.1968 34.3991 69.4661 34.6322L66.4032 39.2795C65.5671 40.5483 64.3991 41.5489 63.0333 42.1675L61.792 42.73C61.4684 42.8772 61.5341 43.3679 61.8845 43.4152C64.3105 43.7482 70.0062 44.167 74.2814 41.6138C74.5379 41.4613 74.4705 41.0617 74.1802 40.9969L73.1859 40.7796C72.4788 40.6254 72.1104 39.8228 72.4454 39.1656L73.9979 36.1182C74.539 36.0954 75.0037 36.0218 75.3421 35.95C75.7327 35.8676 76.0489 35.582 76.1868 35.1982Z" fill="white"/>
<path d="M68.6866 33.5036C68.7802 33.5036 68.8716 33.5439 68.9329 33.6194C69.1574 33.8948 69.4068 34.1528 69.6745 34.3843C69.7983 34.4914 69.8231 34.6756 69.733 34.8124L66.67 39.46C65.7994 40.7812 64.5875 41.8198 63.1646 42.4654L61.9235 43.0269C61.9131 43.0321 61.8997 43.0374 61.9035 43.0655C61.9069 43.09 61.9174 43.0918 61.9288 43.0935C64.188 43.4041 69.8973 43.855 74.1207 41.3338L73.1202 41.0987C72.6868 41.004 72.3291 40.7145 72.139 40.3039C71.9475 39.8916 71.9561 39.4214 72.1627 39.0162L73.7154 35.9686C73.7682 35.8651 73.8715 35.7984 73.9861 35.7932C74.4218 35.7756 74.8566 35.7212 75.2782 35.6318C75.5585 35.5721 75.7865 35.3686 75.8878 35.0861C77.0476 31.8579 75.135 27.7875 74.1243 25.9822C73.4921 26.4261 71.9318 27.3436 69.9798 27.2068C69.4826 27.1735 69.0962 27.3033 68.7969 27.6033C68.0227 28.384 68.1085 30.0297 68.1093 30.0455C68.1152 30.1473 68.0738 30.2473 67.9977 30.3122C67.9219 30.3789 67.8197 30.4052 67.721 30.3824C67.356 30.2999 67.1031 30.3245 66.9685 30.4561C66.724 30.6947 66.6971 31.3702 66.889 32.4632C66.9675 32.9088 67.1475 33.2229 67.4247 33.3983C67.9183 33.7106 68.5907 33.5176 68.5972 33.5159C68.6266 33.5071 68.6564 33.5036 68.6866 33.5036ZM65.5229 43.9866C63.9895 43.9866 62.6841 43.8532 61.8432 43.7374C61.5435 43.6953 61.3136 43.4637 61.2708 43.1567C61.2275 42.8497 61.3854 42.5584 61.6634 42.4339L62.9043 41.8707C64.217 41.2777 65.3357 40.318 66.1387 39.0986L69.047 34.6861C68.8794 34.5282 68.7192 34.3615 68.5682 34.1861C68.2503 34.2422 67.6273 34.2878 67.0921 33.9527C66.6515 33.6773 66.3716 33.2141 66.2599 32.5772C66.0148 31.1824 66.0944 30.4087 66.5264 29.9876C66.7542 29.7648 67.0676 29.6648 67.4695 29.6911C67.4897 29.07 67.6273 27.87 68.3454 27.1436C68.7771 26.7085 69.3409 26.512 70.023 26.5594C72.2835 26.712 73.9987 25.2698 74.0157 25.2558C74.0884 25.1926 74.184 25.1663 74.2791 25.1839C74.3728 25.2014 74.4539 25.2611 74.5005 25.3453L74.557 25.4435C75.8163 27.6314 77.7417 31.8193 76.4882 35.3089C76.3104 35.8037 75.9069 36.1616 75.4087 36.2669C75.0129 36.3511 74.6068 36.4072 74.1987 36.4336L72.7301 39.3144C72.6159 39.539 72.6112 39.7986 72.7174 40.0267C72.8216 40.2513 73.0177 40.4109 73.2545 40.4618L74.2486 40.6794C74.5119 40.7373 74.7099 40.9513 74.7529 41.2233C74.7957 41.4935 74.6745 41.7566 74.4443 41.8935C71.6391 43.569 68.2277 43.9866 65.5229 43.9866Z" fill="black"/>
<path d="M73.6098 36.4692C72.2619 36.4692 71.0228 35.7103 70.9653 35.6748C70.815 35.5799 70.7675 35.3817 70.8592 35.2276C70.9508 35.0751 71.1476 35.026 71.2983 35.1191C71.3124 35.1276 72.6817 35.9644 73.9574 35.7967C74.1347 35.7747 74.293 35.9001 74.3152 36.0779C74.3374 36.2558 74.2137 36.4184 74.0386 36.4421C73.8954 36.4608 73.7521 36.4692 73.6098 36.4692Z" fill="black"/>
<path d="M67.4306 46.3813C61.6921 46.3813 58.0122 43.974 57.9577 43.9378C57.8106 43.8376 57.7701 43.6371 57.8676 43.4876C57.9647 43.3381 58.1634 43.297 58.3101 43.3956C58.3893 43.4481 66.3617 48.6441 77.148 43.3726C77.3075 43.2953 77.4981 43.3643 77.5745 43.5254C77.6512 43.6864 77.5839 43.882 77.4252 43.9592C73.7077 45.775 70.3097 46.3813 67.4306 46.3813Z" fill="white"/>
<path d="M16.1164 156.456C14.2497 156.456 12.6696 157.087 11.6674 158.234C10.7572 159.276 10.3764 160.685 10.5659 162.31L17.2625 218.335C17.6416 221.59 19.8359 223.171 23.9697 223.171H105.074C107.312 223.171 109.101 222.537 110.107 221.385C110.868 220.514 111.17 219.37 111.009 217.983L104.103 161.959C103.631 157.901 100.238 156.456 97.2208 156.456H16.1164ZM105.074 223.821H23.9697C19.5162 223.821 17.0462 222.001 16.6277 218.411L9.93103 162.388C9.7194 160.573 10.1548 158.987 11.1895 157.803C12.3146 156.515 14.0646 155.807 16.1164 155.807H97.2208C101.42 155.807 104.301 158.134 104.738 161.88L111.644 217.904C111.828 219.486 111.471 220.801 110.585 221.816C109.455 223.109 107.497 223.821 105.074 223.821Z" fill="black"/>
<path d="M112.164 230.934L22.32 230.752C18.5557 231.213 15.9163 230.785 14.2492 229.441C12.1815 227.774 11.8737 224.915 11.5763 222.152C11.533 221.749 11.4896 221.346 11.4408 220.943L4.07237 157.664C3.8254 155.626 4.2112 154.003 5.21961 152.845C6.56109 151.303 8.99425 150.552 12.6585 150.552L51.7631 150.459C51.7631 150.459 51.7634 150.459 51.7637 150.459C51.9397 150.459 52.0829 150.603 52.0832 150.782C52.0836 150.962 51.941 151.107 51.7642 151.109L12.6591 151.202C9.18808 151.202 6.91156 151.88 5.69844 153.274C4.80426 154.302 4.47995 155.713 4.70685 157.586L12.0755 220.866C12.1244 221.269 12.1681 221.676 12.2118 222.081C12.5079 224.834 12.788 227.433 14.6466 228.932C16.1756 230.165 18.6665 230.549 22.2626 230.104C22.2751 230.102 22.2878 230.102 22.3009 230.102C22.3009 230.102 22.3014 230.102 22.3016 230.102L112.165 230.283C113.9 230.283 115.236 229.759 116.138 228.723C117.46 227.203 117.906 224.586 117.464 220.943L109.546 156.163C109.523 155.985 109.647 155.823 109.823 155.801C109.997 155.778 110.158 155.904 110.179 156.083L118.099 220.864C118.564 224.7 118.065 227.488 116.616 229.154C115.589 230.335 114.091 230.934 112.164 230.934Z" fill="black"/>
<path d="M100.875 151.202H65.7181C65.5415 151.202 65.3984 151.057 65.3984 150.878C65.3984 150.698 65.5415 150.553 65.7181 150.553H100.875C101.052 150.554 101.195 150.699 101.195 150.879C101.195 151.057 101.052 151.202 100.875 151.202Z" fill="black"/>
<path d="M95.1657 66.0779C93.051 66.0779 91.3305 67.8265 91.3305 69.9762V174.653C91.3305 176.803 93.051 178.552 95.1657 178.552H189.216C191.331 178.552 193.051 176.803 193.051 174.653V69.9762C193.051 67.8265 191.331 66.0779 189.216 66.0779H95.1657ZM189.216 179.201H95.1657C92.6985 179.201 90.6914 177.162 90.6914 174.653V69.9762C90.6914 67.4693 92.6985 65.4282 95.1657 65.4282H189.216C191.684 65.4282 193.691 67.4693 193.691 69.9762V174.653C193.691 177.162 191.684 179.201 189.216 179.201Z" fill="black"/>
<path d="M139.967 101.939C145.192 113.335 140.527 126.966 129.546 132.388L119.445 111.736L139.967 101.939Z" fill="black"/>
<path d="M119.876 111.889L129.691 131.953C140.2 126.571 144.696 113.431 139.811 102.373L119.876 111.889ZM129.546 132.713C129.429 132.713 129.316 132.647 129.259 132.534L119.158 111.88C119.12 111.803 119.115 111.712 119.143 111.629C119.171 111.547 119.23 111.479 119.31 111.442L139.831 101.645C139.908 101.609 139.997 101.605 140.076 101.635C140.156 101.663 140.221 101.724 140.257 101.803C145.547 113.339 140.805 127.19 129.686 132.68C129.641 132.703 129.593 132.713 129.546 132.713Z" fill="black"/>
<path d="M139.967 101.939C134.593 90.2223 120.853 85.4351 109.695 91.612C99.732 97.1279 95.3986 109.789 99.7773 120.59C104.68 132.686 118.253 137.965 129.546 132.389L120.594 112.869C120.313 112.255 120.565 111.521 121.156 111.228L139.967 101.939Z" fill="black"/>
<path d="M120.062 89.2204C116.544 89.2204 113.057 90.1215 109.848 91.8978C100.067 97.313 95.7738 109.861 100.073 120.466C102.424 126.266 106.838 130.668 112.5 132.86C117.954 134.971 123.845 134.747 129.122 132.235L120.305 113.007C119.95 112.234 120.27 111.305 121.017 110.936L139.543 101.788C136.925 96.2754 132.388 92.2097 126.737 90.3183C124.545 89.5854 122.297 89.2204 120.062 89.2204ZM120.103 134.947C117.466 134.947 114.824 134.455 112.272 133.466C106.443 131.21 101.901 126.681 99.4818 120.714C95.0603 109.806 99.4792 96.8977 109.542 91.3272C114.947 88.3336 121.126 87.7573 126.938 89.7018C132.856 91.6808 137.586 95.9793 140.257 101.803C140.33 101.962 140.264 102.155 140.107 102.231L121.296 111.521C120.862 111.735 120.677 112.278 120.885 112.732L129.836 132.252C129.91 132.411 129.843 132.604 129.686 132.68C126.634 134.188 123.374 134.947 120.103 134.947Z" fill="black"/>
<path d="M129.547 132.388L120.595 112.869L119.893 134.606C123.131 134.638 126.425 133.929 129.547 132.388Z" fill="black"/>
<path d="M120.87 114.24L120.223 134.281C123.312 134.265 126.302 133.577 129.122 132.235L120.87 114.24ZM120.107 134.932C120.035 134.932 119.961 134.931 119.889 134.931C119.803 134.929 119.721 134.893 119.661 134.83C119.602 134.767 119.57 134.682 119.572 134.596L120.275 112.859C120.281 112.709 120.387 112.581 120.531 112.551C120.677 112.52 120.822 112.596 120.884 112.732L129.836 132.252C129.91 132.411 129.843 132.604 129.686 132.68C126.659 134.175 123.438 134.932 120.107 134.932Z" fill="black"/>
<path d="M128.379 111.758C128.379 116.506 124.67 120.356 120.092 120.356C115.516 120.356 111.805 116.506 111.805 111.758C111.805 107.008 115.516 103.158 120.092 103.158C124.67 103.158 128.379 107.008 128.379 111.758Z" fill="white"/>
<path d="M120.093 103.483C115.699 103.483 112.125 107.195 112.125 111.758C112.125 116.32 115.699 120.032 120.093 120.032C124.487 120.032 128.061 116.32 128.061 111.758C128.061 107.195 124.487 103.483 120.093 103.483ZM120.093 120.681C115.347 120.681 111.486 116.679 111.486 111.758C111.486 106.836 115.347 102.833 120.093 102.833C124.839 102.833 128.7 106.836 128.7 111.758C128.7 116.679 124.839 120.681 120.093 120.681Z" fill="black"/>
<path d="M114.953 169.22C115.448 169.235 115.926 169.046 116.254 168.719C116.517 168.455 116.663 168.119 116.663 167.771V157.202C116.663 156.416 115.925 155.766 115.018 155.753L112.573 155.716C112.563 155.716 112.553 155.716 112.544 155.716C112.06 155.716 111.6 155.898 111.281 156.218C111.018 156.481 110.872 156.817 110.872 157.163L110.848 167.721C110.847 168.504 111.58 169.155 112.485 169.172L114.953 169.22ZM114.99 169.869C114.975 169.869 114.958 169.869 114.942 169.869L112.472 169.822C111.223 169.799 110.208 168.855 110.209 167.719L110.233 157.162C110.234 156.64 110.446 156.14 110.832 155.755C111.279 155.308 111.908 155.058 112.583 155.066L115.028 155.104C116.282 155.122 117.302 156.064 117.302 157.202V167.771C117.302 168.294 117.088 168.796 116.701 169.182C116.263 169.621 115.642 169.869 114.99 169.869Z" fill="black"/>
<path d="M123.701 169.22C124.196 169.231 124.674 169.046 125 168.72C125.265 168.457 125.409 168.119 125.409 167.771V150.537C125.409 149.752 124.672 149.102 123.766 149.089L121.32 149.052C121.31 149.052 121.3 149.052 121.292 149.052C120.807 149.052 120.348 149.235 120.028 149.554C119.765 149.817 119.62 150.153 119.62 150.501L119.594 167.721C119.593 168.504 120.326 169.155 121.23 169.172L123.701 169.22ZM123.736 169.869C123.721 169.869 123.705 169.869 123.688 169.869L121.218 169.822C119.969 169.799 118.954 168.856 118.955 167.721L118.981 150.499C118.981 149.976 119.194 149.476 119.58 149.091C120.018 148.653 120.64 148.402 121.292 148.402C121.305 148.402 121.317 148.402 121.33 148.402L123.774 148.44C125.028 148.459 126.049 149.398 126.049 150.537V167.771C126.049 168.296 125.836 168.796 125.448 169.182C125.01 169.621 124.388 169.869 123.736 169.869Z" fill="black"/>
<path d="M132.448 169.22C132.942 169.235 133.42 169.046 133.747 168.719C134.011 168.455 134.157 168.119 134.157 167.771V154.088C134.157 153.303 133.419 152.653 132.513 152.639L130.067 152.603C129.576 152.59 129.1 152.778 128.775 153.105C128.512 153.368 128.366 153.704 128.366 154.05L128.342 167.721C128.341 168.504 129.074 169.155 129.978 169.172L132.448 169.22ZM132.484 169.869C132.467 169.869 132.452 169.869 132.436 169.869L129.967 169.822C128.715 169.799 127.7 168.855 127.703 167.719L127.727 154.049C127.727 153.527 127.941 153.027 128.327 152.642C128.773 152.195 129.417 151.943 130.077 151.953L132.521 151.989C133.775 152.008 134.796 152.949 134.796 154.088V167.771C134.796 168.294 134.582 168.796 134.195 169.182C133.757 169.621 133.135 169.869 132.484 169.869Z" fill="black"/>
<path d="M141.191 169.22C141.687 169.231 142.164 169.046 142.492 168.719C142.755 168.456 142.9 168.119 142.9 167.771V140.869C142.9 140.083 142.162 139.433 141.256 139.42L138.812 139.383C138.303 139.377 137.845 139.559 137.52 139.884C137.257 140.147 137.111 140.483 137.111 140.831L137.084 167.722C137.083 168.505 137.817 169.155 138.72 169.172L141.191 169.22ZM141.228 169.869C141.212 169.869 141.195 169.869 141.18 169.869L138.709 169.822C137.459 169.799 136.444 168.856 136.445 167.721L136.472 140.83C136.472 140.308 136.686 139.808 137.07 139.421C137.51 138.983 138.132 138.733 138.784 138.733C138.796 138.733 138.809 138.733 138.822 138.733L141.266 138.769C142.519 138.788 143.539 139.729 143.539 140.869V167.771C143.539 168.295 143.326 168.796 142.94 169.182C142.5 169.621 141.88 169.869 141.228 169.869Z" fill="black"/>
<path d="M149.941 169.22C150.435 169.234 150.912 169.046 151.24 168.719C151.503 168.455 151.648 168.119 151.648 167.769V133.943C151.648 133.158 150.912 132.509 150.004 132.496L147.561 132.458C147.059 132.451 146.594 132.635 146.268 132.961C146.005 133.224 145.861 133.559 145.861 133.907L145.832 167.722C145.831 168.505 146.565 169.155 147.468 169.172L149.941 169.22ZM149.976 169.869C149.96 169.869 149.945 169.869 149.928 169.869L147.457 169.822C146.207 169.799 145.192 168.856 145.193 167.722L145.22 133.907C145.222 133.384 145.434 132.884 145.82 132.497C146.266 132.05 146.89 131.804 147.57 131.809L150.014 131.845C151.268 131.865 152.287 132.805 152.287 133.943V167.769C152.287 168.294 152.074 168.796 151.687 169.182C151.248 169.621 150.628 169.869 149.976 169.869Z" fill="black"/>
<path d="M158.68 169.543L156.207 169.497C155.123 169.477 154.258 168.688 154.258 167.722L154.286 128.758C154.288 127.768 155.199 126.969 156.311 126.986L158.755 127.022C159.842 127.038 160.714 127.827 160.714 128.794C160.714 135.659 160.714 160.785 160.714 167.77C160.714 168.764 159.795 169.565 158.68 169.543Z" fill="black"/>
<path d="M167.429 169.22C167.924 169.231 168.402 169.046 168.73 168.72C168.993 168.457 169.139 168.119 169.139 167.771V140.081C169.139 139.295 168.401 138.646 167.494 138.633L165.05 138.595C164.538 138.59 164.083 138.771 163.758 139.097C163.495 139.36 163.349 139.696 163.349 140.044L163.323 167.722C163.321 168.506 164.055 169.155 164.958 169.172L167.429 169.22ZM167.466 169.869C167.449 169.869 167.434 169.869 167.418 169.869L164.947 169.822C163.697 169.799 162.682 168.856 162.684 167.721L162.71 140.043C162.71 139.521 162.924 139.021 163.308 138.634C163.755 138.187 164.38 137.934 165.06 137.946L167.504 137.982C168.757 138 169.778 138.942 169.778 140.081V167.771C169.778 168.296 169.564 168.796 169.177 169.182C168.739 169.621 168.117 169.869 167.466 169.869Z" fill="black"/>
<path d="M176.174 169.22C176.668 169.231 177.146 169.046 177.474 168.719C177.737 168.456 177.883 168.12 177.883 167.771V131.031C177.883 130.245 177.145 129.596 176.239 129.581L173.796 129.545C173.307 129.537 172.827 129.721 172.502 130.047C172.239 130.31 172.095 130.646 172.095 130.994L172.067 167.722C172.065 168.505 172.799 169.155 173.702 169.172L176.174 169.22ZM176.21 169.869C176.195 169.869 176.179 169.869 176.162 169.869L173.691 169.822C172.441 169.799 171.426 168.856 171.428 167.722L171.455 130.992C171.456 130.471 171.668 129.971 172.054 129.584C172.492 129.146 173.114 128.896 173.766 128.896C173.779 128.896 173.791 128.896 173.804 128.896L176.249 128.932C177.503 128.95 178.522 129.892 178.522 131.031V167.771C178.522 168.295 178.308 168.797 177.922 169.182C177.483 169.621 176.862 169.869 176.21 169.869Z" fill="black"/>
<path d="M184.916 169.543L182.444 169.497C181.359 169.477 180.493 168.688 180.494 167.722L180.522 119.964C180.522 118.972 181.436 118.175 182.547 118.191L184.991 118.228C186.078 118.244 186.949 119.033 186.949 120.001C186.949 127.843 186.949 159.795 186.949 167.771C186.949 168.766 186.032 169.565 184.916 169.543Z" fill="black"/>
<path d="M157.735 78.8729C157.14 78.8729 156.657 79.3644 156.657 79.9694C156.657 80.573 157.14 81.066 157.735 81.066H185.57C186.165 81.066 186.649 80.573 186.649 79.9694C186.649 79.3644 186.165 78.8729 185.57 78.8729H157.735ZM185.57 81.7156H157.735C156.788 81.7156 156.018 80.9323 156.018 79.9694C156.018 79.0065 156.788 78.2233 157.735 78.2233H185.57C186.517 78.2233 187.288 79.0065 187.288 79.9694C187.288 80.9323 186.517 81.7156 185.57 81.7156Z" fill="black"/>
<path d="M176.883 75.6636H158.39C157.62 75.6636 156.99 75.0232 156.99 74.2424C156.99 73.4602 157.62 72.8212 158.39 72.8212H176.883C177.651 72.8212 178.279 73.4602 178.279 74.2424C178.279 75.0232 177.651 75.6636 176.883 75.6636Z" fill="black"/>
<path d="M157.735 84.8228C157.14 84.8228 156.657 85.3143 156.657 85.9194C156.657 86.523 157.14 87.0159 157.735 87.0159H185.57C186.165 87.0159 186.649 86.523 186.649 85.9194C186.649 85.3143 186.165 84.8228 185.57 84.8228H157.735ZM185.57 87.6655H157.735C156.788 87.6655 156.018 86.8823 156.018 85.9194C156.018 84.9565 156.788 84.1732 157.735 84.1732H185.57C186.517 84.1732 187.288 84.9565 187.288 85.9194C187.288 86.8823 186.517 87.6655 185.57 87.6655Z" fill="black"/>
<path d="M157.841 90.8614C157.248 90.8614 156.764 91.3529 156.764 91.9579C156.764 92.5615 157.248 93.053 157.841 93.053H185.678C186.273 93.053 186.756 92.5615 186.756 91.9579C186.756 91.3529 186.273 90.8614 185.678 90.8614H157.841ZM185.678 93.7026H157.841C156.895 93.7026 156.125 92.9208 156.125 91.9579C156.125 90.995 156.895 90.2118 157.841 90.2118H185.678C186.625 90.2118 187.395 90.995 187.395 91.9579C187.395 92.9208 186.625 93.7026 185.678 93.7026Z" fill="black"/>
<path d="M157.841 96.8111C157.248 96.8111 156.764 97.3026 156.764 97.9076C156.764 98.5112 157.248 99.0027 157.841 99.0027H185.678C186.273 99.0027 186.756 98.5112 186.756 97.9076C186.756 97.3026 186.273 96.8111 185.678 96.8111H157.841ZM185.678 99.6523H157.841C156.895 99.6523 156.125 98.8691 156.125 97.9076C156.125 96.9447 156.895 96.1615 157.841 96.1615H185.678C186.625 96.1615 187.395 96.9447 187.395 97.9076C187.395 98.8691 186.625 99.6523 185.678 99.6523Z" fill="black"/>
<path d="M153.088 79.7857C153.088 80.7199 152.35 81.4758 151.44 81.4758C150.531 81.4758 149.793 80.7199 149.793 79.7857C149.793 78.853 150.531 78.0956 151.44 78.0956C152.35 78.0956 153.088 78.853 153.088 79.7857Z" fill="black"/>
<path d="M153.326 85.8228C153.326 86.757 152.588 87.5129 151.678 87.5129C150.767 87.5129 150.029 86.757 150.029 85.8228C150.029 84.8887 150.767 84.1327 151.678 84.1327C152.588 84.1327 153.326 84.8887 153.326 85.8228Z" fill="black"/>
<path d="M153.336 91.7584C153.336 92.6911 152.598 93.4485 151.687 93.4485C150.777 93.4485 150.039 92.6911 150.039 91.7584C150.039 90.8242 150.777 90.0683 151.687 90.0683C152.598 90.0683 153.336 90.8242 153.336 91.7584Z" fill="black"/>
<path d="M153.245 97.9771C153.245 98.9113 152.507 99.6672 151.598 99.6672C150.687 99.6672 149.949 98.9113 149.949 97.9771C149.949 97.0444 150.687 96.287 151.598 96.287C152.507 96.287 153.245 97.0444 153.245 97.9771Z" fill="black"/>
<path d="M132.589 76.4836H108.136C107.134 76.4836 106.314 75.6501 106.314 74.6323C106.314 73.6145 107.134 72.781 108.136 72.781H132.589C133.59 72.781 134.41 73.6145 134.41 74.6323C134.41 75.6501 133.59 76.4836 132.589 76.4836Z" fill="black"/>
<path d="M106.099 79.0638C105.27 79.0638 104.596 79.7493 104.596 80.59C104.596 81.4322 105.27 82.1163 106.099 82.1163H134.946C135.774 82.1163 136.447 81.4322 136.447 80.59C136.447 79.7493 135.774 79.0638 134.946 79.0638H106.099ZM134.946 82.7673H106.099C104.918 82.7673 103.957 81.7901 103.957 80.59C103.957 79.39 104.918 78.4142 106.099 78.4142H134.946C136.126 78.4142 137.086 79.39 137.086 80.59C137.086 81.7901 136.126 82.7673 134.946 82.7673Z" fill="black"/>
<path d="M125.181 102.499L134.567 105.965C134.567 105.965 140.412 107.689 143.208 113.447C146.004 119.202 160.873 150.035 200.222 147.28L192.774 169.81C192.774 169.81 149.984 167.412 140.725 122.529C140.232 120.145 138.124 118.431 136.021 117.297C134.038 116.227 131.886 114.285 131.613 110.849C131.268 106.503 128.195 107.256 126.857 106.494C125.836 105.912 124.353 105.287 123.902 103.733C123.67 102.942 124.423 102.218 125.181 102.499Z" fill="white"/>
<path d="M124.844 102.763C124.68 102.763 124.52 102.827 124.394 102.949C124.205 103.13 124.136 103.389 124.209 103.641C124.569 104.874 125.657 105.466 126.617 105.991C126.755 106.066 126.888 106.139 127.016 106.211C127.307 106.377 127.732 106.47 128.182 106.566C129.648 106.885 131.654 107.319 131.932 110.823C132.2 114.191 134.385 116.045 136.173 117.01C138.926 118.496 140.61 120.381 141.039 122.463C145.794 145.512 159.601 157.067 170.346 162.7C181.035 168.305 190.897 169.331 192.55 169.467L199.768 147.635C183.324 148.681 169.231 144.048 157.871 133.865C148.84 125.768 144.404 116.637 142.946 113.638L142.922 113.591C140.22 108.028 134.535 106.294 134.478 106.279L125.071 102.806C124.997 102.777 124.92 102.763 124.844 102.763ZM192.775 170.134C192.769 170.134 192.763 170.134 192.757 170.134C192.648 170.129 181.854 169.46 170.077 163.289C163.155 159.664 157.248 154.876 152.518 149.06C146.61 141.789 142.537 132.886 140.413 122.598C139.922 120.214 137.673 118.555 135.873 117.583C133.943 116.545 131.586 114.535 131.296 110.874C131.055 107.854 129.459 107.508 128.049 107.203C127.551 107.094 127.079 106.991 126.703 106.778C126.58 106.708 126.451 106.636 126.315 106.563C125.296 106.009 124.029 105.318 123.595 103.825C123.454 103.34 123.592 102.822 123.955 102.476C124.316 102.132 124.828 102.023 125.291 102.194L134.676 105.661C134.901 105.725 140.669 107.487 143.496 113.304L143.52 113.351C149.785 126.249 164.669 147.129 195.278 147.132C196.875 147.132 198.515 147.073 200.202 146.957C200.307 146.949 200.411 146.994 200.477 147.081C200.542 147.167 200.56 147.28 200.526 147.383L193.078 169.913C193.033 170.047 192.91 170.134 192.775 170.134Z" fill="black"/>
<path d="M137.6 116.955C137.552 116.955 137.503 116.945 137.456 116.92C134.74 115.527 134.549 113.563 134.424 112.264C134.367 111.674 134.322 111.209 134.074 111.042C132.61 110.058 132.371 108.856 132.427 108.023C132.453 107.653 132.661 107.334 132.983 107.166C133.304 107.001 133.677 107.018 133.982 107.212L140.38 111.281C140.529 111.376 140.575 111.577 140.48 111.728C140.387 111.88 140.19 111.926 140.04 111.831L133.643 107.762C133.529 107.689 133.394 107.683 133.273 107.745C133.151 107.808 133.075 107.926 133.065 108.067C132.999 109.03 133.458 109.848 134.428 110.5C134.928 110.837 134.989 111.469 135.06 112.2C135.186 113.495 135.341 115.108 137.744 116.339C137.901 116.421 137.965 116.617 137.886 116.776C137.829 116.89 137.716 116.955 137.6 116.955Z" fill="black"/>
<path d="M197.35 215.743L229.368 219.447L240.308 157.373C240.308 157.373 221.09 148.485 202.437 146.129C199.615 145.772 196.862 147.185 195.459 149.721C192.466 155.121 189.346 160.976 187.357 169.03C184.448 180.797 197.35 215.743 197.35 215.743Z" fill="white"/>
<path d="M197.58 215.443L229.104 219.089L239.947 157.566C237.729 156.569 219.705 148.638 202.394 146.451C199.695 146.109 197.078 147.456 195.735 149.88C192.578 155.577 189.588 161.334 187.665 169.109C184.923 180.206 196.574 212.677 197.58 215.443ZM229.368 219.772C229.356 219.772 229.343 219.771 229.331 219.769L197.314 216.067C197.192 216.053 197.09 215.972 197.049 215.859C196.522 214.427 184.147 180.681 187.045 168.951C188.986 161.099 191.999 155.298 195.178 149.562C196.65 146.906 199.519 145.432 202.474 145.807C220.963 148.143 240.245 156.988 240.437 157.077C240.57 157.138 240.645 157.284 240.619 157.429L229.681 219.503C229.655 219.66 229.52 219.772 229.368 219.772Z" fill="black"/>
<path d="M233.634 194.6L240.306 157.373C240.306 157.373 246.672 161.107 249.202 202.244C250.046 216.004 198.902 207.394 198.902 207.394L193.829 212.507C192.383 213.966 191.397 215.836 190.998 217.876L190.926 218.243C190.666 219.565 188.876 219.7 188.432 218.43L187.829 216.708C186.852 213.908 187.409 210.786 189.295 208.529C191.737 205.612 195.136 201.987 197.379 201.401C201.22 200.396 233.634 194.6 233.634 194.6Z" fill="white"/>
<path d="M240.517 158.024L233.952 194.657C233.929 194.791 233.825 194.896 233.693 194.919C233.369 194.978 201.249 200.726 197.463 201.715C195.754 202.162 193.016 204.591 189.543 208.74C187.735 210.9 187.195 213.911 188.135 216.599L188.737 218.322C188.921 218.851 189.366 219.009 189.728 218.984C190.085 218.958 190.509 218.733 190.616 218.18L190.687 217.813C191.1 215.7 192.112 213.786 193.608 212.276L198.68 207.164C198.754 207.09 198.857 207.057 198.957 207.073C199.356 207.14 238.901 213.691 247.357 205.928C248.474 204.903 248.974 203.704 248.885 202.264C246.769 167.821 241.902 159.672 240.517 158.024ZM189.645 219.637C188.955 219.637 188.371 219.217 188.135 218.539L187.533 216.816C186.516 213.911 187.102 210.656 189.055 208.319C191.538 205.354 194.982 201.692 197.302 201.086C200.991 200.123 230.279 194.872 233.362 194.318L239.997 157.314C240.013 157.211 240.081 157.121 240.175 157.077C240.268 157.034 240.379 157.038 240.468 157.091C240.735 157.247 247.015 161.383 249.523 202.224C249.623 203.851 249.039 205.259 247.786 206.41C239.292 214.206 202.18 208.266 199.015 207.741L194.06 212.737C192.652 214.157 191.703 215.955 191.315 217.939L191.243 218.306C191.097 219.056 190.519 219.578 189.772 219.632C189.731 219.635 189.688 219.637 189.645 219.637Z" fill="black"/>
<path d="M233.632 194.926C233.477 194.926 233.341 194.809 233.318 194.647C233.292 194.47 233.412 194.305 233.587 194.279L240.259 193.288C240.434 193.262 240.595 193.385 240.621 193.562C240.647 193.74 240.526 193.904 240.351 193.93L233.678 194.922C233.663 194.924 233.647 194.926 233.632 194.926Z" fill="black"/>
<path d="M218.981 110.863C214.419 112.59 215.321 116.374 207.827 123.608C203.555 127.731 201.499 128.202 200.596 129.73C200.371 130.11 200.287 130.401 200.187 130.8C199.252 134.575 203.244 139.49 207.135 141.895C214.352 146.356 219.918 141.383 224.424 145.771C227.685 148.947 226.193 152.944 229.346 154.447C232.523 155.962 237.045 153.336 239.47 150.911C244.73 145.654 244.078 137.428 243.733 133.631C243.171 127.416 240.918 123.243 240.197 121.984C239.405 120.599 237.925 118.061 235.233 115.736C234.676 115.256 226.204 108.126 218.981 110.863Z" fill="black"/>
<path d="M218.814 143.469C220.896 143.469 222.861 143.801 224.642 145.535C226.284 147.134 226.765 148.919 227.189 150.492C227.632 152.139 227.986 153.44 229.48 154.153C232.606 155.643 237.032 152.892 239.244 150.68C244.48 145.446 243.734 137.188 243.413 133.662C242.906 128.07 241.008 124.047 239.92 122.147C239.209 120.905 237.729 118.32 235.024 115.985C234.668 115.678 226.203 108.473 219.092 111.167C216.828 112.024 216.001 113.361 214.63 115.574C213.388 117.581 211.684 120.331 208.047 123.843C205.78 126.031 204.145 127.188 202.95 128.035C201.933 128.757 201.262 129.232 200.868 129.897C200.662 130.246 200.586 130.513 200.495 130.881C199.627 134.379 203.351 139.178 207.3 141.618C210.864 143.821 214.057 143.667 216.872 143.532C217.529 143.5 218.177 143.469 218.814 143.469ZM231.428 155.218C230.656 155.218 229.904 155.074 229.208 154.742C227.446 153.901 227.022 152.329 226.573 150.665C226.17 149.171 225.714 147.478 224.201 146.005C222.071 143.932 219.676 144.047 216.902 144.18C213.995 144.321 210.699 144.479 206.968 142.172C202.735 139.557 198.925 134.558 199.875 130.722C199.976 130.323 200.069 129.985 200.321 129.561C200.784 128.779 201.5 128.271 202.586 127.503C203.763 126.668 205.373 125.525 207.605 123.372C211.186 119.916 212.863 117.205 214.09 115.227C215.482 112.978 216.401 111.491 218.868 110.557C226.328 107.732 235.07 115.171 235.439 115.488C238.227 117.896 239.744 120.546 240.471 121.821C241.585 123.766 243.531 127.886 244.049 133.603C244.378 137.22 245.145 145.693 239.693 151.143C237.829 153.006 234.454 155.218 231.428 155.218Z" fill="white"/>
<path d="M227.829 151.327C226.551 149.953 225.946 149.236 225.997 147.337L226.452 132.934C226.452 132.934 229.372 132.997 230.305 129.387C231.03 126.588 227.91 126.597 227.91 126.597L228.525 121.335C226.265 122.264 226.658 125.668 224.59 124.349L215.461 118.534C215.461 118.534 213.173 117.782 212.622 125.63C212.35 128.306 210.333 129.079 209.752 129.727C209.341 130.182 209.427 130.905 209.933 131.247L210.634 131.723C211.987 138.882 213.432 140.196 215.874 139.893L215.796 142.794C215.719 145.641 213.247 147.784 210.498 147.386L202.848 146.278C202.848 146.278 208.566 157.403 235.7 155.408L227.829 151.327Z" fill="white"/>
<path d="M203.507 146.702C204.192 147.635 205.896 149.556 209.307 151.336C213.545 153.546 221.331 155.966 234.52 155.163L227.68 151.616C227.648 151.6 227.619 151.577 227.595 151.55C226.261 150.115 225.622 149.336 225.676 147.327L226.129 132.924C226.136 132.746 226.269 132.613 226.455 132.609C226.567 132.614 229.14 132.606 229.994 129.306C230.17 128.625 230.11 128.084 229.813 127.695C229.331 127.061 228.285 126.922 227.915 126.922C227.912 126.922 227.912 126.922 227.908 126.922C227.818 126.922 227.729 126.884 227.672 126.815C227.608 126.744 227.58 126.652 227.591 126.56L228.133 121.926C227.562 122.349 227.223 122.986 226.917 123.561C226.579 124.19 226.261 124.786 225.688 124.939C225.318 125.037 224.902 124.935 224.419 124.627L215.338 118.839C215.273 118.834 215.077 118.834 214.821 119.025C214.262 119.435 213.276 120.842 212.938 125.654C212.712 127.875 211.34 128.897 210.519 129.508C210.292 129.676 210.096 129.822 209.985 129.947C209.854 130.092 209.789 130.291 209.813 130.491C209.839 130.69 209.944 130.868 210.106 130.977L210.81 131.454C210.88 131.501 210.929 131.577 210.945 131.662C212.276 138.694 213.634 139.843 215.834 139.57C215.924 139.56 216.019 139.588 216.088 139.651C216.156 139.716 216.195 139.807 216.191 139.902L216.113 142.805C216.076 144.262 215.426 145.634 214.336 146.571C213.257 147.496 211.841 147.909 210.451 147.708L203.507 146.702ZM229.502 155.969C219.133 155.969 212.688 153.843 208.951 151.88C204.095 149.329 202.622 146.546 202.561 146.428C202.506 146.32 202.515 146.189 202.585 146.09C202.653 145.991 202.77 145.939 202.891 145.956L210.541 147.064C211.752 147.24 212.984 146.879 213.923 146.074C214.876 145.258 215.44 144.059 215.474 142.786L215.542 140.248C212.86 140.396 211.558 138.278 210.343 131.918L209.752 131.518C209.433 131.301 209.225 130.957 209.179 130.569C209.133 130.18 209.256 129.794 209.515 129.507C209.667 129.337 209.888 129.172 210.142 128.983C210.97 128.367 212.105 127.521 212.301 125.597C212.577 121.673 213.317 119.269 214.499 118.46C215.058 118.077 215.508 118.209 215.558 118.224C215.583 118.233 215.605 118.245 215.629 118.259L224.758 124.076C225.081 124.28 225.339 124.36 225.524 124.31C225.831 124.228 226.073 123.775 226.354 123.251C226.773 122.467 227.295 121.49 228.404 121.036C228.51 120.992 228.627 121.008 228.718 121.079C228.808 121.148 228.854 121.261 228.842 121.375L228.266 126.297C228.791 126.356 229.762 126.563 230.318 127.298C230.742 127.854 230.841 128.585 230.613 129.47C229.812 132.562 227.588 133.131 226.758 133.236L226.315 147.347C226.269 149.088 226.774 149.719 228.021 151.062L235.844 155.12C235.97 155.186 236.04 155.329 236.011 155.473C235.984 155.615 235.865 155.722 235.721 155.733C233.506 155.896 231.436 155.969 229.502 155.969Z" fill="black"/>
<path d="M215.874 140.218C215.703 140.218 215.562 140.079 215.555 139.906C215.547 139.727 215.685 139.575 215.861 139.568C220.505 139.38 222.834 137.088 222.857 137.065C222.982 136.939 223.184 136.939 223.309 137.066C223.433 137.192 223.433 137.399 223.309 137.524C223.209 137.627 220.796 140.02 215.887 140.217C215.882 140.218 215.879 140.218 215.874 140.218Z" fill="black"/>
<path d="M228.613 113.663C228.91 113.445 227.404 103.824 234.478 103.635C241.554 103.445 243.218 117.18 236.303 118.959C229.386 120.738 228.613 113.663 228.613 113.663Z" fill="black"/>
<path d="M214.758 127.341C214.413 128.481 215.036 129.696 216.146 130.049C216.68 130.218 217.247 130.164 217.741 129.9C218.243 129.631 218.612 129.177 218.781 128.623C219.124 127.483 218.502 126.269 217.391 125.915C216.858 125.745 216.292 125.799 215.795 126.063C215.292 126.333 214.925 126.786 214.758 127.341ZM216.772 130.796C216.499 130.796 216.223 130.755 215.955 130.67C214.509 130.21 213.699 128.631 214.147 127.15C214.365 126.429 214.843 125.838 215.496 125.488C216.144 125.142 216.886 125.073 217.582 125.295C219.026 125.754 219.838 127.334 219.392 128.814C219.174 129.535 218.693 130.127 218.04 130.476C217.643 130.688 217.208 130.796 216.772 130.796Z" fill="black"/>
<path d="M211.073 128.5C210.969 128.5 210.866 128.448 210.805 128.351C210.359 127.647 210.243 126.786 210.485 125.987C210.727 125.183 211.302 124.539 212.061 124.217C212.223 124.149 212.412 124.226 212.479 124.391C212.547 124.559 212.469 124.748 212.307 124.818C211.724 125.064 211.282 125.558 211.095 126.177C210.909 126.794 211 127.458 211.342 127.999C211.438 128.15 211.395 128.351 211.246 128.448C211.193 128.484 211.132 128.5 211.073 128.5Z" fill="white"/>
<path d="M219.275 128.498C219.126 128.498 218.993 128.392 218.961 128.239C218.927 128.062 219.039 127.891 219.212 127.854L228.202 126.011C228.378 125.976 228.544 126.089 228.581 126.266C228.615 126.441 228.503 126.613 228.33 126.647L219.338 128.493C219.318 128.497 219.295 128.498 219.275 128.498Z" fill="black"/>
<path d="M214.387 127.579C214.248 127.579 214.121 127.484 214.08 127.344C214.075 127.329 213.874 126.662 213.386 126.414C213.147 126.293 212.872 126.291 212.549 126.413C212.384 126.477 212.2 126.39 212.14 126.222C212.077 126.053 212.162 125.867 212.327 125.803C212.82 125.618 213.273 125.627 213.677 125.835C214.415 126.214 214.682 127.124 214.694 127.163C214.742 127.334 214.645 127.515 214.475 127.566C214.445 127.574 214.415 127.579 214.387 127.579Z" fill="black"/>
<path d="M52.6463 223.212H70.4578C68.8808 208.844 67.3032 199.676 67.3032 199.676L40.4796 194.873L37.8024 202.721C37.0009 205.097 35.903 208.592 34.88 212.914C34.3309 215.233 33.5587 217.59 32.9355 223.212H52.6463Z" fill="black"/>
<path d="M52.6498 223.539C52.6178 223.539 52.5855 223.535 52.5532 223.523C52.3851 223.47 52.2917 223.288 52.3451 223.117C53.6743 218.848 56.3061 218.587 56.4175 218.578C56.5938 218.564 56.7473 218.697 56.7615 218.875C56.7755 219.054 56.645 219.21 56.47 219.225C56.3687 219.235 54.1435 219.495 52.9543 223.312C52.9113 223.45 52.7855 223.539 52.6498 223.539Z" fill="white"/>
<path d="M70.9729 207.437C70.9384 209.728 71.0635 211.755 66.5616 212.041C61.2274 212.381 57.1562 206.633 57.1562 206.633C57.1562 206.633 70.9843 206.674 70.9729 207.437Z" fill="black"/>
<path d="M97.2656 163.373L99.8444 159.828C99.8444 159.828 98.1855 156.963 99.6719 155.383C102.109 152.791 101.61 148.02 102.892 147.031C103.4 146.64 104.125 147.064 104.105 147.715L104.008 151.078C104.033 151.979 105.41 152.787 106.148 152.303C107.579 151.367 108.966 150.914 110.569 150.521C111.413 150.312 112.538 150.157 113.143 150.282C114.065 150.473 114.256 151.228 113.58 151.9C111.535 153.943 106.21 154.924 104.935 159.249C104.446 160.906 102.833 163.047 101.579 165.105L97.2656 163.373Z" fill="white"/>
<path d="M97.7692 163.227L101.448 164.703C101.755 164.21 102.079 163.711 102.394 163.226C103.367 161.728 104.287 160.312 104.628 159.156C105.511 156.162 108.17 154.742 110.517 153.49C111.638 152.891 112.699 152.325 113.356 151.669C113.598 151.428 113.705 151.179 113.649 150.987C113.596 150.806 113.388 150.665 113.079 150.602C112.525 150.487 111.428 150.643 110.643 150.836C109.043 151.23 107.695 151.677 106.321 152.576C105.894 152.856 105.294 152.838 104.715 152.529C104.096 152.197 103.703 151.645 103.688 151.087L103.785 147.706C103.792 147.48 103.655 147.326 103.524 147.257C103.451 147.22 103.268 147.148 103.085 147.29C102.631 147.64 102.405 148.779 102.165 149.986C101.806 151.802 101.358 154.061 99.903 155.607C98.5978 156.994 100.104 159.637 100.119 159.663C100.184 159.776 100.177 159.917 100.101 160.022L97.7692 163.227ZM101.578 165.43C101.54 165.43 101.5 165.423 101.461 165.407L97.1475 163.675C97.055 163.638 96.9849 163.56 96.9578 163.463C96.9303 163.366 96.9487 163.261 97.008 163.18L99.4652 159.802C99.1049 159.099 98.0226 156.666 99.4406 155.159C100.768 153.747 101.195 151.59 101.539 149.859C101.826 148.413 102.052 147.27 102.698 146.771C103.022 146.523 103.45 146.488 103.816 146.68C104.204 146.884 104.437 147.283 104.424 147.724L104.327 151.087C104.335 151.382 104.611 151.738 105.014 151.954C105.378 152.149 105.747 152.18 105.975 152.03C107.425 151.082 108.829 150.614 110.493 150.205C111.307 150.004 112.508 149.821 113.206 149.965C113.755 150.078 114.139 150.383 114.262 150.803C114.387 151.232 114.22 151.718 113.804 152.132C113.079 152.856 111.979 153.443 110.814 154.065C108.579 155.258 106.047 156.61 105.24 159.342C104.872 160.591 103.926 162.044 102.927 163.585C102.565 164.141 102.192 164.716 101.851 165.276C101.79 165.374 101.687 165.43 101.578 165.43Z" fill="black"/>
<path d="M97.4261 159.971C97.4261 159.971 88.1645 172.708 83.3431 176.438C81.2371 171.224 77.6539 164.896 71.8276 160.945C64.6978 156.11 51.5548 156.016 44.49 157.94C42.2757 158.543 40.3018 159.182 38.5507 159.874C31.7161 162.576 32.9028 173.832 36.1685 186.695C37.5367 192.084 37.2674 197.784 35.5828 203.077C34.4316 206.696 33.6686 210.362 34.9817 211.106C37.7224 212.66 41.4758 213.539 45.6566 211.964C54.0182 208.817 67.0655 205.253 70.9614 208.016L71.3405 189.419C72.1767 191.173 73.6144 192.818 75.9841 194.044C90.0768 201.334 104.252 164.371 104.252 164.371L97.4261 159.971Z" fill="white"/>
<path d="M54.4811 157.109C50.7067 157.109 47.1705 157.546 44.5703 158.254C42.312 158.869 40.38 159.497 38.6643 160.176C33.0705 162.389 32.3953 170.542 36.4758 186.612C37.8344 191.964 37.63 197.693 35.8848 203.177C33.9212 209.348 34.7066 210.58 35.1354 210.823C37.4344 212.126 41.1064 213.33 45.5432 211.659C47.562 210.899 64.9367 204.511 70.6514 207.452L71.0187 189.412C71.0218 189.262 71.1257 189.133 71.2699 189.101C71.4148 189.068 71.5614 189.142 71.6257 189.277C72.529 191.169 74.0433 192.677 76.1266 193.755C78.2733 194.864 80.5623 194.962 82.9294 194.045C93.4774 189.958 102.805 167.144 103.854 164.501L97.5035 160.407C96.1612 162.238 88.0268 173.221 83.5345 176.694C83.4552 176.756 83.3533 176.776 83.257 176.75C83.1613 176.723 83.0833 176.653 83.0455 176.559C81.1117 171.773 77.5648 165.227 71.6482 161.215C67.2685 158.245 60.5662 157.109 54.4811 157.109ZM41.2127 213.109C39.0177 213.109 36.839 212.533 34.8239 211.39C33.5561 210.672 33.704 207.92 35.2767 202.977C36.9845 197.609 37.1853 192.007 35.8566 186.775C33.0439 175.695 30.7945 162.591 38.4327 159.571C40.1702 158.884 42.1237 158.247 44.405 157.626C51.3153 155.745 64.7501 155.756 72.0028 160.674C77.8914 164.667 81.473 171.087 83.4746 175.917C88.2882 171.956 97.0766 159.901 97.1671 159.777C97.2663 159.641 97.4542 159.605 97.595 159.696L104.421 164.096C104.55 164.18 104.604 164.345 104.548 164.489C104.145 165.538 94.5634 190.232 83.1569 194.652C80.6142 195.638 78.1513 195.53 75.8371 194.334C74.0237 193.396 72.6145 192.147 71.6335 190.612L71.2789 208.023C71.2765 208.142 71.2094 208.252 71.1042 208.306C70.9997 208.359 70.8729 208.351 70.7765 208.282C67.3225 205.831 55.7254 208.519 45.7654 212.268C44.2728 212.83 42.7385 213.109 41.2127 213.109Z" fill="black"/>
<path d="M30.5993 194.603L35.0134 202.752C35.4163 203.495 36.3299 203.765 37.0564 203.354L39.8358 201.868C40.1505 201.69 40.5698 201.539 41.0034 201.448C41.7359 201.298 42.4962 201.496 43.0766 201.979L47.3705 205.552C49.528 207.916 44.7933 208.43 43.8452 208.325C42.2168 208.149 42.2168 208.149 42.2168 208.149C42.2168 208.149 40.421 208.225 38.9831 208.746C37.5452 209.268 35.5147 209.599 33.4346 208.847L33.2718 208.789C32.0278 208.34 30.961 207.486 30.2339 206.356L24.9375 198.134L30.5993 194.603Z" fill="white"/>
<path d="M25.3863 198.236L30.5023 206.179C31.1868 207.241 32.209 208.059 33.38 208.483L33.5427 208.542C35.7482 209.337 37.8314 208.819 38.8765 208.44C40.3434 207.907 42.1294 207.826 42.2046 207.823C42.2214 207.822 42.2364 207.823 42.2519 207.825L43.8805 208.003C44.6475 208.085 47.1274 207.77 47.5525 206.909C47.6958 206.619 47.5609 206.243 47.1518 205.788L42.875 202.23C42.3635 201.803 41.7051 201.635 41.0685 201.767C40.6712 201.849 40.2789 201.99 39.9924 202.152L37.2065 203.641C36.7883 203.878 36.297 203.936 35.8301 203.799C35.3603 203.661 34.9715 203.345 34.7346 202.908L30.4821 195.059L25.3863 198.236ZM35.9811 209.61C35.1562 209.61 34.2536 209.488 33.3285 209.154L33.1659 209.095C31.8642 208.624 30.7284 207.716 29.9675 206.534L24.6713 198.312C24.6242 198.238 24.6079 198.148 24.6269 198.062C24.6457 197.977 24.6981 197.903 24.7718 197.857L30.4335 194.326C30.5077 194.28 30.5982 194.267 30.6821 194.29C30.7664 194.311 30.8382 194.369 30.8803 194.446L35.2944 202.595C35.4487 202.88 35.7019 203.085 36.0067 203.174C36.3085 203.262 36.6269 203.226 36.9024 203.071L39.688 201.58C40.0279 201.388 40.4752 201.227 40.9408 201.131C41.766 200.96 42.6191 201.177 43.2801 201.727L47.574 205.3C47.5853 205.31 47.5958 205.32 47.6058 205.33C48.2263 206.01 48.4005 206.639 48.1237 207.201C47.4592 208.548 44.4144 208.716 43.8125 208.648L42.2087 208.473C41.9986 208.485 40.3803 208.584 39.092 209.052C38.4015 209.302 37.2895 209.61 35.9811 209.61Z" fill="black"/>
<path d="M39.6557 180.321C31.9884 181.538 33.288 188.704 33.288 188.704L34.8909 199.544L27.1966 204.632C27.1966 204.632 11.7788 187.775 18.2508 174.231C23.6109 163.013 42.2963 158.592 42.2963 158.592L39.6557 180.321Z" fill="white"/>
<path d="M27.1975 204.956C27.1114 204.956 27.0259 204.922 26.9634 204.853C26.9247 204.811 23.045 200.538 20.0147 194.662C15.981 186.837 15.2722 179.723 17.9645 174.089C23.3296 162.86 41.4559 158.457 42.225 158.276C42.3962 158.236 42.5685 158.343 42.6084 158.519C42.6488 158.693 42.5417 158.868 42.3696 158.908C42.1843 158.953 23.7705 163.425 18.5393 174.372C12.615 186.772 25.5577 202.262 27.2525 204.208L34.5452 199.386L32.9732 188.752C32.9435 188.588 32.2352 184.464 35.278 181.847C35.4128 181.73 35.6141 181.748 35.7284 181.884C35.8423 182.022 35.8255 182.226 35.6906 182.343C32.9357 184.712 33.5966 188.606 33.6035 188.645L35.2081 199.495C35.2265 199.622 35.1712 199.747 35.066 199.816L27.3717 204.905C27.3184 204.939 27.2577 204.956 27.1975 204.956Z" fill="black"/>
<path d="M62.6744 148.325C63.4162 147.98 63.8006 148.555 64.9059 148.399C66.08 148.234 67.3722 147.34 67.857 146.034C68.4423 144.456 67.5986 142.953 67.0666 142.004C66.5374 141.061 65.8639 140.011 64.6959 139.557C63.1723 138.966 62.5355 139.873 60.7918 139.317C59.3737 138.864 59.4773 138.161 58.215 137.793C57.1627 137.486 54.1304 137.661 53.452 139.317C53.0215 140.367 53.95 141.007 53.4872 142.563C53.2093 143.497 52.7721 143.612 52.4535 144.334C51.6626 146.123 52.654 149.267 54.5408 150.321C57.1015 151.751 61.395 148.921 62.6744 148.325Z" fill="black"/>
<path d="M60.319 151.329L60.9147 156.352C61.0281 157.307 61.699 158.095 62.6068 158.338L64.3229 158.901C64.6573 159.01 64.7244 159.473 64.4308 159.67C60.0947 162.587 54.1123 162.537 49.9613 159.302L49.4757 158.924C49.1529 158.673 49.2642 158.148 49.6595 158.058L51.7826 157.57C52.6802 157.365 53.3702 156.626 53.5334 155.696L54.832 148.298L60.319 151.329Z" fill="white"/>
<path d="M55.0684 148.799L53.8475 155.754C53.661 156.814 52.878 157.652 51.8522 157.888L49.7292 158.375C49.6415 158.395 49.6168 158.468 49.6103 158.499C49.6034 158.53 49.5959 158.608 49.6695 158.665L50.1553 159.045C54.1458 162.153 59.9432 162.3 64.2538 159.4C64.2956 159.371 64.2996 159.329 64.2956 159.301C64.2927 159.279 64.2802 159.229 64.2244 159.21L62.5081 158.648C61.4835 158.374 60.7266 157.485 60.5968 156.39L60.021 151.534L55.0684 148.799ZM57.3968 162.127C54.6646 162.127 51.9576 161.268 49.7664 159.561L49.2808 159.181C49.0314 158.987 48.9184 158.673 48.9861 158.359C49.0531 158.047 49.2841 157.81 49.5888 157.741L51.7117 157.254C52.4857 157.076 53.0772 156.442 53.2183 155.639L54.5169 148.242C54.535 148.138 54.6006 148.05 54.6929 148.006C54.7857 147.96 54.8937 147.963 54.9841 148.013L60.471 151.044C60.5619 151.094 60.6234 151.185 60.6358 151.29L61.2317 156.313C61.3299 157.142 61.9014 157.813 62.6875 158.024L64.4205 158.592C64.6947 158.681 64.8895 158.92 64.9289 159.211C64.9679 159.502 64.8442 159.781 64.6064 159.942C62.436 161.402 59.9055 162.127 57.3968 162.127Z" fill="black"/>
<path d="M55.455 149.318C55.455 149.318 53.5219 148.354 54.2014 146.513C54.8228 144.83 56.1546 146.504 56.1546 146.504C56.1546 146.504 57.2511 142.469 59.5555 144.06C61.8597 145.652 64.0425 146.23 64.0425 146.23C64.0425 146.23 63.231 150.291 61.7736 152.995C60.8946 154.624 59.7806 155.76 58.4681 155.212C54.8746 153.712 55.455 149.318 55.455 149.318Z" fill="white"/>
<path d="M54.9884 146.087C54.97 146.087 54.9516 146.089 54.9341 146.091C54.7269 146.126 54.5842 146.402 54.5012 146.627C53.9332 148.164 55.5287 148.992 55.597 149.026C55.719 149.088 55.7898 149.223 55.7722 149.361C55.7503 149.531 55.2714 153.526 58.5899 154.911C59.5583 155.315 60.5346 154.617 61.4937 152.837C62.6888 150.621 63.4522 147.429 63.6675 146.456C62.9858 146.241 61.2293 145.609 59.376 144.328C58.9297 144.02 58.5287 143.939 58.1491 144.079C57.2354 144.421 56.6224 146.008 56.4632 146.59C56.431 146.708 56.3374 146.797 56.2203 146.822C56.1043 146.847 55.9825 146.803 55.907 146.708C55.7371 146.497 55.3049 146.087 54.9884 146.087ZM59.1479 155.68C58.8842 155.68 58.617 155.624 58.347 155.512C55.0524 154.137 55.0592 150.452 55.1192 149.5C54.3601 149.038 53.3349 147.935 53.9027 146.399C54.1102 145.837 54.4229 145.518 54.8323 145.45C55.2833 145.374 55.7182 145.646 56.0172 145.903C56.2933 145.163 56.9122 143.849 57.9281 143.47C58.5062 143.254 59.1148 143.362 59.7353 143.791C61.9684 145.334 64.1023 145.91 64.1235 145.915C64.2876 145.959 64.3901 146.126 64.3563 146.294C64.3227 146.462 63.5183 150.436 62.0542 153.149C61.1463 154.834 60.1717 155.68 59.1479 155.68Z" fill="black"/>
<path d="M69.0267 124.827C69.1474 120.547 72.6243 117.256 76.7521 117.577C80.7763 117.889 83.8239 121.466 83.6445 125.662C83.558 127.686 82.737 129.481 81.4344 130.766C80.435 131.752 79.8442 133.107 79.8035 134.553L79.7792 135.411C79.7593 136.121 79.1912 136.67 78.5105 136.637L73.5413 136.392C72.8606 136.359 72.3249 135.757 72.345 135.047L72.369 134.193C72.4092 132.768 71.9326 131.356 70.9947 130.3C69.7142 128.859 68.9676 126.923 69.0267 124.827Z" fill="white"/>
<path d="M76.1984 117.88C74.5231 117.88 72.9338 118.498 71.6755 119.651C70.2312 120.973 69.4045 122.814 69.3476 124.836C69.2925 126.788 69.9619 128.652 71.2331 130.083C72.2017 131.174 72.7328 132.674 72.6901 134.202L72.6658 135.057C72.6508 135.59 73.0509 136.043 73.5577 136.069L78.5271 136.312C78.7602 136.323 78.9909 136.238 79.1657 136.074C79.3489 135.902 79.4538 135.663 79.4609 135.402L79.4853 134.544C79.5284 133.013 80.142 131.589 81.2132 130.533C82.4953 129.268 83.2458 127.533 83.3264 125.648C83.4993 121.604 80.6013 118.201 76.7291 117.9C76.5514 117.886 76.3744 117.88 76.1984 117.88ZM78.5708 136.963C78.5462 136.963 78.5214 136.961 78.4966 136.96L73.5272 136.717C72.6748 136.675 72.0019 135.922 72.0265 135.038L72.0508 134.183C72.0893 132.822 71.6182 131.486 70.7587 130.518C69.3768 128.962 68.6487 126.937 68.7085 124.817C68.7706 122.615 69.6724 120.609 71.2475 119.168C72.7693 117.774 74.7307 117.094 76.7777 117.252C80.9959 117.58 84.1529 121.279 83.965 125.677C83.8773 127.727 83.0579 129.617 81.6582 130.998C80.7072 131.937 80.1625 133.202 80.1245 134.561L80.1001 135.421C80.0877 135.857 79.91 136.258 79.6001 136.55C79.3166 136.818 78.9538 136.963 78.5708 136.963Z" fill="black"/>
<path d="M75.8741 141.711C77.5697 141.795 78.9848 140.429 79.0347 138.662L79.0933 136.582L72.9525 136.283L72.8939 138.361C72.844 140.129 74.1783 141.629 75.8741 141.711Z" fill="white"/>
<path d="M73.2622 136.623L73.213 138.37C73.1679 139.96 74.3685 141.314 75.8886 141.388C76.6127 141.426 77.2963 141.167 77.8259 140.668C78.3771 140.151 78.6926 139.434 78.7144 138.652L78.7644 136.893L73.2622 136.623ZM76.0207 142.041C75.9667 142.041 75.9124 142.039 75.8581 142.036C73.9923 141.946 72.5192 140.293 72.5737 138.352L72.6324 136.273C72.6349 136.186 72.6717 136.104 72.7348 136.045C72.7978 135.986 72.8828 135.954 72.9673 135.959L79.108 136.259C79.2819 136.268 79.4173 136.416 79.4123 136.592L79.3537 138.671C79.3265 139.629 78.9382 140.507 78.2603 141.145C77.6436 141.726 76.8536 142.041 76.0207 142.041Z" fill="black"/>
<path d="M76.5896 112.384C76.5862 112.384 76.5831 112.384 76.5796 112.383C76.4033 112.379 76.2644 112.228 76.2697 112.049L76.4944 104.489C76.4997 104.309 76.6586 104.165 76.8237 104.174C77 104.18 77.139 104.329 77.1336 104.509L76.9088 112.068C76.9036 112.245 76.7615 112.384 76.5896 112.384Z" fill="black"/>
<path d="M88.9566 127.719C88.7804 127.719 88.637 127.574 88.6367 127.394C88.6364 127.215 88.7794 127.069 88.9561 127.069L91.6805 127.067C91.8568 127.067 92 127.212 92.0003 127.39C92.0005 127.57 91.8577 127.716 91.681 127.716L88.9566 127.719Z" fill="black"/>
<path d="M86.4405 117.669C86.3557 117.669 86.2709 117.635 86.2078 117.566C86.0871 117.436 86.0931 117.229 86.2216 117.107L89.294 114.17C89.4225 114.046 89.6244 114.052 89.7458 114.184C89.8666 114.315 89.8608 114.52 89.7321 114.643L86.6597 117.58C86.5979 117.639 86.5193 117.669 86.4405 117.669Z" fill="black"/>
<path d="M68.1372 118.145C68.0938 118.145 68.0495 118.136 68.0071 118.116L64.1679 116.37C64.0064 116.296 63.9345 116.104 64.0064 115.94C64.0787 115.776 64.2668 115.703 64.4288 115.776L68.2679 117.524C68.4293 117.597 68.5015 117.788 68.4293 117.952C68.376 118.073 68.2596 118.145 68.1372 118.145Z" fill="black"/>
</g>
<defs>
<filter id="filter0_d_292_3578" x="0" y="0" width="267.852" height="271" filterUnits="userSpaceOnUse" color-interpolation-filters="sRGB">
<feFlood flood-opacity="0" result="BackgroundImageFix"/>
<feColorMatrix in="SourceAlpha" type="matrix" values="0 0 0 0 0 0 0 0 0 0 0 0 0 0 0 0 0 0 127 0" result="hardAlpha"/>
<feOffset dy="4"/>
<feGaussianBlur stdDeviation="2"/>
<feComposite in2="hardAlpha" operator="out"/>
<feColorMatrix type="matrix" values="0 0 0 0 0 0 0 0 0 0 0 0 0 0 0 0 0 0 0.25 0"/>
<feBlend mode="normal" in2="BackgroundImageFix" result="effect1_dropShadow_292_3578"/>
<feBlend mode="normal" in="SourceGraphic" in2="effect1_dropShadow_292_3578" result="shape"/>
</filter>
</defs>
</svg>
