<svg width="263" height="263" viewBox="0 0 263 263" fill="none" xmlns="http://www.w3.org/2000/svg">
<path d="M22.6496 77.635C17.4898 79.0471 12.1617 76.0106 10.7491 70.8494C9.33621 65.6898 12.3736 60.3614 17.5334 58.9493C22.6932 57.5372 28.0213 60.5737 29.434 65.7333C30.847 70.8944 27.8094 76.2212 22.6496 77.635ZM39.3628 64.9661L38.369 61.3361L34.2636 61.5226C33.883 60.7233 33.4423 59.9658 32.9442 59.2581L35.1179 55.776L32.4428 53.1303L28.9795 55.345C28.2585 54.8496 27.4979 54.417 26.705 54.0487L26.8467 49.9394L23.2069 48.9856L21.3179 52.6301C20.4543 52.5626 19.578 52.569 18.6964 52.6494L16.7655 49.021L13.1364 50.015L13.3228 54.1194C12.5236 54.5006 11.7661 54.9413 11.0575 55.4399L7.5754 53.2654L4.92936 55.9417L7.14421 59.4044C6.6498 60.125 6.21604 60.8857 5.84741 61.6786L1.73922 61.5371L0.785156 65.1768L4.42933 67.065C4.36178 67.9286 4.3687 68.8052 4.44831 69.6866L0.820378 71.6182L1.81417 75.2466L5.91962 75.06C6.29999 75.8594 6.74067 76.6169 7.23894 77.3262L5.06527 80.8082L7.74042 83.4539L11.2035 81.2393C11.9244 81.733 12.6854 82.1673 13.4782 82.5356L13.3365 86.6449L16.9763 87.5986L18.8651 83.9541C19.7287 84.0217 20.605 84.0153 21.4864 83.9348L23.4175 87.5632L27.0468 86.5693L26.8602 82.4632C27.6594 82.0836 28.4171 81.643 29.1257 81.1444L32.6076 83.3188L35.2536 80.6426L33.0388 77.1798C33.5334 76.4593 33.967 75.6985 34.3358 74.9056L38.4438 75.0472L39.398 71.4075L35.7537 69.5177C35.8215 68.654 35.8146 67.7791 35.7349 66.8961L39.3628 64.9661Z" fill="black"/>
<path d="M72.0764 49.7021C63.2472 52.121 54.1298 46.9231 51.7122 38.093C49.2946 29.2647 54.4925 20.1469 63.3217 17.7299C72.1509 15.3109 81.2683 20.5088 83.6859 29.339C86.1036 38.1672 80.9057 47.285 72.0764 49.7021ZM100.675 28.0247L98.9753 21.8135L91.9502 22.1335C91.299 20.7659 90.5451 19.4688 89.6926 18.2575L93.4121 12.2996L88.8341 7.77019L82.9084 11.5605C81.6744 10.7149 80.3727 9.97202 79.016 9.34157L79.2585 2.31134L73.0301 0.679008L69.7977 6.91499C68.32 6.79881 66.8202 6.81022 65.3117 6.94736L62.0076 0.739967L55.7974 2.43896L56.1164 9.46537C54.749 10.1168 53.4525 10.871 52.2402 11.7224L46.2817 8.00257L41.7539 12.5815L45.5436 18.507C44.6976 19.7412 43.9553 21.0421 43.3245 22.3983L36.2946 22.1564L34.6621 28.3847L40.8981 31.617C40.7823 33.095 40.7939 34.594 40.9303 36.1026L34.7223 39.4072L36.4228 45.6184L43.4481 45.2984C44.0993 46.666 44.8532 47.9631 45.7057 49.1745L41.9862 55.1324L46.5638 59.6617L52.4899 55.8714C53.7235 56.7171 55.0256 57.4599 56.3821 58.0904L56.1398 65.1206L62.3682 66.7529L65.6005 60.5169C67.0781 60.6331 68.5781 60.6217 70.0864 60.4846L73.3907 66.692L79.6009 64.993L79.2815 57.9666C80.6491 57.3152 81.9456 56.5628 83.1583 55.7095L89.1164 59.4294L93.6445 54.8505L89.8545 48.925C90.7007 47.6907 91.4428 46.3898 92.0737 45.0337L99.1031 45.2756L100.736 39.0472L94.5 35.8149C94.6159 34.3369 94.604 32.8379 94.4678 31.3294L100.675 28.0247Z" fill="black"/>
<path d="M67.7243 17.451C66.2829 17.451 64.8324 17.6435 63.4046 18.0344C59.2158 19.1804 55.7244 21.8919 53.5734 25.6635C51.4223 29.4371 50.8695 33.8208 52.0163 38.01C53.1634 42.1993 55.8728 45.6906 59.6459 47.8415C63.4191 49.9923 67.8036 50.5453 71.9924 49.3993C76.1813 48.2514 79.6728 45.5419 81.8239 41.7683C83.9747 37.9967 84.5275 33.611 83.3808 29.4218C82.2338 25.2345 79.5241 21.7432 75.7511 19.5923C73.2643 18.1736 70.5114 17.451 67.7243 17.451ZM67.6718 50.6158C64.776 50.6158 61.9165 49.8646 59.3328 48.3906C55.4132 46.1558 52.5984 42.5291 51.4069 38.1778C50.2153 33.8265 50.7898 29.2712 53.0244 25.3508C55.259 21.4304 58.8859 18.616 63.2376 17.4243C67.5896 16.2344 72.1446 16.8084 76.064 19.0412C79.9838 21.276 82.7988 24.9046 83.9902 29.2559C85.1817 33.6072 84.6072 38.1626 82.3728 42.0829C80.1383 46.0014 76.511 48.8177 72.1595 50.0076C70.6764 50.4137 69.169 50.6158 67.6718 50.6158ZM56.4637 64.8787L62.2031 66.3831L65.3194 60.3729C65.3781 60.2585 65.5004 60.1918 65.6247 60.2013C67.0737 60.3157 68.5648 60.3062 70.0572 60.1708C70.1817 60.1575 70.3049 60.2242 70.3646 60.3367L73.5501 66.3221L79.2731 64.7547L78.9654 57.9818C78.9597 57.854 79.0304 57.7358 79.1452 57.6824C80.4977 57.0379 81.7865 56.2886 82.976 55.4515C83.0801 55.379 83.2175 55.3752 83.3251 55.4419L89.0689 59.0286L93.2414 54.8089L89.5878 49.0961C89.5193 48.9893 89.5214 48.8521 89.5933 48.7472C90.4268 47.5326 91.1647 46.2378 91.7865 44.9012C91.8399 44.7849 91.9545 44.7029 92.0839 44.7181L98.8611 44.9508L100.366 39.2113L94.3542 36.0956C94.2415 36.0365 94.1746 35.9164 94.1845 35.7905C94.2981 34.3414 94.2874 32.8483 94.1524 31.3572C94.1412 31.2314 94.2066 31.1093 94.3187 31.0502L100.304 27.864L98.7362 22.1417L91.964 22.4506C91.8391 22.4582 91.7188 22.3858 91.6643 22.2694C91.0209 20.9194 90.2702 19.6304 89.4335 18.4387C89.3605 18.3357 89.3567 18.1984 89.424 18.0897L93.0097 12.3465L88.7911 8.17441L83.078 11.8278C82.9714 11.8946 82.8335 11.8927 82.7292 11.8221C81.5134 10.9888 80.2193 10.2509 78.8823 9.62929C78.7673 9.5759 78.6952 9.45769 78.6996 9.33184L78.9335 2.55318L73.1939 1.04871L70.0776 7.06083C70.0191 7.17334 69.8984 7.24389 69.7725 7.23055C68.3222 7.11614 66.8309 7.12758 65.3396 7.26297C65.2149 7.27441 65.0919 7.20766 65.0321 7.09707L61.8468 1.11163L56.1239 2.67902L56.4316 9.45196C56.4374 9.57781 56.3664 9.69603 56.2518 9.75133C54.9007 10.3939 53.6117 11.1452 52.4211 11.9823C52.3172 12.0547 52.1797 12.0586 52.0721 11.9918L46.3281 8.40512L42.1555 12.6249L45.8093 18.3376C45.8777 18.4444 45.8754 18.5817 45.8038 18.6866C44.9699 19.9012 44.2322 21.1959 43.6106 22.5326C43.557 22.647 43.446 22.7309 43.3131 22.7156L36.5358 22.4811L35.0313 28.2225L41.0429 31.3381C41.1557 31.3954 41.2225 31.5155 41.2126 31.6432C41.0989 33.0924 41.1098 34.5835 41.2446 36.0746C41.256 36.2024 41.1904 36.3225 41.0783 36.3835L35.0933 39.5679L36.6603 45.2921L43.4332 44.9832C43.552 44.9698 43.678 45.048 43.7328 45.1624C44.3763 46.5143 45.1268 47.8033 45.9635 48.9932C46.0368 49.098 46.0404 49.2353 45.9731 49.3421L42.3873 55.0873L46.6059 59.2593L52.3191 55.6059C52.4257 55.5373 52.5633 55.5392 52.668 55.6116C53.884 56.4449 55.1781 57.1828 56.5148 57.8045C56.6298 57.8578 56.7018 57.9761 56.6975 58.1019L56.4637 64.8787ZM62.3677 67.0696C62.341 67.0696 62.3141 67.0658 62.2876 67.06L56.0591 65.4259C55.9162 65.3897 55.8182 65.2581 55.8234 65.1094L56.0587 58.2888C54.8206 57.7015 53.6201 57.017 52.4838 56.2504L46.7335 59.9286C46.6094 60.0068 46.4458 59.9896 46.3413 59.8867L41.7634 55.358C41.6584 55.2551 41.6395 55.0911 41.7177 54.9672L45.3267 49.1857C44.5565 48.0703 43.86 46.8747 43.2532 45.6239L36.4366 45.9347C36.2896 45.9461 36.1565 45.845 36.1174 45.702L34.4171 39.4916C34.378 39.3486 34.4431 39.198 34.5733 39.1293L40.5971 35.924C40.4823 34.5378 40.4722 33.1534 40.5671 31.8015L34.5163 28.6667C34.3851 28.5981 34.3185 28.4474 34.3561 28.3063L35.9885 22.0768C36.0261 21.9338 36.1597 21.8271 36.305 21.8423L43.1266 22.0768C43.7139 20.8393 44.3984 19.6381 45.1646 18.5016L41.487 12.7526C41.4073 12.6268 41.4248 12.4647 41.5285 12.3598L46.0564 7.78162C46.1603 7.67674 46.323 7.65767 46.4484 7.73585L52.2298 11.3454C53.3449 10.5751 54.5411 9.87908 55.7908 9.27082L55.4811 2.45403C55.4744 2.30721 55.5709 2.17563 55.7134 2.13559L61.9236 0.434723C62.0666 0.396584 62.2167 0.461418 62.2859 0.59108L65.4918 6.61465C66.8771 6.50025 68.2608 6.4907 69.6126 6.58413L72.749 0.533882C72.8169 0.404221 72.9666 0.337494 73.1096 0.373718L79.338 2.00593C79.481 2.04407 79.5788 2.17563 79.5737 2.32245L79.3384 9.14497C80.5766 9.73227 81.7773 10.4168 82.9132 11.1833L88.6635 7.50513C88.7879 7.42505 88.9511 7.44219 89.0558 7.54707L93.6336 12.0738C93.7387 12.1787 93.7577 12.3407 93.6796 12.4666L90.0704 18.248C90.8407 19.3635 91.5371 20.559 92.1438 21.808L98.9602 21.4991C99.1097 21.4896 99.2405 21.5887 99.2794 21.7317L100.98 27.9422C101.02 28.0833 100.954 28.2339 100.824 28.3044L94.8 31.5098C94.915 32.896 94.9249 34.2803 94.8303 35.6304L100.88 38.767C101.013 38.8357 101.079 38.9844 101.041 39.1274L99.4087 45.3569C99.3713 45.4999 99.2421 45.6105 99.0926 45.5914L92.2702 45.3569C91.6829 46.5944 90.9984 47.7957 90.2323 48.9321L93.9101 54.6811C93.9894 54.807 93.9722 54.969 93.8685 55.0739L89.3406 59.6521C89.2367 59.757 89.0741 59.7761 88.9486 59.6979L83.1674 56.0883C82.0533 56.8587 80.8569 57.5547 79.6061 58.1629L79.9159 64.9778C79.9226 65.1266 79.8261 65.2581 79.6837 65.2982L73.4736 66.999C73.3302 67.0353 73.1806 66.9723 73.1111 66.8427L69.9049 60.8172C68.5186 60.9335 67.1351 60.9431 65.7845 60.8477L62.648 66.898C62.5929 67.0047 62.4834 67.0696 62.3677 67.0696Z" fill="black"/>
<path d="M43.5194 58.3312C38.0953 58.3312 33.6826 62.7433 33.6826 68.1678V210.274C33.6826 215.697 38.0953 220.11 43.5194 220.11H242.767C248.191 220.11 252.603 215.697 252.603 210.274V68.1678C252.603 62.7433 248.191 58.3312 242.767 58.3312H43.5194ZM242.767 220.742H43.5194C37.747 220.742 33.0508 216.045 33.0508 210.274V68.1678C33.0508 62.3954 37.747 57.6982 43.5194 57.6982H242.767C248.539 57.6982 253.236 62.3954 253.236 68.1678V210.274C253.236 216.045 248.539 220.742 242.767 220.742Z" fill="black"/>
<path d="M52.1751 68.3973C48.3959 68.3973 45.3214 71.4717 45.3214 75.2521V193.19C45.3214 196.968 48.3959 200.042 52.1751 200.042H233.246C237.026 200.042 240.1 196.968 240.1 193.19V75.2521C240.1 71.4717 237.026 68.3973 233.246 68.3973H52.1751ZM233.246 200.674H52.1751C48.0475 200.674 44.6895 197.317 44.6895 193.19V75.2521C44.6895 71.124 48.0475 67.7658 52.1751 67.7658H233.246C237.376 67.7658 240.732 71.124 240.732 75.2521V193.19C240.732 197.317 237.376 200.674 233.246 200.674Z" fill="black"/>
<path d="M132.358 85.7934C135.318 93.6102 138.278 118.463 126.878 133.872C115.493 149.263 88.1315 157.465 70.0115 145.356C48.1583 130.754 51.3018 94.3277 64.6081 79.109C72.0594 70.5885 79.1673 72.7549 89.4504 60.5309C99.7075 48.3397 97.6969 40.1666 106.672 35.2407C117.465 29.3172 133.219 33.9855 136.014 40.3914C138.514 46.1213 130.53 50.7897 129.005 64.1791C128.716 66.6913 128.746 68.754 128.957 70.5747C129.892 78.6059 131.823 84.3842 132.358 85.7934Z" fill="black"/>
<path d="M101.746 29.1665C103.431 31.6551 104.777 39.6882 101.037 42.2222C97.299 44.7562 89.8911 40.833 88.2052 38.3444C86.519 35.8575 88.1837 31.786 91.9228 29.252C95.6622 26.718 100.06 26.6796 101.746 29.1665Z" fill="black"/>
<path d="M92.3035 112.387C92.3035 112.387 84.2106 92.0482 88.9786 87.7554C89.2281 87.5312 92.4494 87.2021 95.7475 90.2202C98.8618 93.0686 102.07 99.27 102.07 99.27L103.129 113.31L92.3035 112.387Z" fill="white"/>
<path d="M92.5281 112.09L102.787 112.963L101.762 99.3579C101.432 98.7313 98.4151 93.089 95.5365 90.4532C92.4563 87.635 89.5251 87.8678 89.1719 88.0086C84.8944 91.9349 91.7467 110.07 92.5281 112.09ZM103.13 113.626C103.12 113.626 103.112 113.626 103.103 113.625L92.2784 112.702C92.1591 112.692 92.0559 112.616 92.0117 112.505C91.678 111.666 83.8933 91.9105 88.7689 87.5214C89.2174 87.1161 92.6208 86.9293 95.9633 89.9876C99.0819 92.8418 102.221 98.8692 102.353 99.1236C102.372 99.1624 102.385 99.2041 102.387 99.2458L103.445 113.287C103.452 113.379 103.418 113.469 103.352 113.535C103.293 113.593 103.212 113.626 103.13 113.626Z" fill="black"/>
<path d="M153.86 75.4682C153.86 75.4682 157.013 76.1473 159.492 79.9761C164.44 87.6146 172.085 101.507 184.319 103.585C202.683 106.7 213.809 84.3576 212.231 79.3507C212.231 79.3507 209.594 75.8476 205.259 74.7908C205.259 74.7908 205.214 71.2999 208.98 72.9527C212.747 74.6072 214.256 73.5971 215.941 73.2021C218.901 72.5074 225.191 65.3956 227.535 64.4912C229.879 63.5886 229.146 65.5428 229.146 65.5428C229.146 65.5428 231.444 62.958 233.025 64.2538L229.651 68.7115C229.651 68.7115 232.381 65.1045 233.963 66.9167L226.903 75.1771L232.078 71.1162C232.078 71.1162 232.795 71.908 231.444 73.3147C230.092 74.7215 224.592 82.3912 219.323 82.3912C219.323 82.3912 222.161 124.702 190.479 126.42C163.258 127.897 152.176 105.939 152.176 105.939L153.86 75.4682Z" fill="white"/>
<path d="M152.494 105.87C152.848 106.537 155.663 111.635 161.344 116.511C166.929 121.306 176.515 126.86 190.461 126.107C198.178 125.687 204.481 122.776 209.194 117.457C220.37 104.841 219.022 82.6348 219.008 82.4111C219.003 82.3243 219.033 82.2393 219.093 82.1752C219.152 82.111 219.236 82.0746 219.322 82.0746C223.64 82.0746 228.144 76.7164 230.311 74.1423C230.696 73.6809 231.003 73.3184 231.215 73.0964C231.886 72.3991 231.98 71.9064 231.945 71.6202L227.097 75.4259C226.97 75.5265 226.786 75.5126 226.673 75.3964C226.562 75.2802 226.556 75.0963 226.663 74.9732L233.529 66.9386C233.331 66.786 233.111 66.7166 232.859 66.7253C231.756 66.7634 230.353 68.3107 229.903 68.9022C229.797 69.0409 229.598 69.0687 229.461 68.9646C229.32 68.8588 229.294 68.661 229.399 68.5205L232.568 64.3333C231.244 63.688 229.402 65.7296 229.381 65.7522C229.281 65.8666 229.112 65.8909 228.984 65.8129C228.852 65.7331 228.797 65.5735 228.85 65.4313C228.916 65.2526 229.01 64.8068 228.852 64.6524C228.797 64.5969 228.542 64.4425 227.648 64.7877C226.674 65.1624 224.89 66.7513 223.001 68.4321C220.42 70.7269 217.753 73.1016 216.011 73.5109C215.74 73.5734 215.475 73.6532 215.192 73.7382C213.742 74.1735 212.1 74.6679 208.852 73.2438C207.739 72.7547 206.894 72.6922 206.341 73.0599C205.777 73.4311 205.628 74.1701 205.59 74.5499C209.829 75.6896 212.374 79.0182 212.483 79.1622C212.504 79.1899 212.519 79.2229 212.531 79.2576C213.404 82.0242 210.76 89.2557 205.574 95.2088C202.086 99.2122 194.677 105.661 184.265 103.897C173.045 101.993 165.615 90.2357 160.697 82.4579C160.182 81.6426 159.693 80.8673 159.226 80.1492C157.339 77.2316 155.028 76.1926 154.152 75.8873L152.494 105.87ZM187.913 126.808C175.137 126.808 166.237 121.548 160.912 116.973C154.763 111.689 151.92 106.137 151.892 106.081C151.866 106.033 151.856 105.977 151.858 105.922L153.544 75.4502C153.549 75.3583 153.594 75.2733 153.667 75.2178C153.741 75.1605 153.835 75.1414 153.925 75.1605C154.059 75.1883 157.235 75.9116 159.757 79.804C160.223 80.5256 160.714 81.3027 161.231 82.1196C166.09 89.8038 173.429 101.417 184.371 103.273C194.483 104.988 201.696 98.697 205.097 94.7942C210.367 88.7457 212.62 81.8525 211.943 79.5004C211.628 79.1032 209.097 76.0521 205.184 75.0981C205.043 75.0651 204.944 74.9402 204.943 74.7962C204.941 74.7321 204.934 73.2334 205.992 72.5326C206.735 72.0383 207.784 72.0834 209.107 72.6645C212.139 73.9966 213.6 73.5578 215.012 73.1328C215.289 73.0495 215.577 72.9628 215.869 72.8952C217.452 72.524 220.178 70.099 222.582 67.9603C224.597 66.165 226.34 64.6143 227.421 64.198C228.327 63.8476 228.941 63.8493 229.298 64.2032C229.445 64.3489 229.52 64.531 229.551 64.7149C230.412 63.9794 231.969 62.9803 233.225 64.0089C233.357 64.1165 233.379 64.309 233.277 64.4443L231.808 66.3853C232.146 66.217 232.493 66.106 232.838 66.0939C233.378 66.0765 233.827 66.2829 234.2 66.7096C234.304 66.8276 234.304 67.0045 234.202 67.1225L229.209 72.9645L231.881 70.8674C232.011 70.7651 232.198 70.7807 232.309 70.9039C232.347 70.9455 233.209 71.9342 231.671 73.5335C231.473 73.7399 231.173 74.0972 230.793 74.5482C228.62 77.1327 224.157 82.444 219.655 82.6973C219.779 85.5246 220.268 105.908 209.669 117.873C204.839 123.326 198.388 126.31 190.495 126.737C189.618 126.785 188.756 126.808 187.913 126.808Z" fill="black"/>
<path d="M223.228 71.8904C223.148 71.8904 223.07 71.8614 223.007 71.8C222.882 71.679 222.88 71.4778 223.003 71.3533L228.921 65.3207C229.043 65.1946 229.244 65.1929 229.368 65.3156C229.493 65.4384 229.494 65.6379 229.372 65.7624L223.453 71.7966C223.392 71.8597 223.31 71.8904 223.228 71.8904Z" fill="black"/>
<path d="M225.637 73.1121C225.556 73.1121 225.476 73.083 225.415 73.0215C225.292 72.9003 225.288 72.7004 225.409 72.5757L229.425 68.4898C229.547 68.3651 229.746 68.3634 229.871 68.4864C229.996 68.6093 229.998 68.8092 229.875 68.9339L225.862 73.0181C225.799 73.0813 225.717 73.1121 225.637 73.1121Z" fill="black"/>
<path d="M215.076 79.6814C215.034 79.6814 214.989 79.673 214.947 79.6529C214.788 79.5827 214.718 79.3952 214.79 79.2362C214.862 79.0722 216.629 75.2447 219.514 75.8338C222.055 76.3527 223.876 75.7 223.893 75.6933C224.057 75.633 224.239 75.715 224.299 75.879C224.359 76.043 224.276 76.2238 224.113 76.2857C224.033 76.3158 222.117 77.012 219.389 76.4514C216.989 75.961 215.381 79.4605 215.366 79.4956C215.312 79.6128 215.198 79.6814 215.076 79.6814Z" fill="black"/>
<path d="M88.9805 87.756C88.9805 87.756 144.728 72.1306 155.994 74.009L159.934 100.276L167.389 120.369C169.531 126.145 168.319 132.661 164.163 137.209C159.516 142.29 151.793 147.661 139.694 148.206C116.205 149.263 104.777 155.053 103.531 144.674C102.288 134.292 100.807 109.392 100.807 109.392C97.0514 99.4853 92.4811 88.042 88.9805 87.756Z" fill="white"/>
<path d="M90.0448 87.7888C93.4502 89.7356 97.3601 99.4126 101.101 109.28C101.113 109.31 101.12 109.342 101.121 109.373C101.136 109.622 102.616 134.384 103.846 144.635C104.098 146.739 104.758 148.144 105.925 149.058C108.617 151.167 113.949 150.512 122.017 149.521C126.805 148.932 132.761 148.201 139.679 147.89C151.995 147.335 159.663 141.659 163.928 136.994C168.005 132.537 169.218 126.207 167.092 120.478L159.638 100.386C159.629 100.365 159.625 100.343 159.621 100.323L155.715 74.2858C145.003 72.8058 97.4937 85.7333 90.0448 87.7888ZM111.725 151.083C109.022 151.083 106.969 150.678 105.536 149.555C104.246 148.544 103.488 146.959 103.218 144.711C102.013 134.655 100.568 110.7 100.493 109.459C97.6878 102.058 92.4877 88.3585 88.9546 88.0707C88.8019 88.059 88.6804 87.9386 88.6655 87.7859C88.6509 87.6347 88.7475 87.4937 88.8949 87.4526C91.1738 86.8125 144.84 71.828 156.045 73.697C156.181 73.7205 156.285 73.8262 156.305 73.9627L160.242 100.195L167.685 120.26C169.894 126.212 168.632 132.786 164.395 137.421C160.051 142.174 152.24 147.957 139.707 148.521C132.814 148.832 126.871 149.56 122.095 150.149C117.935 150.659 114.489 151.082 111.725 151.083Z" fill="black"/>
<path d="M126.781 69.8725C128.792 70.1948 130.744 69.8627 131.732 68.9726C132.954 67.8731 132.849 66.2958 132.988 64.3504C133.047 63.5372 133.052 62.6029 133.663 61.6458C133.985 61.1369 134.394 60.7557 134.803 60.4677C135.305 60.1127 135.457 59.4337 135.168 58.8905L134.94 58.5796C133.152 56.1401 132.314 51.7927 132.602 47.2687L131.351 44.9584C127.88 44.4479 125.118 44.6132 124.804 45.2186C124.69 45.4411 124.484 45.6194 124.706 46.5111C125.776 50.8176 121.789 51.2904 118.351 51.261C114.914 51.2332 117.476 56.9892 117.476 56.9892C117.476 56.9892 114.845 54.8589 113.136 57.6502C111.912 59.6513 115.666 61.5689 117.89 62.495C117.89 62.495 117.918 76.4892 115.084 78.3577L107.217 83.366C107.217 83.366 124.434 87.5628 136.293 77.5036C136.293 77.5036 131.022 77.7834 128.702 75.9902C126.383 74.1953 127.016 70.3274 126.781 69.8725Z" fill="white"/>
<path d="M108.047 83.2141C111.398 83.8464 125.238 85.8234 135.39 77.8349C133.744 77.83 130.32 77.6367 128.512 76.2379C126.628 74.7817 126.571 72.138 126.54 70.7179C126.535 70.4214 126.527 70.0873 126.499 70.0054C126.443 69.9005 126.455 69.7777 126.523 69.681C126.594 69.5844 126.715 69.5402 126.833 69.5598C128.782 69.871 130.623 69.5484 131.524 68.7359C132.478 67.8792 132.543 66.6655 132.628 65.1307C132.643 64.8703 132.656 64.6033 132.677 64.3264L132.691 64.1053C132.743 63.3125 132.8 62.4133 133.398 61.4747C133.708 60.9882 134.119 60.5624 134.623 60.2069C134.987 59.9514 135.105 59.46 134.903 59.0554L134.691 58.7655C132.895 56.32 131.998 52.053 132.284 47.3389L131.152 45.2472C127.478 44.723 125.287 45.0359 125.089 45.3635C125.072 45.3946 125.056 45.4257 125.036 45.4568C124.944 45.6141 124.851 45.7746 125.015 46.4347C125.372 47.863 125.215 49.0145 124.553 49.8532C123.323 51.4158 120.592 51.5927 118.353 51.5764C117.778 51.5633 117.385 51.7434 117.153 52.0989C116.419 53.2192 117.347 55.9154 117.768 56.8589C117.827 56.9932 117.788 57.1488 117.673 57.2372C117.557 57.3257 117.395 57.3257 117.282 57.234C117.271 57.2258 116.176 56.3593 115.033 56.5558C114.399 56.6672 113.853 57.0898 113.41 57.8154C113.207 58.1447 113.164 58.4772 113.279 58.8294C113.617 59.8744 115.3 61.0718 118.016 62.202C118.134 62.2495 118.211 62.3658 118.211 62.4919C118.212 63.0717 118.204 76.6802 115.261 78.6212L108.047 83.2141ZM115.724 84.5261C110.767 84.5261 107.223 83.6924 107.146 83.6727C107.022 83.6433 106.929 83.5417 106.908 83.4172C106.888 83.2927 106.943 83.1666 107.051 83.0994L114.918 78.0905C117.082 76.6638 117.569 66.6999 117.578 62.7032C115.572 61.8498 113.17 60.5427 112.677 59.0243C112.505 58.4936 112.571 57.976 112.871 57.4846C113.415 56.5968 114.107 56.0743 114.928 55.9334C115.657 55.8073 116.347 56.0104 116.853 56.2446C116.432 55.0456 115.865 52.9113 116.624 51.7533C116.981 51.2094 117.567 50.9293 118.358 50.9441C120.455 50.9687 122.995 50.8081 124.057 49.4634C124.601 48.7738 124.712 47.8335 124.402 46.587C124.193 45.7484 124.325 45.4241 124.491 45.1391C124.504 45.1161 124.517 45.0948 124.528 45.0719C125.003 44.153 128.424 44.207 131.4 44.6444C131.5 44.6591 131.585 44.7197 131.632 44.8066L132.884 47.1177C132.912 47.1702 132.925 47.2291 132.921 47.2881C132.632 51.827 133.505 56.0808 135.198 58.392L135.426 58.7016C135.436 58.7147 135.444 58.7278 135.451 58.7409C135.817 59.4289 135.618 60.2806 134.987 60.7245C134.551 61.0325 134.196 61.3977 133.932 61.8138C133.421 62.6164 133.37 63.3928 133.323 64.1463L133.308 64.3723C133.287 64.6442 133.274 64.9096 133.259 65.1651C133.17 66.7802 133.093 68.1741 131.949 69.206C130.962 70.0922 129.154 70.4787 127.157 70.2429C127.166 70.369 127.169 70.5197 127.172 70.7031C127.202 72.0185 127.254 74.4672 128.899 75.7383C131.097 77.4402 136.229 77.1879 136.281 77.1863C136.412 77.1781 136.541 77.26 136.592 77.3861C136.641 77.5123 136.605 77.6564 136.5 77.7432C129.981 83.2747 121.795 84.5261 115.724 84.5261Z" fill="black"/>
<path d="M126.782 70.188C126.771 70.188 126.761 70.188 126.75 70.1865C122.845 69.7884 120.179 65.1664 120.067 64.9696C119.98 64.8183 120.033 64.6261 120.186 64.5398C120.338 64.4535 120.531 64.5065 120.618 64.6579C120.642 64.7033 123.234 69.1936 126.814 69.5584C126.988 69.5765 127.115 69.7309 127.095 69.905C127.08 70.0669 126.942 70.188 126.782 70.188Z" fill="black"/>
<path d="M153.278 113.377C150.789 111.512 142.657 106.084 139.78 107.775C137.866 108.902 135.98 110.644 134.45 115.58L101.901 127.059L101.993 117.156C102.036 112.423 100.971 107.748 98.8845 103.501L92.805 91.1359C89.01 93.6408 86.0419 97.2366 84.3907 101.473C77.7036 118.634 79.5903 149.529 86.018 151.15C103.289 155.506 136.679 120.862 136.679 120.862C136.679 120.862 145.763 120.818 147.544 120.639C154.921 119.896 154.947 114.626 153.278 113.377Z" fill="white"/>
<path d="M92.6797 91.5998C89.0194 94.099 86.2588 97.5453 84.6836 101.588C82.1048 108.206 80.5859 117.612 80.5163 127.394C80.4521 136.416 81.6631 144.447 83.6769 148.353C84.417 149.788 85.2302 150.625 86.0939 150.844C102.992 155.108 136.117 120.987 136.45 120.642C136.509 120.58 136.59 120.546 136.676 120.546C136.767 120.544 145.766 120.5 147.511 120.324C152.291 119.843 153.448 117.486 153.724 116.496C154.081 115.211 153.663 114.06 153.087 113.629C150.319 111.555 142.558 106.506 139.94 108.048C138.145 109.103 136.275 110.757 134.75 115.674C134.72 115.769 134.648 115.845 134.553 115.878L102.005 127.356C101.908 127.391 101.8 127.376 101.716 127.316C101.632 127.256 101.583 127.159 101.583 127.056L101.675 117.153C101.719 112.493 100.654 107.821 98.5985 103.64L92.6797 91.5998ZM89.2792 151.85C88.0937 151.851 86.9805 151.719 85.9393 151.458C84.892 151.193 83.9421 150.246 83.1153 148.644C78.7765 140.229 78.4722 115.789 84.095 101.358C85.7602 97.0854 88.7114 93.4595 92.6295 90.8726C92.7054 90.8223 92.7985 90.8065 92.8865 90.8309C92.974 90.8553 93.0472 90.9157 93.0873 90.9962L99.1662 103.362C101.264 107.63 102.351 112.401 102.306 117.157L102.22 126.61L134.194 115.334C135.773 110.33 137.734 108.611 139.619 107.503C143.133 105.438 153.047 112.808 153.466 113.124C154.355 113.788 154.718 115.278 154.333 116.665C154.023 117.781 152.742 120.432 147.574 120.952C145.895 121.122 137.982 121.171 136.811 121.177C135.863 122.15 127.832 130.307 118.017 137.889C106.004 147.17 96.3623 151.85 89.2792 151.85Z" fill="black"/>
<path d="M154.172 115.884C154.137 115.884 154.103 115.878 154.07 115.867L142.727 111.978C142.562 111.922 142.475 111.742 142.531 111.577C142.588 111.411 142.768 111.324 142.933 111.38L154.274 115.269C154.439 115.326 154.527 115.506 154.471 115.67C154.426 115.802 154.302 115.884 154.172 115.884Z" fill="black"/>
<path d="M153.529 118.012C153.5 118.012 153.47 118.008 153.439 117.999L142.373 114.708C142.206 114.658 142.11 114.482 142.16 114.316C142.21 114.149 142.383 114.054 142.554 114.103L153.62 117.393C153.786 117.443 153.883 117.618 153.832 117.786C153.792 117.923 153.666 118.012 153.529 118.012Z" fill="black"/>
<path d="M151.42 119.889C151.392 119.889 151.364 119.886 151.335 119.878C147.722 118.873 142.202 117.361 141.804 117.32C141.63 117.32 141.496 117.179 141.496 117.003C141.496 116.829 141.646 116.689 141.821 116.689C142.19 116.689 148.716 118.494 151.504 119.27C151.673 119.316 151.772 119.49 151.724 119.658C151.686 119.799 151.559 119.889 151.42 119.889Z" fill="black"/>
<path d="M92.9473 132.392C92.8366 132.392 92.7292 132.335 92.6712 132.231C92.5859 132.079 92.6403 131.886 92.7925 131.8L101.746 126.783C101.898 126.698 102.091 126.753 102.176 126.904C102.262 127.056 102.207 127.25 102.055 127.335L93.1015 132.352C93.0526 132.379 92.9996 132.392 92.9473 132.392Z" fill="black"/>
<path d="M160.099 136.704C159.581 135.453 158.363 134.63 157.009 134.63C144.385 134.634 131.567 137.789 118.546 144.273C117.431 144.828 116.511 145.706 115.908 146.795C113.522 151.107 107.148 163.117 103.886 173.979C102.989 176.97 99.2221 188.625 97.0922 195.742C96.3621 198.178 98.183 200.63 100.727 200.636C113.004 200.667 168.917 200.945 178.062 199.63C179.25 199.459 180.044 198.306 179.799 197.131C175.093 174.573 163.225 144.25 160.099 136.704Z" fill="black"/>
<path d="M47.1936 208.782C46.1755 208.782 45.3468 209.609 45.3468 210.628V211.222C45.3468 212.239 46.1755 213.069 47.1936 213.069H237.565C238.582 213.069 239.411 212.239 239.411 211.222V210.628C239.411 209.609 238.582 208.782 237.565 208.782H47.1936ZM237.565 213.701H47.1936C45.8268 213.701 44.7148 212.589 44.7148 211.222V210.628C44.7148 209.262 45.8268 208.149 47.1936 208.149H237.565C238.931 208.149 240.042 209.262 240.042 210.628V211.222C240.042 212.589 238.931 213.701 237.565 213.701Z" fill="black"/>
<path d="M137.862 210.838C137.862 212.97 136.135 214.697 134.003 214.697C131.872 214.697 130.145 212.97 130.145 210.838C130.145 208.707 131.872 206.98 134.003 206.98C136.135 206.98 137.862 208.707 137.862 210.838Z" fill="white"/>
<path d="M134.002 207.296C132.049 207.296 130.459 208.885 130.459 210.838C130.459 212.791 132.049 214.381 134.002 214.381C135.955 214.381 137.544 212.791 137.544 210.838C137.544 208.885 135.955 207.296 134.002 207.296ZM134.002 215.012C131.699 215.012 129.828 213.139 129.828 210.838C129.828 208.536 131.699 206.663 134.002 206.663C136.304 206.663 138.175 208.536 138.175 210.838C138.175 213.139 136.304 215.012 134.002 215.012Z" fill="black"/>
<path d="M191.978 23.0507H147.672C145.164 23.0507 143.244 25.0921 143.244 27.6002V40.423C143.244 42.931 145.164 44.9565 147.672 44.9565C147.695 44.9565 148.37 44.9565 149.273 44.9565V53.5198L155.104 44.9565C163.577 44.9565 191.978 44.9565 191.978 44.9565C194.486 44.9565 196.635 42.931 196.635 40.423V27.6002C196.635 25.0921 194.486 23.0507 191.978 23.0507Z" fill="white"/>
<path d="M147.67 23.3666C145.364 23.3666 143.559 25.2262 143.559 27.6007V40.4217C143.559 42.7891 145.364 44.6417 147.67 44.6417H149.273C149.446 44.6417 149.588 44.7833 149.588 44.9567V52.4943L154.841 44.7797C154.899 44.693 154.999 44.6417 155.103 44.6417H191.977C194.33 44.6417 196.317 42.7095 196.317 40.4217V27.6007C196.317 25.3058 194.33 23.3666 191.977 23.3666H147.67ZM149.273 53.8354C149.241 53.8354 149.211 53.8319 149.179 53.8231C149.046 53.7806 148.956 53.6585 148.956 53.5205V45.2734H147.67C145.01 45.2734 142.928 43.143 142.928 40.4217V27.6007C142.928 24.8723 145.01 22.7349 147.67 22.7349H191.977C194.672 22.7349 196.951 24.9626 196.951 27.6007V40.4217C196.951 43.051 194.672 45.2734 191.977 45.2734H155.269L149.535 53.6974C149.473 53.7859 149.374 53.8354 149.273 53.8354Z" fill="black"/>
<path d="M173.726 32.1938H187.648C188.458 32.1938 189.114 31.5378 189.114 30.726V30.4664C189.114 29.6563 188.458 28.9985 187.648 28.9985H173.726C172.916 28.9985 172.258 29.6563 172.258 30.4664V30.726C172.258 31.5378 172.916 32.1938 173.726 32.1938Z" fill="black"/>
<path d="M158.735 32.1941H166.303C167.113 32.1941 167.769 31.5381 167.769 30.7262V30.4666C167.769 29.6565 167.113 28.9987 166.303 28.9987H158.735C157.925 28.9987 157.268 29.6565 157.268 30.4666V30.7262C157.268 31.5381 157.925 32.1941 158.735 32.1941Z" fill="black"/>
<path d="M152.231 39.0986H187.646C188.457 39.0986 189.114 38.4418 189.114 37.6312V37.3695C189.114 36.559 188.457 35.9021 187.646 35.9021H152.231C151.421 35.9021 150.764 36.559 150.764 37.3695V37.6312C150.764 38.4418 151.421 39.0986 152.231 39.0986Z" fill="black"/>
<path d="M230.921 53.7373C230.754 53.4971 230.754 53.1865 230.921 52.9462C231.149 52.6151 231.272 52.2564 231.272 51.8841C231.272 50.1475 228.585 48.7421 225.27 48.7421C221.955 48.7421 219.266 50.1475 219.266 51.8841C219.266 52.2564 219.389 52.6151 219.619 52.9462C219.784 53.1865 219.784 53.4971 219.619 53.7373C219.389 54.0702 219.266 54.4289 219.266 54.8012C219.266 55.6249 219.87 56.3731 220.86 56.9342C220.839 57.0268 220.825 57.1229 220.825 57.219C220.825 58.5026 222.814 59.5442 225.27 59.5442C227.722 59.5442 229.711 58.5026 229.711 57.219C229.711 57.1229 229.699 57.0268 229.676 56.9342C230.667 56.3731 231.272 55.6249 231.272 54.8012C231.272 54.4289 231.149 54.0702 230.921 53.7373Z" fill="black"/>
<path d="M225.26 11.6254C216.524 11.6254 209.371 18.7811 209.312 27.5776C209.284 31.66 211.118 35.8308 214.342 39.022C216.559 41.217 218.136 43.9239 218.894 46.8517L218.933 46.9917C219.633 49.6875 222.067 51.5713 224.851 51.5713H226.054C228.838 51.5713 231.274 49.6875 231.974 46.9917L231.998 46.907C232.779 43.9018 234.331 41.2041 236.484 39.103C239.555 36.1034 241.247 32.0891 241.247 27.7985C241.247 19.0316 233.926 11.6254 225.26 11.6254ZM226.054 52.2029H224.851C221.78 52.2029 219.093 50.1257 218.32 47.1519L218.285 47.0101C217.552 44.1927 216.035 41.5871 213.899 39.4713C210.555 36.1604 208.651 31.8239 208.68 27.5739C208.741 18.4313 216.178 10.9938 225.26 10.9938C234.27 10.9938 241.879 18.6891 241.879 27.7985C241.879 32.2621 240.119 36.4366 236.924 39.556C234.854 41.5742 233.362 44.1724 232.609 47.0672L232.587 47.1519C231.814 50.1257 229.127 52.2029 226.054 52.2029Z" fill="black"/>
<path d="M227.81 24.9362C227.58 25.143 227.37 25.401 227.193 25.7121C226.039 27.7482 226.415 28.837 226.742 29.3036C227.082 29.7914 227.672 30.0459 228.246 29.9469C228.702 29.8709 229.035 29.5846 229.157 29.1604C229.581 27.6722 228.858 25.9472 227.81 24.9362ZM222.985 25.0811C222.472 25.6644 222.057 26.4615 221.756 27.4495C221.422 28.5436 221.528 29.468 222.048 29.9876C222.384 30.3269 222.856 30.4471 223.308 30.3111C223.863 30.1431 224.266 29.6306 224.411 28.9041C224.632 27.8136 224.054 25.6909 222.985 25.0811ZM226.173 49.8945C225.998 49.8928 225.857 49.7514 225.858 49.5764C225.894 40.907 230.956 31.1188 231.97 29.2435C232.575 28.1282 232.805 27.2162 232.676 26.4544C232.485 25.3233 231.905 24.5968 230.958 24.2928C230.279 24.0737 229.225 24.0542 228.326 24.5633C229.473 25.7351 230.242 27.6616 229.765 29.3354C229.575 29.9929 229.049 30.4542 228.351 30.5709C227.536 30.7069 226.703 30.3517 226.224 29.6659C225.811 29.0774 225.318 27.7394 226.641 25.401C226.838 25.0564 227.066 24.7683 227.317 24.5297C227.28 24.5049 227.242 24.4802 227.207 24.4572C226.532 24.0313 225.418 23.7219 224.326 24.1285C224.013 24.2451 223.722 24.413 223.449 24.6322C224.676 25.4894 225.288 27.7535 225.031 29.0296C224.837 29.9911 224.275 30.6787 223.49 30.9155C222.82 31.117 222.097 30.9332 221.601 30.4348C220.913 29.7437 220.749 28.5895 221.152 27.2657C221.477 26.1964 221.903 25.4169 222.357 24.8478C220.528 24.3423 219.252 25.2172 218.905 26.0727C218.501 27.073 218.649 28.2643 219.291 29.1816C220.775 31.3044 224.25 37.5011 224.42 49.1787C224.422 49.3537 224.282 49.4968 224.109 49.5004C224.105 49.5004 224.103 49.5004 224.103 49.5004C223.93 49.5004 223.789 49.3608 223.787 49.1875C223.619 37.6849 220.226 31.619 218.774 29.544C217.997 28.4358 217.829 27.0501 218.32 25.8358C218.859 24.5014 220.68 23.6035 222.831 24.3335C223.273 23.9234 223.718 23.6813 224.103 23.5364C225.415 23.0485 226.74 23.4162 227.543 23.9234C227.642 23.9835 227.737 24.0507 227.833 24.1232C228.943 23.4056 230.295 23.4162 231.15 23.6901C232.633 24.1656 233.137 25.3975 233.299 26.3484C233.455 27.2675 233.209 28.2838 232.525 29.5457C231.525 31.3963 226.525 41.0607 226.489 49.5799C226.489 49.7531 226.35 49.8945 226.173 49.8945Z" fill="black"/>
<path d="M232.731 38.2236C232.627 38.2236 232.525 38.1708 232.465 38.0756C232.372 37.9275 232.416 37.7318 232.564 37.6402C235.442 35.8297 237.515 32.8894 238.251 29.5718C238.288 29.4008 238.457 29.295 238.628 29.3321C238.797 29.3691 238.905 29.5383 238.868 29.7075C238.097 33.1891 235.92 36.2757 232.9 38.1743C232.848 38.2078 232.789 38.2236 232.731 38.2236Z" fill="black"/>
<path d="M215.198 36.3567C215.111 36.3567 215.023 36.3204 214.962 36.2496C212.778 33.7934 211.574 30.6292 211.574 27.3398C211.574 22.2078 214.432 17.6022 219.03 15.3184C219.184 15.2404 219.373 15.3039 219.451 15.4619C219.529 15.618 219.466 15.8068 219.309 15.8848C214.929 18.0596 212.206 22.4492 212.206 27.3398C212.206 30.4749 213.351 33.4902 215.434 35.8302C215.55 35.9609 215.539 36.1606 215.408 36.2768C215.347 36.3295 215.272 36.3567 215.198 36.3567Z" fill="black"/>
<path d="M226.295 53.8811C226.142 53.8811 226.01 53.7725 225.983 53.618C225.955 53.4449 226.069 53.2819 226.242 53.253C226.785 53.1597 227.315 53.0409 227.819 52.8983C227.986 52.8507 228.16 52.9492 228.208 53.1172C228.255 53.2853 228.157 53.4601 227.989 53.5077C227.466 53.6553 226.914 53.7793 226.347 53.876C226.329 53.8794 226.312 53.8811 226.295 53.8811Z" fill="white"/>
<path d="M223.764 56.967C223.59 56.967 223.449 56.8275 223.447 56.654C223.447 56.4787 223.585 56.3358 223.76 56.3341C224.996 56.3239 226.806 56.152 228.423 55.3948C228.583 55.3216 228.77 55.3897 228.845 55.548C228.918 55.7062 228.85 55.8951 228.691 55.9682C226.971 56.7731 225.064 56.9551 223.767 56.967C223.765 56.967 223.764 56.967 223.764 56.967Z" fill="white"/>
<path d="M225.346 7.74805C225.346 7.74805 225.342 7.74805 225.341 7.74805C225.167 7.74423 225.028 7.59915 225.031 7.42544L225.178 0.309199C225.184 0.137401 225.323 -4.05312e-05 225.495 -4.05312e-05C225.497 -4.05312e-05 225.499 -4.05312e-05 225.503 -4.05312e-05C225.677 0.00377703 225.816 0.148858 225.812 0.322565L225.663 7.43881C225.659 7.6106 225.518 7.74805 225.346 7.74805Z" fill="black"/>
<path d="M204.723 22.2463L200.179 22.2428C200.005 22.2428 199.863 22.1007 199.863 21.9266C199.863 21.7525 200.005 21.6104 200.179 21.6104L204.723 21.614C204.899 21.614 205.039 21.7543 205.039 21.9302C205.039 22.1042 204.897 22.2463 204.723 22.2463Z" fill="black"/>
<path d="M208.917 12.7441C208.865 12.7441 208.813 12.7312 208.765 12.7053L203.641 9.9293C203.489 9.84597 203.432 9.65338 203.515 9.50153C203.598 9.34782 203.789 9.29041 203.943 9.37374L209.067 12.1497C209.22 12.233 209.278 12.4256 209.195 12.5793C209.137 12.6849 209.028 12.7441 208.917 12.7441Z" fill="black"/>
<path d="M245.81 22.2454C245.635 22.2454 245.494 22.1041 245.494 21.9298C245.494 21.7536 245.635 21.6123 245.81 21.6123L250.355 21.6105C250.528 21.6105 250.671 21.7518 250.671 21.9261C250.671 22.1004 250.528 22.2417 250.355 22.2417L245.812 22.2454C245.81 22.2454 245.81 22.2454 245.81 22.2454Z" fill="black"/>
<path d="M241.617 12.7441C241.506 12.7441 241.396 12.6849 241.339 12.5793C241.256 12.4256 241.313 12.233 241.467 12.1497L246.591 9.37374C246.743 9.29041 246.935 9.34782 247.019 9.50153C247.102 9.65338 247.045 9.84597 246.891 9.9293L241.769 12.7053C241.721 12.7312 241.669 12.7441 241.617 12.7441Z" fill="black"/>
<path d="M15.4662 169.705C5.40926 171.862 0.536428 190.445 0.323872 202.474C-0.037717 222.941 12.7728 242.558 30.4526 251.987C53.9431 264.515 88.9625 260.62 100.497 240.264C107.38 228.117 106.436 209.165 96.8615 201.551C87.2628 193.919 77.4085 204.374 59.0613 199.692C33.7072 193.222 28.0437 167.008 15.4662 169.705Z" fill="white"/>
<path d="M15.5321 170.015C5.72676 172.117 0.848753 190.631 0.639502 202.479C0.291279 222.182 12.3321 241.966 30.6011 251.709C42.0442 257.811 56.3715 260.158 69.9116 258.144C83.8535 256.072 94.9011 249.498 100.221 240.109C103.55 234.236 105.122 226.626 104.536 219.233C103.933 211.652 101.063 205.298 96.6642 201.799C91.7885 197.921 86.8472 198.818 80.5917 199.955C74.6255 201.037 67.8632 202.265 58.9829 199.998C45.3287 196.513 37.368 187.37 30.9713 180.022C25.5129 173.751 21.2027 168.797 15.5321 170.015ZM60.3002 259.481C49.7054 259.481 39.1525 256.986 30.3036 252.266C11.8305 242.414 -0.344664 222.402 0.00743981 202.469C0.226894 190.06 5.14715 171.596 15.3994 169.397C21.4322 168.099 25.8526 173.179 31.4479 179.606C37.7868 186.888 45.6758 195.95 59.1389 199.386C67.8858 201.618 74.5762 200.403 80.4789 199.333C86.8922 198.169 91.9575 197.249 97.0565 201.304C101.594 204.912 104.55 211.428 105.165 219.183C105.761 226.699 104.16 234.44 100.772 240.421C95.3549 249.981 84.1402 256.668 70.0044 258.769C66.798 259.246 63.5469 259.481 60.3002 259.481Z" fill="black"/>
<path d="M73.0576 259.006C73.0576 259.006 82.1462 262.74 88.6217 262.684C89.7137 262.674 90.4211 261.528 89.961 260.538C89.6952 259.966 89.2932 259.243 88.6919 258.341C86.4436 254.965 76.8168 249.489 76.8168 249.489L75.2648 250.162C74.7201 250.398 74.4986 251.053 74.7884 251.572L75.1797 252.272L72.6001 252.269C72.0126 252.269 71.5428 252.759 71.5737 253.345C71.6367 254.538 71.9287 256.611 73.0576 259.006Z" fill="white"/>
<path d="M73.2905 258.759C74.3483 259.181 82.5369 262.368 88.4761 262.368C88.524 262.368 88.571 262.368 88.6184 262.368C89.0243 262.363 89.3818 262.164 89.5998 261.819C89.819 261.472 89.8467 261.043 89.674 260.67C89.384 260.047 88.9648 259.322 88.4283 258.516C86.3905 255.456 77.9739 250.523 76.7963 249.841L75.3901 250.451C75.2096 250.53 75.0755 250.676 75.0125 250.862C74.9494 251.049 74.9675 251.245 75.0635 251.416L75.455 252.116C75.5096 252.216 75.5083 252.335 75.4516 252.431C75.3948 252.527 75.2912 252.588 75.1791 252.588C75.179 252.588 75.179 252.588 75.1788 252.588L72.5993 252.585C72.5991 252.585 72.5988 252.585 72.5985 252.585C72.4011 252.585 72.2174 252.664 72.0816 252.806C71.9469 252.949 71.8784 253.134 71.8887 253.329C71.9541 254.571 72.2515 256.513 73.2905 258.759ZM88.4777 263C82.0226 263 73.0275 259.335 72.9368 259.298C72.8638 259.268 72.8046 259.212 72.771 259.14C71.6461 256.753 71.3271 254.68 71.2578 253.362C71.2381 252.993 71.368 252.641 71.6233 252.372C71.8759 252.105 72.2312 251.953 72.5985 251.953C72.599 251.953 72.5994 251.953 72.5998 251.953L74.6402 251.955L74.5118 251.725C74.3303 251.401 74.2945 251.011 74.4137 250.659C74.533 250.307 74.7971 250.02 75.1386 249.872L76.6904 249.199C76.7817 249.159 76.8859 249.164 76.9725 249.213C77.3682 249.439 86.6905 254.767 88.9543 258.165C89.5086 258.998 89.9435 259.752 90.247 260.404C90.5107 260.972 90.4685 261.628 90.1342 262.156C89.8041 262.678 89.2396 262.994 88.624 263C88.5754 263 88.5266 263 88.4777 263Z" fill="black"/>
<path d="M88.9505 261.306C88.9433 261.306 88.9363 261.306 88.9291 261.304C81.8623 260.834 73.539 257.697 73.4556 257.665C73.2927 257.602 73.2106 257.42 73.2727 257.257C73.3345 257.093 73.5179 257.011 73.6801 257.075C73.7626 257.105 82 260.209 88.9711 260.673C89.1454 260.686 89.277 260.836 89.2654 261.011C89.2543 261.178 89.1154 261.306 88.9505 261.306Z" fill="black"/>
<path d="M82.8118 257.545C82.7574 257.545 82.7023 257.53 82.652 257.5C82.5015 257.412 82.4513 257.218 82.5398 257.068L83.9312 254.702C84.0195 254.551 84.2132 254.502 84.3637 254.59C84.5141 254.679 84.5645 254.873 84.4758 255.022L83.0845 257.388C83.0257 257.489 82.9202 257.545 82.8118 257.545Z" fill="black"/>
<path d="M79.6889 256.585C79.6344 256.585 79.5792 256.57 79.5289 256.54C79.3786 256.452 79.3281 256.258 79.4168 256.108L81.1653 253.136C81.2535 252.986 81.4472 252.936 81.5977 253.023C81.7482 253.113 81.7983 253.307 81.7098 253.456L79.9615 256.428C79.9026 256.529 79.7971 256.585 79.6889 256.585Z" fill="black"/>
<path d="M44.5895 200.675C44.868 200.382 64.7311 191.8 72.8502 189.975C80.9693 188.15 83.9942 188.131 86.7569 192.772C89.5195 197.413 73.4489 222.731 73.4489 222.731L39.2598 213.819L44.5895 200.675Z" fill="black"/>
<path d="M63.8314 210.613C63.7883 210.613 63.7445 210.603 63.7025 210.584C63.5432 210.514 63.472 210.325 63.5433 210.167C67.3751 201.615 73.7027 195.501 73.7661 195.441C73.8923 195.32 74.0921 195.324 74.2128 195.451C74.3335 195.576 74.329 195.777 74.203 195.898C74.1405 195.957 67.8996 201.99 64.12 210.426C64.0674 210.542 63.9522 210.613 63.8314 210.613Z" fill="white"/>
<path d="M28.3398 212.016C28.3398 212.016 28.3398 216.859 32.9242 221.39C38.6684 227.07 57.1792 223.162 57.1792 223.162C57.1792 223.162 59.0826 226.281 60.3261 234.613C61.5697 242.946 62.957 254.165 65.0169 256.902L82.9488 253.031C82.9488 253.031 77.0012 217.334 72.8704 212.48C68.7394 207.625 38.6832 206.862 38.6832 206.862L28.3398 212.016Z" fill="black"/>
<path d="M74.9429 217.173C74.812 217.173 74.6898 217.093 74.6444 216.962C73.8994 214.819 73.2209 213.381 72.6282 212.685C70.4578 210.134 56.2788 208.276 43.7331 207.389C43.5591 207.376 43.428 207.225 43.4402 207.051C43.4526 206.878 43.6018 206.748 43.778 206.758C51.6601 207.316 70.2973 208.97 73.1095 212.274C73.7622 213.042 74.4596 214.507 75.2413 216.754C75.2986 216.919 75.2115 217.099 75.0467 217.156C75.0123 217.169 74.9773 217.173 74.9429 217.173Z" fill="white"/>
<path d="M51.0742 195.232C51.1633 194.948 60.3583 180.948 60.3583 180.948L62.5752 182.568L54.1722 195.669L51.0742 195.232Z" fill="black"/>
<path d="M19.4142 210.239C19.4142 210.239 16.1965 205.742 17.5141 195.669C18.8319 185.596 22.0554 180.368 25.4278 179.172C28.8003 177.978 42.6727 180.159 43.7558 197.083L19.4142 210.239Z" fill="white"/>
<path d="M27.456 179.211C26.6593 179.211 25.9984 179.306 25.534 179.471C21.8693 180.769 18.9885 186.839 17.8283 195.709C16.7092 204.265 18.9224 208.779 19.5261 209.821L43.4275 196.902C42.8205 188.298 38.8564 183.953 35.6241 181.821C32.7191 179.903 29.598 179.211 27.456 179.211ZM19.415 210.555C19.316 210.555 19.219 210.509 19.1578 210.423C19.0236 210.236 15.8829 205.709 17.2015 195.627C18.4112 186.381 21.3715 180.274 25.3229 178.874C27.1562 178.225 31.8081 178.545 35.9721 181.293C39.3493 183.521 43.4961 188.067 44.0718 197.063C44.0797 197.187 44.0152 197.303 43.9068 197.362L19.5652 210.518C19.5177 210.544 19.4659 210.555 19.415 210.555Z" fill="black"/>
<path d="M29.1064 203.28C28.942 203.28 28.8033 203.152 28.7916 202.986L28.1239 193.539C28.1115 193.365 28.2426 193.214 28.4167 193.201C28.5916 193.184 28.742 193.321 28.7542 193.495L29.4219 202.941C29.4343 203.115 29.3032 203.267 29.129 203.279C29.1214 203.279 29.1139 203.28 29.1064 203.28Z" fill="black"/>
<path d="M18.2422 207.649C18.2422 207.649 19.4112 216.108 31.2343 213.277C43.0572 210.446 49.221 199.454 49.221 199.454C49.221 199.454 56.1049 197.983 55.8713 193.517C55.8713 193.517 53.567 194.134 51.6076 193.517C49.648 192.899 47.5272 193.53 46.7116 194.295C41.1212 199.539 23.2643 201.111 18.2422 207.649Z" fill="white"/>
<path d="M18.5799 207.731C18.6952 208.295 19.2893 210.6 21.519 212.118C23.7988 213.67 27.043 213.956 31.1622 212.97C42.7085 210.205 48.886 199.409 48.9471 199.299C48.9915 199.22 49.0678 199.164 49.1565 199.146C49.2206 199.131 55.3732 197.766 55.5583 193.912C54.7952 194.064 53.0676 194.308 51.514 193.818C49.644 193.229 47.6496 193.851 46.9293 194.527C44.3298 196.964 39.2638 198.582 33.9006 200.295C27.7064 202.273 21.3037 204.318 18.5799 207.731ZM26.7693 214.176C24.5365 214.176 22.6574 213.66 21.1534 212.633C18.3809 210.739 17.9478 207.816 17.9307 207.693C17.9191 207.608 17.9417 207.523 17.9932 207.457C20.7871 203.819 27.3559 201.723 33.7083 199.693C39.0016 198.003 44.0014 196.406 46.497 194.065C47.453 193.169 49.7157 192.589 51.7041 193.216C53.5543 193.799 55.7687 193.217 55.7911 193.212C55.8831 193.187 55.9814 193.206 56.0586 193.262C56.1358 193.318 56.1835 193.406 56.1884 193.501C56.4173 197.877 50.446 199.489 49.4262 199.732C48.695 200.958 42.4526 210.916 31.3094 213.585C29.6647 213.979 28.1494 214.176 26.7693 214.176Z" fill="black"/>
<path d="M51.6557 195.742C51.4649 195.742 51.2668 195.738 51.0609 195.729C50.8867 195.722 50.751 195.576 50.7581 195.402C50.765 195.228 50.9008 195.09 51.0866 195.099C54.4864 195.235 55.5933 194.143 55.6042 194.133C55.7259 194.008 55.926 194.005 56.051 194.127C56.176 194.249 56.1785 194.449 56.0566 194.574C56.0074 194.624 54.8781 195.742 51.6557 195.742Z" fill="black"/>
<path d="M51.3008 197.379C51.2242 197.379 51.1471 197.378 51.068 197.377C50.8934 197.374 50.7546 197.23 50.7579 197.055C50.7612 196.881 50.9106 196.741 51.0797 196.744C53.9737 196.81 54.9371 195.784 54.9466 195.776C55.0633 195.648 55.2622 195.635 55.3916 195.751C55.5205 195.866 55.534 196.063 55.4202 196.192C55.3769 196.243 54.3486 197.379 51.3008 197.379Z" fill="black"/>
<path d="M30.9928 172.47C30.9141 172.614 27.5629 178.343 27.5629 178.343L25.252 179.895C26.1048 180.543 27.6102 181.517 29.7166 182.076C31.865 182.645 33.6889 182.529 34.7569 182.381C34.6642 182.089 34.5081 181.71 34.2376 181.312C33.8111 180.685 33.3022 180.313 32.9774 180.113C33.6671 178.929 34.3565 177.745 35.0462 176.561L30.9928 172.47Z" fill="white"/>
<path d="M25.8014 179.906C27.0144 180.763 28.3567 181.388 29.7973 181.77C31.2802 182.163 32.8004 182.279 34.3206 182.117C34.2256 181.897 34.1104 181.687 33.976 181.49C33.672 181.043 33.2804 180.671 32.8114 180.383C32.6653 180.293 32.6177 180.103 32.7039 179.955L34.6507 176.611L31.0587 172.986C30.3545 174.195 28.1275 178.002 27.8353 178.502C27.8111 178.542 27.7782 178.578 27.7387 178.604L25.8014 179.906ZM32.9881 182.819C31.8599 182.821 30.7379 182.674 29.6352 182.381C27.971 181.94 26.4318 181.188 25.0604 180.146C24.9792 180.084 24.9328 179.988 24.9357 179.886C24.9387 179.784 24.9906 179.689 25.0754 179.633L27.3262 178.12C28.4895 176.132 30.6454 172.446 30.7151 172.319C30.7632 172.232 30.8497 172.171 30.9485 172.158C31.0472 172.147 31.1468 172.177 31.2169 172.248L35.2701 176.339C35.3707 176.44 35.3907 176.596 35.3189 176.72L33.4003 180.015C33.8327 180.322 34.2013 180.698 34.4985 181.135C34.7391 181.487 34.9272 181.875 35.0576 182.286C35.0859 182.375 35.0734 182.472 35.0237 182.549C34.9739 182.628 34.892 182.681 34.7998 182.694C34.1956 182.778 33.591 182.819 32.9881 182.819Z" fill="black"/>
<path d="M36.8894 163.603C34.9075 163.346 34.0643 165.434 31.7111 165.07C30.633 164.904 30.2122 164.372 29.1642 164.567C28.4703 164.697 27.3846 165.165 27.0392 166.081C26.5993 167.246 27.8423 167.86 28.5606 170.527C29.065 172.4 28.8295 173.499 29.5468 173.818C30.2722 174.142 30.8934 173.187 31.7123 173.481C32.772 173.86 32.4248 175.707 33.4224 176.555C34.1077 177.138 35.8621 177.486 38.8581 176.098C38.7329 175.556 38.5507 174.443 38.2519 173.43C37.3163 170.26 36.2615 169.482 36.7192 168.712C37.4207 167.531 39.7009 168.4 40.159 167.423C40.6347 166.405 38.9242 163.867 36.8894 163.603Z" fill="black"/>
<path d="M32.2832 168.317L33.0409 168.947C33.0409 168.947 33.582 172.077 33.989 173.133C34.3958 174.19 37.7619 173.178 37.7619 173.178L38.0044 172.561L38.9331 172.259C38.9331 172.259 37.1931 169.529 36.7848 167.237C36.7848 167.237 34.3977 166.437 32.2832 168.317Z" fill="white"/>
<path d="M31.9688 168.322C32.0455 168.209 32.1379 168.079 32.2509 167.961C32.3576 167.847 32.5044 167.728 32.5782 167.686C32.7575 167.57 32.9321 167.445 33.126 167.351C33.5008 167.143 33.9096 166.998 34.3254 166.896C34.7419 166.792 35.1715 166.748 35.599 166.754C36.032 166.761 36.4409 166.808 36.8867 166.938C36.9966 166.969 37.0738 167.06 37.0944 167.165L37.0975 167.182C37.2431 168.044 37.5406 168.899 37.8921 169.727C38.2494 170.553 38.6617 171.37 39.1202 172.141C39.1837 172.248 39.1485 172.386 39.0414 172.45L39.0177 172.462L39.0025 172.469L38.1034 172.862L38.3002 172.676L38.0576 173.293L38.0558 173.297C38.0198 173.389 37.9424 173.454 37.8545 173.479C37.1667 173.675 36.4852 173.824 35.767 173.901C35.4079 173.934 35.0423 173.951 34.6515 173.889C34.4569 173.855 34.25 173.803 34.0443 173.669C33.9415 173.606 33.8454 173.507 33.7692 173.393C33.7398 173.339 33.6985 173.26 33.6864 173.221L33.6403 173.09C33.414 172.4 33.2721 171.726 33.1241 171.045C32.9821 170.364 32.8515 169.685 32.7312 169L32.8405 169.19C32.5233 168.932 32.218 168.612 31.9688 168.322ZM32.6007 168.311C32.8566 168.441 33.0564 168.541 33.2444 168.704L33.2484 168.707C33.306 168.757 33.3415 168.823 33.3539 168.892C33.4723 169.568 33.6025 170.244 33.7428 170.914C33.8865 171.581 34.0329 172.261 34.2376 172.883L34.2773 172.997C34.2916 173.04 34.298 173.034 34.3044 173.058C34.3283 173.086 34.3495 173.117 34.3952 173.143C34.4787 173.199 34.6121 173.242 34.7563 173.265C35.0482 173.313 35.3787 173.303 35.7054 173.271C36.3609 173.204 37.0334 173.057 37.6724 172.874L37.4695 173.061L37.7116 172.445L37.7223 172.419C37.7552 172.336 37.8275 172.278 37.9087 172.259L38.8663 172.05L38.749 172.377C38.2455 171.594 37.802 170.788 37.4029 169.947C37.0117 169.106 36.6685 168.232 36.4757 167.294L36.6861 167.537C36.359 167.442 35.9618 167.389 35.591 167.386C35.214 167.38 34.8365 167.42 34.472 167.511C34.1081 167.602 33.751 167.727 33.4227 167.91C33.2524 167.991 33.0992 168.102 32.941 168.204C32.8417 168.265 32.8404 168.284 32.7882 168.294C32.7445 168.303 32.6806 168.299 32.6007 168.311Z" fill="black"/>
<path d="M32.6885 171.128C32.6885 171.128 31.8009 169.146 30.9848 169.741C30.1687 170.335 31.2006 172.492 32.6885 171.128Z" fill="white"/>
<path d="M31.3055 169.945C31.2596 169.945 31.2176 169.961 31.1704 169.995C31.0448 170.087 30.9893 170.276 31.0219 170.501C31.0698 170.833 31.2855 171.129 31.5463 171.223C31.8079 171.315 32.0769 171.2 32.2948 171.042C32.0539 170.582 31.6676 170.034 31.366 169.954C31.3445 169.948 31.3247 169.945 31.3055 169.945ZM31.7378 171.887C31.5721 171.887 31.4347 171.854 31.3342 171.818C30.8545 171.647 30.4777 171.154 30.3963 170.592C30.3299 170.131 30.48 169.717 30.7983 169.485C31.0193 169.324 31.2721 169.275 31.5287 169.343C32.308 169.55 32.9102 170.851 32.9762 170.999C33.0319 171.122 33.0017 171.269 32.9014 171.361C32.4503 171.773 32.045 171.887 31.7378 171.887Z" fill="black"/>
<path d="M20.5346 231.206C20.4944 231.206 20.4534 231.199 20.4139 231.181C20.2527 231.115 20.1761 230.93 20.2429 230.769C22.6385 224.981 30.3608 223.901 30.6883 223.858C30.8616 223.836 31.02 223.955 31.0429 224.129C31.0657 224.302 30.9441 224.46 30.7711 224.483C30.6945 224.493 23.0817 225.564 20.8267 231.01C20.7764 231.133 20.6587 231.206 20.5346 231.206Z" fill="black"/>
<path d="M31.3071 234.728C31.1477 234.728 31.0106 234.608 30.9934 234.445C30.4005 228.87 33.5876 225.296 33.7235 225.147C33.8412 225.019 34.0409 225.009 34.1695 225.125C34.2987 225.243 34.3083 225.443 34.1912 225.572C34.1599 225.607 31.06 229.096 31.6218 234.379C31.6402 234.553 31.5145 234.708 31.3411 234.727C31.3297 234.728 31.3184 234.728 31.3071 234.728Z" fill="black"/>
<path d="M199.523 155.998C198.225 152.688 198.638 148.379 199.919 143.561L203.083 146.501L207.431 142.998C205.543 148.668 204.443 153.725 206.772 156.111L199.523 155.998Z" fill="white"/>
<path d="M199.744 155.684L206.096 155.783C204.302 153.201 205.286 148.638 206.801 143.911L203.281 146.747C203.16 146.846 202.984 146.839 202.869 146.733L200.093 144.153C198.832 149.108 198.718 152.888 199.744 155.684ZM206.773 156.427C206.772 156.427 206.77 156.427 206.768 156.427L199.519 156.314C199.392 156.311 199.277 156.231 199.23 156.112C198.039 153.073 198.163 148.941 199.615 143.479C199.643 143.374 199.727 143.289 199.834 143.259C199.939 143.227 200.054 143.254 200.135 143.33L203.098 146.082L207.234 142.751C207.344 142.661 207.498 142.657 207.613 142.737C207.727 142.817 207.776 142.962 207.734 143.095C206.071 148.092 204.681 153.517 207 155.889C207.089 155.981 207.114 156.118 207.064 156.236C207.014 156.351 206.899 156.427 206.773 156.427Z" fill="black"/>
<path d="M209.095 224.587H194.499C191.98 224.587 189.93 222.555 189.908 220.036L189.352 157.844C189.329 155.292 191.391 153.211 193.945 153.211H210.357C212.93 153.211 215 155.325 214.947 157.896L213.685 220.088C213.635 222.587 211.593 224.587 209.095 224.587Z" fill="black"/>
<path d="M208.698 211.107H194.564C193.514 211.107 192.662 210.255 192.662 209.205C192.662 208.154 193.514 207.302 194.564 207.302H208.698C209.749 207.302 210.601 208.154 210.601 209.205C210.601 210.255 209.749 211.107 208.698 211.107Z" fill="white"/>
<path d="M207.769 220.546H195.861C194.194 220.546 192.846 219.196 192.846 217.532V216.115C192.846 214.45 194.194 213.1 195.861 213.1H207.769C209.434 213.1 210.784 214.45 210.784 216.115V217.532C210.784 219.196 209.434 220.546 207.769 220.546Z" fill="white"/>
<path d="M256.57 224.767H241.976C239.455 224.767 237.406 222.736 237.383 220.216L236.828 158.024C236.805 155.473 238.869 153.392 241.421 153.392H257.833C260.404 153.392 262.475 155.505 262.424 158.077L261.161 220.269C261.112 222.768 259.071 224.767 256.57 224.767Z" fill="black"/>
<path d="M254.549 168.433H244.218C242.117 168.433 240.414 166.729 240.414 164.627V161.529C240.414 159.428 242.117 157.725 244.218 157.725H254.549C256.649 157.725 258.353 159.428 258.353 161.529V164.627C258.353 166.729 256.649 168.433 254.549 168.433Z" fill="white"/>
<path d="M257.282 175.505H242.204C241.414 175.505 240.773 174.865 240.773 174.075V172.751C240.773 171.961 241.414 171.321 242.204 171.321H257.282C258.073 171.321 258.712 171.961 258.712 172.751V174.075C258.712 174.865 258.073 175.505 257.282 175.505Z" fill="white"/>
<path d="M257.166 179.849H241.959C241.204 179.849 240.594 179.237 240.594 178.484C240.594 177.729 241.204 177.118 241.959 177.118H257.166C257.921 177.118 258.531 177.729 258.531 178.484C258.531 179.237 257.921 179.849 257.166 179.849Z" fill="white"/>
<path d="M231.414 225.131H219.608C217.57 225.131 215.911 223.101 215.894 220.58L215.443 158.388C215.426 155.836 217.094 153.755 219.159 153.755H232.434C234.515 153.755 236.189 155.869 236.148 158.441L235.128 220.631C235.086 223.131 233.436 225.131 231.414 225.131Z" fill="black"/>
<path d="M231.642 163.589H219.511C218.547 163.589 217.762 162.806 217.762 161.838V159.838C217.762 158.871 218.547 158.087 219.511 158.087H231.642C232.607 158.087 233.392 158.871 233.392 159.838V161.838C233.392 162.806 232.607 163.589 231.642 163.589Z" fill="white"/>
<path d="M231.55 169.52H219.876C218.784 169.52 217.898 168.635 217.898 167.543C217.898 166.45 218.784 165.565 219.876 165.565H231.55C232.642 165.565 233.527 166.45 233.527 167.543C233.527 168.635 232.642 169.52 231.55 169.52Z" fill="white"/>
<path d="M138.788 251.984C131.736 251.984 124.831 251.004 118.251 249.021C117.033 248.654 115.814 248.249 114.63 247.816C114.466 247.756 114.381 247.575 114.441 247.411C114.5 247.247 114.681 247.164 114.847 247.223C116.019 247.651 117.227 248.052 118.434 248.417C136.361 253.817 156.754 251.721 175.857 242.516C176.015 242.44 176.203 242.506 176.278 242.664C176.354 242.821 176.288 243.011 176.131 243.085C163.888 248.985 151.115 251.984 138.788 251.984Z" fill="black"/>
<path d="M138.788 258.103C130.831 258.103 123.045 256.893 115.685 254.421C111.995 253.182 108.442 251.63 105.126 249.812C104.973 249.728 104.918 249.536 105.002 249.383C105.085 249.23 105.278 249.173 105.431 249.258C108.714 251.058 112.231 252.595 115.887 253.822C140.049 261.938 168.893 256.337 193.046 238.842C193.188 238.74 193.386 238.772 193.487 238.913C193.589 239.054 193.558 239.252 193.417 239.354C176.447 251.646 157.166 258.103 138.788 258.103Z" fill="black"/>
<path d="M177.815 241.939C177.611 241.939 177.402 241.933 177.185 241.92C177.012 241.91 176.878 241.761 176.887 241.587C176.898 241.413 177.046 241.281 177.221 241.289C178.848 241.381 180.052 241.107 180.796 240.469C181.202 240.121 181.417 239.72 181.625 239.333C181.886 238.846 182.157 238.345 182.775 238.178C183.38 238.015 183.869 238.286 184.264 238.503C184.59 238.684 184.797 238.79 184.977 238.718C185.248 238.608 185.304 238.105 185.362 237.571C185.445 236.849 185.535 236.029 186.223 235.653C186.831 235.319 187.512 235.564 188.109 235.778C188.598 235.952 189.058 236.118 189.348 235.937C189.6 235.782 189.625 235.427 189.639 234.862C189.651 234.253 189.668 233.497 190.279 233.014C190.841 232.572 191.707 232.497 192.924 232.786C193.094 232.826 193.199 232.997 193.159 233.167C193.119 233.336 192.947 233.441 192.778 233.401C191.773 233.164 191.065 233.2 190.671 233.512C190.294 233.809 190.282 234.326 190.27 234.875C190.257 235.462 190.244 236.127 189.682 236.475C189.13 236.814 188.505 236.59 187.897 236.373C187.377 236.186 186.886 236.011 186.527 236.208C186.125 236.426 186.059 237.044 185.992 237.64C185.915 238.334 185.835 239.052 185.214 239.303C184.748 239.493 184.327 239.261 183.957 239.056C183.619 238.869 183.297 238.692 182.94 238.789C182.6 238.879 182.439 239.154 182.182 239.631C181.97 240.029 181.703 240.523 181.208 240.949C180.442 241.607 179.3 241.939 177.815 241.939Z" fill="black"/>
<path d="M131.275 12.7485C131.101 12.7485 130.959 12.608 130.959 12.4322V9.98157C130.959 9.80586 131.101 9.6653 131.275 9.6653C131.45 9.6653 131.591 9.80586 131.591 9.98157V12.4322C131.591 12.608 131.45 12.7485 131.275 12.7485Z" fill="black"/>
<path d="M131.273 18.4597C131.099 18.4597 130.957 18.3182 130.957 18.144V15.6926C130.957 15.5184 131.099 15.3768 131.273 15.3768C131.449 15.3768 131.589 15.5184 131.589 15.6926V18.144C131.589 18.3182 131.449 18.4597 131.273 18.4597Z" fill="black"/>
<path d="M129.645 14.3777H127.195C127.02 14.3777 126.879 14.2372 126.879 14.062C126.879 13.8887 127.02 13.7464 127.195 13.7464H129.645C129.821 13.7464 129.962 13.8887 129.962 14.062C129.962 14.2372 129.821 14.3777 129.645 14.3777Z" fill="black"/>
<path d="M135.359 14.3777H132.906C132.732 14.3777 132.59 14.2372 132.59 14.062C132.59 13.8887 132.732 13.7464 132.906 13.7464H135.359C135.532 13.7464 135.674 13.8887 135.674 14.062C135.674 14.2372 135.532 14.3777 135.359 14.3777Z" fill="black"/>
<path d="M16.4156 149.342C16.2412 149.342 16.0996 149.201 16.0996 149.026V146.574C16.0996 146.4 16.2412 146.258 16.4156 146.258C16.5901 146.258 16.7317 146.4 16.7317 146.574V149.026C16.7317 149.201 16.5901 149.342 16.4156 149.342Z" fill="black"/>
<path d="M16.4156 155.052C16.2412 155.052 16.0996 154.911 16.0996 154.737V152.285C16.0996 152.11 16.2412 151.969 16.4156 151.969C16.5901 151.969 16.7317 152.11 16.7317 152.285V154.737C16.7317 154.911 16.5901 155.052 16.4156 155.052Z" fill="black"/>
<path d="M14.7869 150.972H12.3356C12.1611 150.972 12.0195 150.83 12.0195 150.656C12.0195 150.481 12.1611 150.34 12.3356 150.34H14.7869C14.9614 150.34 15.103 150.481 15.103 150.656C15.103 150.83 14.9614 150.972 14.7869 150.972Z" fill="black"/>
<path d="M20.4976 150.972H18.0464C17.8719 150.972 17.7305 150.83 17.7305 150.656C17.7305 150.481 17.8719 150.34 18.0464 150.34H20.4976C20.672 150.34 20.8136 150.481 20.8136 150.656C20.8136 150.83 20.672 150.972 20.4976 150.972Z" fill="black"/>
<path d="M227.221 135.216C227.047 135.216 226.906 135.073 226.906 134.899V132.447C226.906 132.271 227.047 132.131 227.221 132.131C227.396 132.131 227.538 132.271 227.538 132.447V134.899C227.538 135.073 227.396 135.216 227.221 135.216Z" fill="black"/>
<path d="M227.221 140.925C227.047 140.925 226.906 140.783 226.906 140.61V138.157C226.906 137.984 227.047 137.842 227.221 137.842C227.396 137.842 227.538 137.984 227.538 138.157V140.61C227.538 140.783 227.396 140.925 227.221 140.925Z" fill="black"/>
<path d="M225.593 136.843H223.141C222.968 136.843 222.826 136.701 222.826 136.528C222.826 136.353 222.968 136.212 223.141 136.212H225.593C225.767 136.212 225.91 136.353 225.91 136.528C225.91 136.701 225.767 136.843 225.593 136.843Z" fill="black"/>
<path d="M231.303 136.842H228.853C228.678 136.842 228.537 136.701 228.537 136.528C228.537 136.353 228.678 136.212 228.853 136.212H231.303C231.479 136.212 231.619 136.353 231.619 136.528C231.619 136.701 231.479 136.842 231.303 136.842Z" fill="black"/>
</svg>
