<svg width="270" height="271" viewBox="0 0 270 271" fill="none" xmlns="http://www.w3.org/2000/svg">
<g filter="url(#filter0_d_155_1586)">
<path d="M190.838 230.489C189.07 237.821 181.689 242.331 174.357 240.562C167.024 238.793 162.515 231.413 164.283 224.081C166.054 216.748 173.432 212.238 180.766 214.008C188.098 215.778 192.607 223.157 190.838 230.489ZM199.668 228.579C199.743 227.333 199.714 226.098 199.582 224.884L204.637 222.066L203.135 216.977L197.352 217.352C196.798 216.251 196.154 215.198 195.427 214.202L198.399 209.226L194.556 205.57L189.742 208.784C188.721 208.111 187.635 207.523 186.492 207.022L186.578 201.227L181.421 199.983L178.855 205.178C177.609 205.103 176.374 205.132 175.16 205.264L172.342 200.21L167.253 201.71L167.628 207.495C166.527 208.048 165.474 208.692 164.479 209.419L159.503 206.447L155.846 210.291L159.06 215.104C158.387 216.125 157.799 217.211 157.297 218.354L151.503 218.267L150.259 223.425L155.454 225.991C155.38 227.237 155.408 228.473 155.54 229.686L150.485 232.505L151.985 237.593L157.77 237.218C158.324 238.319 158.968 239.372 159.696 240.368L156.723 245.343L160.566 249L165.381 245.787C166.4 246.459 167.487 247.046 168.63 247.549L168.543 253.343L173.701 254.587L176.267 249.392C177.513 249.467 178.748 249.438 179.962 249.306L182.781 254.36L187.871 252.86L187.494 247.075C188.595 246.522 189.648 245.878 190.645 245.151L195.619 248.123L199.276 244.279L196.063 239.465C196.735 238.445 197.323 237.359 197.825 236.216L203.619 236.302L204.863 231.144L199.668 228.579Z" fill="black"/>
<path d="M177.562 213.948C171.544 213.948 166.07 218.056 164.598 224.157C162.873 231.305 167.284 238.522 174.433 240.248C177.896 241.083 181.477 240.52 184.516 238.663C187.554 236.805 189.688 233.876 190.525 230.413C192.249 223.266 187.838 216.047 180.689 214.322C179.643 214.069 178.593 213.948 177.562 213.948ZM177.588 241.27C176.487 241.27 175.379 241.139 174.281 240.875C166.787 239.067 162.163 231.499 163.97 224.006C164.847 220.375 167.083 217.303 170.272 215.355C173.457 213.408 177.211 212.819 180.842 213.694C188.334 215.502 192.959 223.07 191.152 230.565C190.277 234.195 188.039 237.266 184.852 239.214C182.629 240.573 180.129 241.27 177.588 241.27ZM168.87 253.089L173.526 254.213L175.978 249.249C176.035 249.133 176.161 249.062 176.285 249.07C177.514 249.143 178.739 249.114 179.927 248.985C180.057 248.97 180.18 249.035 180.244 249.149L182.937 253.978L187.531 252.622L187.173 247.096C187.163 246.967 187.232 246.845 187.349 246.788C188.431 246.244 189.476 245.605 190.453 244.89C190.559 244.813 190.698 244.807 190.81 244.873L195.563 247.713L198.865 244.244L195.795 239.645C195.723 239.537 195.723 239.396 195.793 239.287C196.451 238.29 197.035 237.212 197.53 236.085C197.581 235.967 197.699 235.892 197.83 235.892L203.365 235.976L204.489 231.319L199.526 228.869C199.409 228.811 199.339 228.689 199.346 228.56C199.42 227.331 199.391 226.107 199.262 224.918C199.247 224.79 199.311 224.665 199.425 224.602L204.254 221.909L202.899 217.314L197.374 217.674C197.243 217.682 197.121 217.613 197.064 217.497C196.52 216.415 195.881 215.37 195.166 214.393C195.09 214.288 195.084 214.148 195.149 214.036L197.99 209.282L194.519 205.981L189.921 209.051C189.814 209.124 189.673 209.124 189.564 209.052C188.566 208.395 187.488 207.81 186.362 207.316C186.244 207.264 186.167 207.145 186.169 207.016L186.253 201.48L181.596 200.356L179.144 205.321C179.088 205.438 178.969 205.508 178.837 205.499C177.608 205.426 176.381 205.455 175.195 205.584C175.066 205.598 174.942 205.534 174.879 205.422L172.186 200.591L167.591 201.947L167.951 207.473C167.958 207.602 167.889 207.724 167.773 207.782C166.691 208.326 165.647 208.964 164.669 209.68C164.565 209.756 164.425 209.762 164.312 209.696L159.559 206.856L156.257 210.325L159.327 214.926C159.399 215.033 159.401 215.174 159.329 215.282C158.671 216.279 158.089 217.356 157.592 218.484C157.541 218.602 157.436 218.677 157.291 218.677L151.756 218.593L150.633 223.25L155.598 225.701C155.714 225.759 155.785 225.88 155.775 226.009C155.702 227.239 155.731 228.464 155.861 229.651C155.875 229.78 155.811 229.905 155.697 229.968L150.867 232.66L152.224 237.255L157.75 236.895C157.877 236.885 158.001 236.956 158.058 237.072C158.602 238.154 159.241 239.198 159.957 240.177C160.032 240.281 160.038 240.421 159.972 240.533L157.132 245.287L160.604 248.588L165.202 245.518C165.31 245.447 165.449 245.445 165.558 245.517C166.557 246.175 167.633 246.759 168.76 247.253C168.878 247.305 168.955 247.424 168.953 247.553L168.87 253.089ZM173.702 254.91C173.676 254.91 173.651 254.907 173.625 254.902L168.469 253.657C168.322 253.621 168.219 253.489 168.222 253.338L168.305 247.757C167.282 247.298 166.303 246.766 165.383 246.174L160.746 249.268C160.621 249.351 160.454 249.337 160.345 249.233L156.5 245.577C156.392 245.472 156.369 245.307 156.445 245.178L159.31 240.383C158.665 239.485 158.084 238.535 157.58 237.554L152.008 237.916C151.856 237.926 151.72 237.83 151.677 237.684L150.176 232.596C150.133 232.45 150.197 232.297 150.329 232.223L155.196 229.507C155.09 228.421 155.064 227.305 155.121 226.186L150.115 223.714C149.98 223.648 149.909 223.495 149.945 223.349L151.189 218.191C151.224 218.044 151.347 217.945 151.508 217.945L157.089 218.028C157.549 217.005 158.081 216.025 158.673 215.107L155.578 210.469C155.493 210.344 155.509 210.177 155.611 210.068L159.269 206.224C159.373 206.114 159.54 206.091 159.669 206.169L164.462 209.033C165.359 208.389 166.311 207.807 167.293 207.303L166.931 201.731C166.921 201.58 167.016 201.442 167.161 201.401L172.25 199.899C172.394 199.857 172.551 199.92 172.623 200.053L175.339 204.922C176.424 204.814 177.542 204.788 178.659 204.844L181.132 199.838C181.198 199.703 181.349 199.633 181.496 199.669L186.654 200.913C186.802 200.948 186.903 201.08 186.901 201.231L186.818 206.813C187.841 207.273 188.82 207.805 189.739 208.397L194.377 205.301C194.501 205.218 194.668 205.232 194.777 205.335L198.621 208.993C198.732 209.097 198.755 209.262 198.676 209.391L195.813 214.186C196.457 215.082 197.038 216.034 197.544 217.017L203.114 216.655C203.267 216.643 203.404 216.741 203.445 216.885L204.947 221.973C204.989 222.119 204.926 222.274 204.794 222.347L199.926 225.062C200.033 226.15 200.059 227.265 200.001 228.383L205.007 230.855C205.142 230.921 205.213 231.074 205.179 231.22L203.934 236.378C203.897 236.525 203.779 236.628 203.614 236.625L198.034 236.542C197.573 237.562 197.041 238.544 196.451 239.462L199.544 244.1C199.628 244.225 199.613 244.392 199.51 244.501L195.853 248.345C195.749 248.454 195.583 248.478 195.454 248.4L190.661 245.537C189.763 246.181 188.811 246.762 187.829 247.267L188.192 252.838C188.201 252.989 188.106 253.127 187.96 253.168L182.871 254.67C182.727 254.712 182.573 254.649 182.5 254.518L179.783 249.649C178.696 249.757 177.58 249.781 176.463 249.725L173.99 254.731C173.935 254.843 173.822 254.91 173.702 254.91Z" fill="black"/>
<path d="M232.991 218.371C232.045 223.134 227.421 226.228 222.661 225.282C217.902 224.335 214.808 219.706 215.754 214.943C216.7 210.181 221.324 207.086 226.085 208.033C230.844 208.979 233.936 213.608 232.991 218.371ZM238.615 216.912C238.631 216.109 238.582 215.314 238.464 214.537L241.64 212.592L240.541 209.357L236.834 209.751C236.449 209.057 236.007 208.396 235.513 207.775L237.295 204.497L234.727 202.245L231.716 204.438C231.044 204.032 230.33 203.682 229.583 203.389L229.486 199.659L226.139 198.994L224.625 202.403C223.821 202.388 223.028 202.439 222.251 202.555L220.309 199.378L217.077 200.476L217.471 204.186C216.776 204.572 216.115 205.013 215.496 205.507L212.219 203.725L209.97 206.293L212.16 209.307C211.755 209.981 211.405 210.695 211.113 211.443L207.385 211.539L206.722 214.889L210.128 216.404C210.112 217.207 210.163 218 210.279 218.778L207.105 220.724L208.202 223.957L211.912 223.565C212.297 224.258 212.738 224.919 213.232 225.539L211.451 228.819L214.018 231.07L217.028 228.878C217.701 229.283 218.415 229.632 219.163 229.926L219.259 233.655L222.606 234.321L224.12 230.912C224.922 230.927 225.717 230.877 226.493 230.759L228.436 233.937L231.669 232.839L231.275 229.128C231.969 228.743 232.629 228.302 233.25 227.807L236.526 229.589L238.775 227.021L236.584 224.009C236.989 223.335 237.339 222.621 237.632 221.872L241.359 221.777L242.024 218.426L238.615 216.912Z" fill="black"/>
<path d="M224.355 208.184C222.698 208.184 221.078 208.673 219.669 209.616C217.79 210.873 216.512 212.787 216.072 215.006C215.163 219.586 218.148 224.055 222.726 224.964C224.943 225.406 227.198 224.956 229.077 223.698C230.958 222.442 232.234 220.526 232.675 218.307C233.585 213.727 230.6 209.261 226.022 208.35C225.468 208.239 224.908 208.184 224.355 208.184ZM224.393 225.775C223.798 225.775 223.196 225.717 222.599 225.598C217.672 224.618 214.461 219.811 215.44 214.881C215.913 212.493 217.287 210.432 219.31 209.08C221.333 207.726 223.761 207.241 226.149 207.717C231.076 208.696 234.287 213.504 233.308 218.434C232.835 220.822 231.46 222.882 229.436 224.236C227.92 225.249 226.175 225.775 224.393 225.775ZM219.576 233.389L222.418 233.954L223.826 230.781C223.878 230.661 223.997 230.582 224.126 230.588C224.911 230.604 225.691 230.554 226.447 230.44C226.573 230.421 226.702 230.48 226.769 230.591L228.579 233.549L231.322 232.616L230.956 229.162C230.942 229.033 231.007 228.908 231.12 228.846C231.796 228.471 232.446 228.037 233.05 227.554C233.152 227.474 233.291 227.462 233.405 227.524L236.455 229.182L238.364 227.002L236.325 224.198C236.249 224.093 236.242 223.953 236.309 223.842C236.702 223.188 237.047 222.487 237.332 221.754C237.379 221.633 237.496 221.553 237.624 221.55L241.093 221.461L241.658 218.616L238.487 217.207C238.369 217.153 238.293 217.036 238.295 216.905C238.309 216.119 238.26 215.338 238.145 214.585C238.128 214.456 238.186 214.329 238.297 214.262L241.253 212.451L240.32 209.706L236.869 210.071C236.74 210.086 236.615 210.021 236.552 209.907C236.177 209.23 235.744 208.579 235.261 207.976C235.182 207.874 235.17 207.734 235.231 207.621L236.888 204.568L234.71 202.657L231.909 204.698C231.805 204.774 231.664 204.781 231.553 204.713C230.898 204.321 230.197 203.976 229.466 203.689C229.345 203.641 229.264 203.526 229.26 203.397L229.171 199.926L226.33 199.36L224.922 202.533C224.869 202.653 224.749 202.732 224.619 202.726C223.835 202.71 223.055 202.76 222.302 202.874C222.173 202.894 222.046 202.834 221.978 202.723L220.169 199.765L217.426 200.698L217.792 204.153C217.805 204.281 217.739 204.406 217.628 204.469C216.951 204.844 216.301 205.278 215.699 205.76C215.596 205.84 215.456 205.853 215.341 205.791L212.293 204.131L210.383 206.313L212.422 209.117C212.499 209.22 212.504 209.361 212.438 209.472C212.047 210.126 211.702 210.829 211.415 211.56C211.367 211.681 211.253 211.761 211.122 211.765L207.653 211.855L207.09 214.699L210.261 216.107C210.379 216.16 210.455 216.28 210.451 216.409C210.437 217.195 210.488 217.976 210.601 218.73C210.62 218.858 210.561 218.986 210.451 219.053L207.495 220.864L208.426 223.609L211.878 223.243C212.008 223.228 212.133 223.294 212.195 223.408C212.57 224.083 213.003 224.733 213.485 225.339C213.564 225.44 213.579 225.579 213.517 225.694L211.86 228.746L214.038 230.657L216.84 228.616C216.943 228.54 217.084 228.534 217.195 228.6C217.849 228.994 218.551 229.339 219.282 229.625C219.403 229.672 219.483 229.787 219.486 229.917L219.576 233.389ZM222.608 234.644C222.587 234.644 222.566 234.641 222.545 234.638L219.197 233.971C219.049 233.942 218.942 233.814 218.937 233.663L218.847 230.147C218.222 229.891 217.618 229.595 217.047 229.263L214.209 231.331C214.087 231.42 213.92 231.411 213.806 231.312L211.24 229.06C211.126 228.961 211.096 228.797 211.168 228.663L212.848 225.572C212.439 225.043 212.068 224.486 211.735 223.907L208.24 224.277C208.088 224.295 207.947 224.204 207.898 224.06L206.801 220.827C206.752 220.685 206.808 220.526 206.939 220.447L209.932 218.614C209.844 217.96 209.802 217.289 209.803 216.612L206.592 215.183C206.454 215.123 206.377 214.973 206.407 214.825L207.071 211.475C207.101 211.327 207.229 211.219 207.379 211.215L210.893 211.125C211.149 210.499 211.444 209.896 211.776 209.325L209.708 206.484C209.62 206.362 209.627 206.195 209.728 206.082L211.976 203.512C212.077 203.398 212.242 203.37 212.374 203.442L215.464 205.122C215.991 204.715 216.549 204.341 217.128 204.009L216.757 200.51C216.739 200.36 216.831 200.219 216.973 200.171L220.205 199.071C220.347 199.022 220.506 199.08 220.585 199.209L222.418 202.206C223.071 202.118 223.744 202.075 224.416 202.078L225.844 198.863C225.906 198.725 226.056 198.647 226.202 198.677L229.551 199.343C229.699 199.373 229.806 199.501 229.81 199.652L229.901 203.169C230.526 203.424 231.13 203.72 231.701 204.051L234.539 201.984C234.661 201.895 234.828 201.902 234.941 202.002L237.508 204.254C237.621 204.353 237.651 204.518 237.578 204.65L235.9 207.742C236.307 208.27 236.68 208.828 237.011 209.407L240.508 209.036C240.66 209.021 240.801 209.111 240.848 209.253L241.945 212.487C241.995 212.631 241.938 212.787 241.81 212.866L238.815 214.702C238.904 215.356 238.947 216.027 238.943 216.704L242.157 218.131C242.294 218.192 242.371 218.341 242.341 218.489L241.678 221.839C241.648 221.987 241.519 222.094 241.368 222.099L237.855 222.189C237.598 222.814 237.302 223.419 236.973 223.99L239.038 226.831C239.126 226.953 239.119 227.12 239.021 227.234L236.77 229.802C236.67 229.915 236.506 229.946 236.372 229.872L233.282 228.192C232.756 228.6 232.197 228.973 231.62 229.305L231.991 232.804C232.007 232.955 231.917 233.096 231.773 233.145L228.542 234.243C228.399 234.291 228.241 234.234 228.163 234.106L226.33 231.108C225.675 231.197 224.999 231.239 224.33 231.236L222.902 234.451C222.851 234.57 222.735 234.644 222.608 234.644Z" fill="black"/>
<path d="M207.803 237.86C207.773 237.86 207.744 237.856 207.714 237.848C207.543 237.799 207.444 237.62 207.492 237.448C207.795 236.402 207.947 235.498 207.947 234.762C207.947 234.394 207.908 234.075 207.831 233.815C207.778 233.644 207.876 233.464 208.045 233.412C208.218 233.362 208.396 233.458 208.448 233.629C208.544 233.95 208.592 234.331 208.592 234.762C208.592 235.558 208.43 236.523 208.114 237.628C208.072 237.768 207.943 237.86 207.803 237.86ZM204.559 244.882C204.501 244.882 204.442 244.867 204.391 244.835C204.239 244.742 204.191 244.543 204.284 244.391C204.975 243.263 205.591 242.126 206.114 241.014C206.19 240.853 206.383 240.784 206.544 240.86C206.704 240.936 206.774 241.129 206.698 241.289C206.164 242.422 205.536 243.579 204.835 244.727C204.773 244.828 204.668 244.882 204.559 244.882ZM199.914 251.075C199.836 251.075 199.76 251.048 199.698 250.99C199.566 250.871 199.555 250.667 199.676 250.535C200.527 249.599 201.352 248.603 202.124 247.573C202.233 247.43 202.434 247.4 202.578 247.508C202.72 247.614 202.749 247.817 202.642 247.959C201.856 249.007 201.02 250.019 200.153 250.97C200.089 251.039 200.002 251.075 199.914 251.075ZM194.122 256.197C194.021 256.197 193.92 256.148 193.856 256.058C193.755 255.911 193.793 255.71 193.939 255.609C194.958 254.902 195.971 254.103 196.948 253.235C197.082 253.116 197.285 253.129 197.403 253.261C197.521 253.395 197.51 253.599 197.377 253.717C196.381 254.603 195.348 255.418 194.307 256.14C194.251 256.178 194.186 256.197 194.122 256.197ZM187.212 259.619C187.073 259.619 186.946 259.53 186.903 259.391C186.851 259.219 186.948 259.04 187.119 258.988C188.299 258.626 189.489 258.147 190.651 257.565C190.811 257.486 191.006 257.551 191.086 257.71C191.166 257.868 191.1 258.063 190.94 258.143C189.746 258.741 188.521 259.232 187.306 259.605C187.275 259.615 187.243 259.619 187.212 259.619ZM181.94 260.501C181.768 260.501 181.624 260.364 181.617 260.19C181.613 260.011 181.752 259.862 181.931 259.856C182.417 259.842 182.908 259.807 183.393 259.756C183.57 259.735 183.729 259.865 183.749 260.041C183.767 260.218 183.64 260.378 183.461 260.396C182.961 260.451 182.453 260.486 181.95 260.501C181.947 260.501 181.944 260.501 181.94 260.501Z" fill="black"/>
<path d="M255.588 205.623C255.484 205.623 255.383 205.573 255.32 205.481C255.22 205.333 255.259 205.133 255.408 205.032L257.484 203.634C257.632 203.535 257.831 203.574 257.931 203.722C258.031 203.87 257.99 204.069 257.844 204.169L255.768 205.568C255.712 205.606 255.651 205.623 255.588 205.623Z" fill="black"/>
<path d="M250.752 208.883C250.648 208.883 250.545 208.832 250.483 208.74C250.385 208.592 250.423 208.391 250.571 208.292L252.647 206.892C252.795 206.793 252.996 206.832 253.096 206.98C253.195 207.128 253.157 207.329 253.009 207.428L250.931 208.827C250.876 208.864 250.814 208.883 250.752 208.883Z" fill="black"/>
<path d="M253.277 205.174C253.173 205.174 253.071 205.124 253.01 205.032L251.61 202.955C251.512 202.807 251.55 202.606 251.698 202.507C251.846 202.408 252.046 202.446 252.147 202.594L253.545 204.671C253.643 204.819 253.605 205.019 253.457 205.118C253.402 205.155 253.34 205.174 253.277 205.174Z" fill="black"/>
<path d="M256.54 210.009C256.434 210.009 256.334 209.96 256.271 209.867L254.873 207.792C254.773 207.644 254.812 207.443 254.96 207.343C255.108 207.243 255.308 207.283 255.407 207.431L256.806 209.506C256.906 209.654 256.867 209.856 256.719 209.955C256.664 209.992 256.601 210.009 256.54 210.009Z" fill="black"/>
<path d="M182.727 10.448C182.699 10.448 182.669 10.4442 182.64 10.4367C165.079 5.48317 146.463 5.25751 128.811 9.78415C128.638 9.8274 128.462 9.72396 128.417 9.55094C128.373 9.37793 128.478 9.20302 128.65 9.15789C146.414 4.60492 165.143 4.83248 182.815 9.81423C182.986 9.86312 183.086 10.0418 183.037 10.2129C182.998 10.3558 182.868 10.448 182.727 10.448Z" fill="black"/>
<path d="M191.959 7.21362C191.925 7.21362 191.888 7.20785 191.854 7.19632C168.105 -0.984463 142.993 -1.51306 119.235 5.66819C119.066 5.72009 118.885 5.62397 118.834 5.4529C118.783 5.28183 118.879 5.10115 119.048 5.05118C142.938 -2.17044 168.186 -1.63993 192.065 6.58698C192.234 6.64465 192.323 6.82727 192.265 6.99642C192.219 7.13097 192.094 7.21362 191.959 7.21362Z" fill="black"/>
<path d="M112.693 8.43092L116.125 8.58552L114.932 4.92424L112.693 8.43092ZM116.576 9.25293C116.57 9.25293 116.566 9.25293 116.561 9.25293L112.106 9.04932C111.991 9.04555 111.886 8.97956 111.835 8.87587C111.781 8.77406 111.786 8.6515 111.849 8.55347L114.756 4.00044C114.822 3.89486 114.943 3.8383 115.068 3.85339C115.192 3.87035 115.295 3.9552 115.334 4.07397L116.882 8.83061C116.915 8.93053 116.896 9.04178 116.832 9.12473C116.771 9.2058 116.676 9.25293 116.576 9.25293Z" fill="black"/>
<path d="M23.2177 18.0187C18.2578 18.0187 14.2226 22.0533 14.2226 27.0122V186.862C14.2226 191.822 18.2578 195.857 23.2177 195.857H256.367C261.326 195.857 265.361 191.822 265.361 186.862V27.0122C265.361 22.0533 261.326 18.0187 256.367 18.0187H23.2177ZM256.367 196.502H23.2177C17.9018 196.502 13.5771 192.178 13.5771 186.862V27.0122C13.5771 21.6969 17.9018 17.3726 23.2177 17.3726H256.367C261.682 17.3726 266.007 21.6969 266.007 27.0122V186.862C266.007 192.178 261.682 196.502 256.367 196.502Z" fill="black"/>
<path d="M23.2164 21.6587C20.2652 21.6587 17.864 24.0601 17.864 27.0115V186.861C17.864 189.813 20.2652 192.215 23.2164 192.215H256.366C259.315 192.215 261.717 189.813 261.717 186.861V27.0115C261.717 24.0601 259.315 21.6587 256.366 21.6587H23.2164ZM256.366 192.86H23.2164C19.9093 192.86 17.2188 190.168 17.2188 186.861V27.0115C17.2188 23.7042 19.9093 21.0146 23.2164 21.0146H256.366C259.673 21.0146 262.363 23.7042 262.363 27.0115V186.861C262.363 190.168 259.673 192.86 256.366 192.86Z" fill="black"/>
<path d="M252.769 188.219H26.8154C24.0828 188.219 21.8594 185.996 21.8594 183.264V144.858C21.8594 144.68 22.0041 144.534 22.1821 144.534C22.3604 144.534 22.5049 144.68 22.5049 144.858V183.264C22.5049 185.641 24.4386 187.574 26.8154 187.574H252.769C255.145 187.574 257.08 185.641 257.08 183.264V120.282C257.08 120.102 257.225 119.957 257.403 119.957C257.581 119.957 257.725 120.102 257.725 120.282V183.264C257.725 185.996 255.501 188.219 252.769 188.219Z" fill="black"/>
<path d="M22.66 118.569C22.4826 118.569 22.3383 118.425 22.3371 118.249L21.8594 38.4121C21.8584 38.2329 22.0021 38.0888 22.1802 38.0871C22.3624 38.0871 22.5038 38.2295 22.5048 38.4071L22.9828 118.244C22.9838 118.421 22.84 118.567 22.6618 118.569C22.6611 118.569 22.6606 118.569 22.66 118.569Z" fill="black"/>
<path d="M257.402 60.5027C257.224 60.5027 257.079 60.358 257.079 60.1799V49.317C257.079 49.1389 257.224 48.9943 257.402 48.9943C257.58 48.9943 257.725 49.1389 257.725 49.317V60.1799C257.725 60.358 257.58 60.5027 257.402 60.5027Z" fill="black"/>
<path d="M37.1501 28.2733C34.5207 28.2733 32.3818 30.4115 32.3818 33.0424V176.443C32.3818 179.073 34.5207 181.211 37.1501 181.211H246.308C248.937 181.211 251.076 179.073 251.076 176.443V33.0424C251.076 30.4115 248.937 28.2733 246.308 28.2733H37.1501ZM246.308 181.857H37.1501C34.1651 181.857 31.7363 179.428 31.7363 176.443V33.0424C31.7363 30.0569 34.1651 27.6278 37.1501 27.6278H246.308C249.292 27.6278 251.723 30.0569 251.723 33.0424V176.443C251.723 179.428 249.292 181.857 246.308 181.857Z" fill="black"/>
<path d="M114.858 73.69C114.858 84.5078 106.089 93.2788 95.2706 93.2788C84.4525 93.2788 75.6826 84.5078 75.6826 73.69C75.6826 62.8722 84.4525 54.1028 95.2706 54.1028C106.089 54.1028 114.858 62.8722 114.858 73.69Z" fill="black"/>
<path d="M106.839 73.692L88.6172 63.1707V84.2119L106.839 73.692Z" fill="white"/>
<path d="M232.125 50.4404H167.522C167.346 50.4404 167.201 50.2959 167.201 50.1174C167.201 49.9406 167.346 49.7961 167.522 49.7961H232.125C232.304 49.7961 232.448 49.9406 232.448 50.1174C232.448 50.2959 232.304 50.4404 232.125 50.4404Z" fill="black"/>
<path d="M232.125 55.772H167.522C167.346 55.772 167.201 55.6275 167.201 55.449C167.201 55.2705 167.346 55.126 167.522 55.126H232.125C232.304 55.126 232.448 55.2705 232.448 55.449C232.448 55.6275 232.304 55.772 232.125 55.772Z" fill="black"/>
<path d="M232.125 60.9368H167.522C167.346 60.9368 167.201 60.7923 167.201 60.6138C167.201 60.4353 167.346 60.2908 167.522 60.2908H232.125C232.304 60.2908 232.448 60.4353 232.448 60.6138C232.448 60.7923 232.304 60.9368 232.125 60.9368Z" fill="black"/>
<path d="M232.125 66.2661H167.522C167.346 66.2661 167.201 66.1216 167.201 65.9431C167.201 65.7663 167.346 65.6218 167.522 65.6218H232.125C232.304 65.6218 232.448 65.7663 232.448 65.9431C232.448 66.1216 232.304 66.2661 232.125 66.2661Z" fill="black"/>
<path d="M232.125 80.2576H167.522C167.346 80.2576 167.201 80.1131 167.201 79.9363C167.201 79.7578 167.346 79.6133 167.522 79.6133H232.125C232.304 79.6133 232.448 79.7578 232.448 79.9363C232.448 80.1131 232.304 80.2576 232.125 80.2576Z" fill="black"/>
<path d="M232.125 85.5884H167.522C167.346 85.5884 167.201 85.4439 167.201 85.2654C167.201 85.0869 167.346 84.9424 167.522 84.9424H232.125C232.304 84.9424 232.448 85.0869 232.448 85.2654C232.448 85.4439 232.304 85.5884 232.125 85.5884Z" fill="black"/>
<path d="M232.125 90.7532H167.522C167.346 90.7532 167.201 90.6087 167.201 90.4302C167.201 90.2517 167.346 90.1072 167.522 90.1072H232.125C232.304 90.1072 232.448 90.2517 232.448 90.4302C232.448 90.6087 232.304 90.7532 232.125 90.7532Z" fill="black"/>
<path d="M232.125 96.083H167.522C167.346 96.083 167.201 95.9402 167.201 95.76C167.201 95.5815 167.346 95.4387 167.522 95.4387H232.125C232.304 95.4387 232.448 95.5815 232.448 95.76C232.448 95.9402 232.304 96.083 232.125 96.083Z" fill="black"/>
<path d="M40.6308 32.5038C39.2361 32.5038 38.1015 33.6381 38.1015 35.0328V115.363C38.1015 116.759 39.2361 117.894 40.6308 117.894H157.799C159.192 117.894 160.328 116.759 160.328 115.363V35.0328C160.328 33.6381 159.192 32.5038 157.799 32.5038H40.6308ZM157.799 118.538H40.6308C38.8802 118.538 37.4561 117.114 37.4561 115.363V35.0328C37.4561 33.2817 38.8802 31.8579 40.6308 31.8579H157.799C159.549 31.8579 160.973 33.2817 160.973 35.0328V115.363C160.973 117.114 159.549 118.538 157.799 118.538Z" fill="black"/>
<path d="M226.425 180.952L228.233 175.12C228.233 175.12 229.823 174.926 230.381 174.867C240.156 173.83 235.25 154.279 227.115 149.707C222.118 146.899 216.136 146.518 210.31 146.767C206.211 146.942 202.231 146.82 198.538 149.03C193.291 152.169 188.793 157.578 186.012 165.876L183.485 180.952H226.425Z" fill="white"/>
<path d="M183.869 180.628H226.187L227.927 175.023C227.963 174.902 228.07 174.815 228.197 174.799C228.197 174.799 229.789 174.605 230.348 174.546C233.625 174.198 234.817 171.69 235.235 169.648C236.583 163.111 232.328 153.004 226.96 149.988C221.668 147.014 215.291 146.876 210.326 147.089C209.868 147.108 209.411 147.123 208.956 147.139C205.335 147.266 201.916 147.385 198.704 149.305C193.07 152.677 188.905 158.279 186.326 165.955L183.869 180.628ZM226.426 181.275H183.487C183.392 181.275 183.303 181.232 183.241 181.16C183.179 181.088 183.153 180.992 183.168 180.898L185.693 165.822C185.697 165.805 185.7 165.789 185.707 165.774C188.336 157.935 192.597 152.208 198.374 148.752C201.727 146.746 205.228 146.624 208.932 146.494C209.387 146.48 209.842 146.464 210.298 146.444C215.348 146.228 221.841 146.372 227.275 149.424C232.844 152.554 237.261 163.016 235.868 169.779C235.203 173.01 233.317 174.879 230.417 175.187C229.985 175.233 228.93 175.361 228.482 175.414L226.733 181.048C226.692 181.183 226.567 181.275 226.426 181.275Z" fill="black"/>
<path d="M214.484 137.963C215.665 138.558 216.555 138.644 217.197 138.606C219.514 138.472 220.999 136.606 221.297 136.231C224.972 131.613 222.245 125.87 218.603 122.186C217.749 121.321 216.777 120.527 215.624 120.138C214.707 119.829 213.723 119.789 212.757 119.812C209.295 119.897 205.529 120.982 203.658 123.895C202.556 125.61 204.498 129.089 205.969 129.985C207.264 130.776 208.629 130.344 209.674 131.578C211.487 133.718 211.75 136.583 214.484 137.963Z" fill="black"/>
<path d="M207.908 146.002L208.864 140.052C208.655 140.029 206.892 139.721 206.691 139.622C205.06 138.808 205.514 134.716 205.514 134.716L204.608 133.633L207.313 127.58C210.183 129.974 211.209 127.622 214.051 128.802C216.894 129.979 215.352 133.143 215.352 133.143C215.352 133.143 217.674 132.121 217.179 134.367C216.804 136.063 215.565 136.169 214.752 136.102L216.267 146.303C216.267 146.303 221.145 147.688 222.088 147.938C220.86 147.881 212.374 151.572 202.749 147.537L207.908 146.002Z" fill="white"/>
<path d="M203.736 147.582C211.066 150.323 217.658 148.655 220.535 147.927C220.589 147.914 220.641 147.901 220.692 147.888C218.933 147.395 216.216 146.623 216.18 146.613C216.059 146.579 215.969 146.476 215.949 146.351L214.435 136.15C214.42 136.052 214.45 135.952 214.518 135.881C214.586 135.809 214.682 135.771 214.781 135.78C215.959 135.879 216.617 135.408 216.863 134.297C216.97 133.815 216.939 133.474 216.773 133.338C216.494 133.11 215.783 133.309 215.482 133.438C215.359 133.494 215.213 133.464 215.12 133.368C215.026 133.269 215.003 133.124 215.062 133.002C215.069 132.989 215.742 131.574 215.292 130.394C215.074 129.819 214.614 129.383 213.929 129.098C212.788 128.628 211.992 128.759 211.148 128.9C210.093 129.076 209.005 129.26 207.439 128.092L204.986 133.579L205.762 134.508C205.818 134.575 205.846 134.664 205.836 134.751C205.717 135.827 205.666 138.748 206.836 139.332C207.039 139.414 208.667 139.705 208.902 139.73C208.989 139.741 209.069 139.787 209.123 139.856C209.175 139.927 209.198 140.015 209.185 140.103L208.228 146.053C208.209 146.174 208.122 146.276 208.002 146.31L203.736 147.582ZM212.28 149.746C209.392 149.746 206.079 149.282 202.625 147.836C202.5 147.783 202.422 147.657 202.428 147.52C202.436 147.385 202.528 147.267 202.659 147.228L207.624 145.75L208.495 140.32C207.912 140.223 206.765 140.018 206.549 139.91C204.891 139.084 205.104 135.645 205.181 134.818L204.362 133.84C204.283 133.745 204.263 133.613 204.314 133.5L207.019 127.449C207.058 127.356 207.142 127.289 207.24 127.266C207.339 127.243 207.442 127.268 207.521 127.332C209.039 128.598 209.967 128.444 211.042 128.264C211.897 128.121 212.864 127.961 214.176 128.503C215.035 128.859 215.613 129.419 215.898 130.168C216.239 131.064 216.068 132.027 215.885 132.642C216.298 132.558 216.817 132.54 217.181 132.84C217.556 133.145 217.661 133.682 217.494 134.436C217.291 135.355 216.711 136.41 215.13 136.437L216.557 146.05C217.486 146.313 221.351 147.409 222.17 147.626C222.331 147.668 222.432 147.825 222.408 147.987C222.382 148.151 222.241 148.27 222.074 148.26C221.882 148.253 221.333 148.391 220.694 148.553C218.98 148.986 215.978 149.746 212.28 149.746Z" fill="black"/>
<path d="M209.53 140.42C209.305 140.42 209.07 140.405 208.823 140.371C208.646 140.348 208.522 140.185 208.546 140.007C208.571 139.832 208.734 139.708 208.91 139.732C211.453 140.079 212.612 138.156 212.623 138.136C212.714 137.982 212.911 137.93 213.065 138.02C213.218 138.11 213.271 138.31 213.18 138.463C213.13 138.549 212 140.42 209.53 140.42Z" fill="black"/>
<path d="M213.104 139.513C212.769 139.513 212.428 139.465 212.089 139.367L208.793 138.41C208.623 138.361 208.525 138.182 208.573 138.011C208.623 137.839 208.801 137.74 208.974 137.791L212.269 138.747C213.668 139.151 215.139 138.495 215.77 137.184L216.443 135.786C216.52 135.625 216.712 135.559 216.875 135.635C217.034 135.713 217.101 135.905 217.026 136.067L216.353 137.464C215.736 138.744 214.463 139.513 213.104 139.513Z" fill="black"/>
<path d="M217.337 133.465C217.291 133.465 217.244 133.456 217.201 133.435C217.039 133.36 216.969 133.167 217.043 133.007C217.061 132.97 218.761 129.262 217.718 126.521C217.309 125.447 216.522 124.648 215.376 124.152C215.213 124.082 215.138 123.893 215.208 123.729C215.279 123.566 215.469 123.489 215.632 123.561C216.945 124.128 217.85 125.048 218.323 126.294C219.461 129.293 217.705 133.117 217.628 133.279C217.573 133.396 217.458 133.465 217.337 133.465Z" fill="white"/>
<path d="M207.635 138.085C207.574 137.594 207.929 137.143 208.43 137.081C208.932 137.015 209.389 137.363 209.45 137.857C209.512 138.348 209.156 138.799 208.656 138.863C208.155 138.925 207.699 138.578 207.635 138.085Z" fill="black"/>
<path d="M214.236 134.521C214.063 133.14 214.947 131.891 216.213 131.731C216.352 131.713 216.868 131.7 217.002 131.71C218.1 131.783 218.666 132.711 218.822 133.94C218.99 135.265 218.484 136.504 217.3 136.74C217.25 136.75 216.899 136.777 216.849 136.777C215.462 136.784 214.413 135.901 214.236 134.521Z" fill="black"/>
<path d="M214.788 134.476C214.639 133.094 215.549 131.862 216.818 131.726C218.087 131.59 219.234 132.603 219.381 133.985C219.529 135.369 218.621 136.601 217.352 136.737C216.083 136.872 214.934 135.86 214.788 134.476Z" fill="white"/>
<path d="M217.044 132.037C216.979 132.037 216.916 132.039 216.851 132.047C216.329 132.102 215.86 132.378 215.53 132.824C215.196 133.278 215.045 133.853 215.108 134.44C215.172 135.031 215.439 135.56 215.863 135.935C216.278 136.3 216.794 136.472 217.317 136.415C218.406 136.298 219.188 135.224 219.06 134.02C218.94 132.887 218.054 132.037 217.044 132.037ZM217.122 137.071C216.509 137.071 215.918 136.844 215.436 136.417C214.889 135.936 214.547 135.26 214.466 134.51C214.386 133.76 214.579 133.025 215.011 132.441C215.449 131.849 216.079 131.48 216.783 131.404C218.222 131.25 219.535 132.392 219.702 133.95C219.868 135.51 218.829 136.902 217.387 137.056C217.297 137.066 217.21 137.071 217.122 137.071Z" fill="black"/>
<path d="M219.328 136.183C219.378 136.178 219.38 136.11 219.333 136.1C218.334 135.906 215.81 135.292 216.323 134.162C216.514 133.745 218.594 134.04 219.444 134.153C220.293 134.266 222.927 136.534 223.503 138.312C223.942 139.676 224.132 141.862 224.493 143.249C224.493 143.249 237.977 161.004 236.477 168.158C234.612 177.07 225.85 173.811 224.215 169.655C222.766 165.973 222.215 149.135 222.109 145.344C221.932 144.881 221.478 143.746 221.075 143.324C220.564 142.789 217.923 141.649 217.837 140.498C217.772 139.624 219.227 138.633 219.933 138.206C220.047 138.137 220 137.96 219.865 137.96C219.454 137.962 218.811 138.031 218.185 138.381C217.145 138.962 216.033 138.649 216.347 137.929C216.63 137.281 218.135 136.324 219.328 136.183Z" fill="white"/>
<path d="M219.866 137.639C220.071 137.639 220.246 137.772 220.302 137.97C220.357 138.17 220.276 138.375 220.099 138.483C218.866 139.229 218.122 139.992 218.156 140.475C218.205 141.106 219.463 141.883 220.296 142.398C220.756 142.682 221.121 142.907 221.307 143.102C221.732 143.549 222.18 144.628 222.407 145.232C222.421 145.265 222.428 145.301 222.428 145.337C222.525 148.737 223.077 165.885 224.514 169.538C225.431 171.868 228.572 173.712 231.235 173.488C233.726 173.278 235.475 171.361 236.161 168.091C237.614 161.163 224.37 143.621 224.236 143.446C224.21 143.411 224.191 143.372 224.179 143.331C224.018 142.708 223.893 141.951 223.761 141.149C223.599 140.169 223.431 139.154 223.193 138.411C222.636 136.688 220.059 134.561 219.399 134.473L219.291 134.459C217.393 134.205 216.775 134.247 216.601 134.334C216.563 134.433 216.568 134.516 216.615 134.606C216.839 135.04 217.903 135.493 219.392 135.785C219.571 135.82 219.694 135.976 219.687 136.158C219.68 136.339 219.545 136.486 219.364 136.505C218.217 136.639 216.856 137.568 216.643 138.058C216.587 138.184 216.625 138.22 216.653 138.244C216.827 138.401 217.415 138.441 218.024 138.101C218.706 137.72 219.401 137.639 219.864 137.639H219.866ZM230.778 174.153C227.94 174.153 224.882 172.239 223.912 169.776C222.478 166.129 221.923 150.278 221.786 145.41C221.439 144.499 221.086 143.806 220.838 143.548C220.711 143.413 220.345 143.187 219.958 142.947C218.899 142.294 217.585 141.482 217.512 140.522C217.455 139.753 218.231 138.985 219.083 138.377C218.845 138.434 218.59 138.525 218.339 138.664C217.557 139.102 216.665 139.127 216.219 138.723C215.964 138.49 215.9 138.145 216.049 137.8C216.301 137.226 217.233 136.55 218.193 136.163C217.245 135.893 216.342 135.49 216.042 134.901C215.9 134.624 215.895 134.322 216.028 134.03C216.242 133.562 217.054 133.511 219.376 133.82L219.484 133.834C220.513 133.971 223.216 136.384 223.806 138.214C224.061 139.002 224.231 140.041 224.398 141.044C224.523 141.804 224.641 142.523 224.788 143.106C225.747 144.374 238.278 161.134 236.793 168.225C235.782 173.045 232.91 173.994 231.289 174.132C231.12 174.146 230.948 174.152 230.778 174.153Z" fill="black"/>
<path d="M229.107 175.463C226.796 175.463 220.606 174.803 219.47 167.869C219.439 167.692 219.557 167.527 219.734 167.498C219.908 167.47 220.077 167.589 220.105 167.764C221.402 175.682 229.556 174.826 229.9 174.786C230.08 174.766 230.237 174.893 230.257 175.069C230.279 175.246 230.153 175.406 229.974 175.427C229.957 175.429 229.633 175.463 229.107 175.463Z" fill="black"/>
<path d="M179.584 179.048H199.585L184.758 156.246C184.295 155.533 183.487 155.1 182.62 155.1H166.388C165.358 155.1 164.731 156.204 165.281 157.051L179.584 179.048Z" fill="black"/>
<path d="M175.317 163.097C175.967 164.095 177.364 164.906 178.439 164.906C179.513 164.906 179.857 164.095 179.206 163.097C178.557 162.098 177.16 161.287 176.085 161.287C175.011 161.287 174.666 162.098 175.317 163.097Z" fill="white"/>
<path d="M181.504 180.952H214.952C216.053 180.952 216.943 180.059 216.943 178.96V178.885H179.513V178.96C179.513 180.059 180.405 180.952 181.504 180.952Z" fill="black"/>
<path d="M197.8 179.39H180.625C180.446 179.39 180.302 179.246 180.302 179.068C180.302 178.89 180.446 178.745 180.625 178.745H197.8C197.979 178.745 198.123 178.89 198.123 179.068C198.123 179.246 197.979 179.39 197.8 179.39Z" fill="white"/>
<path d="M196.174 125.338C196.894 125.338 197.476 125.921 197.476 126.64V135.601C197.476 136.321 196.894 136.904 196.174 136.904H171.472C170.753 136.904 170.169 136.321 170.169 135.601V126.64C170.169 125.921 170.753 125.338 171.472 125.338H196.174Z" fill="white"/>
<path d="M196.175 137.225H171.473C170.576 137.225 169.849 136.498 169.849 135.601V126.64C169.849 125.743 170.576 125.014 171.473 125.014H176.345C176.524 125.014 176.668 125.16 176.668 125.338C176.668 125.515 176.524 125.659 176.345 125.659H171.473C170.933 125.659 170.493 126.1 170.493 126.64V135.601C170.493 136.141 170.933 136.581 171.473 136.581H196.175C196.715 136.581 197.155 136.141 197.155 135.601V126.64C197.155 126.1 196.715 125.659 196.175 125.659H179.63C179.451 125.659 179.307 125.515 179.307 125.338C179.307 125.16 179.451 125.014 179.63 125.014H196.175C197.072 125.014 197.801 125.743 197.801 126.64V135.601C197.801 136.498 197.072 137.225 196.175 137.225Z" fill="black"/>
<path d="M193.873 129.924H174.24C174.063 129.924 173.918 129.781 173.918 129.603C173.918 129.425 174.063 129.28 174.24 129.28H193.873C194.052 129.28 194.196 129.425 194.196 129.603C194.196 129.781 194.052 129.924 193.873 129.924Z" fill="black"/>
<path d="M193.873 132.548H189.768C189.589 132.548 189.445 132.403 189.445 132.226C189.445 132.047 189.589 131.903 189.768 131.903H193.873C194.052 131.903 194.196 132.047 194.196 132.226C194.196 132.403 194.052 132.548 193.873 132.548Z" fill="black"/>
<path d="M187.142 132.55H174.237C174.059 132.55 173.914 132.405 173.914 132.226C173.914 132.048 174.059 131.905 174.237 131.905H187.142C187.32 131.905 187.464 132.048 187.464 132.226C187.464 132.405 187.32 132.55 187.142 132.55Z" fill="black"/>
<path d="M92.381 185.237C87.8589 179.851 81.0533 179.043 76.4023 185.237H92.381Z" fill="black"/>
<path d="M44.1655 145.217V159.973C44.1655 174.405 52.2021 186.105 62.1157 186.105C72.0291 186.105 80.0657 197.805 80.0657 212.237C80.0657 213.523 79.3312 214.566 78.4249 214.566H30.9097C16.0478 214.566 4 197.026 4 175.391V143.903C4 135.297 8.79189 128.322 14.7029 128.322H32.5607C38.9698 128.322 44.1655 135.885 44.1655 145.217Z" fill="black"/>
<path d="M41.3018 261.22H45.6076V208.532H41.3018V261.22Z" fill="black"/>
<path d="M59.6094 261.282L44.7265 259.523H43.362L28.168 261.282V262.677H59.6094V261.282Z" fill="black"/>
<path d="M95.6299 245.598L98.6236 248.75C99.7631 249.95 100.407 251.538 100.424 253.193L100.45 255.576L109.254 253.159C107.333 251.111 105.394 249.218 104.093 246.729L101.37 241.519L95.6299 245.598Z" fill="white"/>
<path d="M96.1196 245.645L98.8571 248.527C100.057 249.791 100.728 251.447 100.747 253.189L100.767 255.153L108.65 252.99C108.541 252.874 108.432 252.759 108.322 252.643C106.599 250.823 104.971 249.106 103.807 246.878L101.256 241.996L96.1196 245.645ZM100.45 255.898C100.381 255.898 100.312 255.876 100.256 255.833C100.175 255.773 100.128 255.679 100.126 255.579L100.102 253.196C100.085 251.616 99.4766 250.116 98.389 248.972L95.3954 245.82C95.3309 245.753 95.2991 245.659 95.3082 245.566C95.3172 245.474 95.3662 245.389 95.4424 245.335L101.183 241.256C101.259 241.201 101.355 241.183 101.446 241.206C101.536 241.227 101.612 241.288 101.655 241.37L104.379 246.579C105.501 248.726 107.099 250.414 108.791 252.198C109.022 252.444 109.256 252.69 109.489 252.939C109.565 253.021 109.594 253.138 109.564 253.246C109.532 253.355 109.448 253.44 109.338 253.47L100.534 255.886C100.507 255.895 100.478 255.898 100.45 255.898Z" fill="black"/>
<path d="M98.844 252.599C98.663 253.88 98.6592 256.199 98.6349 258.329C98.6197 259.667 99.624 260.795 100.95 260.965C104.701 261.446 114.069 261.922 121.316 261.264C121.812 261.219 122.689 260.857 122.933 259.618C123.754 255.459 116.518 254.44 108.583 251.422C108.273 251.304 107.921 251.373 107.682 251.605L106.827 252.434C105.97 253.263 104.701 253.497 103.605 253.03L99.8554 252.028C99.4127 251.839 98.9113 252.122 98.844 252.599Z" fill="white"/>
<path d="M99.1635 252.644C99.0043 253.767 98.9842 255.739 98.9645 257.646L98.9571 258.333C98.9438 259.5 99.8189 260.495 100.992 260.646C104.395 261.083 113.843 261.617 121.286 260.942C121.465 260.926 122.375 260.782 122.616 259.556C123.19 256.65 119.271 255.366 113.848 253.586C112.121 253.019 110.333 252.432 108.468 251.724C108.275 251.651 108.054 251.694 107.906 251.837L107.051 252.665C106.104 253.582 104.712 253.844 103.499 253.336L99.7714 252.339C99.7571 252.336 99.7427 252.33 99.7283 252.325C99.6105 252.274 99.4783 252.281 99.3676 252.345C99.2555 252.408 99.1808 252.517 99.1635 252.644ZM113.271 261.907C108.055 261.907 103.165 261.575 100.91 261.285C99.4107 261.093 98.2948 259.821 98.3117 258.326L98.3189 257.639C98.3387 255.712 98.3593 253.719 98.5238 252.554C98.5701 252.225 98.7621 251.945 99.0501 251.783C99.3317 251.625 99.6608 251.602 99.9583 251.721L103.688 252.718C103.702 252.723 103.716 252.727 103.731 252.733C104.709 253.151 105.836 252.943 106.602 252.201L107.457 251.373C107.784 251.057 108.271 250.958 108.698 251.12C110.549 251.824 112.329 252.408 114.05 252.973C119.571 254.785 123.933 256.215 123.25 259.681C122.993 260.982 122.063 261.519 121.345 261.586C118.782 261.818 115.982 261.907 113.271 261.907Z" fill="black"/>
<path d="M98.8378 257.921C98.8378 257.921 98.8334 258.137 98.8322 258.242C98.817 259.578 99.8211 260.706 101.148 260.877C104.899 261.359 114.068 261.922 121.315 261.264C121.811 261.22 122.688 260.857 122.932 259.619C123.008 259.239 122.962 258.555 122.962 258.555L122.448 258.579C115.124 258.942 107.784 258.765 100.486 258.053L98.8378 257.921Z" fill="white"/>
<path d="M99.1558 258.27C99.1558 259.427 100.027 260.407 101.191 260.557C104.48 260.979 113.721 261.629 121.286 260.942C121.466 260.926 122.376 260.783 122.617 259.557C122.652 259.384 122.656 259.114 122.653 258.893L122.465 258.903C115.15 259.263 107.746 259.085 100.456 258.375L99.1558 258.27ZM113.888 261.888C108.461 261.888 103.378 261.488 101.109 261.196C99.6114 261.005 98.494 259.732 98.5109 258.237L98.5165 257.914C98.5184 257.825 98.5569 257.742 98.6229 257.681C98.6888 257.622 98.7768 257.592 98.8653 257.599L100.514 257.733C107.777 258.44 115.15 258.617 122.433 258.257L122.946 258.232C123.122 258.224 123.273 258.357 123.286 258.533C123.29 258.607 123.332 259.272 123.251 259.682C122.994 260.982 122.064 261.52 121.345 261.586C118.947 261.803 116.381 261.888 113.888 261.888Z" fill="black"/>
<path d="M110.402 256.237C110.32 256.237 110.237 256.205 110.174 256.142C110.049 256.017 110.049 255.811 110.174 255.686L112.959 252.901C113.084 252.774 113.288 252.774 113.415 252.901C113.541 253.027 113.541 253.231 113.415 253.358L110.631 256.142C110.568 256.205 110.486 256.237 110.402 256.237Z" fill="black"/>
<path d="M113.136 256.525C113.056 256.525 112.975 256.495 112.912 256.435C112.784 256.311 112.78 256.107 112.904 255.979L115.128 253.668C115.252 253.539 115.456 253.536 115.585 253.659C115.713 253.783 115.717 253.987 115.594 254.115L113.369 256.426C113.306 256.492 113.221 256.525 113.136 256.525Z" fill="black"/>
<path d="M70.5049 246.868C72.9863 243.369 75.3252 236.13 75.3252 236.13L80.8584 239.986L77.9331 244.937C76.9545 246.214 76.9509 248.142 77.3499 249.701L78.4029 252.59L70.5049 246.868Z" fill="white"/>
<path d="M70.9492 246.792L77.7386 251.71L77.0463 249.81C76.5338 247.815 76.7685 245.94 77.6644 244.757L80.4278 240.079L75.4953 236.641C74.9715 238.198 73.0483 243.677 70.9492 246.792ZM78.4027 252.913C78.3363 252.913 78.2698 252.892 78.2134 252.851L70.3151 247.13C70.1717 247.026 70.1388 246.826 70.2411 246.681C72.6653 243.264 74.9946 236.102 75.0178 236.03C75.0494 235.933 75.125 235.856 75.2219 235.823C75.3189 235.792 75.4255 235.806 75.5096 235.865L81.0426 239.72C81.1812 239.816 81.2217 240.004 81.1359 240.149L78.2106 245.102C78.2041 245.112 78.1966 245.123 78.1889 245.133C77.4024 246.159 77.2056 247.837 77.6621 249.62L78.7058 252.479C78.7544 252.612 78.7103 252.762 78.5972 252.846C78.5397 252.891 78.4713 252.913 78.4027 252.913Z" fill="black"/>
<path d="M70.6311 244.918C69.8298 245.932 68.3792 247.839 67.2842 249.667C66.5971 250.816 66.8962 252.296 67.9564 253.112C69.3871 254.212 73.7873 257.018 76.6534 258.823C78.3452 259.89 80.2795 260.505 82.2759 260.617L85.1068 260.774C86.0127 260.824 86.9243 260.742 87.7983 260.498C88.6682 260.255 89.5474 259.854 89.5854 259.223C89.6852 257.557 88.0347 256.479 86.5898 255.859C84.958 255.159 83.5199 254.075 82.349 252.74C81.1264 251.346 79.6373 249.623 78.5874 248.322C78.379 248.065 78.0414 247.95 77.7192 248.03L76.5629 248.315C75.4058 248.6 74.1906 248.163 73.4792 247.207L71.7907 244.936C71.5035 244.551 70.9293 244.541 70.6311 244.918Z" fill="white"/>
<path d="M71.2026 244.963C71.0776 244.963 70.9619 245.02 70.8843 245.119C70.1121 246.096 68.6536 248.009 67.5609 249.834C66.9613 250.836 67.2158 252.135 68.1532 252.856C69.6015 253.97 74.2083 256.902 76.8255 258.55C78.4653 259.584 80.3562 260.187 82.2937 260.294L85.1246 260.452C86.034 260.502 86.9038 260.413 87.711 260.187C88.6761 259.917 89.2418 259.559 89.263 259.204C89.3523 257.717 87.7892 256.725 86.4623 256.156C84.8383 255.458 83.332 254.351 82.1062 252.953C80.9865 251.676 79.4236 249.871 78.3362 248.525C78.2075 248.365 77.9955 248.295 77.7962 248.344L76.64 248.628C75.3544 248.944 74.0113 248.462 73.2204 247.399L71.5316 245.129C71.4547 245.025 71.337 244.965 71.2085 244.963C71.2065 244.963 71.2047 244.963 71.2026 244.963ZM85.6148 261.111C85.4408 261.111 85.2654 261.106 85.0888 261.096L82.2578 260.939C80.2111 260.825 78.2138 260.189 76.4813 259.096C73.2727 257.076 69.1551 254.442 67.7595 253.368C66.5625 252.447 66.2392 250.785 67.0072 249.502C68.1185 247.647 69.5959 245.708 70.3777 244.718C70.5819 244.459 70.8962 244.31 71.2177 244.318C71.5487 244.323 71.8517 244.478 72.0494 244.744L73.7382 247.014C74.3737 247.868 75.4526 248.255 76.4856 248L77.6421 247.717C78.0833 247.608 78.5529 247.766 78.8384 248.119C79.919 249.457 81.4758 251.255 82.5915 252.527C83.7541 253.854 85.1808 254.903 86.717 255.562C88.8924 256.497 89.9958 257.769 89.9073 259.243C89.8669 259.918 89.1864 260.444 87.8851 260.808C87.1674 261.009 86.4058 261.111 85.6148 261.111Z" fill="black"/>
<path d="M67.4504 249.394C67.4504 249.394 67.3377 249.578 67.2842 249.667C66.5971 250.815 66.8962 252.296 67.9564 253.112C70.1732 254.816 74.5897 257.916 79.4591 260.566C82.2293 262.075 87.138 261.406 88.1833 261.25C88.9109 261.143 89.5144 260.65 89.5385 259.915L89.577 258.738C89.577 258.738 83.1665 259.665 80.7567 258.103C76.4817 255.332 72.3885 252.958 68.2556 249.975L67.4504 249.394Z" fill="white"/>
<path d="M67.5451 249.862C66.9659 250.859 67.2242 252.141 68.1532 252.857C70.7119 254.824 75.0661 257.809 79.6133 260.284C82.1749 261.678 86.7842 261.132 88.1357 260.932C88.6208 260.86 89.1948 260.547 89.2159 259.904L89.2419 259.108C87.8004 259.285 82.7444 259.776 80.5811 258.375C79.189 257.473 77.7983 256.6 76.4533 255.758C73.5771 253.956 70.8605 252.254 68.0665 250.237L67.5451 249.862ZM84.4828 261.857C82.6997 261.857 80.7406 261.632 79.3047 260.851C74.7247 258.358 70.3378 255.351 67.7595 253.368C66.5625 252.447 66.2392 250.786 67.0072 249.502L67.1749 249.226C67.2217 249.15 67.2985 249.096 67.3866 249.078C67.4744 249.06 67.5662 249.08 67.6392 249.133L68.4443 249.713C71.221 251.718 73.9291 253.414 76.7959 255.211C78.1429 256.056 79.536 256.928 80.9322 257.833C83.2142 259.312 89.4683 258.43 89.5309 258.42C89.6265 258.407 89.7212 258.436 89.7923 258.499C89.8633 258.562 89.9028 258.654 89.8997 258.75L89.861 259.926C89.8334 260.768 89.1782 261.429 88.2306 261.57C87.4025 261.694 86.007 261.857 84.4828 261.857Z" fill="black"/>
<path d="M77.8989 253.446C77.7558 253.446 77.6251 253.35 77.5869 253.205C77.5415 253.034 77.6445 252.857 77.8168 252.811L81.6247 251.808C81.798 251.763 81.9737 251.865 82.0189 252.038C82.0645 252.21 81.9614 252.387 81.7893 252.433L77.9813 253.436C77.9537 253.443 77.9259 253.446 77.8989 253.446Z" fill="black"/>
<path d="M80.1146 255.073C79.9739 255.073 79.8445 254.981 79.8043 254.839C79.7557 254.667 79.8552 254.488 80.0266 254.44L83.1125 253.564C83.2844 253.516 83.4624 253.615 83.5109 253.787C83.5596 253.958 83.46 254.137 83.2885 254.186L80.2028 255.061C80.1734 255.068 80.1438 255.073 80.1146 255.073Z" fill="black"/>
<path d="M52.2011 188.479C52.2011 188.479 87.0895 187.317 99.4919 194.699C111.278 201.716 79.3127 244.684 79.3127 244.684L72.6608 241.043L81.0693 212.231C81.6552 210.119 80.4258 207.928 78.3169 207.331L48.2041 198.778L52.2011 188.479Z" fill="white"/>
<path d="M73.0425 240.883L79.2195 244.265C81.3978 241.294 103.954 210.164 101.608 198.426C101.293 196.852 100.526 195.691 99.326 194.976C87.648 188.025 55.3674 188.718 52.424 188.797L48.6328 198.565L78.4042 207.02C80.6762 207.664 82.0109 210.041 81.3798 212.317L73.0425 240.883ZM79.3118 245.007C79.2592 245.007 79.2059 244.994 79.1571 244.968L72.5051 241.326C72.3722 241.253 72.3078 241.098 72.3502 240.952L80.759 212.14C81.2945 210.209 80.1597 208.188 78.2282 207.641L48.1155 199.088C48.028 199.064 47.9551 199.003 47.9148 198.921C47.8742 198.841 47.8698 198.746 47.9028 198.661L51.8998 188.363C51.9465 188.242 52.0606 188.162 52.1898 188.157C53.6182 188.11 87.3144 187.076 99.6565 194.422C101.019 195.234 101.89 196.539 102.241 198.301C104.748 210.85 80.6002 243.493 79.5709 244.877C79.5081 244.961 79.4109 245.007 79.3118 245.007Z" fill="black"/>
<path d="M34.2855 208.307C39.6163 209.999 45.0107 209.779 58.3423 209.596C62.1302 209.545 67.4897 212.915 69.2106 216.289C73.1593 224.034 83.9749 240.497 97.8967 249.535L104.547 245.952L85.3064 205.23C83.757 201.742 80.8593 199.032 77.276 197.717L43.6421 185.383C43.6421 185.383 34.8548 182.64 29.7418 191.95C28.8286 193.612 28.2079 195.111 27.8041 196.452C26.4195 201.053 29.707 206.854 34.2855 208.307Z" fill="white"/>
<path d="M58.4248 209.274C62.2587 209.274 67.7163 212.651 69.497 216.143C73.324 223.648 84.17 240.167 97.9114 249.16L104.122 245.813L85.0137 205.369C83.5052 201.973 80.6451 199.297 77.1639 198.021L43.53 185.687C43.1961 185.584 34.945 183.145 30.0235 192.105C29.1799 193.642 28.5368 195.136 28.1122 196.546C26.8 200.907 29.9057 206.579 34.3822 208C39.2664 209.55 44.3508 209.476 55.4897 209.315L58.337 209.275C58.3659 209.274 58.3955 209.274 58.4248 209.274ZM97.8957 249.857C97.8343 249.857 97.7733 249.84 97.7201 249.806C83.8169 240.78 73.0767 224.584 68.922 216.436C67.2196 213.098 61.9735 209.862 58.3457 209.92L55.4989 209.961C44.2884 210.123 39.171 210.196 34.1869 208.615C29.4045 207.098 26.0895 201.027 27.4941 196.361C27.9316 194.907 28.5924 193.37 29.4578 191.795C34.6382 182.362 43.6467 185.048 43.7374 185.076L77.3861 197.414C81.0304 198.751 84.0245 201.552 85.6006 205.1L104.837 245.815C104.911 245.97 104.849 246.155 104.698 246.237L98.0488 249.82C98.0009 249.846 97.9482 249.857 97.8957 249.857Z" fill="black"/>
<path d="M97.5767 126.541L100.816 122.632C101.054 122.343 101.526 122.52 101.511 122.895C101.488 123.513 101.434 124.287 101.304 124.953C101.221 125.381 101.556 125.776 101.993 125.76C102.149 125.755 102.3 125.753 102.438 125.752C103.127 125.747 103.778 125.456 104.236 124.946C104.778 124.343 105.459 123.603 105.719 123.395C106.178 123.027 106.764 122.462 107.434 122.383L107.454 122.382C108.154 122.305 108.64 123.063 108.277 123.666L107.306 125.292C106.217 127.114 104.574 128.541 102.617 129.363L99.6977 130.589C99.2133 130.793 98.8996 131.27 98.9045 131.796L99.0085 143.138L95.2705 139.288C95.2705 139.288 95.6239 132.458 96.3579 129.028C96.5539 128.113 96.9793 127.262 97.5767 126.541Z" fill="white"/>
<path d="M95.601 139.165L98.6788 142.335L98.5822 131.8C98.5762 131.14 98.9654 130.548 99.5746 130.292L102.492 129.066C104.399 128.264 105.968 126.903 107.029 125.127L108.002 123.502C108.107 123.325 108.104 123.116 107.993 122.944C107.881 122.77 107.695 122.681 107.489 122.703C106.99 122.761 106.53 123.142 106.125 123.48C106.055 123.539 105.987 123.595 105.922 123.647C105.812 123.736 105.477 124.051 104.477 125.161C103.959 125.736 103.218 126.07 102.442 126.076C102.305 126.076 102.159 126.078 102.003 126.084C101.699 126.096 101.407 125.966 101.209 125.733C101.009 125.499 100.928 125.193 100.987 124.891C101.091 124.362 101.161 123.668 101.19 122.884C101.19 122.871 101.191 122.835 101.145 122.816C101.098 122.799 101.072 122.828 101.065 122.838L97.8259 126.747C97.2536 127.438 96.8552 128.25 96.674 129.096C96.0115 132.191 95.6562 138.173 95.601 139.165ZM99.0091 143.462C98.9236 143.462 98.8395 143.428 98.7775 143.364L95.0395 139.513C94.9769 139.45 94.9439 139.362 94.9487 139.271C94.9632 138.993 95.3119 132.376 96.0427 128.961C96.2457 128.014 96.6905 127.106 97.3289 126.334L100.568 122.425C100.766 122.185 101.084 122.102 101.375 122.214C101.666 122.325 101.847 122.596 101.835 122.907C101.804 123.736 101.732 124.446 101.621 125.015C101.601 125.123 101.628 125.232 101.7 125.315C101.771 125.397 101.877 125.443 101.982 125.439C102.143 125.433 102.295 125.43 102.437 125.429C103.032 125.426 103.601 125.17 103.998 124.73C104.783 123.857 105.294 123.323 105.517 123.144C105.58 123.093 105.645 123.04 105.713 122.984C106.164 122.609 106.726 122.142 107.397 122.063C107.866 122.013 108.294 122.217 108.537 122.595C108.778 122.973 108.787 123.447 108.555 123.832L107.584 125.459C106.451 127.353 104.777 128.806 102.742 129.661L99.8232 130.887C99.4582 131.041 99.2239 131.397 99.2282 131.794L99.3317 143.136C99.3332 143.268 99.2541 143.387 99.132 143.438C99.0917 143.454 99.0503 143.462 99.0091 143.462Z" fill="black"/>
<path d="M35.0742 134.938C35.0742 134.938 39.7646 134.177 43.6622 132.182C45.2717 131.357 49.605 129.868 52.2393 133.084C54.1678 135.437 56.6216 138.605 59.4125 141.367C60.571 142.514 60.9494 144.26 60.9494 144.26C60.9494 144.26 57.2696 143.571 50.5592 141.365C43.8489 139.158 35.0742 134.938 35.0742 134.938Z" fill="white"/>
<path d="M36.1038 135.066C38.5027 136.189 45.286 139.292 50.6608 141.058C55.857 142.767 59.258 143.569 60.4915 143.836C60.2991 143.261 59.8962 142.3 59.186 141.597C56.8483 139.282 54.7131 136.646 52.9978 134.528C52.648 134.096 52.3115 133.681 51.9902 133.289C49.181 129.86 44.3513 132.192 43.8098 132.47C40.9773 133.918 37.7013 134.729 36.1038 135.066ZM60.95 144.583C60.9304 144.583 60.9104 144.58 60.8906 144.578C60.8535 144.57 57.1126 143.859 50.459 141.672C43.8055 139.484 35.0227 135.271 34.9348 135.229C34.8077 135.167 34.7352 135.031 34.7553 134.891C34.7755 134.752 34.8839 134.642 35.0229 134.619C35.0694 134.612 39.7104 133.842 43.5157 131.895C44.1047 131.593 49.3598 129.061 52.4893 132.879C52.8117 133.273 53.1487 133.688 53.4993 134.122C55.2049 136.228 57.3276 138.849 59.6401 141.138C60.8527 142.338 61.2492 144.116 61.2656 144.192C61.2884 144.297 61.2569 144.408 61.1815 144.486C61.1201 144.549 61.0363 144.583 60.95 144.583Z" fill="black"/>
<path d="M36.2868 146.016C36.2868 146.016 33.0695 145.918 31.5838 143.916C28.5581 139.837 28.2004 131.643 44.9342 136.105C50.3961 137.562 55.7342 142.457 55.7342 142.457L60.3078 147.506L36.2868 146.016Z" fill="white"/>
<path d="M99.9499 132.654H94.7547C94.7547 132.654 93.6606 144.721 80.0521 147.514C70.9921 149.373 66.715 147.528 65.5105 146.838C65.4417 146.795 65.3147 146.713 65.1399 146.6C64.3433 146.082 62.6029 144.948 61.2994 144.246C56.786 141.81 48.6753 137.836 41.9017 141.9C23.6518 152.85 20.454 177.921 26.1181 195.276C26.4981 196.44 27.2763 201.278 28.3036 201.993C34.7591 206.489 45.2264 201.178 45.2264 201.178C52.8642 198.354 58.1352 192.369 60.3657 189.437C60.9216 188.705 60.7608 187.681 60.0379 187.114C58.7692 186.121 57.1423 183.572 56.9655 177.031C56.8725 173.592 58.1188 169.558 59.7328 165.572C63.507 167.897 70.4019 169.364 82.7268 165.275C106.265 157.466 99.9499 132.654 99.9499 132.654Z" fill="white"/>
<path d="M48.4382 140.463C46.2612 140.463 44.1056 140.954 42.0673 142.177C24.1752 152.911 20.6541 177.495 26.4245 195.175C26.531 195.501 26.6592 196.068 26.8214 196.785C27.1769 198.354 27.8385 201.276 28.4875 201.729C34.7088 206.06 44.977 200.942 45.0802 200.891C45.0912 200.885 45.1026 200.881 45.1142 200.876C52.5498 198.127 57.7001 192.406 60.1085 189.241C60.5525 188.658 60.434 187.834 59.8384 187.369C58.479 186.304 56.821 183.649 56.6425 177.04C56.5614 174.038 57.4482 170.354 59.4333 165.449C59.4689 165.361 59.5415 165.294 59.6319 165.264C59.722 165.235 59.8209 165.246 59.9017 165.297C63.3724 167.434 70.1319 169.112 82.6246 164.968C92.259 161.771 98.0523 155.389 99.8431 145.997C101.035 139.754 99.9595 134.188 99.6936 132.977H95.0368C94.7501 134.864 92.6089 145.266 80.1165 147.83C71.1284 149.675 66.7958 147.946 65.3497 147.117C65.2704 147.069 65.1414 146.986 64.9637 146.87L64.8835 146.818C64.0761 146.293 62.3955 145.204 61.1457 144.528C57.3682 142.491 52.8602 140.463 48.4382 140.463ZM34.7738 204.137C32.4646 204.137 30.117 203.65 28.1188 202.257C27.3286 201.708 26.7786 199.518 26.192 196.927C26.0398 196.254 25.9081 195.674 25.8108 195.376C19.9629 177.458 23.5567 152.531 41.7352 141.624C48.1927 137.748 55.6646 140.836 61.4523 143.961C62.7259 144.648 64.4214 145.749 65.2362 146.277L65.315 146.328C65.4871 146.44 65.612 146.52 65.6797 146.562C66.7494 147.176 70.9684 149.048 79.9867 147.197C93.1912 144.488 94.4219 132.742 94.4328 132.625C94.448 132.458 94.5876 132.331 94.7543 132.331H99.9495C100.097 132.331 100.227 132.431 100.263 132.574C100.279 132.636 101.844 138.929 100.483 146.095C99.2223 152.73 95.1357 161.497 82.828 165.581C70.4762 169.679 63.5675 168.154 59.8913 166.041C58.0391 170.686 57.211 174.183 57.2878 177.022C57.4595 183.38 58.986 185.881 60.2364 186.86C61.113 187.547 61.2825 188.764 60.6221 189.632C58.173 192.85 52.9351 198.666 45.3552 201.476C44.9186 201.694 39.9422 204.137 34.7738 204.137Z" fill="black"/>
<path d="M57.2595 150.388C57.6731 153.623 58.6618 157.737 61.0081 161.957C68.493 175.425 80.5738 179.271 83.5366 179.856L79.2154 183.473C79.2154 183.473 51.481 186.195 42.3599 158.681C42.3599 158.681 38.8473 147.803 46.6578 145.116C48.2836 144.555 50.4215 144.23 52.4667 145.026C56.01 146.406 57.1204 149.921 57.2595 150.388Z" fill="white"/>
<path d="M77.2013 183.867C74.5554 183.867 69.6419 183.569 64.2533 181.752C56.8765 179.266 47.0668 173.35 42.2248 159.292C42.1666 159.124 42.2563 158.94 42.4247 158.881C42.593 158.824 42.7768 158.913 42.8349 159.082C47.5879 172.882 57.2051 178.689 64.436 181.133C71.7811 183.613 78.2238 183.228 79.086 183.16L82.8331 180.024C79.9399 179.283 68.1833 175.535 60.7252 162.115C58.7491 158.559 57.4751 154.629 56.9388 150.429C56.9161 150.252 57.0411 150.092 57.2179 150.069C57.393 150.047 57.5563 150.171 57.5789 150.349C58.105 154.465 59.3535 158.318 61.2895 161.801C69.5193 176.608 83.0274 179.427 83.5985 179.54C83.7204 179.563 83.8177 179.655 83.8486 179.776C83.8795 179.897 83.8385 180.024 83.7432 180.104L79.422 183.722C79.3723 183.764 79.3109 183.788 79.2462 183.796C79.2237 183.797 78.4753 183.867 77.2013 183.867Z" fill="black"/>
<path d="M64.4855 162.977C64.4326 162.977 64.3789 162.964 64.3293 162.936C64.1734 162.85 64.1172 162.653 64.2037 162.498C66.9181 157.606 66.2889 152.186 66.2821 152.132C66.2604 151.955 66.3862 151.794 66.5631 151.773C66.7403 151.751 66.9011 151.876 66.9228 152.053C66.9511 152.283 67.5835 157.737 64.7682 162.811C64.7093 162.916 64.5991 162.977 64.4855 162.977Z" fill="black"/>
<path d="M27.4624 200.808C27.3293 200.808 27.2046 200.725 27.158 200.591C26.7728 199.496 26.4503 198.072 26.1912 196.927C26.039 196.254 25.9074 195.673 25.81 195.376C21.1115 180.98 22.1038 159.555 35.385 146.53C35.5123 146.405 35.7165 146.408 35.8414 146.536C35.9662 146.662 35.9641 146.866 35.837 146.991C22.7521 159.822 21.7851 180.963 26.4236 195.175C26.5302 195.502 26.6584 196.067 26.8207 196.784C27.0762 197.912 27.3943 199.318 27.7669 200.379C27.826 200.547 27.7376 200.731 27.5695 200.79C27.534 200.803 27.4979 200.808 27.4624 200.808Z" fill="black"/>
<path d="M36.2877 146.339C36.2844 146.339 36.2812 146.339 36.2776 146.339C36.14 146.335 32.8861 146.211 31.3252 144.107C29.8077 142.062 28.9298 139.037 30.3892 136.887C31.6995 134.959 35.301 133.202 45.0183 135.794C48.3537 136.683 51.6291 138.817 53.7893 140.45C53.9315 140.558 53.9598 140.76 53.8523 140.903C53.7446 141.045 53.5423 141.072 53.4001 140.964C51.2858 139.366 48.0866 137.28 44.8518 136.417C37.5557 134.471 32.609 134.767 30.9233 137.249C29.6485 139.128 30.5066 141.922 31.8437 143.724C33.2204 145.579 36.2667 145.693 36.2975 145.694C36.4757 145.7 36.6157 145.848 36.6102 146.026C36.6049 146.201 36.4615 146.339 36.2877 146.339Z" fill="black"/>
<path d="M77.8984 183.507C78.1403 183.363 80.3663 179.913 82.8108 179.194C85.2554 178.476 90.5735 183.842 90.5735 183.842L77.8984 183.507Z" fill="white"/>
<path d="M78.5757 183.202L89.755 183.497C87.989 181.838 84.5436 179.021 82.9015 179.504C81.0894 180.036 79.3476 182.222 78.5757 183.202ZM90.5733 184.165C90.5704 184.165 90.5676 184.165 90.5648 184.165L77.8894 183.829C77.7457 183.824 77.6218 183.727 77.5856 183.587C77.5518 183.458 77.602 183.321 77.7091 183.244C77.7576 183.196 77.8989 183.017 78.0356 182.844C78.828 181.838 80.6834 179.483 82.7193 178.885C85.2738 178.135 90.2442 183.051 90.8025 183.615C90.8954 183.708 90.9218 183.849 90.8695 183.97C90.8183 184.089 90.7018 184.165 90.5733 184.165Z" fill="black"/>
<path d="M58.2796 144.659C59.3649 144.887 60.4583 144.306 60.8758 143.279L62.5148 139.243C62.6787 138.854 63.0742 138.612 63.4958 138.647L65.9233 138.841C66.4408 138.881 66.9226 138.574 67.1011 138.085L68.2959 134.821C68.2978 134.817 68.302 134.813 68.3071 134.811L69.5543 134.422C69.8025 134.344 69.9432 134.083 69.8712 133.832L69.1356 131.282C68.9925 130.784 69.1724 128.173 68.6608 128.1C68.6608 128.1 60.6941 123.462 57.4897 126.51C56.6409 127.318 56.3257 128.539 56.5699 129.685L56.879 131.135C57.2271 132.769 56.9942 134.494 56.1263 135.921C55.8946 136.3 55.6237 136.659 55.3157 136.991L52.1768 140.267C51.6395 140.827 51.7762 141.744 52.4553 142.121C54.0019 142.979 56.5642 144.298 58.2796 144.659Z" fill="white"/>
<path d="M58.3467 144.345C59.2815 144.542 60.2185 144.042 60.5775 143.158L62.2166 139.124C62.436 138.6 62.9619 138.281 63.5222 138.326L65.9497 138.52C66.3229 138.549 66.6706 138.326 66.7988 137.975L67.9935 134.712C68.0278 134.618 68.1146 134.535 68.2099 134.505L69.4589 134.114C69.5388 134.089 69.585 134.003 69.5618 133.923L68.8262 131.372C68.7697 131.176 68.7575 130.838 68.7406 130.258C68.7251 129.729 68.6935 128.647 68.5468 128.402C68.5302 128.395 68.5143 128.388 68.4991 128.379C68.4213 128.333 60.7054 123.898 57.7127 126.745C56.9745 127.447 56.6578 128.549 56.8862 129.62L57.1951 131.068C57.5737 132.843 57.2923 134.627 56.4027 136.088C56.1582 136.491 55.8722 136.869 55.5526 137.212L52.4106 140.49C52.2235 140.686 52.1395 140.95 52.1799 141.218C52.2202 141.483 52.3777 141.709 52.6125 141.84C54.0221 142.62 56.6414 143.985 58.3467 144.345ZM58.7552 145.032C58.5761 145.032 58.3949 145.014 58.2137 144.976C56.5152 144.618 54.0601 143.38 52.2996 142.405C51.8885 142.176 51.6122 141.779 51.5418 141.314C51.4711 140.847 51.6178 140.384 51.9445 140.043L55.0833 136.77C55.37 136.461 55.6294 136.117 55.8513 135.753C56.6548 134.433 56.9079 132.816 56.564 131.203L56.2548 129.753C55.9802 128.466 56.3684 127.133 57.268 126.277C60.5194 123.184 68.0698 127.389 68.7809 127.796C69.2921 127.945 69.3448 128.834 69.3858 130.239C69.3971 130.627 69.4099 131.065 69.4464 131.193L70.1821 133.744C70.3015 134.16 70.0634 134.602 69.6512 134.73L68.5478 135.075L67.4048 138.197C67.1772 138.819 66.5601 139.216 65.8984 139.164L63.4708 138.97C63.1881 138.947 62.9229 139.108 62.813 139.369L61.1753 143.401C60.7685 144.404 59.8007 145.032 58.7552 145.032Z" fill="black"/>
<path d="M61.3244 130.933C61.1408 129.499 60.4042 128.903 60.6784 128.249C60.8286 127.892 61.198 127.721 61.4079 127.624C62.4511 127.141 63.5749 127.779 65.9003 128.704C68.7877 129.854 69.1125 130.009 69.7216 129.896C71.2699 129.61 72.4319 128.004 72.7784 126.566C72.8755 126.162 73.3335 124.008 71.7116 122.533C70.5404 121.468 68.7505 121.182 67.1396 121.794C67.0959 121.35 66.9502 120.708 66.4361 120.306C65.2169 119.351 62.8951 120.504 62.0825 120.908C61.3312 121.281 59.9626 122.099 58.7689 123.776C58.5315 123.575 57.6318 122.862 56.4733 122.997C54.7506 123.197 53.9662 125.096 53.8949 125.277C53.0628 127.381 54.4906 129.638 55.5686 131.343C56.344 132.569 56.677 132.842 57.2525 133.404C57.3666 133.366 57.5124 133.32 57.6634 133.272C58.1137 133.126 58.3511 132.635 58.1834 132.192L58.1719 132.162C57.9943 131.694 57.9083 131.192 57.9496 130.693C57.9825 130.295 58.0933 129.891 58.3854 129.73C58.857 129.47 59.5028 129.828 59.5955 129.88C60.1855 130.208 60.4194 130.804 60.5117 131.251C60.5729 131.548 61.3851 131.408 61.3244 130.933Z" fill="black"/>
<path d="M66.4192 136.25C66.416 136.25 66.4127 136.25 66.4092 136.25L62.655 136.14C60.5028 136.073 58.7294 134.478 58.4377 132.346L58.1778 130.446C58.1537 130.269 58.2773 130.106 58.4537 130.082C58.6298 130.058 58.7931 130.181 58.8174 130.358L59.0772 132.258C59.326 134.077 60.8388 135.438 62.6744 135.494L66.4285 135.605C66.6067 135.611 66.747 135.759 66.7415 135.937C66.7363 136.112 66.5929 136.25 66.4192 136.25Z" fill="black"/>
<path d="M57.1167 130.398C56.9672 130.398 56.833 130.293 56.8012 130.141C56.7885 130.081 55.58 124.073 59.7878 122.179C59.9498 122.106 60.141 122.179 60.2145 122.342C60.2876 122.504 60.2151 122.695 60.0525 122.768C56.3129 124.451 57.4211 129.953 57.4327 130.009C57.4695 130.183 57.3579 130.354 57.1834 130.391C57.161 130.395 57.1386 130.398 57.1167 130.398Z" fill="white"/>
<path d="M66.8795 136.202C67.1398 135.647 66.8926 134.982 66.3272 134.716C65.7619 134.452 65.0924 134.687 64.8322 135.242C64.5718 135.798 64.8189 136.462 65.3845 136.728C65.9497 136.992 66.6191 136.757 66.8795 136.202Z" fill="black"/>
<path d="M62.1225 130.918C62.7324 129.021 61.8168 127.031 60.0774 126.472C59.8868 126.41 59.1662 126.256 58.9735 126.233C57.4083 126.048 56.3671 127.205 55.824 128.893C55.2385 130.714 55.6228 132.591 57.2287 133.235C57.2954 133.262 57.7818 133.395 57.8533 133.407C59.8046 133.78 61.5127 132.815 62.1225 130.918Z" fill="black"/>
<path d="M61.3634 130.711C61.9359 128.803 60.9815 126.829 59.2317 126.305C57.4818 125.78 55.5991 126.901 55.0265 128.81C54.454 130.718 55.4084 132.69 57.1581 133.216C58.908 133.741 60.7908 132.62 61.3634 130.711Z" fill="white"/>
<path d="M58.3505 126.498C57.8383 126.498 57.3251 126.642 56.8536 126.922C56.129 127.354 55.59 128.057 55.3365 128.902C54.816 130.638 55.6751 132.435 57.2518 132.907C58.0106 133.135 58.8223 133.025 59.5379 132.599C60.2626 132.167 60.8014 131.463 61.0549 130.618C61.3087 129.773 61.2461 128.889 60.8789 128.13C60.516 127.38 59.8985 126.841 59.1397 126.614C58.881 126.537 58.616 126.498 58.3505 126.498ZM58.0424 133.669C57.7149 133.669 57.387 133.622 57.0661 133.525C55.1488 132.949 54.0955 130.793 54.7181 128.717C55.0185 127.716 55.6596 126.882 56.5233 126.367C57.3961 125.848 58.3913 125.716 59.3253 125.996C60.2592 126.276 61.0174 126.935 61.4599 127.849C61.8978 128.754 61.9736 129.803 61.6735 130.804C61.3731 131.805 60.7322 132.639 59.8683 133.153C59.2952 133.495 58.6691 133.669 58.0424 133.669Z" fill="black"/>
<path d="M15.5035 191.71H152.913C153.434 191.71 153.856 191.288 153.856 190.767V186.309C153.856 185.789 153.434 185.367 152.913 185.367H15.5035C14.9828 185.367 14.5605 185.789 14.5605 186.309V190.767C14.5605 191.288 14.9828 191.71 15.5035 191.71Z" fill="white"/>
<path d="M15.5041 185.69C15.1621 185.69 14.8838 185.967 14.8838 186.31V190.768C14.8838 191.11 15.1621 191.387 15.5041 191.387H152.914C153.256 191.387 153.533 191.11 153.533 190.768V186.31C153.533 185.967 153.256 185.69 152.914 185.69H15.5041ZM152.914 192.034H15.5041C14.8061 192.034 14.2383 191.465 14.2383 190.768V186.31C14.2383 185.613 14.8061 185.045 15.5041 185.045H152.914C153.611 185.045 154.18 185.613 154.18 186.31V190.768C154.18 191.465 153.611 192.034 152.914 192.034Z" fill="black"/>
<path d="M60.6919 190.234C60.5137 190.234 60.3691 190.09 60.3691 189.912V186.995C60.3691 186.816 60.5137 186.673 60.6919 186.673C60.8701 186.673 61.0147 186.816 61.0147 186.995V189.912C61.0147 190.09 60.8701 190.234 60.6919 190.234Z" fill="black"/>
<path d="M137.742 177.488L86.4593 177.597C86.0112 177.597 85.6996 177.271 85.7318 176.837L88.0364 145.705C88.0924 144.948 88.8051 144.232 89.5864 144.232L140.175 144.277L137.742 177.488Z" fill="black"/>
<path d="M89.5855 144.554C88.9885 144.554 88.4031 145.115 88.3576 145.728L86.053 176.86C86.0444 176.978 86.0761 177.078 86.1447 177.153C86.2171 177.231 86.3286 177.274 86.4587 177.274L137.442 177.166L139.826 144.6L89.5855 144.554ZM86.4593 177.919C86.1471 177.919 85.8677 177.803 85.6717 177.591C85.4806 177.386 85.3874 177.11 85.4094 176.812L87.714 145.681C87.7837 144.737 88.6585 143.909 89.5858 143.909L140.174 143.955C140.265 143.955 140.349 143.992 140.411 144.057C140.472 144.123 140.502 144.211 140.496 144.301L138.063 177.511C138.051 177.679 137.911 177.81 137.742 177.81L86.4593 177.919Z" fill="black"/>
<path d="M138.801 177.448H88.5641C88.1163 177.448 87.8052 177.122 87.8372 176.686L90.1102 145.835C90.1733 144.977 91.0094 144.218 91.8901 144.218H141.478C141.927 144.218 142.238 144.544 142.205 144.98L139.886 176.462C139.848 176.985 139.338 177.448 138.801 177.448Z" fill="white"/>
<path d="M91.8905 144.541C91.1781 144.541 90.4831 145.168 90.4324 145.858L88.1594 176.709C88.1508 176.828 88.1827 176.931 88.2516 177.005C88.3241 177.083 88.4352 177.125 88.5645 177.125H138.801C139.168 177.125 139.538 176.791 139.564 176.439L141.884 144.957C141.892 144.837 141.861 144.735 141.792 144.662C141.72 144.585 141.608 144.541 141.479 144.541H91.8905ZM138.801 177.771H88.5645C88.2538 177.771 87.9748 177.655 87.779 177.444C87.5872 177.238 87.494 176.961 87.5158 176.662L89.7888 145.81C89.8638 144.79 90.8458 143.896 91.8905 143.896H141.479C141.79 143.896 142.069 144.011 142.265 144.222C142.456 144.428 142.549 144.707 142.528 145.004L140.208 176.486C140.158 177.182 139.513 177.771 138.801 177.771Z" fill="black"/>
<path d="M108.179 185.052H115.867L117.785 164.253C117.808 164.005 117.637 163.815 117.388 163.815H111C110.511 163.815 110.102 164.199 110.056 164.702L108.179 185.052Z" fill="black"/>
<path d="M109.388 185.052H117.076L118.968 164.246H111.28L109.388 185.052Z" fill="white"/>
<path d="M109.742 184.729H116.782L118.615 164.568H111.576L109.742 184.729ZM117.077 185.374H109.388C109.298 185.374 109.212 185.336 109.151 185.269C109.089 185.201 109.059 185.112 109.068 185.022L110.959 164.216C110.975 164.051 111.114 163.923 111.281 163.923H118.968C119.059 163.923 119.145 163.962 119.207 164.028C119.267 164.095 119.297 164.184 119.29 164.275L117.398 185.081C117.383 185.247 117.244 185.374 117.077 185.374Z" fill="black"/>
<path d="M122.436 185.439H101.642C101.419 185.439 101.239 185.26 101.239 185.036V182.2C101.239 181.977 101.419 181.796 101.642 181.796H122.436C122.659 181.796 122.84 181.977 122.84 182.2V185.036C122.84 185.26 122.659 185.439 122.436 185.439Z" fill="black"/>
<path d="M123.927 185.122H102.325V182.118H123.927V185.122Z" fill="white"/>
<path d="M102.646 184.797H123.601V182.439H102.646V184.797ZM123.925 185.443H102.323C102.145 185.443 102.001 185.299 102.001 185.121V182.117C102.001 181.939 102.145 181.794 102.323 181.794H123.925C124.103 181.794 124.247 181.939 124.247 182.117V185.121C124.247 185.299 124.103 185.443 123.925 185.443Z" fill="black"/>
<path d="M145.464 263C145.285 263 145.142 262.855 145.142 262.677V193.443C145.142 193.265 145.285 193.12 145.464 193.12C145.642 193.12 145.787 193.265 145.787 193.443V262.677C145.787 262.855 145.642 263 145.464 263Z" fill="black"/>
<path d="M140.174 243.144C139.996 243.144 139.851 242.999 139.851 242.821V195.622C139.851 195.444 139.996 195.298 140.174 195.298C140.352 195.298 140.497 195.444 140.497 195.622V242.821C140.497 242.999 140.352 243.144 140.174 243.144Z" fill="black"/>
<path d="M28.1685 249.857C27.9903 249.857 27.8457 249.714 27.8457 249.536V221.968C27.8457 221.79 27.9903 221.645 28.1685 221.645C28.3467 221.645 28.4911 221.79 28.4911 221.968V249.536C28.4911 249.714 28.3467 249.857 28.1685 249.857Z" fill="black"/>
<path d="M23.5777 239.737C23.3995 239.737 23.2549 239.592 23.2549 239.414V217.272C23.2549 217.093 23.3995 216.948 23.5777 216.948C23.7559 216.948 23.9003 217.093 23.9003 217.272V239.414C23.9003 239.592 23.7559 239.737 23.5777 239.737Z" fill="black"/>
</g>
<defs>
<filter id="filter0_d_155_1586" x="0" y="0" width="270.007" height="271" filterUnits="userSpaceOnUse" color-interpolation-filters="sRGB">
<feFlood flood-opacity="0" result="BackgroundImageFix"/>
<feColorMatrix in="SourceAlpha" type="matrix" values="0 0 0 0 0 0 0 0 0 0 0 0 0 0 0 0 0 0 127 0" result="hardAlpha"/>
<feOffset dy="4"/>
<feGaussianBlur stdDeviation="2"/>
<feComposite in2="hardAlpha" operator="out"/>
<feColorMatrix type="matrix" values="0 0 0 0 0 0 0 0 0 0 0 0 0 0 0 0 0 0 0.25 0"/>
<feBlend mode="normal" in2="BackgroundImageFix" result="effect1_dropShadow_155_1586"/>
<feBlend mode="normal" in="SourceGraphic" in2="effect1_dropShadow_155_1586" result="shape"/>
</filter>
</defs>
</svg>
