<svg width="270" height="271" viewBox="0 0 270 271" fill="none" xmlns="http://www.w3.org/2000/svg">
<g filter="url(#filter0_d_292_3302)">
<path d="M107.265 8.6827C111.948 7.42131 116.818 10.0185 118.14 14.483C119.464 18.9493 116.742 23.5927 112.058 24.8541C107.376 26.1173 102.507 23.52 101.183 19.0556C99.8582 14.5893 102.581 9.94587 107.265 8.6827ZM92.1566 19.7926L93.0878 22.9336L96.821 22.7423C97.1732 23.4332 97.5795 24.087 98.0381 24.6982L96.0869 27.733L98.5404 30.0095L101.674 28.0643C102.334 28.4877 103.029 28.8579 103.752 29.1715L103.655 32.736L106.973 33.5386L108.663 30.3638C109.45 30.4152 110.246 30.4046 111.049 30.3284L112.832 33.4606L116.125 32.573L115.925 29.0139C116.649 28.6773 117.335 28.2893 117.976 27.8534L121.159 29.7137L123.546 27.3733L121.505 24.3864C121.95 23.7575 122.339 23.0949 122.668 22.4039L126.406 22.4978L127.247 19.3337L123.918 17.7215C123.974 16.9704 123.961 16.2103 123.881 15.4468L127.167 13.746L126.236 10.6049L122.502 10.7963C122.15 10.1053 121.744 9.4516 121.285 8.84039L123.236 5.8056L120.783 3.52906L117.65 5.4743C116.991 5.05088 116.294 4.68062 115.571 4.36527L115.669 0.800765L112.35 -1.19087e-05L110.66 3.17474C109.873 3.12159 109.077 3.13399 108.276 3.21017L106.491 0.0761644L103.198 0.965523L103.398 4.52472C102.674 4.85956 101.988 5.24754 101.347 5.68513L98.1635 3.82493L95.7767 6.16347L97.8174 9.15219C97.373 9.78111 96.9841 10.4437 96.6549 11.1346L92.9167 11.0407L92.0762 14.2049L95.4053 15.817C95.3503 16.5664 95.3631 17.3265 95.4423 18.0918L92.1566 19.7926Z" fill="black"/>
<path d="M63.5583 34.1962C71.5717 32.0361 79.9041 36.4788 82.1696 44.1196C84.435 51.762 79.7755 59.7073 71.7621 61.8674C63.7489 64.0276 55.4162 59.5848 53.1508 51.9424C50.8853 44.3016 55.5449 36.3563 63.5583 34.1962ZM37.706 53.2054L39.2993 58.58L45.6875 58.2523C46.2902 59.4342 46.9855 60.5531 47.7701 61.5993L44.4314 66.7935L48.6297 70.6884L53.9916 67.358C55.1203 68.083 56.3102 68.7186 57.5491 69.2549L57.3812 75.3546L63.059 76.7268L65.9525 71.2942C67.2976 71.3836 68.6617 71.3637 70.033 71.2346L73.085 76.596L78.7213 75.0765L78.3785 68.9851C79.6173 68.4091 80.791 67.747 81.8877 66.9988L87.3355 70.1819L91.4199 66.1794L87.9279 61.0663C88.6882 59.9887 89.3538 58.8548 89.9172 57.673L96.3138 57.8335L97.752 52.4191L92.0553 49.6598C92.1495 48.3769 92.1275 47.0759 91.9923 45.7699L97.6145 42.8583L96.021 37.4836L89.6329 37.8113C89.0304 36.6295 88.3348 35.5105 87.5502 34.4644L90.8888 29.2701L86.6908 25.3752L81.3287 28.704C80.2001 27.979 79.0102 27.345 77.7714 26.8071L77.9391 20.7074L72.2613 19.3368L69.3678 24.7694C68.0227 24.6784 66.6587 24.6999 65.2877 24.829L62.2354 19.4676L56.5989 20.9871L56.9421 27.0785C55.703 27.6529 54.5292 28.3167 53.4327 29.0649L47.9849 25.8818L43.9004 29.8842L47.3926 34.9974C46.6319 36.0733 45.9668 37.2088 45.4031 38.389L39.0065 38.2301L37.5684 43.6445L43.2651 46.4039C43.1708 47.6867 43.1927 48.9861 43.3281 50.2937L37.706 53.2054Z" fill="black"/>
<path d="M185.324 14.0537C182.933 14.0537 180.988 15.9103 180.988 18.1888V87.5078C180.988 89.7882 182.933 91.6429 185.324 91.6429H251.21C253.601 91.6429 255.547 89.7882 255.547 87.5078V18.1888C255.547 15.9103 253.601 14.0537 251.21 14.0537H185.324ZM251.21 92.2515H185.324C182.581 92.2515 180.35 90.1232 180.35 87.5078V18.1888C180.35 15.5752 182.581 13.4469 185.324 13.4469H251.21C253.953 13.4469 256.183 15.5752 256.183 18.1888V87.5078C256.183 90.1232 253.953 92.2515 251.21 92.2515Z" fill="black"/>
<path d="M252.228 21.3389H184.371C184.195 21.3389 184.055 21.2028 184.055 21.035C184.055 20.8672 184.195 20.7312 184.371 20.7312H252.228C252.404 20.7312 252.546 20.8672 252.546 21.035C252.546 21.2028 252.404 21.3389 252.228 21.3389Z" fill="black"/>
<path d="M186.759 17.1661C186.759 17.7946 186.224 18.3044 185.565 18.3044C184.906 18.3044 184.371 17.7946 184.371 17.1661C184.371 16.5377 184.906 16.0278 185.565 16.0278C186.224 16.0278 186.759 16.5377 186.759 17.1661Z" fill="black"/>
<path d="M191.53 17.1661C191.53 17.7946 190.997 18.3044 190.338 18.3044C189.679 18.3044 189.145 17.7946 189.145 17.1661C189.145 16.5377 189.679 16.0278 190.338 16.0278C190.997 16.0278 191.53 16.5377 191.53 17.1661Z" fill="black"/>
<path d="M196.304 17.1661C196.304 17.7946 195.769 18.3044 195.11 18.3044C194.451 18.3044 193.918 17.7946 193.918 17.1661C193.918 16.5377 194.451 16.0278 195.11 16.0278C195.769 16.0278 196.304 16.5377 196.304 17.1661Z" fill="black"/>
<path d="M252.226 17.468H245.501C245.324 17.468 245.182 17.3319 245.182 17.1654C245.182 16.9972 245.324 16.8611 245.501 16.8611H252.226C252.401 16.8611 252.543 16.9972 252.543 17.1654C252.543 17.3319 252.401 17.468 252.226 17.468Z" fill="black"/>
<path d="M242.476 17.468H214.628C214.451 17.468 214.309 17.3319 214.309 17.1654C214.309 16.9972 214.451 16.8611 214.628 16.8611H242.476C242.653 16.8611 242.795 16.9972 242.795 17.1654C242.795 17.3319 242.653 17.468 242.476 17.468Z" fill="black"/>
<path d="M207.307 17.468H201.38C201.203 17.468 201.061 17.3319 201.061 17.1654C201.061 16.9972 201.203 16.8611 201.38 16.8611H207.307C207.483 16.8611 207.626 16.9972 207.626 17.1654C207.626 17.3319 207.483 17.468 207.307 17.468Z" fill="black"/>
<path d="M206.858 50.8411C209.028 47.2213 213.065 44.6644 217.756 44.2022L218.083 26.5082C204.609 26.5515 192.716 33.7911 187.301 44.4895L206.858 50.8411Z" fill="white"/>
<path d="M187.745 44.3121L206.714 50.4729C208.964 46.8804 212.941 44.4559 217.44 43.9291L217.757 26.8139C204.939 26.9682 193.226 33.7997 187.745 44.3121ZM206.858 51.1436C206.823 51.1436 206.787 51.1384 206.754 51.128L187.198 44.7765C187.11 44.7488 187.041 44.6864 187.005 44.6067C186.97 44.527 186.972 44.4351 187.012 44.3571C192.573 33.3716 204.768 26.2472 218.08 26.2039C218.175 26.2074 218.247 26.2368 218.307 26.294C218.367 26.3529 218.4 26.4309 218.398 26.5124L218.073 44.2063C218.069 44.3606 217.947 44.4871 217.787 44.5044C213.284 44.9481 209.302 47.3725 207.134 50.9911C207.076 51.0881 206.969 51.1436 206.858 51.1436Z" fill="black"/>
<path d="M205.94 31.6204C205.814 31.6204 205.693 31.5482 205.645 31.4298C205.578 31.2753 205.657 31.0984 205.819 31.0349C208.862 29.8606 212.067 29.1293 215.345 28.858C215.522 28.8443 215.676 28.9679 215.691 29.1344C215.705 29.301 215.576 29.4486 215.401 29.464C212.186 29.7284 209.042 30.4478 206.059 31.598C206.019 31.6135 205.978 31.6204 205.94 31.6204Z" fill="black"/>
<path d="M195.206 38.4431C195.124 38.4431 195.044 38.4143 194.982 38.3566C194.857 38.2396 194.854 38.048 194.978 37.9276C197.274 35.6923 199.937 33.8082 202.894 32.3276C203.051 32.2496 203.243 32.3073 203.326 32.4548C203.406 32.6041 203.348 32.7872 203.191 32.8653C200.292 34.317 197.682 36.1621 195.434 38.3532C195.37 38.4143 195.288 38.4431 195.206 38.4431Z" fill="black"/>
<path d="M232.853 58.6819C231.747 64.4948 226.192 69.0654 219.389 69.2673C217.361 69.3277 215.421 68.993 213.662 68.339L203.041 84.0213C207.979 86.1452 213.555 87.1874 219.389 86.8664C236.354 85.9382 249.691 73.7603 251.173 59.0995L232.853 58.6819Z" fill="white"/>
<path d="M203.513 83.8884C208.425 85.9387 213.901 86.8646 219.371 86.564C235.708 85.6693 249.165 74.0169 250.822 59.3953L233.114 58.9911C231.848 64.9399 226.126 69.3722 219.4 69.5708C217.458 69.6295 215.575 69.3394 213.792 68.7123L203.513 83.8884ZM217.353 87.2273C212.345 87.2273 207.393 86.2272 202.911 84.2978C202.828 84.2615 202.763 84.1924 202.737 84.1078C202.712 84.0214 202.725 83.9299 202.775 83.8556L213.396 68.1751C213.479 68.0542 213.636 68.0041 213.78 68.0577C215.553 68.7175 217.437 69.0215 219.38 68.9645C225.903 68.7711 231.437 64.4235 232.538 58.6283C232.567 58.4798 232.709 58.3762 232.861 58.3779L251.181 58.7959C251.27 58.7993 251.353 58.8356 251.411 58.8995C251.469 58.9617 251.498 59.0446 251.489 59.1293C249.967 74.1965 236.176 86.2531 219.408 87.1703C218.725 87.2083 218.038 87.2273 217.353 87.2273Z" fill="black"/>
<path d="M217.323 84.6895C213.743 84.6895 210.25 84.1503 206.938 83.0843C206.772 83.0304 206.683 82.8578 206.74 82.6991C206.795 82.5405 206.976 82.4542 207.142 82.5081C210.387 83.5526 213.812 84.0825 217.323 84.0825C217.953 84.0825 218.591 84.0656 219.221 84.0301C219.395 84.0209 219.547 84.1488 219.557 84.3167C219.567 84.4846 219.434 84.6278 219.258 84.6371C218.615 84.6725 217.966 84.6895 217.323 84.6895Z" fill="black"/>
<path d="M225.941 83.5962C225.801 83.5962 225.672 83.5073 225.634 83.3722C225.588 83.2098 225.688 83.044 225.857 82.9996C237.002 80.1021 245.608 71.666 247.783 61.5085C247.819 61.3427 247.987 61.2367 248.159 61.2709C248.333 61.3051 248.442 61.4658 248.408 61.6299C246.184 72.0096 237.4 80.6286 226.025 83.5859C225.998 83.5928 225.97 83.5962 225.941 83.5962Z" fill="black"/>
<path d="M199.718 82.3726L210.436 66.6445C207.23 64.3811 205.17 60.8597 205.17 56.8645C205.17 55.8993 205.291 54.9581 205.52 54.0505L185.889 47.7759C184.833 50.7227 184.264 53.86 184.264 57.1078C184.264 67.8674 190.454 77.1288 199.718 82.3726Z" fill="white"/>
<path d="M186.09 48.1596C185.092 51.0526 184.584 54.061 184.584 57.1078C184.584 67.2485 190.2 76.5173 199.621 81.9602L210.009 66.7148C206.729 64.2946 204.853 60.7205 204.853 56.8626C204.853 55.9859 204.952 55.1092 205.147 54.2501L186.09 48.1596ZM199.721 82.675C199.664 82.675 199.609 82.6606 199.558 82.6318C189.783 77.1007 183.947 67.5578 183.947 57.1078C183.947 53.8927 184.5 50.7209 185.589 47.6772C185.645 47.5185 185.825 47.4336 185.991 47.4865L205.624 53.7629C205.781 53.8126 205.87 53.968 205.831 54.1203C205.606 55.0179 205.492 55.941 205.492 56.8626C205.492 60.6179 207.362 64.0943 210.628 66.399C210.764 66.4952 210.798 66.6747 210.707 66.8094L199.989 82.5372C199.926 82.6254 199.826 82.675 199.721 82.675Z" fill="black"/>
<path d="M223.844 43.5327C230.039 44.4115 234.802 48.9899 235.369 54.6496L265.328 55.4778C265.328 55.4651 265.328 55.4525 265.328 55.4416C265.328 34.4827 247.816 16.5488 224.378 14.2397L223.844 43.5327Z" fill="white"/>
<path d="M235.657 54.3526L265.009 55.1635C264.857 34.3585 247.6 16.9872 224.693 14.5761L224.165 43.2731C230.298 44.256 234.966 48.7595 235.657 54.3526ZM265.324 55.7808C265.324 55.7808 265.32 55.7808 265.318 55.7808L235.359 54.9517C235.199 54.9481 235.066 54.8305 235.051 54.6784C234.499 49.1541 229.871 44.694 223.795 43.8324C223.637 43.8107 223.522 43.6786 223.523 43.5265L224.061 14.234C224.061 14.149 224.102 14.0675 224.167 14.0114C224.235 13.9553 224.323 13.9281 224.412 13.9372C235.784 15.0576 246.247 19.9231 253.874 27.6377C261.466 35.3178 265.646 45.1918 265.646 55.4405C265.646 55.5219 265.612 55.6197 265.551 55.6758C265.489 55.7319 265.409 55.7808 265.324 55.7808Z" fill="black"/>
<path d="M151.044 48.1983C149.289 48.1983 147.863 49.5598 147.863 51.2305V100.913C147.863 102.586 149.289 103.945 151.044 103.945H190.255C192.007 103.945 193.435 102.586 193.435 100.913V51.2305C193.435 49.5598 192.007 48.1983 190.255 48.1983H151.044ZM190.255 104.552H151.044C148.938 104.552 147.225 102.92 147.225 100.913V51.2305C147.225 49.2235 148.938 47.5912 151.044 47.5912H190.255C192.36 47.5912 194.072 49.2235 194.072 51.2305V100.913C194.072 102.92 192.36 104.552 190.255 104.552Z" fill="black"/>
<path d="M163.103 95.5432H153.037V64.0001H163.103V95.5432Z" fill="white"/>
<path d="M153.356 95.2387H162.784V64.3027H153.356V95.2387ZM163.103 95.8459H153.038C152.861 95.8459 152.721 95.7092 152.721 95.5424V63.9991C152.721 63.8307 152.861 63.6955 153.038 63.6955H163.103C163.279 63.6955 163.423 63.8307 163.423 63.9991V95.5424C163.423 95.7092 163.279 95.8459 163.103 95.8459Z" fill="black"/>
<path d="M175.682 95.5422H165.617V55.2956H175.682V95.5422Z" fill="white"/>
<path d="M165.933 95.2376H175.362V55.5979H165.933V95.2376ZM175.679 95.8462H165.615C165.439 95.8462 165.295 95.7092 165.295 95.5427V55.2944C165.295 55.1263 165.439 54.9909 165.615 54.9909H175.679C175.857 54.9909 175.999 55.1263 175.999 55.2944V95.5427C175.999 95.7092 175.857 95.8462 175.679 95.8462Z" fill="black"/>
<path d="M188.26 95.5415H178.193V76.7368H188.26V95.5415Z" fill="white"/>
<path d="M178.512 95.2392H187.94V77.0411H178.512V95.2392ZM188.26 95.8462H178.193C178.017 95.8462 177.875 95.7108 177.875 95.5427V76.7377C177.875 76.5695 178.017 76.4342 178.193 76.4342H188.26C188.435 76.4342 188.578 76.5695 188.578 76.7377V95.5427C188.578 95.7108 188.435 95.8462 188.26 95.8462Z" fill="black"/>
<path d="M112.033 217.527L112.913 225.518L118.579 226.151V216.677L112.033 217.527Z" fill="white"/>
<path d="M113.203 225.244L118.259 225.81V217.025L112.382 217.789L113.203 225.244ZM118.578 226.455C118.567 226.455 118.554 226.455 118.541 226.453L112.875 225.819C112.728 225.803 112.612 225.691 112.596 225.549L111.717 217.56C111.698 217.396 111.82 217.249 111.99 217.227L118.535 216.376C118.628 216.364 118.718 216.391 118.788 216.448C118.857 216.505 118.897 216.589 118.897 216.677V226.151C118.897 226.238 118.858 226.32 118.79 226.378C118.731 226.428 118.655 226.455 118.578 226.455Z" fill="black"/>
<path d="M119.47 240.062C117.109 240.378 113.237 240.658 108.692 240.058C107.202 239.861 106.215 238.482 106.574 237.09C107.575 233.21 109.3 225.852 112.258 222.443L112.995 224.292L114.01 222.551C114.149 222.312 114.399 222.151 114.682 222.117L116.908 221.847C117.371 221.791 117.804 222.084 117.9 222.522L118.255 224.127L119.03 222.02L121.617 237.357C121.798 238.668 120.843 239.878 119.47 240.062Z" fill="white"/>
<path d="M112.162 223.055C109.649 226.321 108.062 232.542 107.097 236.324L106.882 237.162C106.732 237.749 106.843 238.347 107.2 238.846C107.551 239.343 108.112 239.674 108.735 239.756C113.203 240.346 117.014 240.085 119.425 239.76C120.618 239.6 121.459 238.54 121.3 237.397L118.913 223.249L118.554 224.226C118.507 224.356 118.374 224.438 118.233 224.43C118.09 224.42 117.971 224.322 117.942 224.188L117.588 222.584C117.526 222.304 117.246 222.113 116.947 222.148L114.722 222.418C114.539 222.44 114.377 222.544 114.287 222.698L113.272 224.439C113.212 224.543 113.094 224.603 112.971 224.595C112.847 224.586 112.74 224.51 112.695 224.4L112.162 223.055ZM114.113 240.715C112.456 240.715 110.615 240.618 108.647 240.357C107.846 240.252 107.125 239.825 106.672 239.187C106.22 238.553 106.071 237.762 106.264 237.018L106.479 236.18C107.5 232.178 109.207 225.481 112.013 222.249C112.085 222.166 112.199 222.125 112.311 222.143C112.422 222.16 112.517 222.234 112.557 222.335L113.049 223.573L113.731 222.403C113.918 222.081 114.258 221.862 114.642 221.815L116.867 221.545C117.487 221.47 118.081 221.871 118.211 222.459L118.33 223L118.729 221.919C118.777 221.788 118.913 221.705 119.058 221.717C119.202 221.729 119.321 221.834 119.344 221.971L121.931 237.309C122.135 238.79 121.051 240.155 119.514 240.361C118.125 240.548 116.279 240.715 114.113 240.715Z" fill="black"/>
<path d="M112.906 238.144C111.396 238.144 109.762 238.016 108.133 237.663C107.961 237.625 107.854 237.462 107.893 237.299C107.933 237.135 108.104 237.033 108.274 237.071C113.826 238.277 119.641 236.726 119.699 236.71C119.868 236.663 120.044 236.757 120.093 236.918C120.141 237.079 120.042 237.248 119.874 237.293C119.701 237.341 116.693 238.144 112.906 238.144Z" fill="black"/>
<path d="M111.555 232.203C111.384 232.203 111.242 232.073 111.236 231.908C111.231 231.741 111.369 231.601 111.544 231.595L116.855 231.428C117.03 231.427 117.178 231.554 117.184 231.721C117.19 231.889 117.053 232.03 116.877 232.035L111.565 232.203C111.563 232.203 111.558 232.203 111.555 232.203Z" fill="black"/>
<path d="M138.57 213.272L139.42 224.933H146.238L146.554 213.272H138.57Z" fill="white"/>
<path d="M139.717 224.63H145.926L146.228 213.576H138.912L139.717 224.63ZM146.238 225.237H139.42C139.252 225.237 139.114 225.113 139.102 224.955L138.253 213.294C138.247 213.209 138.277 213.127 138.338 213.066C138.399 213.003 138.483 212.969 138.57 212.969H146.554C146.64 212.969 146.723 213.002 146.783 213.061C146.843 213.119 146.874 213.198 146.873 213.28L146.556 224.941C146.551 225.106 146.41 225.237 146.238 225.237Z" fill="black"/>
<path d="M137.639 231.517C137.622 232.619 138.411 233.588 139.538 233.838C143.458 234.708 152.287 236.644 154.805 237.001C158.075 237.466 162.092 236.511 163.819 234.687C165.545 232.865 159.951 228.511 157.297 226.928C153.352 224.576 149.563 219.924 147.974 219.715C146.385 219.505 143.419 223.902 143.419 223.902L138.57 221.96C138.57 221.96 137.726 225.922 137.639 231.517Z" fill="white"/>
<path d="M138.812 222.386C138.608 223.487 138.028 226.981 137.957 231.521C137.943 232.475 138.638 233.326 139.612 233.542C143.354 234.372 152.332 236.344 154.853 236.701C158.131 237.166 161.965 236.193 163.584 234.484C163.785 234.271 163.86 234.005 163.811 233.674C163.528 231.738 159.318 228.492 157.128 227.186C155.133 225.995 153.227 224.272 151.545 222.75C150.044 221.391 148.625 220.108 147.93 220.017C146.923 219.882 144.793 222.429 143.687 224.066C143.603 224.19 143.438 224.239 143.297 224.182L138.812 222.386ZM156.516 237.423C155.923 237.423 155.332 237.383 154.759 237.303C152.215 236.941 143.217 234.966 139.467 234.134C138.204 233.853 137.302 232.751 137.321 231.511C137.408 225.953 138.25 221.94 138.259 221.899C138.277 221.81 138.337 221.734 138.422 221.691C138.506 221.649 138.606 221.645 138.695 221.681L143.298 223.524C144.049 222.441 146.44 219.207 148.017 219.414C148.916 219.533 150.203 220.697 151.984 222.309C153.645 223.811 155.525 225.512 157.466 226.67C159.598 227.943 164.109 231.307 164.442 233.59C164.518 234.104 164.387 234.541 164.056 234.892C162.598 236.43 159.512 237.423 156.516 237.423Z" fill="black"/>
<path d="M156.448 235.286C149.363 235.286 139.838 231.616 139.3 231.406C139.137 231.343 139.058 231.166 139.126 231.011C139.191 230.855 139.379 230.782 139.54 230.844C139.715 230.913 156.981 237.566 162.064 233.189C162.195 233.077 162.397 233.086 162.514 233.21C162.632 233.334 162.622 233.527 162.491 233.64C161.1 234.839 158.922 235.286 156.448 235.286Z" fill="black"/>
<path d="M148.892 228.219C148.806 228.219 148.719 228.185 148.656 228.12C148.539 227.994 148.549 227.804 148.679 227.69L152.147 224.708C152.277 224.596 152.479 224.606 152.596 224.73C152.714 224.854 152.704 225.046 152.573 225.159L149.105 228.142C149.045 228.194 148.969 228.219 148.892 228.219Z" fill="black"/>
<path d="M110.1 137.255C110.1 137.255 107.988 173.708 106.882 186.292C105.777 198.876 109.468 219.103 109.468 219.103L119.992 218.576C119.992 218.576 120.713 193.982 121.495 187.152C121.495 187.152 125.939 177.893 127.256 169.636C128.574 161.377 133.063 148.335 133.063 148.335C133.063 148.335 136.706 213.436 137.058 218.55C137.058 218.55 145.31 218.9 148.268 217.126C148.268 217.126 153.511 193.388 152.757 180.473C152.005 167.558 152.832 135.469 152.832 135.469L110.1 137.255Z" fill="black"/>
<path d="M119.556 187.453H116.338C116.163 187.453 116.02 187.317 116.02 187.149C116.02 186.982 116.163 186.845 116.338 186.845H119.556C119.732 186.845 119.874 186.982 119.874 187.149C119.874 187.317 119.732 187.453 119.556 187.453Z" fill="white"/>
<path d="M142.471 206.387C142.468 206.387 142.467 206.387 142.464 206.387C142.29 206.384 142.15 206.245 142.152 206.077C142.268 200.062 149.194 189.273 149.489 188.817C149.58 188.674 149.777 188.629 149.926 188.718C150.076 188.805 150.124 188.993 150.031 189.135C149.959 189.246 142.902 200.24 142.789 206.088C142.786 206.255 142.644 206.387 142.471 206.387Z" fill="white"/>
<path d="M156.162 78.955C156.928 78.8973 160.689 86.2416 172.456 85.9338C184.224 85.6259 193.666 73.0695 193.666 73.0695C193.666 73.0695 197.731 66.5335 200.814 64.1708C203.9 61.8096 204.383 61.4972 204.383 61.4972C204.383 61.4972 205.35 62.7256 204.383 64.1708C203.416 65.6175 200.746 68.3214 200.746 68.3214C200.746 68.3214 203.688 69.8621 202.36 73.0695C200.835 76.7576 196.536 76.4603 196.536 76.4603C196.536 76.4603 187.81 113.297 151.752 95.7924L156.162 78.955Z" fill="white"/>
<path d="M152.123 95.6312C162.702 100.715 171.922 101.567 179.535 98.1627C192.283 92.4574 196.187 76.5533 196.226 76.3939C196.261 76.2481 196.402 76.1479 196.558 76.1585C196.724 76.1691 200.646 76.3893 202.065 72.9574C203.269 70.0447 200.702 68.6461 200.592 68.5869C200.506 68.5413 200.447 68.4608 200.431 68.3682C200.417 68.2756 200.447 68.1814 200.514 68.1131C200.54 68.0873 203.174 65.4131 204.113 64.0084C204.704 63.1261 204.476 62.3379 204.284 61.9446C203.892 62.2271 202.991 62.8937 201.014 64.4078C198.011 66.7099 193.98 73.1593 193.94 73.2231C193.831 73.3719 184.256 85.929 172.467 86.2373C172.217 86.2434 171.973 86.2464 171.731 86.2464C162.761 86.2464 158.623 81.8471 156.83 79.9383C156.665 79.7636 156.496 79.5844 156.36 79.4523L152.123 95.6312ZM169.634 100.816C164.157 100.816 158.13 99.2303 151.607 96.064C151.475 95.9987 151.408 95.856 151.443 95.7193L155.854 78.8813C155.886 78.7538 156.001 78.6626 156.138 78.652C156.454 78.6292 156.703 78.8935 157.303 79.5328C159.087 81.4295 163.261 85.8713 172.448 85.6299C183.925 85.3292 193.315 73.0166 193.407 72.8921C193.56 72.6445 197.522 66.3045 200.616 63.934C203.675 61.5908 204.183 61.2582 204.204 61.2461C204.346 61.155 204.535 61.1853 204.637 61.3144C204.683 61.3721 205.723 62.7297 204.652 64.3349C203.846 65.5391 201.928 67.5512 201.232 68.2695C202.008 68.8223 203.787 70.4502 202.656 73.1806C201.293 76.4805 197.788 76.7584 196.785 76.769C196.235 78.813 191.966 93.2683 179.809 98.7109C176.673 100.114 173.274 100.816 169.634 100.816Z" fill="black"/>
<path d="M97.8379 95.7925C97.8379 95.7925 101.369 74.0583 113.846 68.7094C126.322 63.362 143.201 64.1055 147.855 66.7769C152.51 69.4469 164.642 81.5218 164.642 81.5218L153.921 95.7925C153.921 95.7925 156.372 134.21 154.434 144.353C154.434 144.353 142.51 145.679 137.451 143.779C132.393 141.88 115.76 139.219 107.811 142.702L109.255 94.0617L97.8379 95.7925Z" fill="white"/>
<path d="M118.618 140.697C126.159 140.697 134.302 142.269 137.567 143.496C142.107 145.201 152.467 144.246 154.162 144.074C155.995 133.755 153.628 96.1914 153.603 95.8103C153.6 95.741 153.621 95.6717 153.662 95.616L164.229 81.549C162.692 80.0306 151.946 69.4778 147.692 67.0361C143.312 64.5221 126.459 63.635 113.976 68.9867C102.74 73.8022 98.7977 92.4076 98.2274 95.4262L109.206 93.7618C109.301 93.7482 109.396 93.7738 109.466 93.8341C109.537 93.8928 109.578 93.9802 109.575 94.0705L108.145 142.23C110.965 141.12 114.712 140.697 118.618 140.697ZM146.018 145.112C142.851 145.112 139.501 144.875 137.333 144.06C132.355 142.191 115.89 139.495 107.944 142.976C107.844 143.02 107.729 143.012 107.635 142.953C107.544 142.896 107.49 142.797 107.493 142.691L108.927 94.4185L97.888 96.0919C97.7877 96.107 97.6853 96.0769 97.6133 96.0076C97.5413 95.9398 97.5078 95.8419 97.5232 95.7455C97.6686 94.8523 101.225 73.7857 113.715 68.4324C126.011 63.162 143.003 63.6365 148.021 66.5149C152.657 69.1765 164.374 80.8169 164.872 81.311C164.978 81.4164 164.99 81.5791 164.9 81.6981L154.246 95.8826C154.387 98.148 156.62 134.609 154.748 144.407C154.723 144.538 154.611 144.637 154.472 144.654C154.189 144.686 150.27 145.112 146.018 145.112Z" fill="black"/>
<path d="M118.769 132.981C118.617 132.981 118.483 132.878 118.456 132.731C118.426 132.566 118.542 132.407 118.715 132.379C137.677 129.182 143.213 116.662 143.266 116.537C143.333 116.381 143.518 116.306 143.681 116.369C143.844 116.432 143.922 116.609 143.857 116.765C143.802 116.894 138.151 129.72 118.825 132.976C118.806 132.98 118.788 132.981 118.769 132.981Z" fill="black"/>
<path d="M153.019 110.986H128.74L136.346 85.1256H160.623L153.019 110.986Z" fill="black"/>
<path d="M99.9786 95.877L112.266 90.6391C112.266 90.6391 110.535 110.492 135.394 101.325C135.394 101.325 134.477 98.7734 134.608 95.7938C134.736 92.8128 136.607 95.697 136.869 98.1189C137.13 100.541 142.966 99.5576 146.474 98.603C149.981 97.6484 154.586 98.2743 146.474 102.54C138.363 106.807 136.585 104.903 136.585 104.903C136.585 104.903 126.226 118.725 113.338 115.789C97.486 112.177 99.9786 95.877 99.9786 95.877Z" fill="white"/>
<path d="M100.272 96.0842C100.178 96.8847 99.8476 100.502 101.026 104.415C102.799 110.298 106.966 114.025 113.413 115.493C114.612 115.766 115.791 115.89 116.943 115.89C127.823 115.892 136.234 104.85 136.327 104.727C136.383 104.652 136.472 104.606 136.569 104.6C136.669 104.595 136.759 104.633 136.823 104.701C136.835 104.711 138.657 106.305 146.32 102.274C150.908 99.8602 150.695 98.9915 150.656 98.9002C150.46 98.4461 148.59 98.3438 146.562 98.8947C144.918 99.342 139.392 100.7 137.332 99.3706C136.869 99.072 136.607 98.6615 136.552 98.1501C136.361 96.3896 135.426 94.8787 135.114 94.8269C135.12 94.8391 134.961 95 134.926 95.806C134.8 98.6902 135.688 101.201 135.696 101.227C135.751 101.381 135.669 101.548 135.509 101.607C127.015 104.741 120.648 104.859 116.585 101.96C112.076 98.7433 111.874 92.8809 111.923 91.1177L100.272 96.0842ZM116.935 116.497C115.738 116.497 114.514 116.369 113.264 116.084C104.927 114.184 101.671 108.77 100.408 104.562C99.0464 100.025 99.6374 96.0023 99.6632 95.8333C99.6789 95.7296 99.749 95.6423 99.8491 95.6001L112.136 90.3622C112.239 90.3185 112.358 90.3295 112.451 90.3908C112.542 90.4535 112.592 90.5572 112.584 90.6649C112.577 90.7372 112.016 97.9442 116.97 101.476C120.801 104.208 126.867 104.096 135.001 101.143C134.767 100.393 134.182 98.2456 134.289 95.7801C134.306 95.3996 134.357 94.2418 135.096 94.22C135.102 94.22 135.107 94.22 135.113 94.22C136.074 94.22 137.016 96.5205 137.185 98.0874C137.221 98.4161 137.385 98.6711 137.689 98.8674C139.146 99.807 143.284 99.1552 146.386 98.3111C148.014 97.8679 150.772 97.5733 151.246 98.6683C151.65 99.6052 150.14 100.959 146.628 102.806C139.982 106.302 137.455 105.753 136.652 105.324C135.318 106.987 127.223 116.497 116.935 116.497Z" fill="black"/>
<path d="M132.776 58.8034C131.715 59.7306 129.64 60.8619 128.016 60.0823C126.807 59.5017 126.132 57.9972 126.174 56.2737C125.613 56.3169 124.879 56.2804 124.356 55.8375C123.549 55.1591 123.7 53.9084 123.732 53.0873C123.877 49.2937 121.567 48.7114 122.132 46.1387C122.577 44.115 124.243 42.9107 124.555 42.6851C126.128 41.5472 127.193 41.9138 129.837 41.2536C134.288 40.1423 134.429 38.3126 137.362 38.3044C137.53 38.3044 141.521 38.3458 142.876 40.975C143.977 43.1131 142.691 45.7107 141.361 47.0759C139.637 48.8441 138.4 47.9716 136.673 49.4529C133.639 52.0572 135.93 56.0515 132.776 58.8034Z" fill="black"/>
<path d="M141.655 52.0372L141.481 51.8921C140.6 51.1683 139.684 50.3287 139.45 49.2429C138.456 44.626 134.022 42.9501 133.816 47.1888C133.765 48.2583 129.669 48.2028 130.156 49.3261C131.423 52.254 131.45 51.4666 129.662 52.5442C129.459 52.5524 129.257 52.5948 129.069 52.6795C128.151 53.0871 127.826 54.2739 128.342 55.332C128.657 55.9743 129.209 56.4145 129.799 56.5759V61.2009C129.799 62.9339 128.7 64.4957 127.016 65.1527L125.379 65.7901C125.379 65.7901 133.015 70.544 140.766 65.3255L139.732 64.8821C137.909 64.1028 136.714 62.4008 136.651 60.4983L136.642 59.5935C137.164 59.6375 137.668 59.6049 138.135 59.4745C140.303 58.8729 141.023 56.4911 140.653 53.5305L141.537 53.079C141.949 52.867 142.011 52.3274 141.655 52.0372Z" fill="white"/>
<path d="M126.107 65.8352C127.929 66.745 133.972 69.1954 140.117 65.3795L139.601 65.1605C137.683 64.3383 136.399 62.5122 136.334 60.5077L136.326 59.5963C136.324 59.5119 136.361 59.4292 136.426 59.3709C136.492 59.3125 136.581 59.2849 136.671 59.2914C137.171 59.3335 137.635 59.2979 138.047 59.1843C139.885 58.6735 140.72 56.6268 140.338 53.5666C140.324 53.4433 140.389 53.3217 140.504 53.2633L141.387 52.8109C141.489 52.759 141.555 52.6649 141.567 52.5546C141.581 52.4443 141.538 52.3389 141.448 52.2676L141.273 52.1232C140.375 51.3837 139.396 50.4966 139.139 49.3046C138.566 46.6433 136.787 44.9616 135.487 45.0589C134.691 45.1189 134.198 45.9006 134.135 47.2028C134.1 47.9342 133.077 48.2083 131.996 48.497C131.392 48.6592 130.564 48.8797 130.441 49.1165C130.435 49.1295 130.424 49.1522 130.45 49.2106C130.632 49.6338 130.79 49.9776 130.919 50.2615C131.518 51.5767 131.642 51.8508 130.598 52.3827C130.395 52.4865 130.14 52.6162 129.832 52.8011C129.785 52.8303 129.73 52.8465 129.676 52.8482C129.506 52.8546 129.346 52.8919 129.203 52.9552C128.446 53.2909 128.19 54.2996 128.632 55.2046C128.894 55.7381 129.363 56.1419 129.887 56.2847C130.023 56.322 130.117 56.4403 130.117 56.5766V61.2018C130.117 63.0668 128.948 64.7275 127.137 65.433L126.107 65.8352ZM132.929 68.0586C128.518 68.0586 125.255 66.0768 125.205 66.0444C125.106 65.9827 125.051 65.8741 125.062 65.7622C125.073 65.6503 125.149 65.553 125.258 65.5092L126.897 64.8718C128.465 64.2588 129.48 62.8187 129.48 61.2018V56.7923C128.872 56.5587 128.36 56.0852 128.055 55.4608C127.465 54.2526 127.86 52.8822 128.935 52.4038C129.128 52.3178 129.339 52.2659 129.56 52.2465C129.856 52.0713 130.099 51.9481 130.297 51.8475C130.523 51.7324 130.737 51.6237 130.742 51.5686C130.756 51.4307 130.579 51.0415 130.334 50.5031C130.205 50.2177 130.045 49.869 129.861 49.4425C129.773 49.2381 129.776 49.0338 129.87 48.8505C130.117 48.3689 130.907 48.158 131.824 47.9132C132.486 47.7348 133.486 47.4688 133.499 47.1753C133.613 44.8416 134.892 44.4945 135.438 44.454C137.004 44.3372 139.101 46.1114 139.763 49.1814C139.979 50.1869 140.872 50.9896 141.69 51.6627L141.865 51.807C142.112 52.0097 142.237 52.313 142.202 52.6211C142.166 52.9292 141.974 53.2001 141.688 53.346L140.994 53.7012C141.35 56.9723 140.346 59.1779 138.224 59.7666C137.836 59.8752 137.411 59.9239 136.965 59.9158L136.97 60.4964C137.028 62.2641 138.164 63.8793 139.862 64.6059L140.897 65.0486C141.001 65.0924 141.072 65.1881 141.083 65.2967C141.095 65.4054 141.045 65.5108 140.95 65.5741C138.159 67.4521 135.368 68.0586 132.929 68.0586Z" fill="black"/>
<path d="M136.645 59.8979C136.627 59.8979 136.611 59.8979 136.596 59.8949C133.469 59.4386 132.066 57.1634 132.007 57.0675C131.92 56.9221 131.972 56.7365 132.126 56.653C132.277 56.5694 132.471 56.6189 132.56 56.7643C132.573 56.786 133.877 58.8833 136.692 59.2947C136.865 59.3195 136.984 59.4741 136.958 59.6412C136.935 59.7912 136.799 59.8979 136.645 59.8979Z" fill="black"/>
<path d="M33.094 94.7781C32.7977 94.7781 32.497 94.8312 32.2057 94.9431C30.9877 95.4122 30.3968 96.7377 30.8883 97.8995C31.1265 98.4627 31.5803 98.9032 32.1661 99.1418C32.7517 99.3791 33.3992 99.3846 33.9892 99.1568C35.2074 98.6891 35.7983 97.3622 35.3068 96.2004C34.9325 95.3154 34.0373 94.7781 33.094 94.7781ZM33.0976 99.9314C32.6969 99.9314 32.2966 99.8537 31.9168 99.6996C31.1745 99.3996 30.5996 98.8405 30.2977 98.1273C29.6745 96.6545 30.4237 94.9731 31.9674 94.3799C33.5112 93.7853 35.2744 94.4999 35.8974 95.9726C36.5205 97.4454 35.7714 99.1268 34.2275 99.72C33.8625 99.8605 33.4799 99.9314 33.0976 99.9314Z" fill="black"/>
<path d="M255.667 106.32C255.585 106.32 255.508 106.292 255.447 106.235C255.319 106.121 255.314 105.929 255.436 105.807L256.929 104.319C257.049 104.198 257.253 104.193 257.378 104.309C257.506 104.425 257.51 104.617 257.388 104.739L255.896 106.226C255.833 106.29 255.75 106.32 255.667 106.32Z" fill="black"/>
<path d="M250.442 111.528C250.362 111.528 250.284 111.5 250.222 111.443C250.095 111.327 250.089 111.134 250.211 111.013L251.704 109.527C251.824 109.404 252.027 109.401 252.154 109.517C252.281 109.633 252.285 109.825 252.163 109.945L250.672 111.432C250.609 111.495 250.525 111.528 250.442 111.528Z" fill="black"/>
<path d="M251.907 106.399C251.825 106.399 251.745 106.37 251.682 106.311L250.169 104.888C250.042 104.772 250.04 104.578 250.164 104.458C250.289 104.34 250.49 104.337 250.614 104.456L252.13 105.88C252.256 105.996 252.257 106.188 252.134 106.309C252.072 106.368 251.989 106.399 251.907 106.399Z" fill="black"/>
<path d="M257.21 111.383C257.129 111.383 257.049 111.355 256.988 111.295L255.472 109.873C255.347 109.753 255.345 109.561 255.469 109.442C255.593 109.323 255.794 109.321 255.92 109.439L257.434 110.863C257.559 110.981 257.561 111.174 257.437 111.293C257.375 111.353 257.293 111.383 257.21 111.383Z" fill="black"/>
<path d="M147.517 19.4749C147.438 19.4749 147.36 19.4463 147.298 19.3908C147.17 19.2747 147.167 19.0816 147.286 18.9619L148.78 17.473C148.902 17.3515 149.103 17.3479 149.23 17.4641C149.356 17.5803 149.361 17.7715 149.24 17.8931L147.748 19.3819C147.686 19.4427 147.599 19.4749 147.517 19.4749Z" fill="black"/>
<path d="M142.292 24.6836C142.213 24.6836 142.134 24.6555 142.073 24.5993C141.946 24.4835 141.941 24.2904 142.062 24.1693L143.555 22.6807C143.677 22.5596 143.877 22.5561 144.004 22.6719C144.133 22.7878 144.137 22.9809 144.016 23.102L142.524 24.5888C142.46 24.652 142.377 24.6836 142.292 24.6836Z" fill="black"/>
<path d="M143.76 19.5542C143.679 19.5542 143.599 19.5256 143.536 19.4667L142.021 18.0429C141.895 17.9249 141.894 17.7338 142.017 17.6141C142.141 17.4944 142.343 17.4926 142.467 17.6105L143.983 19.0343C144.108 19.1522 144.11 19.3434 143.987 19.4631C143.925 19.5238 143.842 19.5542 143.76 19.5542Z" fill="black"/>
<path d="M149.063 24.5376C148.982 24.5376 148.901 24.5095 148.841 24.4498L147.323 23.0258C147.198 22.9081 147.196 22.7168 147.322 22.5974C147.445 22.478 147.646 22.4762 147.773 22.5938L149.286 24.0178C149.411 24.1355 149.413 24.3286 149.29 24.448C149.227 24.5077 149.146 24.5376 149.063 24.5376Z" fill="black"/>
<path d="M101.6 210.289L96.7638 257.513L93.3125 257.375L95.0272 207.73L101.6 210.289Z" fill="white"/>
<path d="M93.6414 257.084L96.4764 257.198L101.26 210.485L95.3306 208.176L93.6414 257.084ZM96.7641 257.817C96.7597 257.817 96.7551 257.817 96.7507 257.817L93.2992 257.678C93.1246 257.671 92.9886 257.532 92.9943 257.365L94.709 207.719C94.7124 207.621 94.7666 207.53 94.8541 207.475C94.9418 207.421 95.0513 207.411 95.1477 207.449L101.72 210.007C101.852 210.058 101.93 210.185 101.917 210.318L97.081 257.543C97.0651 257.698 96.9273 257.817 96.7641 257.817Z" fill="black"/>
<path d="M36.7246 208.589L41.4444 257.631L45.0123 257.375L43.2976 205.938L36.7246 208.589Z" fill="white"/>
<path d="M37.063 208.783L41.733 257.305L44.6846 257.094L42.9942 206.391L37.063 208.783ZM41.4442 257.934C41.2811 257.934 41.1424 257.815 41.1274 257.659L36.4076 208.618C36.3948 208.486 36.4728 208.362 36.6005 208.31L43.1736 205.659C43.2705 205.619 43.3812 205.629 43.4694 205.683C43.5578 205.737 43.6129 205.829 43.616 205.929L45.3308 257.365C45.3362 257.528 45.2065 257.665 45.0363 257.678L41.4683 257.934C41.4602 257.934 41.452 257.934 41.4442 257.934Z" fill="black"/>
<path d="M20.2969 197.05L21.6852 248.546L24.4717 247.971L27.0266 194.601L20.2969 197.05Z" fill="white"/>
<path d="M20.6192 197.257L21.9919 248.171L24.1629 247.723L26.6847 195.051L20.6192 197.257ZM21.6833 248.851C21.6127 248.851 21.5433 248.827 21.4867 248.785C21.412 248.729 21.3674 248.645 21.365 248.555L19.9767 197.058C19.9731 196.929 20.0552 196.813 20.1815 196.766L26.9115 194.317C27.0112 194.282 27.1246 194.295 27.2115 194.355C27.2985 194.415 27.3479 194.513 27.3431 194.616L24.788 247.985C24.7814 248.122 24.6786 248.238 24.5373 248.267L21.751 248.844C21.7285 248.848 21.7059 248.851 21.6833 248.851Z" fill="black"/>
<path d="M74.7383 195.899L76.1267 247.394L79.0216 247.409L81.4682 193.45L74.7383 195.899Z" fill="white"/>
<path d="M60.749 155.68V167.662C60.749 179.38 70.4414 188.881 82.3973 188.881C94.3533 188.881 104.045 198.38 104.045 210.099C104.045 211.143 103.16 211.99 102.066 211.99H44.7622C26.8386 211.99 12.3086 197.748 12.3086 180.181V154.613C12.3086 147.627 18.0876 141.962 25.2165 141.962H46.7534C54.483 141.962 60.749 148.104 60.749 155.68Z" fill="white"/>
<path d="M25.2186 142.267C18.2767 142.267 12.6291 147.806 12.6291 154.613V180.181C12.6291 197.553 27.0449 211.686 44.7642 211.686H102.068C102.984 211.686 103.729 210.974 103.729 210.099C103.729 198.566 94.1606 189.184 82.3995 189.184C70.2869 189.184 60.4327 179.529 60.4327 167.662V155.68C60.4327 148.283 54.297 142.267 46.7555 142.267H25.2186ZM102.068 212.293H44.7642C26.6935 212.293 11.9922 197.887 11.9922 180.181V154.613C11.9922 147.471 17.9255 141.659 25.2186 141.659H46.7555C54.6483 141.659 61.0697 147.949 61.0697 155.68V167.662C61.0697 179.195 70.6381 188.577 82.3995 188.577C94.5119 188.577 104.366 198.232 104.366 210.099C104.366 211.308 103.335 212.293 102.068 212.293Z" fill="black"/>
<path d="M6.76004 133.324C5.88141 132.978 5.10817 132.373 4.62138 131.546C3.90105 130.32 3.51536 128.357 5.13462 125.554C8.79173 119.221 14.8992 122.215 17.2361 121.482C22.4721 119.837 21.2336 117.138 23.3604 114.516C24.9514 112.554 30.4472 108.851 38.7946 115.747C38.7946 115.747 42.5435 120.627 46.792 118.769C52.0114 116.489 62.5003 121.649 59.1859 129.32C58.23 131.532 56.5085 133.233 54.4115 134.156C54.0312 134.322 53.6151 134.484 53.1628 134.633C51.8542 135.063 50.8438 136.174 50.516 137.61C49.4487 142.281 45.4091 151.299 30.4169 142.225C29.2863 141.54 27.944 141.453 26.7752 141.971C25.3386 142.608 23.7794 145.073 16.849 144.033C12.3975 143.363 10.9832 138.423 9.80779 136.175C8.87181 134.385 7.52755 133.627 6.76004 133.324Z" fill="black"/>
<path d="M83.852 167.802C77.9563 169.559 66.6609 164.68 64.7349 156.5C63.2075 150.011 60.8207 146.719 59.8972 145.634C59.4558 144.915 58.8752 144.24 58.1074 143.596C52.6157 138.994 43.1048 140.484 38.9885 141.129C34.3196 141.86 30.4517 142.467 27.8208 145.291C27.1221 146.041 26.6269 146.827 26.2866 147.663L26.2862 147.66C21.2607 156.684 25.3341 166 27.846 170.304C28.2604 187.561 22.2766 184.849 23.8959 192.512C26.1774 203.305 44.407 199.27 51.0383 197.891C53.3648 197.408 65.5466 200.857 68.5243 191.895C70.262 186.665 66.9595 184.25 64.0438 175.352C78.9805 184.205 90.0756 169.109 90.0756 169.109L91.2263 163.817C91.2263 163.817 88.2127 166.501 83.852 167.802Z" fill="white"/>
<path d="M26.5506 147.835C21.6962 156.588 25.4516 165.576 28.1251 170.157C28.1501 170.199 28.164 170.248 28.165 170.297C28.4011 180.125 26.5683 183.545 25.2303 186.042C24.2043 187.957 23.5264 189.222 24.2088 192.451C24.6697 194.632 25.8477 196.326 27.7102 197.485C33.6827 201.202 45.0788 198.824 50.5553 197.681L50.9712 197.595C51.5118 197.482 52.4287 197.556 53.6983 197.657C58.2821 198.021 65.9528 198.632 68.2213 191.804C69.3205 188.495 68.3336 186.343 66.6989 182.779C65.8336 180.891 64.7566 178.545 63.7405 175.444C63.7009 175.322 63.7444 175.19 63.8495 175.112C63.9549 175.034 64.0996 175.028 64.2126 175.094C70.2911 178.697 76.4375 178.767 82.4799 175.3C86.7307 172.862 89.4332 169.435 89.7781 168.984L90.7271 164.619C89.5771 165.493 87.1285 167.143 83.9478 168.091C80.8893 169.003 76.3514 168.182 72.3864 166C68.1952 163.693 65.2931 160.255 64.4248 156.565C62.9184 150.166 60.5841 146.922 59.6504 145.824C59.6402 145.812 59.6311 145.8 59.6229 145.786C59.1841 145.072 58.6196 144.429 57.8979 143.825C52.5195 139.317 43.0745 140.797 39.0415 141.428C34.3335 142.166 30.6154 142.749 28.0596 145.493C27.4052 146.195 26.9227 146.941 26.584 147.773C26.5753 147.795 26.564 147.815 26.5506 147.835ZM36.8253 200.092C33.292 200.093 29.8825 199.562 27.362 197.993C25.3512 196.741 24.0801 194.917 23.5843 192.571C22.858 189.135 23.6152 187.721 24.663 185.765C25.967 183.332 27.7515 180.002 27.53 170.386C24.7937 165.673 21.0079 156.497 26.0031 147.522C26.3688 146.634 26.8859 145.838 27.5835 145.089C30.2892 142.185 34.2968 141.556 38.9375 140.829C43.0605 140.183 52.7139 138.671 58.3183 143.368C59.0855 144.011 59.6882 144.695 60.1604 145.46C61.1322 146.609 63.5186 149.943 65.0462 156.433C65.8759 159.956 68.6672 163.252 72.7049 165.474C76.523 167.575 80.8617 168.374 83.7577 167.511C87.9933 166.248 90.9798 163.622 91.0095 163.595C91.1112 163.505 91.2624 163.487 91.3829 163.552C91.5038 163.616 91.5668 163.749 91.5387 163.878L90.388 169.171C90.3793 169.212 90.3619 169.25 90.337 169.282C90.3088 169.322 87.4707 173.14 82.8259 175.81C78.6492 178.212 72.1479 180.141 64.605 176.024C65.5335 178.722 66.496 180.821 67.2824 182.536C68.9188 186.103 69.9999 188.461 68.8285 191.986C66.4066 199.277 58.1052 198.617 53.6454 198.262C52.5234 198.172 51.5547 198.096 51.1068 198.188L50.6913 198.276C47.3923 198.963 41.9775 200.092 36.8253 200.092Z" fill="black"/>
<path d="M57.7897 166.39C57.7897 166.39 68.5452 162.652 71.9033 155.816L78.8267 149.664C78.8267 149.664 78.7287 152.639 76.673 153.88C76.673 153.88 78.4376 157.268 75.8337 159.607C75.8337 159.607 73.8807 161.088 72.7166 161.115C72.7166 161.115 69.307 171.794 60.1018 174.974C60.1018 174.974 57.5167 171.227 57.7897 166.39Z" fill="white"/>
<path d="M58.0986 166.604C57.9397 170.562 59.7315 173.777 60.2376 174.602C69.0074 171.406 72.3791 161.131 72.4124 161.027C72.4523 160.901 72.572 160.814 72.7091 160.811C73.5765 160.791 75.1159 159.764 75.6359 159.37C78.0131 157.233 76.4555 154.144 76.388 154.015C76.3159 153.876 76.3654 153.707 76.503 153.623C77.7589 152.865 78.2308 151.376 78.4065 150.453L72.1656 155.999C68.9775 162.403 59.6316 166.044 58.0986 166.604ZM60.1024 175.277C59.9976 175.277 59.8965 175.228 59.8363 175.141C59.7283 174.984 57.1967 171.254 57.4721 166.374C57.4788 166.253 57.5612 166.148 57.6809 166.105C57.7873 166.068 68.3527 162.329 71.6153 155.688C71.6326 155.653 71.6568 155.621 71.6867 155.594L78.61 149.442C78.7038 149.359 78.8418 149.337 78.9587 149.388C79.0757 149.438 79.1494 149.552 79.1454 149.674C79.1413 149.798 79.0256 152.612 77.069 153.989C77.4241 154.841 78.3808 157.738 76.0523 159.828C75.9552 159.903 74.2071 161.219 72.9543 161.399C72.4271 162.879 68.7668 172.305 60.2108 175.26C60.1754 175.272 60.1386 175.277 60.1024 175.277Z" fill="black"/>
<path d="M48.0926 178.367C39.1307 178.367 33.9866 174.133 33.9177 174.075C33.7861 173.964 33.7741 173.772 33.8907 173.646C34.0073 173.521 34.2084 173.51 34.3401 173.62C34.4308 173.697 43.5852 181.204 58.821 175.813C58.9851 175.756 59.1692 175.835 59.2302 175.993C59.2916 176.15 59.2075 176.325 59.0425 176.383C54.9485 177.832 51.2787 178.367 48.0926 178.367Z" fill="black"/>
<path d="M53.5941 166.803C45.7864 166.803 41.2403 162.564 38.7502 158.826C35.8221 154.429 35.0424 149.757 35.035 149.711C35.0083 149.545 35.1274 149.391 35.3013 149.365C35.4775 149.339 35.6378 149.453 35.6645 149.618C35.672 149.665 36.4359 154.226 39.2983 158.515C43.1119 164.229 48.6492 166.778 55.7553 166.089C55.9288 166.071 56.0865 166.193 56.1046 166.36C56.1222 166.527 55.9947 166.675 55.8198 166.693C55.0502 166.768 54.3081 166.803 53.5941 166.803Z" fill="black"/>
<path d="M59.6507 161.418C59.6353 161.418 59.6198 161.418 59.6042 161.415C59.4301 161.391 59.3097 161.237 59.3351 161.07C60.7399 151.916 56.3464 146.735 56.3018 146.684C56.1897 146.555 56.2083 146.363 56.3434 146.257C56.4787 146.149 56.6792 146.167 56.7916 146.296C56.9811 146.513 61.4137 151.72 59.9653 161.159C59.9422 161.31 59.806 161.418 59.6507 161.418Z" fill="black"/>
<path d="M57.6658 135.69C57.3672 133.783 57.8457 128.723 57.7582 128.845C56.9018 130.044 54.0822 128.626 51.543 128.53C49.0037 128.435 49.8583 132.072 49.8583 132.072C49.8583 132.072 49.1148 129.605 47.5298 131.148C46.6101 132.046 47.6241 133.202 48.5686 133.959C48.3091 134.241 43.7347 138.942 40.9336 141.737L47.1475 146.235L50.2585 143.464L49.6244 142.5C49.1722 141.812 49.1317 140.951 49.5177 140.227L51.0389 137.768C51.3884 138.171 51.8293 138.632 52.2361 138.902C53.0464 139.442 54.054 139.358 54.7687 138.707C55.7491 137.816 56.4345 136.813 56.7454 135.84L57.6658 135.69Z" fill="white"/>
<path d="M41.4104 141.701L47.1266 145.838L49.8492 143.414L49.355 142.662C48.846 141.889 48.7998 140.903 49.2343 140.089L50.7647 137.614C50.8175 137.529 50.9104 137.473 51.0138 137.465C51.1174 137.457 51.2182 137.499 51.2844 137.574C51.726 138.083 52.1075 138.447 52.4189 138.654C53.1026 139.109 53.9386 139.044 54.5491 138.488C55.4879 137.633 56.142 136.687 56.4409 135.751C56.4761 135.642 56.5732 135.56 56.692 135.541L57.3131 135.44C57.162 133.996 57.315 131.385 57.4002 129.936C57.4094 129.78 57.4185 129.626 57.4262 129.485C56.6636 129.796 55.5284 129.548 54.2616 129.27C53.3611 129.072 52.43 128.869 51.5306 128.835C51.0623 128.817 50.7114 128.942 50.469 129.22C49.852 129.926 50.0435 131.471 50.1694 132.005C50.207 132.166 50.1045 132.326 49.9377 132.366C49.7724 132.407 49.6008 132.315 49.5526 132.156C49.4692 131.882 49.1226 131.074 48.6409 130.959C48.3911 130.899 48.0935 131.034 47.7576 131.361C47.5644 131.55 47.4761 131.753 47.4879 131.983C47.5123 132.463 47.9691 133.082 48.7739 133.727C48.8396 133.779 48.88 133.856 48.8865 133.937C48.893 134.018 48.8647 134.098 48.8081 134.16C48.5684 134.42 44.2834 138.828 41.4104 141.701ZM47.1479 146.538C47.0803 146.538 47.0124 146.517 46.9553 146.476L40.7413 141.979C40.6689 141.927 40.6236 141.848 40.6163 141.762C40.609 141.675 40.6409 141.59 40.7035 141.528C43.2629 138.974 47.1454 134.99 48.1148 133.984C47.5123 133.459 46.8891 132.744 46.8516 132.013C46.831 131.611 46.9828 131.248 47.3022 130.937C47.8085 130.444 48.311 130.253 48.7975 130.37C49.032 130.426 49.233 130.55 49.403 130.704C49.4139 130.059 49.543 129.331 49.9797 128.832C50.352 128.405 50.8801 128.202 51.5558 128.228C52.5145 128.263 53.5186 128.484 54.4044 128.678C55.837 128.991 57.075 129.263 57.4954 128.675C57.5762 128.562 57.7291 128.513 57.8641 128.556C58.1144 128.637 58.1144 128.637 58.0362 129.971C57.9461 131.502 57.7789 134.353 57.9811 135.645C58.0066 135.808 57.8904 135.963 57.7195 135.99L56.9889 136.108C56.636 137.083 55.9478 138.054 54.989 138.927C54.1624 139.68 52.983 139.77 52.0541 139.152C51.7709 138.963 51.4467 138.674 51.0872 138.289L49.7923 140.382C49.4686 140.989 49.504 141.746 49.8945 142.339L50.5285 143.303C50.6096 143.426 50.5877 143.587 50.4761 143.686L47.3653 146.456C47.3042 146.511 47.2263 146.538 47.1479 146.538Z" fill="black"/>
<path d="M51.0391 138.072C50.9398 138.072 50.842 138.028 50.7798 137.945L50.294 137.299C50.1915 137.162 50.2245 136.973 50.3674 136.875C50.5102 136.778 50.7092 136.809 50.8118 136.946L51.2976 137.592C51.4002 137.728 51.3673 137.918 51.2243 138.015C51.1681 138.054 51.1033 138.072 51.0391 138.072Z" fill="black"/>
<path d="M104.579 233.193C104.518 233.434 107.495 246.423 107.495 246.423L100.652 245.331L98.5918 234.349L104.579 233.193Z" fill="white"/>
<path d="M100.929 245.066L107.085 246.05C105.053 237.171 104.477 234.428 104.322 233.553L98.9624 234.588L100.929 245.066ZM107.497 246.727C107.48 246.727 107.461 246.726 107.444 246.723L100.603 245.631C100.47 245.609 100.365 245.511 100.341 245.384L98.2804 234.402C98.2499 234.24 98.3612 234.085 98.5307 234.052L104.518 232.896C104.626 232.874 104.736 232.906 104.81 232.981C104.873 233.043 104.904 233.125 104.9 233.208C104.946 233.746 106.661 241.349 107.807 246.359C107.83 246.457 107.8 246.56 107.727 246.633C107.667 246.693 107.583 246.727 107.497 246.727Z" fill="black"/>
<path d="M103.863 242.163C104.282 241.828 104.88 241.499 105.642 241.469C106.789 241.421 107.834 242.106 108.309 243.112C109.494 245.627 112.623 252.632 113.507 258.357C113.82 260.38 112.219 262.025 109.725 260.7C105.636 258.527 99.963 253.539 96.9943 246.172C96.6535 245.325 96.7751 244.369 97.3348 243.64C97.792 243.044 98.4121 242.323 99.132 241.708C99.82 241.118 100.855 241.11 101.569 241.669L102.212 242.174C102.694 242.552 103.385 242.546 103.863 242.163Z" fill="white"/>
<path d="M100.368 241.559C100 241.559 99.6356 241.684 99.3453 241.933C98.7561 242.436 98.1664 243.07 97.5919 243.82C97.0975 244.464 96.9853 245.302 97.2917 246.063C100.198 253.272 105.699 258.214 109.879 260.435C110.866 260.959 111.763 261.016 112.4 260.596C113.034 260.179 113.337 259.337 113.193 258.4C112.323 252.767 109.284 245.92 108.019 243.236C107.585 242.32 106.639 241.732 105.655 241.772C105.088 241.795 104.555 242.005 104.069 242.395C103.474 242.872 102.607 242.878 102.01 242.409L101.366 241.904C101.073 241.673 100.718 241.559 100.368 241.559ZM111.409 261.484C110.909 261.484 110.294 261.35 109.569 260.965C105.292 258.692 99.6628 253.64 96.697 246.281C96.3127 245.327 96.455 244.273 97.0779 243.461C97.6784 242.677 98.2982 242.012 98.9197 241.481C99.7257 240.791 100.926 240.772 101.771 241.435L102.414 241.939C102.775 242.222 103.298 242.219 103.658 241.93C104.248 241.458 104.928 241.193 105.628 241.165C106.863 241.114 108.06 241.847 108.599 242.987C109.876 245.694 112.941 252.603 113.823 258.312C114.003 259.479 113.597 260.545 112.762 261.095C112.489 261.275 112.037 261.484 111.409 261.484Z" fill="black"/>
<path d="M111.951 259.202C111.412 259.202 105.643 258.88 98.6476 245.696C98.5683 245.546 98.6311 245.364 98.7879 245.287C98.9452 245.212 99.1366 245.272 99.216 245.422C106.227 258.636 111.901 258.595 111.961 258.594C112.146 258.588 112.285 258.719 112.292 258.887C112.297 259.055 112.16 259.195 111.984 259.201C111.977 259.202 111.966 259.202 111.951 259.202Z" fill="black"/>
<path d="M107.572 251.945C107.445 251.945 107.325 251.871 107.276 251.751C107.212 251.595 107.292 251.42 107.455 251.358L110.698 250.138C110.863 250.076 111.047 250.153 111.112 250.308C111.176 250.465 111.096 250.641 110.933 250.702L107.689 251.923C107.651 251.938 107.611 251.945 107.572 251.945Z" fill="black"/>
<path d="M106.435 249.574C106.308 249.574 106.188 249.501 106.139 249.381C106.075 249.224 106.156 249.048 106.319 248.988L110.125 247.577C110.288 247.515 110.472 247.593 110.537 247.748C110.601 247.905 110.52 248.081 110.355 248.143L106.551 249.554C106.514 249.568 106.474 249.574 106.435 249.574Z" fill="black"/>
<path d="M75.1379 234.372C74.9757 234.567 71.9514 247.545 71.9514 247.545L66.2246 243.813L69.195 233.022L75.1379 234.372Z" fill="white"/>
<path d="M66.5898 243.682L71.7428 247.042C73.8115 238.172 74.4984 235.451 74.7435 234.595L69.4242 233.386L66.5898 243.682ZM71.9516 247.85C71.8884 247.85 71.8257 247.832 71.7718 247.796L66.045 244.063C65.934 243.99 65.8825 243.859 65.9167 243.735L68.8871 232.945C68.9311 232.785 69.1009 232.688 69.2691 232.726L75.2118 234.076C75.3176 234.101 75.4033 234.175 75.4389 234.273C75.468 234.353 75.4604 234.439 75.42 234.513C75.2244 235.021 73.429 242.606 72.2625 247.612C72.2396 247.711 72.1671 247.791 72.0685 247.829C72.0308 247.843 71.9912 247.85 71.9516 247.85Z" fill="black"/>
<path d="M70.534 242.224C71.0617 242.087 71.749 242.029 72.4537 242.306C73.5149 242.723 74.162 243.764 74.1492 244.867C74.1176 247.624 73.8685 255.234 72.1473 260.784C71.5389 262.745 69.3609 263.596 67.6816 261.394C64.9293 257.783 61.9812 250.983 62.5343 243.108C62.5977 242.204 63.1299 241.386 63.9592 240.948C64.6367 240.591 65.5177 240.183 66.442 239.914C67.3257 239.656 68.2687 240.063 68.6695 240.857L69.0306 241.572C69.3017 242.108 69.9313 242.38 70.534 242.224Z" fill="white"/>
<path d="M66.9844 240.139C66.8352 240.139 66.6833 240.161 66.5336 240.205C65.7773 240.426 64.9625 240.764 64.1119 241.214C63.379 241.6 62.9075 242.316 62.8505 243.128C62.3095 250.833 65.1236 257.523 67.9376 261.215C68.6018 262.085 69.3882 262.497 70.1542 262.371C70.9128 262.246 71.5587 261.605 71.8403 260.697C73.5338 255.238 73.7953 247.806 73.8294 244.863C73.8408 243.859 73.2386 242.944 72.3309 242.587C71.8067 242.381 71.2297 242.358 70.6162 242.516C69.866 242.711 69.0783 242.369 68.7422 241.703L68.3811 240.989C68.1125 240.457 67.566 240.139 66.9844 240.139ZM69.885 263C69.2523 263 68.3196 262.749 67.4224 261.572C64.5428 257.795 61.6625 250.955 62.2151 243.088C62.2866 242.069 62.8804 241.169 63.8035 240.682C64.6927 240.213 65.5486 239.857 66.3473 239.624C67.3828 239.321 68.4796 239.785 68.955 240.726L69.3161 241.44C69.5189 241.843 69.9951 242.048 70.4491 241.931C71.1918 241.739 71.9262 241.772 72.5735 242.025C73.72 242.477 74.4806 243.619 74.4663 244.87C74.432 247.837 74.1673 255.336 72.4511 260.87C72.1001 262 71.2615 262.805 70.2624 262.97C70.1542 262.988 70.0273 263 69.885 263Z" fill="black"/>
<path d="M70.5159 260.963C70.4747 260.963 70.4329 260.956 70.3926 260.94C70.1644 260.848 64.7958 258.523 64.2443 243.34C64.2382 243.172 64.3758 243.032 64.5515 243.025C64.7236 243.021 64.8746 243.151 64.881 243.318C65.4183 258.117 70.5874 260.359 70.6396 260.379C70.8018 260.445 70.8778 260.623 70.8098 260.777C70.7584 260.893 70.6403 260.963 70.5159 260.963Z" fill="black"/>
<path d="M73.2042 252.806C73.1979 252.806 73.1918 252.806 73.1853 252.806L69.7044 252.613C69.5288 252.603 69.3948 252.46 69.4048 252.292C69.4151 252.125 69.5628 251.998 69.7415 252.007L73.2224 252.2C73.3978 252.209 73.532 252.352 73.5218 252.52C73.512 252.682 73.3717 252.806 73.2042 252.806Z" fill="black"/>
<path d="M73.8089 250.252C73.8022 250.252 73.7954 250.252 73.7886 250.252L69.7145 250.008C69.5391 249.997 69.4056 249.853 69.4167 249.686C69.4277 249.519 69.5813 249.392 69.7544 249.401L73.8284 249.645C74.004 249.656 74.1376 249.801 74.1264 249.967C74.1158 250.128 73.9755 250.252 73.8089 250.252Z" fill="black"/>
<path d="M43.1373 183.214C43.1373 183.214 84.8008 181.49 89.3554 185.524C95.5337 190.995 106.147 236.539 106.147 236.539L95.8995 239.279C95.8995 239.279 80.4584 201.902 76.6327 201.902C72.8067 201.902 36.7344 200.673 36.7344 200.673L43.1373 183.214Z" fill="black"/>
<path d="M40.3824 182.22C37.089 182.06 34.1466 184.158 33.3715 187.214C32.171 191.948 31.1315 198.423 33.8186 200.148C38.191 202.953 69.7097 202.714 68.6166 202.364C67.5236 202.014 65.7979 227.551 65.7979 237.371L75.7217 237.735C75.7217 237.735 91.5365 198.242 89.8317 193.833C86.782 185.943 63.3056 184.136 55.7936 183.08C54.7846 182.938 46.2171 182.505 40.3824 182.22Z" fill="black"/>
<path d="M84.5898 215.562C84.5575 215.562 84.5249 215.557 84.4926 215.548C84.325 215.496 84.2327 215.326 84.2865 215.166C84.6433 214.104 84.998 213.058 85.3452 212.035C88.1224 203.852 90.5209 196.785 89.5281 193.928C87.4196 187.86 71.6537 185.535 66.473 184.77C66.2991 184.745 66.18 184.59 66.2069 184.423C66.2338 184.258 66.3974 184.144 66.5704 184.17C75.7277 185.521 88.1331 187.982 90.1327 193.736C91.1911 196.782 88.8789 203.597 85.9512 212.222C85.6042 213.245 85.2496 214.289 84.8928 215.352C84.8497 215.48 84.7245 215.562 84.5898 215.562Z" fill="white"/>
<path d="M175.852 203.28L180.688 250.505L184.14 250.367L182.426 200.721L175.852 203.28Z" fill="white"/>
<path d="M176.193 203.475L180.977 250.188L183.813 250.075L182.124 201.167L176.193 203.475ZM180.689 250.809C180.526 250.809 180.389 250.69 180.373 250.533L175.537 203.31C175.523 203.175 175.603 203.05 175.733 202.999L182.307 200.44C182.403 200.403 182.513 200.412 182.6 200.466C182.687 200.52 182.741 200.612 182.744 200.711L184.459 250.356C184.465 250.522 184.329 250.663 184.154 250.669L180.704 250.807C180.698 250.807 180.694 250.809 180.689 250.809Z" fill="black"/>
<path d="M240.726 201.581L236.007 250.622L232.439 250.367L234.153 198.93L240.726 201.581Z" fill="white"/>
<path d="M232.766 250.085L235.717 250.296L240.388 201.775L234.456 199.382L232.766 250.085ZM236.005 250.926C235.997 250.926 235.99 250.926 235.981 250.925L232.413 250.67C232.243 250.657 232.112 250.52 232.119 250.356L233.834 198.921C233.837 198.82 233.893 198.729 233.98 198.674C234.068 198.62 234.18 198.611 234.277 198.651L240.849 201.302C240.977 201.354 241.055 201.478 241.043 201.609L236.323 250.649C236.308 250.807 236.168 250.926 236.005 250.926Z" fill="black"/>
<path d="M257.155 190.042L255.767 241.537L252.979 240.962L250.426 187.593L257.155 190.042Z" fill="white"/>
<path d="M253.288 240.715L255.458 241.163L256.831 190.248L250.766 188.041L253.288 240.715ZM255.768 241.841C255.744 241.841 255.722 241.838 255.7 241.834L252.913 241.259C252.773 241.229 252.669 241.113 252.664 240.975L250.108 187.606C250.102 187.504 250.154 187.407 250.239 187.347C250.326 187.287 250.439 187.272 250.538 187.309L257.269 189.758C257.395 189.803 257.478 189.921 257.474 190.049L256.084 241.545C256.084 241.635 256.04 241.721 255.964 241.777C255.907 241.819 255.837 241.841 255.768 241.841Z" fill="black"/>
<path d="M202.713 188.89L201.325 240.386L198.429 240.401L195.982 186.442L202.713 188.89Z" fill="white"/>
<path d="M196.322 186.891L198.736 240.096L201.014 240.083L202.389 189.097L196.322 186.891ZM198.431 240.705C198.26 240.705 198.121 240.577 198.112 240.415L195.667 186.454C195.66 186.352 195.71 186.255 195.798 186.195C195.885 186.135 195.998 186.121 196.097 186.157L202.827 188.606C202.954 188.652 203.035 188.768 203.032 188.898L201.644 240.394C201.639 240.558 201.5 240.689 201.326 240.69L198.433 240.705H198.431Z" fill="black"/>
<path d="M216.701 148.672V160.654C216.701 172.372 207.008 181.872 195.052 181.872C183.096 181.872 173.404 191.371 173.404 203.091C173.404 204.134 174.289 204.981 175.383 204.981H232.688C250.61 204.981 265.14 190.74 265.14 173.171V147.605C265.14 140.618 259.362 134.953 252.233 134.953H230.695C222.967 134.953 216.701 141.095 216.701 148.672Z" fill="white"/>
<path d="M230.696 135.257C223.155 135.257 217.018 141.275 217.018 148.671V160.653C217.018 172.521 207.165 182.176 195.052 182.176C183.29 182.176 173.721 191.558 173.721 203.091C173.721 203.965 174.467 204.676 175.381 204.676H232.687C250.406 204.676 264.824 190.543 264.824 173.171V147.605C264.824 140.796 259.176 135.257 252.233 135.257H230.696ZM232.687 205.285H175.381C174.116 205.285 173.086 204.3 173.086 203.091C173.086 191.222 182.939 181.567 195.052 181.567C206.814 181.567 216.382 172.185 216.382 160.653V148.671C216.382 140.939 222.804 134.65 230.696 134.65H252.233C259.525 134.65 265.459 140.462 265.459 147.605V173.171C265.459 190.879 250.759 205.285 232.687 205.285Z" fill="black"/>
<path d="M212.61 149.237C212.61 149.237 209.486 176.314 188.512 178.086L212.61 178.413C212.61 178.413 221.534 161.151 221.894 154.43C222.258 147.708 212.61 149.237 212.61 149.237Z" fill="white"/>
<path d="M192.028 177.83L212.416 178.105C213.346 176.286 221.245 160.639 221.581 154.414C221.663 152.893 221.207 151.701 220.229 150.867C218.06 149.019 213.924 149.38 212.899 149.505C212.722 150.765 211.751 156.894 208.718 163.124C204.835 171.104 199.109 176.128 192.028 177.83ZM212.613 178.716C212.611 178.716 212.61 178.716 212.608 178.716L188.51 178.389C188.341 178.386 188.204 178.258 188.195 178.097C188.191 177.935 188.318 177.797 188.486 177.783C199.165 176.881 205.065 169.181 208.134 162.882C211.479 156.015 212.288 149.27 212.296 149.203C212.313 149.067 212.42 148.958 212.561 148.937C212.781 148.902 217.952 148.113 220.654 150.414C221.783 151.376 222.309 152.731 222.218 154.445C221.855 161.152 213.266 177.839 212.899 178.547C212.845 178.651 212.734 178.716 212.613 178.716Z" fill="black"/>
<path d="M242.464 132.027C238.395 131.115 236.698 131.103 221.907 131.613C218.29 131.738 213.991 136.07 213.567 139.5C214.714 142.789 220.018 159.03 210.76 171.721C209.448 173.521 207.662 175.497 205.211 177.389C206.588 178.453 208.727 179.837 211.602 180.651C216.374 182.004 218.773 180.542 222.619 180.651C232.793 180.941 236.522 191.757 243.092 190.399C244.848 190.036 247.173 188.73 249.352 184.347C250.588 180.714 251.688 176.447 252.3 171.624C253.96 158.552 251.244 147.667 248.818 140.837C248.099 138.68 247.262 133.104 242.464 132.027Z" fill="black"/>
<path d="M209.854 152.272C209.854 152.272 212.244 133.961 219.139 132.398L217.555 156.484L209.854 152.272Z" fill="black"/>
<path d="M244.889 147.383C248.037 148.656 251.736 150.154 254.991 151.489C254.993 151.529 254.993 151.567 254.995 151.605L244.892 147.447L244.889 147.383Z" fill="white"/>
<path d="M254.992 151.91C254.95 151.91 254.908 151.901 254.867 151.885L244.763 147.727C244.653 147.681 244.578 147.579 244.572 147.463L244.569 147.399C244.563 147.294 244.615 147.194 244.705 147.134C244.794 147.074 244.91 147.063 245.011 147.104C248.859 148.657 252.352 150.078 255.115 151.211C255.231 151.258 255.306 151.364 255.31 151.482L255.312 151.6C255.313 151.702 255.26 151.801 255.17 151.858C255.117 151.892 255.055 151.91 254.992 151.91Z" fill="black"/>
<path d="M256.761 155.627C256.761 155.627 256.087 144.75 255.102 140.547C253.032 131.706 241.029 131.614 241.029 131.614L243.126 154.114L256.761 155.627Z" fill="black"/>
<path d="M230.692 130.114L230.286 124.612C230.01 124.593 229.82 124.582 229.765 124.582C228.156 124.565 227.633 124.067 227.496 122.807C227.409 122.019 227.379 120.848 227.781 119.382C227.823 119.226 227.815 119.06 227.748 118.912L227.473 118.295C227.416 118.094 227.489 117.878 227.66 117.745L227.806 117.63C228.33 117.22 228.766 116.715 229.115 116.155C229.437 115.64 229.983 114.674 230.357 114.503C231.415 114.021 235.7 111.881 238.097 115.62C239.963 118.536 236.912 122.551 235.801 123.865C235.535 124.185 237.614 130.418 237.614 130.418L240.301 131.036C240.301 131.036 238.227 134.554 231.927 133.098C227.442 132.063 228.154 130.471 228.154 130.471L230.692 130.114Z" fill="white"/>
<path d="M228.432 130.739C228.434 130.829 228.46 130.955 228.545 131.105C228.762 131.493 229.501 132.228 232.002 132.804C236.812 133.915 239.056 132.032 239.764 131.227L237.538 130.713C237.431 130.688 237.344 130.611 237.309 130.51C235.179 124.121 235.434 123.821 235.554 123.677C236.807 122.191 239.535 118.449 237.824 115.779C235.657 112.396 231.859 114.148 230.611 114.724L230.496 114.777C230.26 114.884 229.772 115.686 229.536 116.072L229.388 116.311C229.004 116.925 228.54 117.447 228.006 117.865L227.861 117.98C227.793 118.033 227.76 118.12 227.776 118.201L228.041 118.792C228.134 118.998 228.151 119.236 228.09 119.459C227.781 120.58 227.69 121.667 227.813 122.775C227.926 123.801 228.235 124.261 229.767 124.279C229.826 124.279 230.023 124.29 230.308 124.309C230.466 124.32 230.592 124.44 230.604 124.592L231.011 130.092C231.021 130.25 230.904 130.391 230.738 130.415L228.432 130.739ZM234.833 133.76C233.961 133.76 232.97 133.652 231.852 133.394C229.725 132.904 228.416 132.215 227.959 131.351C227.673 130.806 227.84 130.396 227.861 130.351C227.905 130.255 227.997 130.187 228.109 130.17L230.353 129.854L229.988 124.898C229.871 124.891 229.793 124.888 229.76 124.886C228.039 124.866 227.34 124.312 227.179 122.838C227.048 121.655 227.146 120.499 227.474 119.306C227.498 119.211 227.492 119.113 227.455 119.03L227.181 118.414C227.174 118.402 227.17 118.389 227.165 118.376C227.076 118.06 227.19 117.719 227.457 117.511L227.603 117.396C228.079 117.023 228.496 116.554 228.842 116L228.985 115.767C229.453 115.002 229.84 114.403 230.22 114.228L230.334 114.177C234.027 112.473 236.73 112.905 238.368 115.463C240.268 118.429 237.45 122.384 236.095 124.003C236.093 124.528 236.969 127.473 237.862 130.163L240.376 130.742C240.472 130.764 240.553 130.829 240.593 130.915C240.633 131.004 240.628 131.104 240.579 131.185C240.504 131.313 239.003 133.76 234.833 133.76Z" fill="black"/>
<path d="M236.778 110.865C235.616 110.625 234.281 110.796 233.718 110.597C232.808 110.279 232.782 109.239 231.525 108.948C230.003 108.595 229.367 109.214 228.77 110.08C228.672 110.224 228.586 110.384 228.514 110.567C227.557 113.018 228.765 114.213 229.302 114.603C229.302 114.603 232.727 116.293 233.316 116.775C233.863 117.227 234.497 118.295 234.099 119.832C234.046 120.03 234.137 120.236 234.313 120.338C234.52 120.455 234.785 120.4 234.927 120.205C235.372 119.588 236.346 118.396 237.038 118.677C237.907 119.032 237.637 121.521 235.718 121.808C235.129 121.896 234.65 122.472 234.706 123.062C234.745 123.447 235.124 123.912 235.689 124.034C236.034 124.111 236.372 123.978 236.676 123.793C237.93 123.03 241.461 119.794 241.9 116.892C242.428 113.396 238.323 111.183 236.778 110.865Z" fill="black"/>
<path d="M229.854 124.862C229.685 124.862 229.543 124.733 229.537 124.569C229.529 124.401 229.666 124.261 229.843 124.253C229.854 124.253 231.083 124.199 231.92 123.519C232.054 123.412 232.256 123.427 232.368 123.554C232.483 123.684 232.466 123.874 232.332 123.983C231.324 124.8 229.926 124.859 229.866 124.862C229.861 124.862 229.859 124.862 229.854 124.862Z" fill="black"/>
<path d="M202.388 235.244C201.802 234.677 198.413 224.618 198.413 224.618L191.721 229.177L199.058 238.592L202.388 235.244Z" fill="white"/>
<path d="M192.169 229.243L199.088 238.121L201.99 235.201C201.196 233.756 198.97 227.251 198.244 225.106L192.169 229.243ZM199.057 238.896C199.053 238.896 199.045 238.896 199.039 238.896C198.945 238.89 198.859 238.845 198.803 238.773L191.465 229.358C191.415 229.292 191.394 229.211 191.406 229.13C191.419 229.05 191.466 228.977 191.536 228.93L198.229 224.371C198.312 224.314 198.418 224.299 198.514 224.329C198.61 224.36 198.687 224.432 198.716 224.525C200.002 228.339 202.195 234.566 202.616 235.032C202.723 235.151 202.73 235.339 202.619 235.452L199.29 238.8C199.23 238.861 199.145 238.896 199.057 238.896Z" fill="black"/>
<path d="M190.325 247.963L194.775 247.937C197.72 247.921 200.46 246.491 202.067 244.135L206.466 237.483C207.683 235.645 207.003 233.209 204.992 232.188C203.154 231.256 201.229 230.348 200.779 230.389C199.864 230.472 199.494 234.608 199.494 234.608L195.528 234.754C195.528 234.754 193.569 242.531 191.846 243.415C190.59 244.059 189.714 245.005 189.123 245.868C188.504 246.772 189.194 247.968 190.325 247.963Z" fill="black"/>
<path d="M190.771 246.607C190.616 246.607 190.48 246.498 190.457 246.348C190.431 246.182 190.55 246.028 190.725 246.003L196.813 245.127C198.088 244.943 199.2 244.232 199.865 243.175L205.244 234.595C205.334 234.45 205.528 234.404 205.68 234.49C205.83 234.575 205.881 234.762 205.79 234.905L200.41 243.487C199.65 244.699 198.373 245.516 196.907 245.728L190.82 246.603C190.803 246.606 190.787 246.607 190.771 246.607Z" fill="white"/>
<path d="M198.286 240.154C198.258 240.154 198.231 240.15 198.203 240.143L194.811 239.261C194.64 239.217 194.541 239.05 194.588 238.889C194.632 238.726 194.808 238.631 194.977 238.675L198.369 239.557C198.54 239.601 198.64 239.768 198.592 239.931C198.554 240.066 198.427 240.154 198.286 240.154Z" fill="white"/>
<path d="M196.519 241.816C196.494 241.816 196.469 241.814 196.442 241.808L194.169 241.277C193.997 241.237 193.893 241.073 193.935 240.91C193.977 240.747 194.151 240.646 194.321 240.687L196.594 241.218C196.765 241.259 196.87 241.422 196.829 241.585C196.793 241.724 196.663 241.816 196.519 241.816Z" fill="white"/>
<path d="M179.548 233.323L171.777 240.777L167.658 239.333L174.821 229.797L179.548 233.323Z" fill="white"/>
<path d="M168.159 239.186L171.694 240.426L179.067 233.352L174.886 230.232L168.159 239.186ZM171.776 241.082C171.74 241.082 171.703 241.075 171.665 241.062L167.547 239.618C167.453 239.586 167.381 239.513 167.352 239.422C167.322 239.332 167.34 239.234 167.398 239.156L174.561 229.62C174.611 229.553 174.689 229.508 174.774 229.497C174.86 229.485 174.947 229.507 175.016 229.558L179.742 233.085C179.814 233.138 179.858 233.219 179.864 233.304C179.87 233.392 179.837 233.476 179.773 233.538L172.002 240.992C171.941 241.05 171.859 241.082 171.776 241.082Z" fill="black"/>
<path d="M220.682 178.296C220.682 178.296 185.168 174.141 174.607 183.331C164.048 192.521 191.277 232.04 191.277 232.04L199.889 225.62L191.719 197.688L224.55 188.315L220.682 178.296Z" fill="white"/>
<path d="M203.173 177.68C192.656 177.68 180.279 178.806 174.823 183.554C165.038 192.069 188.965 228.06 191.356 231.597L199.526 225.507L191.415 197.77C191.368 197.61 191.463 197.445 191.63 197.397L224.135 188.117L220.451 178.577C219.176 178.438 211.799 177.68 203.173 177.68ZM191.277 232.344C191.26 232.344 191.242 232.343 191.226 232.34C191.138 232.327 191.059 232.279 191.012 232.208C189.893 230.585 163.754 192.365 174.392 183.106C184.94 173.928 219.265 177.824 220.721 177.995C220.84 178.008 220.939 178.085 220.982 178.191L224.85 188.21C224.88 188.289 224.875 188.377 224.835 188.452C224.795 188.526 224.725 188.582 224.641 188.606L192.111 197.894L200.196 225.538C200.231 225.657 200.186 225.784 200.086 225.86L191.475 232.28C191.417 232.322 191.349 232.344 191.277 232.344Z" fill="black"/>
<path d="M240.221 196.487C235.063 198.133 225.833 200.261 212.933 200.085C209.267 200.034 205.881 202.07 204.217 205.352C200.396 212.887 192.124 226.451 178.652 235.244L172.219 231.759L188.642 194.593C190.139 191.2 192.945 188.563 196.411 187.285L228.96 175.286C228.96 175.286 239.053 172.45 243.999 181.507C244.884 183.125 246.524 180.234 246.916 181.539C248.256 186.013 244.651 195.073 240.221 196.487Z" fill="white"/>
<path d="M172.624 231.627L178.639 234.885C192.012 226.092 200.221 212.535 203.932 205.219C205.636 201.863 209.169 199.73 212.939 199.779C225.587 199.954 234.703 197.928 240.124 196.198C244.399 194.834 247.879 185.856 246.613 181.621C246.58 181.512 246.548 181.486 246.548 181.484C246.46 181.475 246.152 181.681 245.965 181.801C245.513 182.09 245 182.417 244.469 182.288C244.164 182.214 243.912 181.998 243.721 181.647C238.954 172.923 229.454 175.464 229.052 175.577L196.528 187.566C193.161 188.809 190.394 191.412 188.936 194.711L172.624 231.627ZM178.653 235.546C178.6 235.546 178.546 235.534 178.497 235.507L172.062 232.021C171.922 231.946 171.865 231.781 171.928 231.639L188.349 194.475C189.872 191.025 192.772 188.3 196.3 187L228.848 175.001C228.975 174.965 239.275 172.193 244.286 181.366C244.39 181.558 244.505 181.67 244.625 181.7C244.884 181.762 245.269 181.514 245.612 181.296C246.019 181.036 246.403 180.789 246.778 180.92C246.989 180.995 247.14 181.173 247.224 181.454C248.587 186.004 244.954 195.297 240.326 196.774C234.86 198.518 225.668 200.562 212.93 200.386C212.885 200.386 212.842 200.385 212.799 200.385C209.275 200.385 206.105 202.33 204.506 205.484C200.752 212.885 192.426 226.624 178.835 235.493C178.779 235.528 178.716 235.546 178.653 235.546Z" fill="black"/>
<path d="M174.232 239.612C174.232 239.612 174.608 242.782 173.971 245.584C173.632 247.078 172.222 248.128 170.621 248.128H151.55C150.187 248.128 149.568 246.504 150.613 245.668C154.004 242.955 160.242 238.814 167.913 237.599L170.051 240.457L174.232 239.612Z" fill="black"/>
<path d="M172.222 245.928H152.458C152.282 245.928 152.139 245.793 152.139 245.625C152.139 245.458 152.282 245.321 152.458 245.321H172.222C172.398 245.321 172.54 245.458 172.54 245.625C172.54 245.793 172.398 245.928 172.222 245.928Z" fill="white"/>
<path d="M163.485 242.576C163.359 242.576 163.24 242.505 163.19 242.388L162.143 239.966C162.076 239.811 162.153 239.633 162.316 239.569C162.479 239.505 162.665 239.579 162.733 239.734L163.779 242.158C163.845 242.312 163.768 242.49 163.606 242.553C163.566 242.569 163.525 242.576 163.485 242.576Z" fill="white"/>
<path d="M160.044 243.214C159.911 243.214 159.787 243.133 159.742 243.006L158.985 240.82C158.93 240.66 159.02 240.488 159.188 240.437C159.355 240.383 159.535 240.469 159.591 240.629L160.347 242.815C160.402 242.974 160.312 243.146 160.144 243.198C160.111 243.209 160.079 243.214 160.044 243.214Z" fill="white"/>
<path d="M246.659 153.52C243.195 165.551 232.908 173.227 217.99 177.267L220.267 181.322C240.996 180.626 251.867 172.035 256.214 155.547L246.659 153.52Z" fill="white"/>
<path d="M218.46 177.455L220.455 181.012C240.117 180.301 251.366 172.276 255.826 155.775L246.885 153.878C243.497 165.247 233.937 173.177 218.46 177.455ZM220.267 181.625C220.149 181.625 220.042 181.564 219.987 181.464L217.712 177.41C217.666 177.33 217.662 177.233 217.699 177.148C217.737 177.064 217.813 177 217.905 176.975C233.504 172.749 243.073 164.83 246.351 153.439C246.397 153.283 246.563 153.187 246.729 153.222L256.285 155.25C256.368 155.268 256.44 155.317 256.486 155.387C256.53 155.458 256.545 155.541 256.523 155.621C252.025 172.684 240.509 180.946 220.278 181.625C220.276 181.625 220.271 181.625 220.267 181.625Z" fill="black"/>
<path d="M221.533 176.934C221.323 176.54 220.967 176.228 220.532 176.079C220.221 175.973 219.913 175.831 219.62 175.682L215.56 173.629C214.799 173.273 213.712 174.1 212.923 174.349C210.542 175.095 205.609 176.852 206.016 178.502C206.453 180.283 210.692 179.44 212.198 179.082C212.542 179 215.656 180.075 216.639 180.147C218.001 180.245 218.314 179.915 218.981 179.581C219.284 179.43 219.621 179.361 219.986 179.359C220.547 179.355 221.082 179.131 221.434 178.714L221.44 178.703C221.828 178.243 221.895 177.608 221.613 177.083L221.533 176.934Z" fill="white"/>
<path d="M212.244 178.774C212.495 178.774 212.965 178.897 214.164 179.236C215.113 179.505 216.186 179.809 216.663 179.844C217.709 179.919 218.053 179.733 218.526 179.475C218.621 179.422 218.722 179.367 218.83 179.313C219.166 179.145 219.554 179.058 219.985 179.055C220.465 179.052 220.901 178.859 221.183 178.523C221.5 178.147 221.553 177.639 221.328 177.221L221.248 177.072C221.069 176.737 220.775 176.486 220.424 176.366C220.137 176.267 219.833 176.135 219.468 175.951L215.41 173.897C215.028 173.719 214.394 174.022 213.836 174.29C213.549 174.427 213.28 174.556 213.022 174.636C208.652 176.006 206.083 177.461 206.325 178.433C206.38 178.661 206.521 178.837 206.754 178.973C207.591 179.458 209.597 179.389 212.12 178.788C212.156 178.779 212.195 178.774 212.244 178.774ZM217.084 180.468C216.94 180.468 216.785 180.462 216.615 180.45C216.07 180.41 215.01 180.109 213.983 179.818C213.288 179.622 212.42 179.371 212.244 179.381C210.672 179.758 207.784 180.282 206.423 179.491C206.041 179.269 205.799 178.961 205.703 178.572C205.274 176.821 209.337 175.152 212.823 174.06C213.035 173.993 213.286 173.873 213.551 173.747C214.241 173.416 215.024 173.041 215.698 173.356L219.767 175.414C220.104 175.584 220.382 175.706 220.638 175.793C221.144 175.966 221.562 176.322 221.815 176.795L221.895 176.945C222.234 177.575 222.152 178.34 221.687 178.894C221.279 179.382 220.661 179.659 219.989 179.663C219.657 179.664 219.375 179.726 219.127 179.85C219.024 179.902 218.933 179.952 218.841 180.001C218.404 180.24 217.988 180.468 217.084 180.468Z" fill="black"/>
<path d="M69.9169 182.363H229.408C232.379 182.363 234.689 184.227 234.352 186.354L223.339 256.029H215.387L222.282 190.637C222.403 189.485 221.137 188.502 219.535 188.502H82.6247C80.225 188.502 78.3327 189.972 78.5143 191.697L85.34 256.438H77.3877L66.1865 185.374C65.9337 183.769 67.6756 182.363 69.9169 182.363Z" fill="white"/>
<path d="M77.6616 256.134H84.9876L78.1972 191.727C78.1174 190.97 78.3963 190.212 78.9823 189.594C79.8119 188.72 81.1734 188.198 82.6242 188.198H219.535C220.533 188.198 221.473 188.559 222.045 189.165C222.459 189.598 222.655 190.133 222.597 190.668L215.739 255.725H223.066L234.037 186.309C234.157 185.562 233.914 184.831 233.344 184.195C232.479 183.238 231.007 182.667 229.409 182.667H69.9167C68.7327 182.667 67.6452 183.088 67.0081 183.793C66.5911 184.255 66.4158 184.786 66.5012 185.327L77.6616 256.134ZM85.3397 256.741H77.3875C77.2297 256.741 77.0957 256.632 77.0725 256.483L65.8713 185.419C65.7592 184.707 65.9916 183.988 66.5255 183.398C67.2819 182.559 68.5497 182.06 69.9167 182.06H229.409C231.19 182.06 232.843 182.709 233.825 183.799C234.513 184.561 234.812 185.486 234.668 186.399L223.653 256.074C223.63 256.222 223.496 256.332 223.339 256.332H215.387C215.296 256.332 215.211 256.296 215.151 256.232C215.09 256.168 215.061 256.083 215.069 255.997L221.963 190.606C222.013 190.142 221.779 189.788 221.574 189.572C221.119 189.092 220.355 188.806 219.535 188.806H82.6242C81.3503 188.806 80.1655 189.253 79.4547 190.002C78.9842 190.498 78.7685 191.074 78.8311 191.666L85.6567 256.407C85.6658 256.493 85.6364 256.577 85.576 256.641C85.5155 256.705 85.4297 256.741 85.3397 256.741Z" fill="black"/>
<path d="M202.3 180.133L193.729 156.046C193.214 155.292 192.319 154.834 191.357 154.834H168.511C167.475 154.834 166.807 155.794 167.145 156.642C167.281 156.979 167.425 157.311 167.544 157.655L175.29 180.176H175.294C175.318 181.494 176.442 182.553 177.826 182.553H219.986C221.386 182.553 222.521 181.469 222.521 180.133H202.3Z" fill="white"/>
<path d="M175.579 180.048C175.597 180.086 175.608 180.129 175.608 180.172C175.631 181.319 176.624 182.252 177.824 182.252H219.984C221.098 182.252 222.023 181.462 222.179 180.438H202.299C202.163 180.438 202.04 180.355 201.996 180.232L193.439 156.182C192.978 155.528 192.202 155.139 191.355 155.139H168.51C168.124 155.139 167.78 155.307 167.568 155.601C167.367 155.88 167.321 156.229 167.442 156.534L167.556 156.818C167.655 157.058 167.758 157.307 167.844 157.561L175.579 180.048ZM219.984 182.859H177.824C176.3 182.859 175.032 181.689 174.974 180.24L167.239 157.751C167.157 157.512 167.059 157.272 166.963 157.039L166.847 156.751C166.65 156.257 166.724 155.7 167.043 155.256C167.378 154.796 167.911 154.531 168.51 154.531H191.355C192.431 154.531 193.419 155.037 193.993 155.882C194.008 155.903 194.02 155.926 194.028 155.951L202.526 179.83H222.519C222.696 179.83 222.838 179.966 222.838 180.134C222.838 181.637 221.557 182.859 219.984 182.859Z" fill="black"/>
<path d="M185.317 167.18C185.639 168.2 185.147 169.244 184.217 169.512C183.288 169.779 182.274 169.169 181.952 168.149C181.63 167.129 182.122 166.085 183.052 165.817C183.98 165.55 184.995 166.16 185.317 167.18Z" fill="black"/>
<path d="M109.067 182.9H66.9112C65.7596 182.9 64.8262 182.01 64.8262 180.912V180.529H111.152V180.912C111.152 182.01 110.22 182.9 109.067 182.9Z" fill="white"/>
<path d="M65.1467 180.832V180.912C65.1467 181.841 65.9393 182.596 66.9133 182.596H109.069C110.043 182.596 110.837 181.841 110.837 180.912V180.832H65.1467ZM109.069 183.204H66.9133C65.588 183.204 64.5098 182.176 64.5098 180.912V180.529C64.5098 180.361 64.6523 180.225 64.8282 180.225H111.154C111.33 180.225 111.473 180.361 111.473 180.529V180.912C111.473 182.176 110.395 183.204 109.069 183.204Z" fill="black"/>
<path d="M111.155 180.571H84.6465L93.0687 156.93C93.5727 156.191 94.4507 155.743 95.3946 155.743H117.803C118.82 155.743 119.475 156.683 119.143 157.514C119.01 157.844 118.868 158.17 118.753 158.505L111.155 180.571Z" fill="white"/>
<path d="M85.0912 180.267H110.925L118.45 158.411C118.535 158.163 118.635 157.919 118.733 157.683L118.844 157.405C118.964 157.108 118.919 156.768 118.723 156.498C118.515 156.21 118.181 156.045 117.803 156.045H95.3947C94.5666 156.045 93.808 156.426 93.3571 157.065L85.0912 180.267ZM111.155 180.875H84.6466C84.544 180.875 84.4475 180.828 84.3877 180.748C84.328 180.668 84.3119 180.566 84.3451 180.473L92.7673 156.832C92.7758 156.809 92.7874 156.786 92.8018 156.765C93.3677 155.935 94.337 155.439 95.3947 155.439H117.803C118.392 155.439 118.919 155.699 119.248 156.153C119.562 156.588 119.634 157.138 119.441 157.622L119.325 157.904C119.232 158.132 119.136 158.368 119.056 158.601L111.457 180.667C111.415 180.791 111.292 180.875 111.155 180.875Z" fill="black"/>
<path d="M101.318 167.837C101.001 168.837 101.485 169.859 102.396 170.123C103.307 170.384 104.302 169.787 104.618 168.787C104.934 167.788 104.451 166.765 103.54 166.502C102.627 166.24 101.634 166.837 101.318 167.837Z" fill="black"/>
<path d="M256.773 257.566H213.364C210.758 257.566 208.809 255.284 209.334 252.852L215.92 222.324C216.473 219.756 218.844 217.914 221.591 217.914H258.826L256.773 257.566Z" fill="white"/>
<path d="M221.591 218.218C219.006 218.218 216.752 219.971 216.232 222.384L209.646 252.911C209.415 253.982 209.698 255.082 210.423 255.929C211.145 256.776 212.218 257.262 213.364 257.262H256.47L258.491 218.218H221.591ZM256.773 257.868H213.364C212.026 257.868 210.774 257.301 209.928 256.313C209.083 255.324 208.752 254.039 209.021 252.79L215.607 222.263C216.189 219.567 218.705 217.61 221.591 217.61H258.826C258.913 217.61 258.995 217.644 259.056 217.704C259.116 217.765 259.147 217.846 259.144 217.929L257.09 257.579C257.083 257.742 256.942 257.868 256.773 257.868Z" fill="black"/>
<path d="M262.329 257.566H253.906C251.3 257.566 249.349 255.284 249.875 252.851L257.129 219.227C257.294 218.462 258 217.914 258.817 217.914H260.984C261.883 217.914 262.631 218.571 262.703 219.425L265.67 254.109C265.829 255.97 264.287 257.566 262.329 257.566Z" fill="white"/>
<path d="M258.819 218.218C258.155 218.218 257.576 218.668 257.443 219.288L250.189 252.911C249.957 253.982 250.24 255.082 250.963 255.929C251.689 256.776 252.761 257.261 253.907 257.261H262.33C263.189 257.261 263.979 256.93 264.561 256.329C265.141 255.727 265.422 254.948 265.354 254.133L262.387 219.449C262.328 218.759 261.712 218.218 260.986 218.218H258.819ZM262.33 257.868H253.907C252.569 257.868 251.314 257.301 250.47 256.312C249.625 255.324 249.294 254.039 249.566 252.79L256.819 219.165C257.013 218.264 257.853 217.61 258.819 217.61H260.986C262.041 217.61 262.936 218.396 263.021 219.4L265.989 254.084C266.072 255.055 265.722 256.023 265.031 256.74C264.337 257.458 263.352 257.868 262.33 257.868Z" fill="black"/>
<path d="M250.857 234.242H216.871C216.694 234.242 216.553 234.106 216.553 233.938C216.553 233.771 216.694 233.634 216.871 233.634H250.857C251.723 233.634 252.464 233.075 252.663 232.273L255.66 220.213C255.701 220.049 255.872 219.95 256.043 219.988C256.214 220.026 256.319 220.19 256.279 220.353L253.284 232.414C253.017 233.49 252.019 234.242 250.857 234.242Z" fill="black"/>
<path d="M237.739 233.938L236.786 237.6C236.632 238.22 236.054 238.658 235.385 238.658H228.654C227.92 238.658 227.389 237.991 227.586 237.318L228.572 233.938H237.739Z" fill="white"/>
<path d="M228.814 234.243L227.895 237.4C227.827 237.629 227.876 237.867 228.026 238.057C228.175 238.245 228.406 238.354 228.655 238.354H235.386C235.909 238.354 236.356 238.016 236.477 237.53L237.332 234.243H228.814ZM235.386 238.961H228.655C228.204 238.961 227.791 238.766 227.518 238.424C227.246 238.083 227.158 237.651 227.281 237.237L228.266 233.857C228.304 233.726 228.431 233.634 228.572 233.634H237.74C237.836 233.634 237.93 233.678 237.99 233.752C238.051 233.825 238.072 233.921 238.049 234.012L237.096 237.674C236.91 238.431 236.204 238.961 235.386 238.961Z" fill="black"/>
<path d="M247.755 254.802H211.649C211.473 254.802 211.33 254.665 211.33 254.499C211.33 254.33 211.473 254.195 211.649 254.195H247.755C247.931 254.195 248.072 254.33 248.072 254.499C248.072 254.665 247.931 254.802 247.755 254.802Z" fill="black"/>
<path d="M230.17 216.528H227.351C226.589 216.528 225.973 217.117 225.973 217.843H231.548C231.548 217.117 230.93 216.528 230.17 216.528Z" fill="black"/>
<path d="M226.335 217.539H231.176C231.041 217.13 230.638 216.833 230.165 216.833H227.346C226.873 216.833 226.472 217.13 226.335 217.539ZM231.543 218.147H225.968C225.792 218.147 225.648 218.011 225.648 217.843C225.648 216.951 226.411 216.225 227.346 216.225H230.165C231.1 216.225 231.863 216.951 231.863 217.843C231.863 218.011 231.719 218.147 231.543 218.147Z" fill="black"/>
<path d="M252.755 216.528H249.935C249.174 216.528 248.557 217.118 248.557 217.843H254.133C254.133 217.118 253.515 216.528 252.755 216.528Z" fill="black"/>
<path d="M248.926 217.539H253.767C253.632 217.13 253.229 216.832 252.755 216.832H249.938C249.464 216.832 249.062 217.13 248.926 217.539ZM254.135 218.147H248.559C248.383 218.147 248.24 218.011 248.24 217.843C248.24 216.951 249.001 216.224 249.938 216.224H252.755C253.69 216.224 254.453 216.951 254.453 217.843C254.453 218.011 254.311 218.147 254.135 218.147Z" fill="black"/>
<path d="M252.017 216.458L252.472 213.886C252.794 212.061 251.504 210.582 249.59 210.582H232.691C230.778 210.582 228.966 212.061 228.644 213.886L228.189 216.458H229.483L229.836 214.456C230.087 213.036 231.497 211.885 232.987 211.885H248.835C250.325 211.885 251.328 213.036 251.079 214.456L250.726 216.458H252.017Z" fill="white"/>
<path d="M251.104 216.153H251.752L252.16 213.835C252.302 213.033 252.109 212.286 251.616 211.729C251.131 211.185 250.414 210.885 249.593 210.885H232.693C230.932 210.885 229.258 212.253 228.961 213.936L228.568 216.153H229.216L229.525 214.405C229.8 212.848 231.355 211.581 232.989 211.581H248.838C249.646 211.581 250.359 211.882 250.846 212.429C251.339 212.985 251.534 213.723 251.395 214.506L251.104 216.153ZM252.02 216.761H250.727C250.633 216.761 250.545 216.722 250.485 216.654C250.425 216.585 250.398 216.496 250.412 216.407L250.767 214.405C250.873 213.801 250.729 213.238 250.358 212.82C249.997 212.413 249.457 212.188 248.838 212.188H232.989C231.65 212.188 230.379 213.228 230.153 214.506L229.8 216.508C229.775 216.654 229.642 216.761 229.485 216.761H228.193C228.098 216.761 228.009 216.722 227.949 216.654C227.887 216.585 227.862 216.496 227.878 216.407L228.333 213.835C228.679 211.874 230.636 210.278 232.693 210.278H249.593C250.605 210.278 251.495 210.653 252.102 211.337C252.719 212.032 252.963 212.954 252.79 213.936L252.335 216.508C252.309 216.654 252.176 216.761 252.02 216.761Z" fill="black"/>
<path d="M248.754 209.517H233.907C233.31 209.517 232.744 209.979 232.642 210.55L232.424 211.787C232.323 212.357 232.726 212.82 233.326 212.82H248.171C248.769 212.82 249.336 212.357 249.437 211.787L249.654 210.55C249.755 209.979 249.352 209.517 248.754 209.517Z" fill="black"/>
<path d="M233.906 209.82C233.464 209.82 233.028 210.178 232.954 210.6L232.736 211.837C232.702 212.026 232.745 212.199 232.859 212.325C232.967 212.448 233.131 212.515 233.324 212.515H248.169C248.61 212.515 249.046 212.158 249.12 211.736L249.338 210.499C249.371 210.31 249.329 210.137 249.218 210.01C249.108 209.887 248.942 209.82 248.751 209.82H233.906ZM248.169 213.123H233.324C232.942 213.123 232.603 212.979 232.372 212.718C232.136 212.452 232.044 212.105 232.107 211.736L232.327 210.499C232.453 209.778 233.147 209.214 233.906 209.214H248.751C249.133 209.214 249.472 209.357 249.704 209.617C249.938 209.883 250.032 210.232 249.966 210.6L249.749 211.837C249.619 212.557 248.927 213.123 248.169 213.123Z" fill="black"/>
<path d="M253.826 254.802C253.716 254.802 253.608 254.747 253.55 254.649C253.463 254.503 253.515 254.318 253.669 254.234L259.326 251.161V220.284C259.326 220.117 259.468 219.98 259.645 219.98C259.82 219.98 259.964 220.117 259.964 220.284V251.337C259.964 251.446 259.902 251.547 259.803 251.601L253.982 254.762C253.934 254.789 253.88 254.802 253.826 254.802Z" fill="black"/>
</g>
<defs>
<filter id="filter0_d_292_3302" x="0" y="0" width="270" height="271" filterUnits="userSpaceOnUse" color-interpolation-filters="sRGB">
<feFlood flood-opacity="0" result="BackgroundImageFix"/>
<feColorMatrix in="SourceAlpha" type="matrix" values="0 0 0 0 0 0 0 0 0 0 0 0 0 0 0 0 0 0 127 0" result="hardAlpha"/>
<feOffset dy="4"/>
<feGaussianBlur stdDeviation="2"/>
<feComposite in2="hardAlpha" operator="out"/>
<feColorMatrix type="matrix" values="0 0 0 0 0 0 0 0 0 0 0 0 0 0 0 0 0 0 0.25 0"/>
<feBlend mode="normal" in2="BackgroundImageFix" result="effect1_dropShadow_292_3302"/>
<feBlend mode="normal" in="SourceGraphic" in2="effect1_dropShadow_292_3302" result="shape"/>
</filter>
</defs>
</svg>
