<svg width="143" height="200" viewBox="0 0 143 200" fill="none" xmlns="http://www.w3.org/2000/svg">
<path opacity="0.06" d="M55.1335 197.672L55.126 197.668L55.1184 197.664C22.2916 179.112 1.99265 144.301 2 106.568C2.01144 48.8035 48.8067 1.98857 106.516 2.00001L106.518 2.00001C144.239 1.98121 179.043 22.3123 197.579 55.1953C225.938 105.505 208.179 169.298 157.916 197.681L157.912 197.683C157.546 197.89 157.133 198 156.713 198C156.501 198 156.288 197.97 156.082 197.91L156.074 197.908L156.066 197.906C155.447 197.732 154.921 197.32 154.603 196.759C154.603 196.759 154.602 196.758 154.602 196.758L121.843 138.654L121.842 138.654C121.18 137.48 121.592 135.992 122.76 135.328C128.053 132.352 132.426 127.976 135.398 122.678C144.343 106.74 138.685 86.5616 122.759 77.6082C106.832 68.6542 86.669 74.3196 77.724 90.2587C68.7801 106.196 74.4366 126.373 90.3604 135.327C91.5294 135.991 91.9424 137.479 91.2798 138.654C91.2798 138.654 91.2798 138.654 91.2797 138.654L58.4339 196.753C58.4337 196.754 58.4335 196.754 58.4333 196.755C58.1147 197.313 57.5888 197.723 56.9701 197.896L56.9618 197.899C56.347 198.073 55.6877 197.992 55.1335 197.672Z" stroke="#4CAF50" stroke-width="4"/>
</svg>
