<svg width="20" height="28" viewBox="0 0 20 28" fill="none" xmlns="http://www.w3.org/2000/svg">
<path d="M9.84375 0C4.41591 0 0 4.41591 0 9.84375C0 11.6776 0.507992 13.4673 1.4694 15.02L9.28342 27.6122C9.4331 27.8534 9.6968 28 9.98041 28C9.9826 28 9.98474 28 9.98692 28C10.273 27.9978 10.5372 27.8467 10.6842 27.6012L18.299 14.887C19.2074 13.3672 19.6875 11.6232 19.6875 9.84375C19.6875 4.41591 15.2716 0 9.84375 0ZM16.8911 14.0447L9.968 25.6039L2.86382 14.1556C2.06358 12.8633 1.62969 11.3723 1.62969 9.84375C1.62969 5.32055 5.32055 1.62969 9.84375 1.62969C14.367 1.62969 18.0523 5.32055 18.0523 9.84375C18.0523 11.3269 17.6471 12.7798 16.8911 14.0447Z" fill="#2C2C2C"/>
<path d="M9.84375 4.92188C7.12983 4.92188 4.92188 7.12983 4.92188 9.84375C4.92188 12.5403 7.0939 14.7656 9.84375 14.7656C12.6275 14.7656 14.7656 12.5107 14.7656 9.84375C14.7656 7.12983 12.5577 4.92188 9.84375 4.92188ZM9.84375 13.1359C8.02501 13.1359 6.55156 11.6576 6.55156 9.84375C6.55156 8.03447 8.03447 6.55156 9.84375 6.55156C11.653 6.55156 13.1305 8.03447 13.1305 9.84375C13.1305 11.6311 11.6913 13.1359 9.84375 13.1359Z" fill="#2C2C2C"/>
</svg>
