<svg width="30" height="36" viewBox="0 0 30 36" fill="none" xmlns="http://www.w3.org/2000/svg">
<g filter="url(#filter0_d_392_946)">
<mask id="path-1-inside-1_392_946" fill="white">
<path d="M15 28C14.8904 27.999 14.7839 27.9641 14.695 27.9C14.26 27.565 4 19.65 4 11C4 8.08262 5.15893 5.28473 7.22183 3.22183C9.28473 1.15893 12.0826 0 15 0C17.9174 0 20.7153 1.15893 22.7782 3.22183C24.8411 5.28473 26 8.08262 26 11C26 19.65 15.74 27.565 15.305 27.9C15.2161 27.9641 15.1096 27.999 15 28ZM15 1C12.3478 1 9.8043 2.05357 7.92893 3.92893C6.05357 5.8043 5 8.34784 5 11C5 18.355 13.295 25.5 15 26.86C16.705 25.5 25 18.35 25 11C25 8.34784 23.9464 5.8043 22.0711 3.92893C20.1957 2.05357 17.6522 1 15 1Z"/>
</mask>
<path d="M15 28C14.8904 27.999 14.7839 27.9641 14.695 27.9C14.26 27.565 4 19.65 4 11C4 8.08262 5.15893 5.28473 7.22183 3.22183C9.28473 1.15893 12.0826 0 15 0C17.9174 0 20.7153 1.15893 22.7782 3.22183C24.8411 5.28473 26 8.08262 26 11C26 19.65 15.74 27.565 15.305 27.9C15.2161 27.9641 15.1096 27.999 15 28ZM15 1C12.3478 1 9.8043 2.05357 7.92893 3.92893C6.05357 5.8043 5 8.34784 5 11C5 18.355 13.295 25.5 15 26.86C16.705 25.5 25 18.35 25 11C25 8.34784 23.9464 5.8043 22.0711 3.92893C20.1957 2.05357 17.6522 1 15 1Z" fill="black"/>
<path d="M15 28L14.8989 38.9995L15 39.0005L15.1011 38.9995L15 28ZM14.695 27.9L7.98334 36.6151L8.12188 36.7218L8.26374 36.8241L14.695 27.9ZM15 0V-11V0ZM15.305 27.9L21.7363 36.8241L21.8781 36.7218L22.0167 36.6151L15.305 27.9ZM5 11H-6H5ZM15 26.86L8.14066 35.4594L15 40.9308L21.8593 35.4594L15 26.86ZM25 11H36H25ZM15.1011 17.0005C17.2654 17.0204 19.3703 17.7105 21.1263 18.9759L8.26374 36.8241C10.1974 38.2176 12.5155 38.9776 14.8989 38.9995L15.1011 17.0005ZM21.4067 19.1849C21.4032 19.1822 21.3807 19.1649 21.3351 19.1288C21.2865 19.0903 21.2081 19.0275 21.1042 18.9419C20.8955 18.77 20.5874 18.5091 20.2147 18.1723C19.4544 17.4855 18.5001 16.5504 17.5887 15.4711C16.6579 14.3689 15.9337 13.3064 15.4749 12.3764C15.2539 11.9283 15.1294 11.5808 15.0633 11.3355C14.9986 11.0953 15 10.9912 15 11H-7C-7 19.3536 -2.27359 26.049 0.780064 29.6651C4.13719 33.6407 7.518 36.2568 7.98334 36.6151L21.4067 19.1849ZM15 11L-0.556349 -4.55635C-4.68215 -0.430549 -7 5.16524 -7 11H15ZM15 11V-11C9.16524 -11 3.56945 -8.68215 -0.556349 -4.55635L15 11ZM15 11H15L30.5564 -4.55635C26.4305 -8.68215 20.8348 -11 15 -11V11ZM15 11H15H37C37 5.16524 34.6822 -0.430548 30.5564 -4.55635L15 11ZM15 11C15 10.9912 15.0014 11.0953 14.9367 11.3355C14.8706 11.5808 14.7461 11.9283 14.5251 12.3764C14.0663 13.3064 13.3421 14.3689 12.4113 15.4711C11.4999 16.5504 10.5456 17.4855 9.78534 18.1723C9.41259 18.5091 9.10452 18.77 8.89575 18.9419C8.7919 19.0275 8.71352 19.0903 8.66494 19.1288C8.61933 19.1649 8.59683 19.1822 8.59334 19.1849L22.0167 36.6151C22.482 36.2568 25.8628 33.6407 29.2199 29.6651C32.2736 26.049 37 19.3536 37 11H15ZM8.87374 18.9759C10.6297 17.7105 12.7346 17.0204 14.8989 17.0005L15.1011 38.9995C17.4845 38.9776 19.8026 38.2176 21.7363 36.8241L8.87374 18.9759ZM15 -10C9.43045 -10 4.08902 -7.78751 0.150758 -3.84924L15.7071 11.7071C15.5196 11.8946 15.2652 12 15 12V-10ZM0.150758 -3.84924C-3.78751 0.0890216 -6 5.43045 -6 11H16C16 11.2652 15.8946 11.5196 15.7071 11.7071L0.150758 -3.84924ZM-6 11C-6 18.4961 -1.97638 24.5951 0.751205 28.0249C3.73237 31.7735 6.91229 34.4796 8.14066 35.4594L21.8593 18.2606C21.3827 17.8804 19.5626 16.334 17.97 14.3314C17.1883 13.3484 16.6284 12.4624 16.2927 11.7422C15.951 11.0092 16 10.7904 16 11H-6ZM21.8593 35.4594C23.09 34.4777 26.2693 31.7704 29.2495 28.0221C31.9755 24.5936 36 18.4943 36 11H14C14 10.7881 14.0496 11.006 13.7075 11.7396C13.3716 12.4602 12.8113 13.3467 12.0292 14.3304C10.4357 16.3346 8.61496 17.8823 8.14066 18.2606L21.8593 35.4594ZM36 11C36 5.43045 33.7875 0.0890216 29.8492 -3.84924L14.2929 11.7071C14.1054 11.5196 14 11.2652 14 11H36ZM29.8492 -3.84924C25.911 -7.78751 20.5695 -10 15 -10V12C14.7348 12 14.4804 11.8946 14.2929 11.7071L29.8492 -3.84924Z" fill="black" mask="url(#path-1-inside-1_392_946)"/>
</g>
<mask id="path-3-inside-2_392_946" fill="white">
<path d="M15 16.5C13.9122 16.5 12.8488 16.1774 11.9444 15.5731C11.0399 14.9687 10.3349 14.1098 9.91867 13.1048C9.50238 12.0998 9.39346 10.9939 9.60568 9.92701C9.8179 8.86011 10.3417 7.8801 11.1109 7.11091C11.8801 6.34173 12.8601 5.8179 13.927 5.60568C14.9939 5.39346 16.0998 5.50238 17.1048 5.91867C18.1098 6.33495 18.9687 7.0399 19.5731 7.94437C20.1774 8.84884 20.5 9.91221 20.5 11C20.5 12.4587 19.9205 13.8576 18.8891 14.8891C17.8576 15.9205 16.4587 16.5 15 16.5ZM15 6.5C14.11 6.5 13.24 6.76392 12.4999 7.25839C11.7599 7.75286 11.1831 8.45566 10.8425 9.27793C10.5019 10.1002 10.4128 11.005 10.5865 11.8779C10.7601 12.7508 11.1887 13.5526 11.818 14.182C12.4474 14.8113 13.2492 15.2399 14.1221 15.4135C14.995 15.5872 15.8998 15.4981 16.7221 15.1575C17.5443 14.8169 18.2471 14.2401 18.7416 13.5001C19.2361 12.76 19.5 11.89 19.5 11C19.5 9.80653 19.0259 8.66194 18.182 7.81802C17.3381 6.97411 16.1935 6.5 15 6.5Z"/>
</mask>
<path d="M15 16.5C13.9122 16.5 12.8488 16.1774 11.9444 15.5731C11.0399 14.9687 10.3349 14.1098 9.91867 13.1048C9.50238 12.0998 9.39346 10.9939 9.60568 9.92701C9.8179 8.86011 10.3417 7.8801 11.1109 7.11091C11.8801 6.34173 12.8601 5.8179 13.927 5.60568C14.9939 5.39346 16.0998 5.50238 17.1048 5.91867C18.1098 6.33495 18.9687 7.0399 19.5731 7.94437C20.1774 8.84884 20.5 9.91221 20.5 11C20.5 12.4587 19.9205 13.8576 18.8891 14.8891C17.8576 15.9205 16.4587 16.5 15 16.5ZM15 6.5C14.11 6.5 13.24 6.76392 12.4999 7.25839C11.7599 7.75286 11.1831 8.45566 10.8425 9.27793C10.5019 10.1002 10.4128 11.005 10.5865 11.8779C10.7601 12.7508 11.1887 13.5526 11.818 14.182C12.4474 14.8113 13.2492 15.2399 14.1221 15.4135C14.995 15.5872 15.8998 15.4981 16.7221 15.1575C17.5443 14.8169 18.2471 14.2401 18.7416 13.5001C19.2361 12.76 19.5 11.89 19.5 11C19.5 9.80653 19.0259 8.66194 18.182 7.81802C17.3381 6.97411 16.1935 6.5 15 6.5Z" fill="black"/>
<path d="M19.5 11H30.5H19.5ZM15 5.5C16.0878 5.5 17.1512 5.82257 18.0556 6.42692L5.83309 24.7192C8.5465 26.5323 11.7366 27.5 15 27.5V5.5ZM18.0556 6.42692C18.9601 7.03127 19.6651 7.89025 20.0813 8.89524L-0.24401 17.3143C1.00484 20.3293 3.11968 22.9062 5.83309 24.7192L18.0556 6.42692ZM20.0813 8.89524C20.4976 9.90024 20.6065 11.0061 20.3943 12.073L-1.18295 7.78101C-1.81961 10.9817 -1.49286 14.2993 -0.24401 17.3143L20.0813 8.89524ZM20.3943 12.073C20.1821 13.1399 19.6583 14.1199 18.8891 14.8891L3.33274 -0.66726C1.02517 1.64031 -0.5463 4.58033 -1.18295 7.78101L20.3943 12.073ZM18.8891 14.8891C18.1199 15.6583 17.1399 16.1821 16.073 16.3943L11.781 -5.18295C8.58033 -4.5463 5.64031 -2.97483 3.33274 -0.66726L18.8891 14.8891ZM16.073 16.3943C15.0061 16.6065 13.9002 16.4976 12.8952 16.0813L21.3143 -4.24401C18.2993 -5.49286 14.9817 -5.81961 11.781 -5.18295L16.073 16.3943ZM12.8952 16.0813C11.8902 15.6651 11.0313 14.9601 10.4269 14.0556L28.7192 1.83309C26.9062 -0.880314 24.3293 -2.99516 21.3143 -4.24401L12.8952 16.0813ZM10.4269 14.0556C9.82257 13.1512 9.5 12.0878 9.5 11H31.5C31.5 7.7366 30.5323 4.5465 28.7192 1.83309L10.4269 14.0556ZM9.5 11C9.5 9.54132 10.0795 8.14237 11.1109 7.11092L26.6673 22.6673C29.7616 19.5729 31.5 15.3761 31.5 11H9.5ZM11.1109 7.11092C12.1424 6.07946 13.5413 5.5 15 5.5V27.5C19.3761 27.5 23.5729 25.7616 26.6673 22.6673L11.1109 7.11092ZM15 -4.5C11.9344 -4.5 8.93763 -3.59094 6.38866 -1.88778L18.6112 16.4046C17.5423 17.1188 16.2856 17.5 15 17.5V-4.5ZM6.38866 -1.88778C3.8397 -0.184617 1.85303 2.23615 0.679869 5.06841L21.0052 13.4874C20.5132 14.6752 19.6801 15.6903 18.6112 16.4046L6.38866 -1.88778ZM0.679869 5.06841C-0.49329 7.90066 -0.800241 11.0172 -0.20217 14.0239L21.3751 9.73192C21.6259 10.9928 21.4972 12.2997 21.0052 13.4874L0.679869 5.06841ZM-0.20217 14.0239C0.395902 17.0306 1.87214 19.7924 4.03985 21.9602L19.5962 6.40381C20.5052 7.31285 21.1243 8.47103 21.3751 9.73192L-0.20217 14.0239ZM4.03985 21.9602C6.20755 24.1279 8.96939 25.6041 11.9761 26.2022L16.2681 4.6249C17.529 4.8757 18.6872 5.49477 19.5962 6.40381L4.03985 21.9602ZM11.9761 26.2022C14.9828 26.8002 18.0993 26.4933 20.9316 25.3201L12.5126 4.99479C13.7003 4.50282 15.0072 4.37409 16.2681 4.6249L11.9761 26.2022ZM20.9316 25.3201C23.7638 24.147 26.1846 22.1603 27.8878 19.6113L9.59545 7.3888C10.3097 6.31987 11.3248 5.48675 12.5126 4.99479L20.9316 25.3201ZM27.8878 19.6113C29.5909 17.0624 30.5 14.0656 30.5 11H8.5C8.5 9.71443 8.88122 8.45772 9.59545 7.3888L27.8878 19.6113ZM30.5 11C30.5 6.88914 28.867 2.94666 25.9602 0.0398479L10.4038 15.5962C9.18482 14.3772 8.5 12.7239 8.5 11H30.5ZM25.9602 0.0398479C23.0533 -2.86696 19.1109 -4.5 15 -4.5V17.5C13.2761 17.5 11.6228 16.8152 10.4038 15.5962L25.9602 0.0398479Z" fill="black" mask="url(#path-3-inside-2_392_946)"/>
<defs>
<filter id="filter0_d_392_946" x="0" y="0" width="30" height="36" filterUnits="userSpaceOnUse" color-interpolation-filters="sRGB">
<feFlood flood-opacity="0" result="BackgroundImageFix"/>
<feColorMatrix in="SourceAlpha" type="matrix" values="0 0 0 0 0 0 0 0 0 0 0 0 0 0 0 0 0 0 127 0" result="hardAlpha"/>
<feOffset dy="4"/>
<feGaussianBlur stdDeviation="2"/>
<feComposite in2="hardAlpha" operator="out"/>
<feColorMatrix type="matrix" values="0 0 0 0 0 0 0 0 0 0 0 0 0 0 0 0 0 0 0.25 0"/>
<feBlend mode="normal" in2="BackgroundImageFix" result="effect1_dropShadow_392_946"/>
<feBlend mode="normal" in="SourceGraphic" in2="effect1_dropShadow_392_946" result="shape"/>
</filter>
</defs>
</svg>
