<svg width="200" height="200" viewBox="0 0 200 200" fill="none" xmlns="http://www.w3.org/2000/svg">
<g opacity="0.06">
<path d="M100 200C155.228 200 200 155.228 200 100C200 44.7715 155.228 0 100 0C44.7715 0 0 44.7715 0 100C0 155.228 44.7715 200 100 200Z" fill="url(#paint0_linear_155_1070)"/>
<path fill-rule="evenodd" clip-rule="evenodd" d="M110.587 108.738C110.986 109.687 111.247 110.582 111.632 111.432C113.184 114.847 115.741 117.314 118.891 119.229C121.058 120.547 123.379 121.539 125.761 122.394C126.916 122.807 126.913 122.787 126.211 123.774C123.664 127.356 120.5 130.278 116.751 132.558C113.987 134.238 111.016 135.427 107.9 136.331C103.236 137.683 98.4735 137.827 93.7135 137.512C88.2507 137.149 83.0846 135.547 78.3696 132.71C73.0068 129.483 68.8774 125.078 66.0396 119.48C65.2679 117.958 64.669 116.376 64.0674 114.777C63.1946 112.463 62.6324 110.098 62.254 107.681C61.7407 104.389 61.5674 101.081 61.8313 97.7433C62.0057 95.5328 62.2596 93.3378 62.7479 91.18C64.0113 85.5906 66.3251 80.4983 69.994 76.0506C73.1279 72.2506 76.944 69.3411 81.3901 67.2644C83.6546 66.2067 86.0324 65.4739 88.4729 64.8789C91.2335 64.2056 94.0363 63.9722 96.8368 63.8761C99.2296 63.795 101.635 64.0339 104.022 64.4322C105.926 64.75 107.782 65.1906 109.615 65.7767C112.584 66.7267 115.391 68.0056 117.972 69.7722C121.861 72.4344 125.065 75.7467 127.543 79.7578C129.363 82.7039 130.733 85.8494 131.623 89.1928C132.51 92.5256 133.161 95.9011 133.054 99.3706C132.977 101.906 134.312 103.449 136.442 104.496C138.458 105.486 140.593 106.129 142.762 106.682C144.811 107.203 146.843 107.789 148.898 108.282C150.651 108.702 152.394 109.154 154.113 109.688C159.066 111.226 163.822 113.128 167.503 117C169.786 119.403 171.153 122.227 171.78 125.494C172.266 128.024 172.295 130.539 171.951 133.044C171.114 139.16 168.236 144.079 163.117 147.644C160.282 149.618 157.185 150.964 153.887 151.945C151.039 152.792 148.132 153.366 145.19 153.562C142.488 153.743 139.79 154.099 137.04 153.733C135.188 153.487 133.301 153.4 131.461 153.047C126.182 152.035 121.215 150.237 116.966 146.836C113.943 144.418 111.661 141.422 110.27 137.774C110.101 137.329 110.141 137.141 110.599 136.969C112.717 136.18 114.786 135.275 116.751 134.147C119.203 132.74 121.463 131.076 123.447 129.059C123.965 128.533 124.491 128.314 125.226 128.342C126.672 128.394 128.122 128.391 129.569 128.344C130.275 128.321 130.425 128.578 130.48 129.252C130.689 131.788 131.205 134.218 133.37 135.923C134.489 136.804 135.771 137.307 137.142 137.623C139.398 138.141 141.696 138.267 143.957 137.877C146.261 137.478 148.517 136.754 149.67 134.437C150.941 131.882 150.57 129.49 147.725 127.978C145.871 126.993 143.868 126.412 141.874 125.806C139.599 125.113 137.321 124.429 135.039 123.762C133.403 123.282 131.751 122.856 130.117 122.367C125.845 121.087 121.628 119.659 117.988 116.976C115.103 114.85 113.01 112.142 112.065 108.612C111.677 107.164 111.447 105.712 111.382 104.214C111.293 102.141 111.385 100.056 111.208 97.9972C110.853 93.8922 110.007 89.91 107.406 86.5233C105.652 84.24 103.375 82.685 100.613 82.0239C95.909 80.9006 91.7524 82.0467 88.3324 85.535C86.5779 87.3256 85.5113 89.5228 84.7896 91.9C83.7935 95.1811 83.399 98.56 83.5713 101.959C83.7724 105.932 84.3168 109.86 86.3824 113.404C88.1324 116.409 90.5751 118.546 93.969 119.419C98.1235 120.488 102 119.875 105.388 117.115C107.714 115.217 109.156 112.721 110.025 109.873C110.135 109.508 110.202 109.121 110.587 108.738Z" fill="white"/>
<path fill-rule="evenodd" clip-rule="evenodd" d="M158.854 103.24C155.765 103.24 152.677 103.242 149.589 103.239C148.609 103.239 148.587 103.233 148.607 102.287C148.653 100.151 147.577 98.6795 145.921 97.4778C143.273 95.555 140.369 95.5673 137.357 96.21C136.529 96.3867 135.733 96.645 135.018 97.1111C134.586 97.395 134.306 97.2945 134.314 96.7756C134.335 95.4878 134.019 94.2462 133.84 92.9867C133.548 90.9378 132.99 88.9517 132.372 86.9817C131.809 85.1878 131.042 83.4762 130.25 81.7773C130.012 81.265 130.254 81.1239 130.661 81.0278C135.287 79.9373 139.975 79.9773 144.674 80.2745C147.105 80.4273 149.499 80.8489 151.84 81.4967C157.06 82.9406 161.672 85.3984 164.994 89.8317C166.551 91.9095 167.633 94.2312 168.274 96.7628C168.743 98.61 169.122 100.458 169.135 102.376C169.14 103.041 168.927 103.257 168.266 103.252C165.129 103.226 161.992 103.24 158.854 103.24Z" fill="white"/>
<path fill-rule="evenodd" clip-rule="evenodd" d="M57.4379 66.1033C58.8846 66.1077 60.2424 66.2799 61.5896 66.6305C64.2568 67.3233 66.3457 68.8755 67.9779 71.3738C68.3463 71.9366 68.6668 72.546 68.9079 73.1744C68.9729 73.3455 69.0335 73.5177 69.1068 73.6844C69.1807 73.8538 69.2624 74.0616 69.4079 74.1816C69.5501 74.2994 69.7868 74.2427 69.9218 74.1338C70.0968 73.9927 70.2479 73.8016 70.4057 73.6416C70.5679 73.4771 70.729 73.3133 70.8907 73.1505C71.2146 72.826 71.5407 72.5044 71.8718 72.1871C72.529 71.5577 73.2052 70.9488 73.9057 70.3677C74.6029 69.7894 75.3224 69.2399 76.0674 68.7249C76.8129 68.2071 77.5829 67.7266 78.3718 67.2794C79.1657 66.8288 79.9785 66.4144 80.7935 66.0066C80.8913 65.9571 80.9885 65.9044 81.0874 65.8583C82.249 65.3221 83.4363 64.8449 84.6452 64.4244C85.4207 64.1549 85.0007 64.3138 86.2646 63.7438C87.0268 63.3999 85.7968 61.3421 85.3635 60.6766C84.3501 59.1171 83.384 57.5071 82.2085 56.0627C80.1679 53.5533 77.7057 51.4088 74.8602 49.856C73.7029 49.2238 72.4752 48.7033 71.2285 48.2716C67.2718 46.9027 62.9785 46.2127 58.1035 46.1621C54.5385 46.126 50.6152 46.1066 45.759 46.1066C43.3457 46.1066 40.9324 46.1055 38.5196 46.1094C36.1085 46.1138 33.6979 46.1094 31.2868 46.1094H30.6379C29.6951 46.1094 29.1602 46.1183 28.5574 46.7383C27.9707 47.341 28.1813 48.0844 28.1813 49.0305V86.3038C28.1813 86.3038 27.9696 110.22 27.9707 118.51C27.9713 120.56 28.524 121.22 30.574 121.22C33.0518 121.222 35.4768 121.225 37.954 121.228C40.5624 121.231 43.1435 121.234 45.7507 121.234C50.1535 121.234 53.7385 121.225 57.0607 121.208C59.1163 121.197 63.9074 120.801 63.9074 120.801C65.1063 120.523 62.1368 115.347 61.124 110.084C60.0418 104.462 60.6696 101.108 59.3185 101.19C58.6307 101.233 57.4518 101.338 56.7213 101.35C55.8329 101.364 54.889 101.37 53.759 101.37C52.8668 101.37 51.9613 101.366 51.0696 101.362C50.5218 101.359 49.2924 101.355 49.2924 101.355V83.7822L49.3146 79.4416C49.3174 75.0594 49.3401 70.5321 49.3196 66.0705C51.2468 66.0999 53.1963 66.0999 55.0824 66.1005C55.8674 66.1016 56.6535 66.1016 57.4379 66.1033Z" fill="white"/>
<path d="M57.5977 165.441V143.663H62.3888V161.116H73.2465V165.441H57.5977Z" fill="white"/>
<path d="M93.6976 170.504C93.2515 171.728 92.6137 172.75 91.7842 173.569C90.9542 174.389 89.9487 175 88.7665 175.405C87.5842 175.81 86.267 176.012 84.8153 176.012C81.8909 176.012 79.5887 175.203 77.9087 173.585C76.2287 171.968 75.3887 169.551 75.3887 166.336V153.892H80.1798V166.212C80.1798 167.996 80.5948 169.339 81.4242 170.241C82.2537 171.143 83.4042 171.595 84.8776 171.595C86.3498 171.595 87.5009 171.159 88.3309 170.288C89.1603 169.417 89.5753 168.11 89.5753 166.368V153.892H94.3664V166.181C94.3664 167.839 94.1431 169.281 93.6976 170.504Z" fill="white"/>
<path d="M115.269 174.357C114.879 175.117 114.32 175.751 113.592 176.258C112.865 176.765 111.99 177.145 110.968 177.399C109.946 177.651 108.812 177.779 107.569 177.779H97.0391V155.607H107.315C109.59 155.607 111.377 156.125 112.674 157.159C113.97 158.194 114.618 159.587 114.618 161.34V161.403C114.618 162.037 114.539 162.596 114.382 163.082C114.225 163.568 114.015 164.005 113.752 164.396C113.49 164.787 113.186 165.13 112.84 165.426C112.493 165.722 112.121 165.975 111.722 166.185C113.005 166.671 114.014 167.331 114.749 168.165C115.485 169 115.852 170.155 115.852 171.633V171.696C115.854 172.71 115.659 173.597 115.269 174.357ZM109.804 162.163C109.804 161.424 109.529 160.86 108.981 160.469C108.432 160.079 107.64 159.882 106.606 159.882H101.791V164.57H106.289C107.366 164.57 108.221 164.386 108.855 164.016C109.489 163.646 109.805 163.05 109.805 162.226L109.804 162.163ZM111.04 171.031C111.04 170.292 110.755 169.706 110.184 169.273C109.614 168.841 108.696 168.624 107.429 168.624H101.791V173.501H107.587C108.664 173.501 109.508 173.306 110.121 172.915C110.733 172.525 111.039 171.918 111.039 171.095V171.031H111.04Z" fill="white"/>
<path d="M55.4036 147.876C54.2924 148.523 53.7819 149.053 53.0341 149.45C52.173 149.906 51.0519 150.134 49.8074 150.134C48.8741 150.134 47.9841 149.952 47.2063 149.59C46.4291 149.227 45.7474 148.734 45.198 148.112C44.648 147.489 44.3663 146.764 44.0552 145.935C43.7441 145.105 43.7363 144.223 43.7363 143.289V143.227C43.7363 142.294 43.7352 141.418 44.0463 140.599C44.3574 139.78 44.7147 139.059 45.2741 138.437C45.8341 137.814 46.4641 137.327 47.2419 136.974C48.0191 136.621 48.8447 136.446 49.7574 136.446C50.8569 136.446 51.9741 136.663 52.8563 137.099C53.6758 137.504 54.2913 138.059 55.4024 138.752V133.102C54.8469 133.057 55.0774 133.003 54.9774 132.961C54.293 132.671 53.4619 132.443 52.6219 132.277C51.7819 132.111 50.8191 132.028 49.8036 132.028C48.1236 132.028 46.5708 132.324 45.1819 132.915C43.7919 133.506 42.5913 134.316 41.5958 135.342C40.6002 136.368 39.9791 137.561 39.4191 138.919C38.8591 140.277 38.7363 141.734 38.7363 143.29V143.352C38.7363 144.908 38.8552 146.37 39.4152 147.739C39.9752 149.107 40.6724 150.296 41.668 151.301C42.6636 152.307 43.8052 153.1 45.1741 153.681C46.543 154.261 48.0058 154.552 49.603 154.552C50.6608 154.552 51.6052 154.463 52.4558 154.287C53.3058 154.111 54.2213 153.852 54.9369 153.509C55.053 153.453 54.848 153.385 55.4036 153.326V147.876Z" fill="white"/>
<path d="M90.3942 36.8817C92.3993 36.8817 94.0248 35.2563 94.0248 33.2512C94.0248 31.2461 92.3993 29.6206 90.3942 29.6206C88.3891 29.6206 86.7637 31.2461 86.7637 33.2512C86.7637 35.2563 88.3891 36.8817 90.3942 36.8817Z" fill="white"/>
<path opacity="0.8" d="M105.915 38.4872C109.04 38.4872 111.574 35.9536 111.574 32.8283C111.574 29.703 109.04 27.1694 105.915 27.1694C102.789 27.1694 100.256 29.703 100.256 32.8283C100.256 35.9536 102.789 38.4872 105.915 38.4872Z" fill="white"/>
<path opacity="0.6" d="M121.122 42.5122C124.748 42.5122 127.688 39.5727 127.688 35.9467C127.688 32.3206 124.748 29.3811 121.122 29.3811C117.496 29.3811 114.557 32.3206 114.557 35.9467C114.557 39.5727 117.496 42.5122 121.122 42.5122Z" fill="white"/>
<path opacity="0.4" d="M135.204 49.0152C138.813 49.0152 141.739 46.0896 141.739 42.4807C141.739 38.8719 138.813 35.9463 135.204 35.9463C131.596 35.9463 128.67 38.8719 128.67 42.4807C128.67 46.0896 131.596 49.0152 135.204 49.0152Z" fill="white"/>
<path opacity="0.2" d="M147.417 57.6117C150.482 57.6117 152.967 55.1269 152.967 52.0617C152.967 48.9965 150.482 46.5117 147.417 46.5117C144.352 46.5117 141.867 48.9965 141.867 52.0617C141.867 55.1269 144.352 57.6117 147.417 57.6117Z" fill="white"/>
<path opacity="0.1" d="M157.13 67.5874C159.017 67.5874 160.547 66.0574 160.547 64.1702C160.547 62.2829 159.017 60.7529 157.13 60.7529C155.243 60.7529 153.713 62.2829 153.713 64.1702C153.713 66.0574 155.243 67.5874 157.13 67.5874Z" fill="white"/>
</g>
<defs>
<linearGradient id="paint0_linear_155_1070" x1="0.000222222" y1="100" x2="200" y2="100" gradientUnits="userSpaceOnUse">
<stop stop-color="#1692C8"/>
<stop offset="1" stop-color="#00B457"/>
</linearGradient>
</defs>
</svg>
