<svg width="60" height="60" viewBox="0 0 60 60" fill="none" xmlns="http://www.w3.org/2000/svg">
<g filter="url(#filter0_d_421_2640)">
<circle cx="29.6012" cy="27.6012" r="25.6012" fill="white"/>
</g>
<path d="M43.806 18.3185C42.5489 16.3496 39.8455 15.5317 36.203 16.0012C36.0743 16.0163 35.9379 16.039 35.8093 16.0541C35.7563 15.9331 35.7034 15.8119 35.6427 15.6909C34.0752 12.3663 31.9321 10.5338 29.5997 10.5338C27.2673 10.5338 25.1168 12.3663 23.5567 15.6909C23.5038 15.8119 23.4431 15.9331 23.3902 16.0541C23.2538 16.0316 23.1251 16.0163 22.9965 16.0012C19.3465 15.524 16.6506 16.3496 15.3934 18.3185C14.1365 20.2874 14.5225 23.0816 16.4763 26.1863C16.734 26.5954 17.0141 27.0042 17.317 27.4056C17.0141 27.8144 16.734 28.2158 16.4763 28.6246C14.5225 31.7294 14.1365 34.5313 15.3934 36.4928C16.4157 38.0981 18.4 38.9388 21.0728 38.9388C21.7136 38.9352 22.3534 38.8923 22.9888 38.8098C23.1175 38.7947 23.2538 38.7719 23.3825 38.7568C23.4357 38.8781 23.4887 38.9991 23.5493 39.1204C25.1168 42.4446 27.2599 44.2775 29.592 44.2775C31.9244 44.2775 34.0752 42.4446 35.635 39.1204C35.688 38.9991 35.7486 38.8781 35.8016 38.7568C35.9379 38.7796 36.0666 38.7947 36.1956 38.8098C36.8304 38.8959 37.4705 38.9388 38.1112 38.9388C40.7844 38.9388 42.7684 38.0981 43.7907 36.4928C45.0478 34.5239 44.6615 31.7294 42.708 28.6246C42.4504 28.2158 42.1702 27.807 41.8673 27.4056C42.1702 26.9965 42.4504 26.5954 42.708 26.1863C44.6843 23.0742 45.0706 20.2797 43.806 18.3185ZM24.9275 16.3345C26.2071 13.6084 27.911 12.0483 29.5997 12.0483C31.2885 12.0483 32.9923 13.6084 34.272 16.3345C34.2728 16.3402 34.2755 16.3455 34.2796 16.3496C32.6711 16.7365 31.1021 17.2714 29.592 17.9473C28.0837 17.2681 26.5142 16.733 24.9047 16.3496C24.9198 16.3496 24.9198 16.3419 24.9275 16.3345ZM36.4228 27.4056C36.423 28.6173 36.3574 29.8283 36.2257 31.0328C35.2818 31.7945 34.2959 32.5024 33.2724 33.1531C32.0913 33.9116 30.8619 34.5922 29.592 35.1903C28.3248 34.5875 27.0954 33.9071 25.9119 33.1531C24.8896 32.5006 23.9037 31.7927 22.9586 31.0328C22.6959 28.6217 22.6959 26.1893 22.9586 23.7782C24.9997 22.1379 27.2262 20.7426 29.592 19.6209C30.8596 20.2235 32.0886 20.9038 33.2724 21.6579C34.2947 22.3104 35.2807 23.0183 36.2257 23.7782C36.3574 24.983 36.423 26.1937 36.4228 27.4056ZM37.8689 25.2019C38.6105 25.8926 39.3086 26.6286 39.9591 27.4056C39.3086 28.1824 38.6105 28.9184 37.8689 29.6091C37.9145 28.8823 37.9373 28.1478 37.9373 27.4056C37.9373 26.6635 37.9145 25.929 37.8689 25.2019ZM35.9152 33.1836C35.6761 34.4946 35.3292 35.7837 34.8778 37.0379C33.7016 36.7723 32.5474 36.4179 31.4248 35.9778C32.3182 35.5083 33.2118 34.9933 34.0977 34.4331C34.7189 34.0317 35.3247 33.6152 35.9152 33.1836ZM27.7746 35.9778C26.6541 36.4235 25.4993 36.7782 24.3217 37.0379C23.8703 35.7837 23.5233 34.4946 23.2843 33.1836C23.8673 33.6152 24.4731 34.0317 25.1017 34.4254C25.9876 34.9933 26.8813 35.5083 27.7746 35.9778ZM21.3305 29.6091C20.5889 28.9184 19.8911 28.1824 19.2403 27.4056C19.8911 26.6286 20.5889 25.8926 21.3305 25.2019C21.2849 25.929 21.2622 26.6635 21.2622 27.4056C21.2622 28.1478 21.2849 28.8823 21.3305 29.6091ZM23.2843 21.6277C23.5233 20.3164 23.8703 19.0273 24.3217 17.7733C25.4978 18.0387 26.6523 18.3931 27.7746 18.8335C26.8813 19.3029 25.9876 19.8179 25.1017 20.3782C24.4805 20.7796 23.8747 21.1961 23.2843 21.6277ZM34.0903 20.3782C33.2118 19.8179 32.3182 19.2953 31.4171 18.8335C32.5377 18.3877 33.6925 18.0331 34.8704 17.7733C35.3215 19.0273 35.6685 20.3164 35.9078 21.6277C35.3247 21.1961 34.7189 20.7796 34.0903 20.3782ZM17.7563 25.3761C16.1507 22.8316 15.7569 20.5524 16.6657 19.1287C17.3927 17.9928 18.9679 17.3793 21.0956 17.3793C21.6653 17.3817 22.2345 17.4199 22.7995 17.4929H22.8145C22.2019 19.2743 21.7757 21.1142 21.5426 22.9831C20.3756 23.9565 19.2891 25.0229 18.2938 26.1712C18.1044 25.9139 17.9228 25.6488 17.7563 25.3761ZM22.7921 37.3107C22.2271 37.384 21.6579 37.4219 21.0882 37.4242C18.9602 37.4242 17.385 36.8184 16.6583 35.6749C15.7495 34.2511 16.1433 31.972 17.7486 29.4275C17.9151 29.1624 18.0971 28.8897 18.2864 28.6246C19.2815 29.7733 20.3679 30.8393 21.5349 31.8128C21.7683 33.682 22.1945 35.5219 22.8072 37.303C22.8072 37.3107 22.7995 37.3107 22.7921 37.3107ZM34.272 38.4767C32.9923 41.2029 31.2885 42.7629 29.5997 42.7629C27.911 42.7629 26.2071 41.2029 24.9275 38.4767C24.9266 38.4711 24.9239 38.4658 24.9198 38.4616C26.5284 38.0747 28.0973 37.5399 29.6074 36.8637C31.1157 37.5432 32.6853 38.0783 34.2947 38.4616C34.2796 38.4616 34.2796 38.469 34.272 38.4767ZM41.4432 29.4352C43.0488 31.9794 43.4425 34.2588 42.5338 35.6825C41.6251 37.106 39.3912 37.7044 36.4074 37.3107H36.3923C37.0049 35.5293 37.4314 33.6894 37.6645 31.8205C38.8315 30.847 39.918 29.7807 40.9131 28.6323C41.095 28.8974 41.2766 29.1624 41.4432 29.4352ZM37.6569 22.9907C37.4238 21.1216 36.9975 19.2817 36.3849 17.5006H36.4C39.3835 17.1143 41.6174 17.705 42.5261 19.1287C43.4348 20.5524 43.0411 22.8316 41.4358 25.3761C41.2692 25.6412 41.0873 25.9139 40.898 26.1789C39.9073 25.0285 38.8232 23.9622 37.6569 22.9907Z" fill="url(#paint0_linear_421_2640)"/>
<path d="M29.6004 24.4067C27.9442 24.4067 26.6016 25.7494 26.6016 27.4056C26.6016 29.0618 27.9442 30.4042 29.6004 30.4042C31.2566 30.4042 32.5993 29.0618 32.5993 27.4056C32.5981 25.7497 31.2561 24.4079 29.6004 24.4067ZM29.6004 28.8897C28.7808 28.8897 28.1161 28.2253 28.1161 27.4056C28.1161 26.5859 28.7808 25.9213 29.6004 25.9213C30.4201 25.9213 31.0848 26.5859 31.0848 27.4056C31.0833 28.2247 30.4195 28.8885 29.6004 28.8897Z" fill="url(#paint1_linear_421_2640)"/>
<defs>
<filter id="filter0_d_421_2640" x="0" y="0" width="59.2031" height="59.2023" filterUnits="userSpaceOnUse" color-interpolation-filters="sRGB">
<feFlood flood-opacity="0" result="BackgroundImageFix"/>
<feColorMatrix in="SourceAlpha" type="matrix" values="0 0 0 0 0 0 0 0 0 0 0 0 0 0 0 0 0 0 127 0" result="hardAlpha"/>
<feOffset dy="2"/>
<feGaussianBlur stdDeviation="2"/>
<feComposite in2="hardAlpha" operator="out"/>
<feColorMatrix type="matrix" values="0 0 0 0 0 0 0 0 0 0 0 0 0 0 0 0 0 0 0.25 0"/>
<feBlend mode="normal" in2="BackgroundImageFix" result="effect1_dropShadow_421_2640"/>
<feBlend mode="normal" in="SourceGraphic" in2="effect1_dropShadow_421_2640" result="shape"/>
</filter>
<linearGradient id="paint0_linear_421_2640" x1="29.602" y1="9.23133" x2="29.602" y2="45.944" gradientUnits="userSpaceOnUse">
<stop stop-color="#00EFD1"/>
<stop offset="1" stop-color="#00ACEA"/>
</linearGradient>
<linearGradient id="paint1_linear_421_2640" x1="29.6004" y1="9.2313" x2="29.6004" y2="45.944" gradientUnits="userSpaceOnUse">
<stop stop-color="#00EFD1"/>
<stop offset="1" stop-color="#00ACEA"/>
</linearGradient>
</defs>
</svg>
