<svg width="741" height="741" viewBox="0 0 741 741" fill="none" xmlns="http://www.w3.org/2000/svg">
<path d="M370.501 474.155C427.748 474.155 474.156 427.747 474.156 370.5C474.156 313.253 427.748 266.845 370.501 266.845C313.254 266.845 266.846 313.253 266.846 370.5C266.846 427.747 313.254 474.155 370.501 474.155Z" fill="url(#paint0_linear_415_2452)"/>
<path fill-rule="evenodd" clip-rule="evenodd" d="M381.473 379.558C381.887 380.541 382.157 381.469 382.556 382.35C384.165 385.889 386.815 388.447 390.081 390.432C392.327 391.798 394.733 392.827 397.202 393.712C398.399 394.14 398.396 394.12 397.668 395.143C395.028 398.855 391.748 401.885 387.863 404.248C384.997 405.99 381.917 407.222 378.687 408.158C373.854 409.56 368.917 409.709 363.983 409.383C358.32 409.007 352.965 407.347 348.078 404.406C342.519 401.061 338.239 396.495 335.297 390.692C334.498 389.115 333.877 387.475 333.253 385.817C332.349 383.418 331.766 380.967 331.374 378.462C330.841 375.05 330.662 371.621 330.935 368.161C331.116 365.87 331.379 363.594 331.886 361.358C333.195 355.564 335.593 350.286 339.396 345.675C342.645 341.736 346.6 338.721 351.209 336.568C353.556 335.472 356.021 334.712 358.551 334.095C361.412 333.397 364.317 333.156 367.22 333.056C369.701 332.972 372.193 333.219 374.668 333.632C376.642 333.962 378.566 334.418 380.465 335.026C383.543 336.011 386.452 337.336 389.128 339.167C393.159 341.927 396.48 345.36 399.049 349.518C400.936 352.572 402.355 355.832 403.278 359.298C404.197 362.752 404.872 366.251 404.761 369.848C404.681 372.475 406.065 374.076 408.273 375.161C410.363 376.186 412.576 376.853 414.824 377.426C416.948 377.967 419.054 378.574 421.184 379.085C423.002 379.52 424.808 379.989 426.59 380.543C431.724 382.137 436.654 384.108 440.469 388.121C442.835 390.613 444.253 393.539 444.903 396.926C445.407 399.548 445.436 402.155 445.08 404.752C444.212 411.091 441.229 416.191 435.923 419.885C432.985 421.931 429.774 423.327 426.356 424.344C423.404 425.222 420.391 425.816 417.341 426.019C414.541 426.207 411.744 426.576 408.893 426.197C406.974 425.942 405.018 425.852 403.11 425.486C397.638 424.437 392.49 422.573 388.085 419.047C384.952 416.542 382.587 413.436 381.145 409.655C380.97 409.193 381.01 408.998 381.486 408.821C383.681 408.002 385.825 407.064 387.863 405.895C390.404 404.437 392.747 402.712 394.803 400.622C395.34 400.076 395.885 399.849 396.647 399.878C398.146 399.932 399.649 399.928 401.149 399.88C401.881 399.856 402.036 400.123 402.093 400.821C402.31 403.45 402.845 405.969 405.089 407.736C406.249 408.65 407.578 409.17 408.999 409.498C411.338 410.035 413.719 410.166 416.063 409.761C418.451 409.348 420.789 408.598 421.984 406.195C423.302 403.547 422.918 401.068 419.969 399.5C418.047 398.479 415.97 397.878 413.904 397.249C411.545 396.531 409.184 395.822 406.819 395.13C405.123 394.633 403.41 394.192 401.717 393.684C397.289 392.358 392.918 390.878 389.144 388.096C386.154 385.893 383.984 383.086 383.005 379.427C382.603 377.926 382.365 376.421 382.297 374.869C382.205 372.719 382.3 370.558 382.117 368.424C381.749 364.169 380.872 360.041 378.176 356.531C376.358 354.164 373.998 352.552 371.135 351.867C366.259 350.703 361.95 351.891 358.405 355.506C356.586 357.362 355.481 359.64 354.733 362.104C353.7 365.505 353.291 369.007 353.47 372.531C353.678 376.649 354.243 380.72 356.384 384.394C358.198 387.509 360.73 389.724 364.248 390.629C368.554 391.737 372.572 391.102 376.084 388.241C378.495 386.273 379.99 383.686 380.89 380.734C381.005 380.356 381.074 379.955 381.473 379.558Z" fill="white"/>
<path fill-rule="evenodd" clip-rule="evenodd" d="M431.505 373.858C428.303 373.858 425.102 373.86 421.901 373.857C420.885 373.857 420.862 373.851 420.883 372.871C420.931 370.656 419.815 369.131 418.099 367.885C415.354 365.892 412.344 365.905 409.221 366.571C408.364 366.754 407.538 367.022 406.797 367.505C406.349 367.799 406.059 367.695 406.068 367.157C406.09 365.823 405.762 364.535 405.576 363.23C405.273 361.106 404.696 359.048 404.054 357.006C403.471 355.146 402.676 353.372 401.855 351.611C401.608 351.08 401.859 350.934 402.281 350.834C407.076 349.704 411.935 349.745 416.807 350.053C419.326 350.212 421.808 350.649 424.235 351.32C429.645 352.817 434.425 355.364 437.869 359.96C439.483 362.113 440.604 364.52 441.269 367.144C441.755 369.059 442.148 370.975 442.162 372.963C442.167 373.651 441.946 373.876 441.26 373.871C438.009 373.844 434.757 373.858 431.505 373.858Z" fill="white"/>
<path fill-rule="evenodd" clip-rule="evenodd" d="M326.382 335.365C327.882 335.369 329.289 335.548 330.686 335.911C333.45 336.629 335.615 338.238 337.307 340.828C337.689 341.411 338.021 342.043 338.271 342.694C338.339 342.872 338.402 343.05 338.478 343.223C338.554 343.398 338.639 343.614 338.79 343.738C338.937 343.86 339.182 343.802 339.322 343.689C339.504 343.542 339.66 343.344 339.824 343.178C339.992 343.008 340.159 342.838 340.327 342.669C340.662 342.333 341 342 341.344 341.671C342.025 341.018 342.726 340.387 343.452 339.785C344.175 339.185 344.92 338.616 345.692 338.082C346.465 337.545 347.263 337.047 348.081 336.584C348.904 336.117 349.747 335.687 350.591 335.264C350.693 335.213 350.793 335.158 350.896 335.111C352.1 334.555 353.331 334.06 354.584 333.624C355.388 333.345 354.952 333.51 356.262 332.919C357.052 332.563 355.778 330.43 355.328 329.74C354.278 328.123 353.277 326.454 352.058 324.957C349.943 322.356 347.391 320.133 344.441 318.524C343.242 317.868 341.969 317.329 340.677 316.881C336.575 315.462 332.125 314.747 327.072 314.695C323.377 314.657 319.31 314.637 314.276 314.637C311.775 314.637 309.273 314.636 306.772 314.64C304.273 314.645 301.774 314.64 299.275 314.64H298.603C297.625 314.64 297.071 314.649 296.446 315.292C295.838 315.917 296.056 316.687 296.056 317.668V356.304C296.056 356.304 295.837 381.094 295.838 389.687C295.838 391.812 296.411 392.496 298.536 392.496C301.105 392.498 303.618 392.501 306.186 392.504C308.89 392.507 311.565 392.51 314.268 392.51C318.831 392.51 322.547 392.502 325.991 392.484C328.122 392.472 333.088 392.062 333.088 392.062C334.331 391.774 331.253 386.408 330.203 380.953C329.081 375.126 329.732 371.649 328.331 371.734C327.619 371.779 326.397 371.887 325.639 371.9C324.718 371.914 323.74 371.921 322.569 371.921C321.644 371.921 320.705 371.916 319.781 371.912C319.213 371.909 317.939 371.905 317.939 371.905V353.69L317.962 349.19C317.965 344.648 317.988 339.955 317.967 335.331C319.965 335.361 321.985 335.361 323.94 335.362C324.754 335.363 325.569 335.363 326.382 335.365Z" fill="white"/>
<path d="M326.549 438.332V415.758H331.515V433.85H342.77V438.332H326.549Z" fill="white"/>
<path d="M363.968 443.581C363.506 444.849 362.845 445.908 361.985 446.758C361.125 447.608 360.082 448.24 358.857 448.66C357.632 449.08 356.266 449.289 354.761 449.289C351.73 449.289 349.344 448.451 347.602 446.774C345.861 445.097 344.99 442.592 344.99 439.26V426.361H349.956V439.131C349.956 440.981 350.387 442.372 351.246 443.308C352.106 444.243 353.299 444.711 354.826 444.711C356.352 444.711 357.545 444.259 358.405 443.356C359.265 442.454 359.695 441.099 359.695 439.293V426.361H364.662V439.099C364.662 440.818 364.43 442.313 363.968 443.581Z" fill="white"/>
<path d="M386.327 447.574C385.923 448.362 385.344 449.019 384.59 449.544C383.836 450.07 382.929 450.464 381.87 450.727C380.81 450.989 379.635 451.121 378.346 451.121H367.432V428.139H378.083C380.441 428.139 382.293 428.676 383.638 429.748C384.981 430.82 385.653 432.265 385.653 434.081V434.147C385.653 434.804 385.571 435.383 385.408 435.887C385.245 436.391 385.028 436.844 384.756 437.249C384.484 437.654 384.169 438.009 383.81 438.316C383.45 438.623 383.065 438.885 382.652 439.104C383.981 439.607 385.027 440.292 385.789 441.156C386.551 442.021 386.933 443.219 386.933 444.75V444.816C386.934 445.867 386.732 446.787 386.327 447.574ZM380.663 434.934C380.663 434.168 380.378 433.583 379.81 433.178C379.241 432.774 378.42 432.57 377.348 432.57H372.358V437.43H377.02C378.136 437.43 379.023 437.238 379.679 436.855C380.336 436.472 380.664 435.853 380.664 434.999L380.663 434.934ZM381.944 444.126C381.944 443.361 381.648 442.753 381.057 442.304C380.466 441.857 379.514 441.632 378.201 441.632H372.357V446.687H378.365C379.481 446.687 380.356 446.485 380.991 446.08C381.626 445.675 381.943 445.046 381.943 444.192V444.126H381.944Z" fill="white"/>
<path d="M324.274 420.125C323.123 420.796 322.594 421.346 321.818 421.756C320.926 422.229 319.764 422.466 318.474 422.466C317.506 422.466 316.584 422.278 315.778 421.902C314.972 421.526 314.265 421.015 313.696 420.37C313.126 419.725 312.834 418.973 312.511 418.113C312.189 417.253 312.181 416.339 312.181 415.371V415.307C312.181 414.339 312.18 413.432 312.502 412.582C312.825 411.733 313.195 410.986 313.775 410.341C314.355 409.696 315.008 409.191 315.814 408.825C316.62 408.459 317.476 408.277 318.422 408.277C319.562 408.277 320.72 408.503 321.634 408.954C322.484 409.374 323.122 409.95 324.273 410.668V404.811C323.697 404.764 323.936 404.709 323.833 404.665C323.123 404.365 322.262 404.128 321.391 403.957C320.52 403.784 319.522 403.698 318.47 403.698C316.728 403.698 315.119 404.005 313.679 404.618C312.238 405.23 310.994 406.069 309.962 407.133C308.93 408.197 308.286 409.434 307.706 410.841C307.125 412.249 306.998 413.759 306.998 415.372V415.436C306.998 417.049 307.121 418.564 307.702 419.983C308.282 421.402 309.005 422.633 310.037 423.675C311.069 424.719 312.252 425.54 313.671 426.142C315.09 426.744 316.606 427.045 318.262 427.045C319.358 427.045 320.337 426.953 321.219 426.77C322.1 426.588 323.049 426.319 323.791 425.964C323.911 425.907 323.699 425.836 324.274 425.775V420.125Z" fill="white"/>
<path d="M360.545 305.075C362.623 305.075 364.308 303.39 364.308 301.311C364.308 299.233 362.623 297.548 360.545 297.548C358.466 297.548 356.781 299.233 356.781 301.311C356.781 303.39 358.466 305.075 360.545 305.075Z" fill="white"/>
<path opacity="0.8" d="M376.633 306.739C379.873 306.739 382.499 304.113 382.499 300.873C382.499 297.633 379.873 295.007 376.633 295.007C373.394 295.007 370.768 297.633 370.768 300.873C370.768 304.113 373.394 306.739 376.633 306.739Z" fill="white"/>
<path opacity="0.6" d="M392.395 310.91C396.154 310.91 399.201 307.863 399.201 304.105C399.201 300.346 396.154 297.299 392.395 297.299C388.637 297.299 385.59 300.346 385.59 304.105C385.59 307.863 388.637 310.91 392.395 310.91Z" fill="white"/>
<path opacity="0.4" d="M406.992 317.651C410.733 317.651 413.765 314.619 413.765 310.878C413.765 307.137 410.733 304.105 406.992 304.105C403.251 304.105 400.219 307.137 400.219 310.878C400.219 314.619 403.251 317.651 406.992 317.651Z" fill="white"/>
<path opacity="0.2" d="M419.651 326.562C422.828 326.562 425.404 323.987 425.404 320.809C425.404 317.632 422.828 315.057 419.651 315.057C416.474 315.057 413.898 317.632 413.898 320.809C413.898 323.987 416.474 326.562 419.651 326.562Z" fill="white"/>
<path opacity="0.1" d="M429.72 336.902C431.676 336.902 433.262 335.316 433.262 333.36C433.262 331.404 431.676 329.818 429.72 329.818C427.764 329.818 426.178 331.404 426.178 333.36C426.178 335.316 427.764 336.902 429.72 336.902Z" fill="white"/>
<circle cx="370.5" cy="370.5" r="369.5" stroke="#4CAF50" stroke-width="2"/>
<circle cx="370.501" cy="370.5" r="185.579" stroke="#4CAF50" stroke-width="2"/>
<circle cx="370.5" cy="370.5" r="259.998" stroke="#4CAF50" stroke-width="2"/>
<circle cx="370.499" cy="370.5" r="318.47" stroke="#4CAF50" stroke-width="2"/>
<circle cx="600" cy="658" r="39" fill="white"/>
<path d="M599.493 688.038C608.204 688.038 615.266 674.386 615.266 657.545C615.266 640.704 608.204 627.051 599.493 627.051C590.782 627.051 583.721 640.704 583.721 657.545C583.721 674.386 590.782 688.038 599.493 688.038Z" fill="#E8EDFC"/>
<path fill-rule="evenodd" clip-rule="evenodd" d="M599.495 627.051C598.966 627.052 598.438 627.103 597.918 627.204C605.888 628.734 612.113 641.733 612.113 657.545C612.113 673.356 605.888 686.356 597.918 687.886C598.438 687.987 598.966 688.038 599.495 688.038C608.206 688.038 615.268 674.386 615.268 657.545C615.268 640.704 608.206 627.051 599.495 627.051Z" fill="#CAD9FC"/>
<path fill-rule="evenodd" clip-rule="evenodd" d="M627.001 669.364C627.379 665.852 625.918 661.709 622.995 657.545C620.617 654.26 617.793 651.322 614.604 648.817C612.328 646.988 609.912 645.339 607.38 643.886C604.855 642.422 602.222 641.153 599.504 640.09H599.494C595.732 638.586 591.779 637.613 587.748 637.198C582.291 636.715 577.696 637.672 574.878 640.143L571.987 645.726C571.608 649.238 573.07 653.381 575.993 657.545C578.37 660.83 581.195 663.767 584.384 666.272C586.66 668.101 589.075 669.75 591.607 671.204C594.132 672.668 596.765 673.937 599.483 675H599.494C603.256 676.504 607.209 677.477 611.239 677.891C616.696 678.375 621.291 677.418 624.109 674.947L627.001 669.364Z" fill="#E8EDFC"/>
<path fill-rule="evenodd" clip-rule="evenodd" d="M622.995 657.545C620.618 654.26 617.794 651.322 614.604 648.817C612.328 646.988 609.913 645.339 607.381 643.886C604.856 642.422 602.223 641.153 599.505 640.09H599.494C595.732 638.586 591.78 637.613 587.749 637.198C586.336 637.07 584.915 637.05 583.498 637.136C583.863 637.155 584.221 637.166 584.595 637.198C588.625 637.613 592.578 638.586 596.34 640.09H596.35C599.069 641.153 601.702 642.422 604.226 643.886C606.759 645.339 609.174 646.988 611.45 648.817C614.639 651.322 617.463 654.26 619.841 657.545C622.764 661.709 624.226 665.852 623.847 669.364L620.955 674.947C618.907 676.743 615.908 677.729 612.333 677.953C617.304 678.22 621.481 677.249 624.11 674.947L627.002 669.364C627.38 665.852 625.919 661.709 622.995 657.545Z" fill="#CAD9FC"/>
<path fill-rule="evenodd" clip-rule="evenodd" d="M627.001 645.726C627.379 649.238 625.918 653.381 622.995 657.545C620.617 660.83 617.793 663.767 614.604 666.272C612.328 668.101 609.912 669.75 607.38 671.204C604.852 672.668 602.215 673.937 599.494 675H599.483C595.724 676.502 591.775 677.476 587.748 677.891C582.291 678.375 577.696 677.418 574.878 674.947L571.987 669.364C571.608 665.852 573.07 661.709 575.993 657.545C578.37 654.26 581.195 651.322 584.384 648.817C586.66 646.988 589.075 645.339 591.607 643.886C594.136 642.422 596.772 641.153 599.494 640.09H599.504C603.263 638.587 607.212 637.614 611.239 637.198C616.696 636.715 621.291 637.672 624.109 640.143L627.001 645.726Z" fill="#E8EDFC"/>
<path fill-rule="evenodd" clip-rule="evenodd" d="M627.002 645.726L624.11 640.143C621.481 637.841 617.306 636.869 612.333 637.136C615.908 637.36 618.904 638.347 620.955 640.143L623.847 645.726C624.226 649.238 622.764 653.381 619.841 657.545C617.463 660.83 614.639 663.767 611.45 666.272C609.174 668.101 606.759 669.75 604.226 671.204C601.698 672.668 599.062 673.937 596.34 675H596.329C592.571 676.502 588.621 677.476 584.595 677.891C584.221 677.924 583.859 677.934 583.498 677.953C584.915 678.04 586.336 678.019 587.749 677.891C591.776 677.476 595.725 676.502 599.484 675H599.494C602.216 673.937 604.852 672.668 607.381 671.204C609.913 669.75 612.328 668.101 614.604 666.272C617.794 663.767 620.618 660.83 622.995 657.545C625.919 653.381 627.38 649.238 627.002 645.726Z" fill="#CAD9FC"/>
<path d="M573.207 645.978C574.949 645.978 576.362 644.566 576.362 642.824C576.362 641.082 574.949 639.669 573.207 639.669C571.465 639.669 570.053 641.082 570.053 642.824C570.053 644.566 571.465 645.978 573.207 645.978Z" fill="#E8EDFC"/>
<path d="M625.781 675.42C627.524 675.42 628.936 674.008 628.936 672.266C628.936 670.524 627.524 669.111 625.781 669.111C624.039 669.111 622.627 670.524 622.627 672.266C622.627 674.008 624.039 675.42 625.781 675.42Z" fill="#E8EDFC"/>
<path d="M573.207 675.42C574.949 675.42 576.362 674.008 576.362 672.266C576.362 670.524 574.949 669.111 573.207 669.111C571.465 669.111 570.053 670.524 570.053 672.266C570.053 674.008 571.465 675.42 573.207 675.42Z" fill="#E8EDFC"/>
<path d="M625.781 645.978C627.524 645.978 628.936 644.566 628.936 642.824C628.936 641.082 627.524 639.669 625.781 639.669C624.039 639.669 622.627 641.082 622.627 642.824C622.627 644.566 624.039 645.978 625.781 645.978Z" fill="#E8EDFC"/>
<path fill-rule="evenodd" clip-rule="evenodd" d="M615.267 657.545C615.267 659.459 615.173 661.33 615.005 663.149C614.899 664.211 614.773 665.252 614.605 666.272C613.459 667.198 612.25 668.091 610.977 668.954C609.831 669.732 608.633 670.489 607.381 671.204C604.853 672.668 602.217 673.937 599.495 675H599.485C598.969 674.8 598.444 674.59 597.918 674.358C595.753 673.436 593.646 672.383 591.609 671.204C589.076 669.75 586.661 668.101 584.385 666.272C583.502 660.487 583.502 654.602 584.385 648.817C586.661 646.988 589.076 645.339 591.609 643.886C593.649 642.707 595.76 641.654 597.928 640.731C598.454 640.5 598.98 640.29 599.495 640.09H599.506C602.224 641.153 604.857 642.422 607.381 643.886C608.633 644.601 609.831 645.358 610.977 646.136C612.25 646.998 613.459 647.892 614.605 648.817C614.773 649.837 614.899 650.878 615.005 651.94C615.173 653.759 615.267 655.631 615.267 657.545Z" fill="#E8EDFC"/>
<path fill-rule="evenodd" clip-rule="evenodd" d="M615.004 651.94C614.899 650.878 614.773 649.837 614.605 648.817C613.458 647.892 612.249 646.998 610.977 646.136C609.831 645.358 608.632 644.601 607.381 643.886C604.856 642.422 602.223 641.153 599.505 640.09H599.495C598.979 640.29 598.454 640.5 597.928 640.731H597.919C600.084 641.655 602.191 642.709 604.228 643.886C605.48 644.601 606.678 645.358 607.825 646.136C609.097 646.998 610.306 647.892 611.452 648.817C611.62 649.837 611.747 650.878 611.852 651.94C612.02 653.759 612.115 655.631 612.115 657.545C612.115 659.458 612.02 661.33 611.852 663.149C611.747 664.211 611.62 665.252 611.452 666.272C610.306 667.197 609.097 668.091 607.825 668.953C606.678 669.732 605.48 670.489 604.228 671.204C602.189 672.382 600.079 673.435 597.912 674.358H597.919C598.445 674.59 598.971 674.8 599.486 675H599.495C602.216 673.937 604.853 672.668 607.381 671.204C608.632 670.489 609.831 669.732 610.977 668.953C612.249 668.091 613.458 667.197 614.605 666.272C614.773 665.252 614.899 664.211 615.004 663.149C615.172 661.33 615.267 659.458 615.267 657.545C615.267 655.631 615.172 653.759 615.004 651.94Z" fill="#CAD9FC"/>
<path fill-rule="evenodd" clip-rule="evenodd" d="M615.304 637.146C614.988 637.129 614.673 637.11 614.346 637.105C614.361 637.137 614.378 637.168 614.393 637.201C614.702 637.171 615.002 637.16 615.304 637.146Z" fill="white"/>
<path fill-rule="evenodd" clip-rule="evenodd" d="M614.393 677.891C614.378 677.924 614.361 677.954 614.346 677.987C614.672 677.982 614.988 677.963 615.305 677.946C615.002 677.93 614.703 677.919 614.393 677.891Z" fill="white"/>
<path fill-rule="evenodd" clip-rule="evenodd" d="M627.263 640.143L627.269 640.155C627.298 640.137 627.329 640.124 627.357 640.107C627.221 640.026 627.079 639.956 626.932 639.897C627.042 639.985 627.16 640.053 627.263 640.143Z" fill="white"/>
<path fill-rule="evenodd" clip-rule="evenodd" d="M627.263 674.947C627.158 675.037 627.039 675.11 626.932 675.196C627.079 675.137 627.221 675.067 627.357 674.986C627.329 674.969 627.298 674.956 627.269 674.938L627.263 674.947Z" fill="white"/>
<path fill-rule="evenodd" clip-rule="evenodd" d="M570.052 672.266C570.052 674.008 571.464 675.42 573.206 675.42C573.762 675.417 574.306 675.266 574.784 674.983C573.746 674.387 573.137 673.253 573.213 672.058C573.289 670.864 574.036 669.816 575.141 669.356C574.765 665.852 576.226 661.706 579.147 657.545C576.226 653.383 574.765 649.243 575.141 645.733C574.036 645.273 573.289 644.226 573.213 643.031C573.137 641.837 573.746 640.703 574.784 640.107C574.306 639.823 573.762 639.672 573.206 639.669C571.704 639.669 570.409 640.729 570.113 642.202C569.817 643.675 570.601 645.153 571.987 645.733C571.61 649.243 573.072 653.383 575.993 657.545C573.072 661.706 571.61 665.852 571.987 669.356C570.815 669.848 570.052 670.995 570.052 672.266Z" fill="white"/>
<path fill-rule="evenodd" clip-rule="evenodd" d="M582.512 636.155L582.723 638.248C580.122 638.395 577.627 639.332 575.572 640.933L574.186 639.354C576.567 637.459 579.474 636.342 582.512 636.155Z" fill="white"/>
<path fill-rule="evenodd" clip-rule="evenodd" d="M578.524 639.129C577.943 639.132 577.47 638.663 577.467 638.083C577.464 637.502 577.932 637.029 578.513 637.026H578.524C579.104 637.026 579.575 637.497 579.575 638.077C579.575 638.658 579.104 639.129 578.524 639.129Z" fill="#428DFF"/>
<path d="M588.575 664.824C588.832 664.932 589.121 664.932 589.379 664.826C589.637 664.72 589.843 664.516 589.95 664.259L591.432 660.699H597.041L598.524 664.259C598.747 664.795 599.363 665.048 599.899 664.824C600.435 664.601 600.688 663.985 600.465 663.449L595.207 650.831C595.044 650.439 594.661 650.184 594.237 650.184C593.812 650.184 593.43 650.439 593.266 650.831L588.009 663.449C587.901 663.706 587.901 663.996 588.007 664.254C588.113 664.512 588.317 664.717 588.575 664.824ZM594.237 653.97L596.164 658.596H592.309L594.237 653.97Z" fill="#428DFF"/>
<path fill-rule="evenodd" clip-rule="evenodd" d="M602.647 662.802C602.066 662.802 601.596 663.273 601.596 663.854C601.596 664.435 602.066 664.905 602.647 664.905H608.956C609.537 664.905 610.008 664.435 610.008 663.854C610.008 663.273 609.537 662.802 608.956 662.802H606.853V652.287H608.956C609.537 652.287 610.008 651.817 610.008 651.236C610.008 650.655 609.537 650.184 608.956 650.184H602.647C602.066 650.184 601.596 650.655 601.596 651.236C601.596 651.817 602.066 652.287 602.647 652.287H604.75V662.802H602.647Z" fill="#428DFF"/>
<path d="M569 672.266C569 674.589 570.883 676.472 573.206 676.472C573.733 676.47 574.255 676.368 574.743 676.171C577.229 678.074 580.737 679.067 585.048 679.067C585.698 679.067 586.373 679.036 587.058 678.992C590.111 685.232 594.517 689.09 599.494 689.09C604.47 689.09 608.876 685.232 611.931 678.995C612.616 679.039 613.29 679.07 613.94 679.07C618.251 679.07 621.759 678.077 624.245 676.174C624.733 676.37 625.255 676.471 625.781 676.472C627.637 676.466 629.271 675.245 629.8 673.465C630.33 671.686 629.63 669.77 628.078 668.751C628.226 665.365 626.917 661.523 624.252 657.545C626.917 653.568 628.226 649.726 628.078 646.339C629.896 645.166 630.524 642.803 629.529 640.882C628.533 638.961 626.241 638.112 624.234 638.921C621.377 636.735 617.159 635.766 611.932 636.107C608.88 629.862 604.472 626 599.494 626C594.515 626 590.11 629.859 587.056 636.1C585.543 635.991 584.023 636.01 582.512 636.155C582.227 636.178 581.965 636.318 581.787 636.541C581.61 636.765 581.533 637.052 581.575 637.334C581.659 637.893 582.161 638.292 582.724 638.248C583.858 638.136 584.998 638.106 586.136 638.157C584.832 641.415 583.907 644.812 583.381 648.281C580.662 650.471 578.201 652.963 576.045 655.71C574.269 653.133 573.213 650.129 572.985 647.008C573.06 647.008 573.13 647.03 573.206 647.03C575.304 647.038 577.09 645.505 577.4 643.43C577.709 641.355 576.448 639.367 574.439 638.763C572.43 638.159 570.282 639.122 569.396 641.023C568.509 642.925 569.154 645.189 570.909 646.339C570.76 649.724 572.071 653.566 574.735 657.545C572.071 661.523 570.76 665.365 570.909 668.751C569.719 669.525 569.002 670.847 569 672.266ZM573.206 640.721C574.368 640.721 575.309 641.662 575.309 642.824C575.309 643.985 574.368 644.927 573.206 644.927C572.045 644.927 571.103 643.985 571.103 642.824C571.103 641.662 572.045 640.721 573.206 640.721ZM571.103 672.266C571.103 671.104 572.045 670.163 573.206 670.163C574.368 670.163 575.309 671.104 575.309 672.266C575.309 673.427 574.368 674.369 573.206 674.369C572.648 674.369 572.114 674.147 571.719 673.753C571.325 673.358 571.103 672.824 571.103 672.266ZM588.357 638.324C591.156 638.659 593.914 639.278 596.588 640.171C594.706 641.011 592.868 641.947 591.082 642.974C589.289 644.009 587.552 645.138 585.879 646.357C586.43 643.602 587.261 640.91 588.357 638.324ZM585.35 649.399C587.494 647.7 589.762 646.161 592.133 644.797C594.499 643.428 596.961 642.233 599.5 641.221C602.036 642.234 604.496 643.429 606.86 644.797C609.232 646.161 611.498 647.699 613.642 649.399C614.027 652.097 614.218 654.819 614.214 657.545C614.216 660.27 614.024 662.993 613.637 665.691C611.493 667.39 609.226 668.928 606.854 670.293C604.49 671.66 602.03 672.855 599.494 673.866C596.957 672.854 594.497 671.659 592.133 670.291C589.762 668.926 587.495 667.388 585.351 665.689C584.581 660.285 584.581 654.8 585.351 649.397L585.35 649.399ZM613.109 646.357C611.436 645.138 609.699 644.009 607.906 642.974C606.122 641.948 604.287 641.012 602.408 640.171C605.08 639.278 607.835 638.659 610.631 638.324C611.727 640.91 612.557 643.602 613.107 646.357H613.109ZM610.63 676.766C607.831 676.431 605.073 675.812 602.399 674.919C604.281 674.079 606.119 673.143 607.906 672.115C609.698 671.081 611.435 669.952 613.108 668.733C612.557 671.488 611.727 674.179 610.63 676.766ZM616.007 651.386C618.103 653.243 620.006 655.306 621.687 657.545C620.006 659.783 618.104 661.846 616.009 663.703C616.216 661.657 616.319 659.602 616.317 657.545C616.318 655.488 616.215 653.433 616.007 651.386ZM591.082 672.115C592.866 673.142 594.7 674.078 596.579 674.919C593.908 675.812 591.153 676.431 588.356 676.766C587.26 674.179 586.43 671.488 585.879 668.733C587.552 669.952 589.289 671.081 591.082 672.115ZM599.494 686.987C595.544 686.987 591.955 683.854 589.309 678.773C592.794 678.279 596.211 677.389 599.494 676.119C602.778 677.39 606.196 678.28 609.683 678.773C607.031 683.854 603.443 686.987 599.494 686.987ZM625.781 674.369C624.619 674.369 623.678 673.427 623.678 672.266C623.678 671.104 624.619 670.163 625.781 670.163C626.942 670.163 627.884 671.104 627.884 672.266C627.884 673.427 626.942 674.369 625.781 674.369ZM626.002 668.082C625.927 668.082 625.857 668.06 625.781 668.06C623.458 668.06 621.575 669.943 621.575 672.266C621.579 673.206 621.901 674.117 622.489 674.851C620.199 676.362 616.856 677.081 612.852 676.93C614.155 673.673 615.079 670.277 615.606 666.809C618.325 664.619 620.787 662.126 622.942 659.379C624.717 661.956 625.773 664.96 626.002 668.082ZM627.884 642.824C627.884 643.985 626.942 644.927 625.781 644.927C624.619 644.927 623.678 643.985 623.678 642.824C623.678 641.662 624.619 640.721 625.781 640.721C626.942 640.721 627.884 641.662 627.884 642.824ZM622.489 640.238C621.901 640.972 621.579 641.884 621.575 642.824C621.575 645.147 623.458 647.03 625.781 647.03C625.857 647.03 625.927 647.012 626.002 647.008C625.774 650.129 624.718 653.134 622.942 655.711C620.786 652.964 618.325 650.471 615.605 648.281C615.078 644.813 614.153 641.416 612.848 638.159C616.855 638.008 620.2 638.723 622.489 640.238ZM599.494 628.103C603.443 628.103 607.032 631.235 609.678 636.316C606.195 636.811 602.78 637.701 599.499 638.97C596.215 637.7 592.796 636.81 589.31 636.315C591.956 631.235 595.544 628.103 599.494 628.103ZM582.985 651.386C582.571 655.482 582.571 659.608 582.985 663.703C580.887 661.847 578.982 659.784 577.3 657.545C578.983 655.306 580.888 653.243 582.985 651.386ZM576.045 659.378C578.202 662.124 580.664 664.616 583.384 666.806C583.91 670.276 584.835 673.673 586.14 676.931C582.138 677.083 578.793 676.362 576.503 674.851C577.089 674.117 577.409 673.206 577.412 672.266C577.412 669.943 575.529 668.06 573.206 668.06C573.13 668.06 573.06 668.079 572.985 668.082C573.213 664.961 574.27 661.957 576.045 659.38V659.378Z" fill="#428DFF"/>
<circle cx="268" cy="223" r="39" fill="white"/>
<path fill-rule="evenodd" clip-rule="evenodd" d="M252.681 234.133C252.814 236.933 252.542 239.709 251.932 242.442C251.676 243.59 251.363 244.723 251.011 245.846C250.706 246.821 250.372 247.785 250.035 248.749C249.794 249.438 249.549 250.129 249.335 250.827C249.173 251.354 249.02 251.905 248.943 252.453C248.919 252.624 248.972 252.801 249.086 252.931C249.2 253.062 249.366 253.138 249.542 253.138L275.922 253.087C276.254 253.087 276.524 252.817 276.524 252.484C276.524 250.293 275.868 248.354 275.121 246.329C274.903 245.737 274.683 245.133 274.51 244.525C274.403 244.145 274.298 243.711 274.302 243.314C274.311 242.568 274.715 242.202 275.361 241.919C275.856 241.702 276.758 241.84 277.278 241.929C278.088 242.067 278.894 242.266 279.693 242.46C280.406 242.632 281.12 242.806 281.839 242.948C282.49 243.077 283.16 243.184 283.823 243.212C284.819 243.255 285.922 243.127 286.588 242.299C286.644 242.228 286.685 242.146 286.706 242.058C286.955 240.99 287.262 239.873 287.708 238.869C287.943 238.341 288.201 237.902 288.529 237.431C288.71 237.17 288.883 236.918 289.003 236.62C289.157 236.241 289.204 235.838 289.204 235.431C289.204 235.243 289.116 235.065 288.967 234.951C288.505 234.599 288.004 234.219 287.586 233.816L287.191 233.436L287.696 233.222C288.103 233.05 288.537 232.908 288.958 232.773C289.206 232.693 289.375 232.463 289.377 232.203L289.398 228.453L292.146 227.934C292.469 227.873 292.684 227.565 292.629 227.241C292.41 225.944 291.974 224.747 291.325 223.605C290.791 222.666 290.149 221.836 289.48 220.992C288.487 219.739 287.458 218.502 287.442 216.822L287.442 216.805L287.444 216.789C287.724 213.355 287.537 209.829 286.59 206.504C285.76 203.586 284.361 200.903 282.301 198.665C280.383 196.582 278.023 195.045 275.388 194.022C272.296 192.821 268.928 192.362 265.624 192.362C260.675 192.362 255.821 193.718 251.866 196.758C248.356 199.456 245.881 203.192 244.533 207.394C243.042 212.041 242.974 217.185 244.328 221.874C245.718 226.693 248.514 230.858 252.536 233.86L252.673 233.963L252.681 234.133Z" fill="#FFFA50"/>
<path fill-rule="evenodd" clip-rule="evenodd" d="M255.13 206.443C255.289 206.205 255.257 205.884 255.055 205.682L253.666 204.295L256.428 201.533L257.815 202.921C258.018 203.124 258.338 203.155 258.576 202.995C259.925 202.095 261.421 201.476 263.011 201.158C263.293 201.102 263.497 200.854 263.497 200.566V198.606H267.401V200.566C267.401 200.854 267.604 201.102 267.886 201.158C269.476 201.476 270.972 202.096 272.321 202.995C272.561 203.155 272.879 203.125 273.082 202.921L274.471 201.534L277.231 204.295L275.844 205.682C275.641 205.885 275.609 206.204 275.769 206.443C276.67 207.792 277.29 209.287 277.607 210.878C277.664 211.16 277.911 211.364 278.198 211.364H280.16V212.713H273.999L273.964 212.39C273.496 208.055 269.814 204.75 265.45 204.75C261.085 204.75 257.402 208.055 256.934 212.39L256.899 212.713H250.739V211.364H252.7C252.987 211.364 253.235 211.16 253.291 210.878C253.609 209.287 254.23 207.793 255.13 206.443ZM252.016 219.973C252.016 220.771 251.367 221.421 250.568 221.421C249.769 221.421 249.119 220.772 249.119 219.973C249.119 219.174 249.769 218.526 250.568 218.526C251.366 218.526 252.016 219.174 252.016 219.973ZM256.709 222.386C257.508 222.386 258.158 223.035 258.158 223.834C258.158 224.632 257.507 225.282 256.709 225.282C255.91 225.282 255.261 224.632 255.261 223.834C255.261 223.035 255.91 222.386 256.709 222.386ZM265.45 222.386C266.248 222.386 266.898 223.035 266.898 223.834C266.898 224.631 266.247 225.282 265.45 225.282C264.651 225.282 264.001 224.632 264.001 223.834C264.001 223.035 264.65 222.386 265.45 222.386ZM274.189 222.386C274.988 222.386 275.638 223.035 275.638 223.834C275.638 224.632 274.987 225.282 274.189 225.282C273.391 225.282 272.741 224.632 272.741 223.834C272.741 223.035 273.391 222.386 274.189 222.386ZM278.883 219.973C278.883 219.174 279.533 218.526 280.331 218.526C281.129 218.526 281.779 219.175 281.779 219.973C281.779 220.771 281.13 221.421 280.331 221.421C279.532 221.421 278.883 220.772 278.883 219.973Z" fill="#FFC106"/>
<path fill-rule="evenodd" clip-rule="evenodd" d="M280.332 221.059C279.732 221.059 279.245 220.572 279.245 219.973C279.245 219.374 279.732 218.887 280.332 218.887C280.93 218.887 281.418 219.374 281.418 219.973C281.418 220.572 280.93 221.059 280.332 221.059ZM272.38 212.351H258.519C258.991 208.947 261.918 206.317 265.45 206.317C268.981 206.317 271.909 208.947 272.38 212.351ZM251.101 211.726V212.351H256.575C257.057 207.88 260.853 204.388 265.45 204.388C270.047 204.388 273.841 207.88 274.324 212.351H279.798V211.726H278.198C277.739 211.726 277.342 211.4 277.253 210.949C276.944 209.405 276.345 207.956 275.468 206.644C275.212 206.262 275.263 205.752 275.589 205.426L276.72 204.295L274.471 202.045L273.338 203.177C273.013 203.503 272.504 203.552 272.121 203.296C270.808 202.421 269.359 201.821 267.816 201.513C267.365 201.422 267.04 201.027 267.04 200.566V198.968H263.859V200.566C263.859 201.027 263.533 201.422 263.082 201.513C261.539 201.82 260.091 202.421 258.777 203.296C258.395 203.552 257.885 203.501 257.56 203.177L256.428 202.045L254.179 204.295L255.311 205.426C255.635 205.751 255.686 206.262 255.431 206.644C254.554 207.957 253.954 209.405 253.646 210.949C253.556 211.4 253.16 211.726 252.7 211.726L251.101 211.726ZM275.277 223.834C275.277 224.432 274.788 224.921 274.19 224.921C273.591 224.921 273.104 224.432 273.104 223.834C273.104 223.234 273.591 222.748 274.19 222.748C274.788 222.747 275.277 223.234 275.277 223.834ZM265.45 224.921C264.851 224.921 264.363 224.432 264.363 223.834C264.363 223.234 264.851 222.748 265.45 222.748C266.048 222.748 266.536 223.234 266.536 223.834C266.536 224.432 266.048 224.921 265.45 224.921ZM256.709 224.921C256.11 224.921 255.623 224.432 255.623 223.834C255.623 223.234 256.11 222.748 256.709 222.748C257.309 222.748 257.796 223.234 257.796 223.834C257.796 224.432 257.309 224.921 256.709 224.921ZM250.568 221.059C249.969 221.059 249.481 220.572 249.481 219.973C249.481 219.374 249.969 218.887 250.568 218.887C251.167 218.887 251.655 219.374 251.655 219.973C251.655 220.572 251.167 221.059 250.568 221.059ZM280.332 216.958C279.64 216.958 279.003 217.192 278.494 217.584L276.857 216.49V214.281H280.764C281.296 214.281 281.728 213.849 281.728 213.316V210.761C281.728 210.228 281.296 209.796 280.764 209.796H278.968C278.643 208.548 278.151 207.359 277.497 206.247L278.767 204.976C278.948 204.795 279.05 204.55 279.05 204.295C279.05 204.038 278.948 203.793 278.767 203.613L275.154 199.998C274.776 199.621 274.165 199.622 273.788 199.998L272.518 201.269C271.405 200.615 270.217 200.122 268.97 199.798V198.003C268.97 197.47 268.538 197.038 268.005 197.038H262.895C262.362 197.038 261.93 197.47 261.93 198.003V199.798C260.682 200.122 259.493 200.615 258.381 201.269L257.11 199.998C256.734 199.622 256.124 199.622 255.746 199.998L252.132 203.613C251.755 203.989 251.755 204.6 252.132 204.976L253.403 206.248C252.748 207.36 252.255 208.548 251.932 209.796H250.137C249.603 209.796 249.171 210.228 249.171 210.761V213.316C249.171 213.849 249.603 214.281 250.137 214.281H254.042V216.49L252.406 217.584C251.896 217.192 251.259 216.958 250.568 216.958C248.905 216.958 247.552 218.31 247.552 219.973C247.552 221.636 248.905 222.989 250.568 222.989C252.231 222.989 253.584 221.636 253.584 219.973C253.584 219.701 253.547 219.439 253.479 219.188L255.543 217.808C255.811 217.628 255.971 217.328 255.971 217.006V214.281H258.806V217.999L257.235 220.865C257.064 220.835 256.889 220.818 256.709 220.818C255.046 220.818 253.693 222.171 253.693 223.834C253.693 225.497 255.046 226.85 256.709 226.85C258.372 226.85 259.725 225.497 259.725 223.834C259.725 223.048 259.423 222.33 258.927 221.793L260.617 218.709C260.695 218.567 260.736 218.408 260.736 218.245V214.281H264.485V220.977C263.294 221.38 262.434 222.508 262.434 223.834C262.434 225.497 263.787 226.85 265.45 226.85C267.112 226.85 268.465 225.497 268.465 223.834C268.465 222.508 267.605 221.38 266.414 220.977V214.281H270.164V218.245C270.164 218.408 270.205 218.567 270.281 218.709L271.971 221.793C271.477 222.33 271.174 223.048 271.174 223.834C271.174 225.497 272.527 226.85 274.19 226.85C275.853 226.85 277.206 225.497 277.206 223.834C277.206 222.171 275.853 220.818 274.19 220.818C274.01 220.818 273.834 220.835 273.663 220.865L272.093 217.999V214.281H274.928V217.006C274.928 217.328 275.088 217.628 275.356 217.808L277.419 219.188C277.352 219.439 277.316 219.701 277.316 219.973C277.316 221.636 278.669 222.989 280.332 222.989C281.994 222.989 283.347 221.636 283.347 219.973C283.347 218.31 281.994 216.958 280.332 216.958ZM288.62 227.004L290.881 226.577C290.344 224.606 289.283 223.267 288.252 221.967C287.029 220.425 285.875 218.969 285.875 216.781C285.875 216.754 285.876 216.728 285.879 216.701C286.466 209.596 284.831 203.727 281.148 199.727C277.607 195.88 272.384 193.929 265.625 193.929C256.154 193.929 248.827 199.142 246.026 207.871C243.043 217.166 246.249 227.441 253.819 232.856C254.056 233.025 254.202 233.291 254.221 233.581C254.643 240.317 252.76 245.702 251.515 249.266C251.217 250.12 250.943 250.903 250.75 251.569L274.908 251.522C274.74 249.827 274.166 248.271 273.651 246.873C273.168 245.565 272.753 244.435 272.738 243.399C272.718 242.051 273.39 241.071 274.734 240.482C275.966 239.944 277.864 240.403 280.063 240.936C281.827 241.364 284.444 241.998 285.243 241.431C285.994 238.332 286.742 237.256 287.241 236.537C287.443 236.247 287.549 236.093 287.6 235.877C286.291 234.858 285.535 234.114 285.695 233.176C285.846 232.293 286.715 231.876 287.813 231.5L287.833 227.946C287.836 227.484 288.166 227.09 288.62 227.004ZM292.986 227.18C292.481 224.194 290.974 222.294 289.764 220.767C288.677 219.399 287.819 218.315 287.805 216.818C288.428 209.18 286.618 202.819 282.567 198.42C280.668 196.357 278.296 194.764 275.519 193.685C272.64 192.567 269.311 192 265.625 192C260.285 192 255.452 193.547 251.646 196.472C248.183 199.134 245.604 202.872 244.189 207.283C242.679 211.988 242.605 217.206 243.98 221.974C245.415 226.945 248.294 231.145 252.32 234.15C252.611 240.282 250.93 245.093 249.694 248.629C249.153 250.177 248.725 251.4 248.586 252.402C248.547 252.679 248.631 252.96 248.814 253.169C248.997 253.379 249.262 253.499 249.54 253.499H249.543L275.923 253.449C276.455 253.448 276.886 253.016 276.886 252.484C276.886 250.069 276.095 247.926 275.461 246.204C274.387 243.292 274.394 242.737 275.506 242.25C276.143 241.97 278.065 242.437 279.608 242.811C282.501 243.512 285.494 244.238 286.87 242.525C286.96 242.413 287.024 242.281 287.058 242.14C287.746 239.192 288.395 238.256 288.826 237.637C289.207 237.089 289.566 236.57 289.566 235.431C289.566 235.13 289.425 234.846 289.187 234.664C288.552 234.18 288.101 233.81 287.837 233.555C288.235 233.387 288.827 233.195 289.07 233.117C289.466 232.989 289.735 232.621 289.739 232.205L289.758 228.753L292.213 228.289C292.73 228.192 293.074 227.698 292.986 227.18Z" fill="#B57E02"/>
<circle cx="156.6" cy="601.6" r="39" fill="white"/>
<path d="M178.365 619.484C178.359 619.269 178.269 619.06 178.122 618.904L172.074 612.527L178.233 602.568C178.409 602.287 178.41 601.912 178.233 601.632L171.641 590.972L176.512 585.837L177.689 585.547C178.043 585.46 178.309 585.165 178.358 584.803C178.393 584.546 178.313 584.294 178.151 584.105C178.458 583.747 178.435 583.208 178.089 582.88C177.732 582.542 177.169 582.556 176.83 582.913L176.593 583.164L161.402 574.618C161.145 574.464 160.819 574.498 160.532 574.499H147.906C147.753 574.502 147.605 574.542 147.47 574.614L132.271 583.164L132.034 582.913C131.695 582.556 131.132 582.542 130.775 582.88C130.43 583.208 130.406 583.746 130.712 584.104C130.279 584.578 130.548 585.412 131.175 585.547L132.352 585.836L137.223 590.972L130.63 601.631C130.455 601.912 130.454 602.287 130.63 602.568L136.79 612.527L130.742 618.904C130.346 619.303 130.455 620.028 130.951 620.293L147.469 629.586C147.603 629.66 147.756 629.7 147.909 629.7H160.958C161.11 629.7 161.261 629.659 161.394 629.586L177.913 620.293C178.198 620.133 178.381 619.811 178.365 619.484ZM174.742 617.928L169.527 616.645L171.106 614.094L174.742 617.928ZM148.065 576.826L153.111 581.99L147.617 587.757L142.138 586.409L148.065 576.826ZM158.843 616.345L154.432 620.858L150.021 616.345H158.843ZM150.021 614.564L154.432 610.051L158.843 614.564H150.021ZM161.028 614.253L155.677 608.777L160.948 603.383L166.817 609.572L161.028 614.253ZM158.843 602.99L154.432 607.503L150.021 602.99H158.843ZM150.021 601.209L154.432 596.696L158.843 601.209H150.021ZM163.029 602.99H174.959L168.206 608.449L163.029 602.99ZM161.932 601.209L167.586 595.248L174.959 601.209H161.932ZM160.392 600.246L155.677 595.422L161.028 589.947L166.197 594.125L160.392 600.246ZM154.432 594.148L150.021 589.635H158.843L154.432 594.148ZM162.913 589.181L167.71 588.001L169.405 590.742L167.426 592.829L162.913 589.181ZM161.239 587.759L155.586 581.974L160.677 576.629L166.726 586.409L161.239 587.759ZM158.843 587.854H149.984L154.357 583.264L158.843 587.854ZM145.951 589.181L141.438 592.829L139.459 590.742L141.154 588.001L145.951 589.181ZM147.836 589.947L153.187 595.422L148.472 600.246L142.667 594.125L147.836 589.947ZM146.932 601.209H133.905L141.278 595.248L146.932 601.209ZM145.835 602.99L140.657 608.449L133.905 602.99H145.835ZM147.916 603.383L153.187 608.777L147.836 614.253L142.046 609.572L147.916 603.383ZM145.951 615.019L141.154 616.199L139.026 612.757L140.817 610.868L145.951 615.019ZM147.625 616.441L153.187 622.132L148.065 627.374L142.138 617.79L147.625 616.441ZM154.432 623.406L158.843 627.919H150.021L154.432 623.406ZM160.799 627.374L155.677 622.132L161.239 616.441L166.726 617.79L160.799 627.374ZM162.913 615.019L168.047 610.868L169.838 612.757L167.71 616.199L162.913 615.019ZM169.436 609.745L173.966 606.082L170.807 611.191L169.436 609.745ZM173.966 598.117L168.815 593.952L170.374 592.308L173.966 598.117ZM170.673 589.406L169.527 587.554L173.311 586.624L170.673 589.406ZM168.543 585.962L163.532 577.859L175.079 584.355L168.543 585.962ZM158.55 576.28L154.34 580.699L150.021 576.28H158.55ZM140.321 585.962L133.785 584.355L145.332 577.859L140.321 585.962ZM135.553 586.624L139.336 587.554L138.191 589.406L135.553 586.624ZM140.049 593.952L134.898 598.117L138.49 592.308L140.049 593.952ZM134.898 606.082L139.428 609.745L138.057 611.191L134.898 606.082ZM139.336 616.645L134.122 617.928L137.758 614.094L139.336 616.645ZM140.321 618.237L145.332 626.34L133.785 619.844L140.321 618.237ZM168.543 618.237L175.079 619.844L163.532 626.34L168.543 618.237Z" fill="#D2CFE9"/>
<path d="M177.914 585.573H185.714L185.116 586.183C184.772 586.534 184.778 587.098 185.129 587.442C185.302 587.612 185.527 587.696 185.752 587.696C185.983 587.696 186.214 587.607 186.388 587.429L188.071 585.71C188.626 585.143 188.626 584.221 188.071 583.655L186.388 581.936C186.044 581.585 185.481 581.579 185.129 581.923C184.778 582.267 184.772 582.831 185.116 583.182L185.714 583.792H177.914C177.422 583.792 177.023 584.191 177.023 584.682C177.023 585.174 177.422 585.573 177.914 585.573Z" fill="#D2CFE9"/>
<path d="M186.388 599.353C186.044 599.002 185.481 598.996 185.129 599.34C184.778 599.684 184.772 600.248 185.116 600.599L185.714 601.209H177.914C177.422 601.209 177.023 601.608 177.023 602.1C177.023 602.591 177.422 602.99 177.914 602.99H185.714L185.116 603.6C184.772 603.951 184.778 604.515 185.129 604.859C185.302 605.029 185.527 605.114 185.752 605.114C185.983 605.114 186.214 605.024 186.388 604.846L188.071 603.127C188.626 602.561 188.626 601.639 188.071 601.072L186.388 599.353Z" fill="#D2CFE9"/>
<path d="M186.388 616.77C186.044 616.419 185.481 616.413 185.129 616.757C184.778 617.101 184.772 617.665 185.116 618.016L185.714 618.627H177.914C177.422 618.627 177.023 619.025 177.023 619.517C177.023 620.009 177.422 620.407 177.914 620.407H185.714L185.116 621.018C184.772 621.369 184.778 621.933 185.129 622.277C185.302 622.446 185.527 622.531 185.752 622.531C185.983 622.531 186.214 622.442 186.388 622.263L188.071 620.545C188.626 619.978 188.626 619.056 188.071 618.489L186.388 616.77Z" fill="#D2CFE9"/>
<path d="M160.958 591.535C159.421 591.535 158.17 590.283 158.17 588.745C158.17 587.206 159.421 585.955 160.958 585.955C162.495 585.955 163.746 587.206 163.746 588.745C163.746 590.283 162.495 591.535 160.958 591.535Z" fill="#FFD15B"/>
<path d="M160.958 604.89C162.498 604.89 163.746 603.641 163.746 602.1C163.746 600.559 162.498 599.31 160.958 599.31C159.418 599.31 158.17 600.559 158.17 602.1C158.17 603.641 159.418 604.89 160.958 604.89Z" fill="#FFD15B"/>
<path d="M160.958 618.245C159.421 618.245 158.17 616.993 158.17 615.455C158.17 613.916 159.421 612.665 160.958 612.665C162.495 612.665 163.746 613.916 163.746 615.455C163.746 616.993 162.495 618.245 160.958 618.245Z" fill="#FFD15B"/>
<path d="M160.958 578.18C159.421 578.18 158.17 576.928 158.17 575.39C158.17 573.851 159.421 572.6 160.958 572.6C162.495 572.6 163.746 573.851 163.746 575.39C163.746 576.928 162.495 578.18 160.958 578.18Z" fill="#FFD15B"/>
<path d="M160.958 631.6C159.421 631.6 158.17 630.348 158.17 628.81C158.17 627.271 159.421 626.02 160.958 626.02C162.495 626.02 163.746 627.271 163.746 628.81C163.746 630.348 162.495 631.6 160.958 631.6Z" fill="#FFD15B"/>
<path d="M147.905 591.535C146.368 591.535 145.117 590.283 145.117 588.745C145.117 587.206 146.368 585.955 147.905 585.955C149.442 585.955 150.693 587.206 150.693 588.745C150.693 590.283 149.442 591.535 147.905 591.535Z" fill="#C8EFFE"/>
<path d="M147.905 604.89C146.368 604.89 145.117 603.638 145.117 602.1C145.117 600.561 146.368 599.31 147.905 599.31C149.442 599.31 150.693 600.561 150.693 602.1C150.693 603.638 149.442 604.89 147.905 604.89Z" fill="#C8EFFE"/>
<path d="M147.905 618.245C146.368 618.245 145.117 616.993 145.117 615.455C145.117 613.916 146.368 612.665 147.905 612.665C149.442 612.665 150.693 613.916 150.693 615.455C150.693 616.993 149.442 618.245 147.905 618.245Z" fill="#C8EFFE"/>
<path d="M147.905 578.18C146.368 578.18 145.117 576.928 145.117 575.39C145.117 573.851 146.368 572.6 147.905 572.6C149.442 572.6 150.693 573.851 150.693 575.39C150.693 576.928 149.442 578.18 147.905 578.18Z" fill="#C8EFFE"/>
<path d="M147.905 631.6C146.368 631.6 145.117 630.348 145.117 628.81C145.117 627.271 146.368 626.02 147.905 626.02C149.442 626.02 150.693 627.271 150.693 628.81C150.693 630.348 149.442 631.6 147.905 631.6Z" fill="#C8EFFE"/>
<path d="M131.388 587.473C129.85 587.473 128.6 586.221 128.6 584.682C128.6 583.144 129.85 581.892 131.388 581.892C132.925 581.892 134.175 583.144 134.175 584.682C134.175 586.221 132.925 587.473 131.388 587.473Z" fill="#FD8087"/>
<path d="M131.388 604.89C129.85 604.89 128.6 603.638 128.6 602.1C128.6 600.561 129.85 599.31 131.388 599.31C132.925 599.31 134.175 600.561 134.175 602.1C134.175 603.638 132.925 604.89 131.388 604.89Z" fill="#FD8087"/>
<path d="M131.388 622.307C129.85 622.307 128.6 621.055 128.6 619.517C128.6 617.979 129.85 616.727 131.388 616.727C132.925 616.727 134.175 617.979 134.175 619.517C134.175 621.055 132.925 622.307 131.388 622.307Z" fill="#FD8087"/>
<path d="M177.475 587.473C175.938 587.473 174.688 586.221 174.688 584.682C174.688 583.144 175.938 581.893 177.475 581.893C179.012 581.893 180.263 583.144 180.263 584.682C180.263 586.221 179.012 587.473 177.475 587.473Z" fill="#6FD7A3"/>
<path d="M177.475 604.89C175.938 604.89 174.688 603.638 174.688 602.1C174.688 600.561 175.938 599.31 177.475 599.31C179.012 599.31 180.263 600.561 180.263 602.1C180.263 603.638 179.012 604.89 177.475 604.89Z" fill="#6FD7A3"/>
<path d="M177.475 622.307C175.938 622.307 174.688 621.055 174.688 619.517C174.688 617.979 175.938 616.727 177.475 616.727C179.012 616.727 180.263 617.979 180.263 619.517C180.263 621.055 179.012 622.307 177.475 622.307Z" fill="#6FD7A3"/>
<circle cx="582.6" cy="59.5997" r="39" fill="white"/>
<path d="M585.266 76.8567H579.734C579.49 76.8567 579.255 76.7596 579.083 76.5867C578.91 76.4138 578.812 76.1793 578.812 75.9348V72.2473C578.812 72.0028 578.91 71.7683 579.083 71.5955C579.255 71.4226 579.49 71.3254 579.734 71.3254H585.266C585.51 71.3254 585.745 71.4226 585.918 71.5955C586.09 71.7683 586.188 72.0028 586.188 72.2473V75.9348C586.188 76.1793 586.09 76.4138 585.918 76.5867C585.745 76.7596 585.51 76.8567 585.266 76.8567ZM580.656 75.0129H584.344V73.1692H580.656V75.0129Z" fill="#FFAC00"/>
<path d="M579.734 75.0129H576.047C575.802 75.0129 575.568 74.9158 575.395 74.7429C575.222 74.57 575.125 74.3356 575.125 74.0911C575.125 73.8466 575.222 73.6121 575.395 73.4392C575.568 73.2663 575.802 73.1692 576.047 73.1692H579.734C579.979 73.1692 580.213 73.2663 580.386 73.4392C580.559 73.6121 580.656 73.8466 580.656 74.0911C580.656 74.3356 580.559 74.57 580.386 74.7429C580.213 74.9158 579.979 75.0129 579.734 75.0129Z" fill="#FFAC00"/>
<path d="M588.953 75.0129H585.266C585.021 75.0129 584.787 74.9158 584.614 74.7429C584.441 74.57 584.344 74.3356 584.344 74.0911C584.344 73.8466 584.441 73.6121 584.614 73.4392C584.787 73.2663 585.021 73.1692 585.266 73.1692H588.953C589.198 73.1692 589.432 73.2663 589.605 73.4392C589.778 73.6121 589.875 73.8466 589.875 74.0911C589.875 74.3356 589.778 74.57 589.605 74.7429C589.432 74.9158 589.198 75.0129 588.953 75.0129Z" fill="#FFAC00"/>
<path d="M573.603 61.7286C573.28 61.7286 573.446 61.7286 569.915 59.8849C569.701 59.7695 569.54 59.5739 569.469 59.3406C569.399 59.1074 569.423 58.8556 569.537 58.6403L572.146 53.7636C572.262 53.5489 572.457 53.3886 572.691 53.3177C572.924 53.2469 573.176 53.2713 573.391 53.3856L576.645 55.128C576.86 55.2433 577.02 55.439 577.091 55.6722C577.162 55.9055 577.137 56.1573 577.023 56.3725L574.414 61.2493C574.335 61.3947 574.217 61.5161 574.074 61.6004C573.932 61.6848 573.769 61.7291 573.603 61.7286ZM571.593 58.6864L573.225 59.6083L574.967 56.3541L573.336 55.4783L571.593 58.6864Z" fill="#FFAC00"/>
<path d="M574.582 55.9762C574.423 55.9758 574.266 55.9343 574.128 55.8557C573.99 55.7772 573.875 55.6642 573.793 55.5279C573.711 55.3915 573.666 55.2363 573.662 55.0775C573.658 54.9186 573.696 54.7614 573.77 54.6211L575.946 50.5556C576.068 50.3392 576.271 50.1803 576.511 50.1137C576.75 50.0471 577.006 50.0784 577.223 50.2007C577.439 50.3229 577.598 50.5261 577.665 50.7656C577.731 51.005 577.7 51.2611 577.578 51.4775L575.402 55.4969C575.322 55.6437 575.203 55.7659 575.058 55.8504C574.914 55.9349 574.749 55.9784 574.582 55.9762Z" fill="#FFAC00"/>
<path d="M569.796 64.9183C569.637 64.9179 569.481 64.8764 569.343 64.7978C569.205 64.7193 569.089 64.6063 569.008 64.47C568.926 64.3336 568.881 64.1784 568.877 64.0196C568.873 63.8607 568.91 63.7035 568.985 63.5632L571.161 59.4977C571.218 59.3906 571.296 59.2958 571.39 59.2188C571.485 59.1418 571.593 59.0842 571.709 59.0491C571.826 59.014 571.948 59.0021 572.069 59.0143C572.19 59.0264 572.307 59.0622 572.415 59.1197C572.522 59.1772 572.616 59.2553 572.693 59.3494C572.77 59.4435 572.828 59.5519 572.863 59.6683C572.898 59.7847 572.91 59.9069 572.898 60.0279C572.886 60.1489 572.85 60.2663 572.792 60.3735L570.617 64.439C570.537 64.5858 570.418 64.708 570.273 64.7925C570.129 64.877 569.964 64.9205 569.796 64.9183Z" fill="#FFAC00"/>
<path d="M591.395 61.7288C591.228 61.7283 591.065 61.6826 590.922 61.5966C590.779 61.5106 590.662 61.3874 590.584 61.2402L587.975 56.3634C587.861 56.1482 587.836 55.8964 587.907 55.6631C587.978 55.4299 588.138 55.2342 588.353 55.1189L591.598 53.3766C591.705 53.3185 591.822 53.2822 591.943 53.2698C592.065 53.2574 592.187 53.2691 592.304 53.3043C592.42 53.3394 592.529 53.3973 592.623 53.4746C592.717 53.5518 592.795 53.647 592.852 53.7545L595.461 58.6313C595.575 58.8465 595.599 59.0983 595.528 59.3315C595.458 59.5648 595.297 59.7605 595.083 59.8758C591.598 61.7472 591.718 61.7288 591.395 61.7288ZM590.031 56.3081L591.773 59.5623L593.396 58.6405L591.662 55.3862L590.031 56.3081Z" fill="#FFAC00"/>
<path d="M590.409 55.9762C590.243 55.9766 590.08 55.9323 589.937 55.848C589.795 55.7636 589.677 55.6423 589.598 55.4968L587.422 51.4313C587.3 51.215 587.268 50.9589 587.335 50.7194C587.402 50.48 587.561 50.2768 587.777 50.1545C587.993 50.0323 588.249 50.001 588.489 50.0676C588.728 50.1341 588.931 50.2931 589.054 50.5095L591.22 54.5749C591.306 54.7164 591.353 54.8786 591.355 55.0443C591.357 55.21 591.314 55.3731 591.231 55.5165C591.148 55.6599 591.028 55.7783 590.883 55.8592C590.738 55.9401 590.575 55.9805 590.409 55.9762Z" fill="#FFAC00"/>
<path d="M595.193 64.9184C595.027 64.9189 594.864 64.8746 594.722 64.7902C594.579 64.7059 594.462 64.5845 594.382 64.439L592.206 60.3736C592.149 60.267 592.113 60.1502 592.101 60.0298C592.088 59.9094 592.1 59.7877 592.134 59.6717C592.169 59.5557 592.226 59.4477 592.303 59.3538C592.379 59.2599 592.473 59.1819 592.58 59.1244C592.686 59.0669 592.803 59.031 592.923 59.0186C593.044 59.0063 593.166 59.0177 593.282 59.0524C593.398 59.0871 593.506 59.1443 593.6 59.2207C593.693 59.2971 593.771 59.3913 593.829 59.4978L596.004 63.5633C596.079 63.7036 596.116 63.8608 596.112 64.0197C596.108 64.1785 596.063 64.3337 595.982 64.4701C595.9 64.6064 595.785 64.7194 595.646 64.7979C595.508 64.8765 595.352 64.918 595.193 64.9184Z" fill="#FFAC00"/>
<path d="M582.5 28.9191L571.438 34.4503V47.3566L582.5 52.8879L593.563 47.3566V34.4503L582.5 28.9191Z" fill="#00BEBD"/>
<path d="M582.5 40.9035C582.187 40.9035 583.118 41.3275 571.023 35.2708C570.872 35.1935 570.745 35.0759 570.657 34.9312C570.568 34.7864 570.521 34.62 570.521 34.4503C570.521 34.2807 570.568 34.1143 570.657 33.9695C570.745 33.8248 570.872 33.7072 571.023 33.6299L582.086 28.0986C582.214 28.0338 582.356 28 582.5 28C582.644 28 582.787 28.0338 582.915 28.0986L593.978 33.6299C594.129 33.7072 594.255 33.8248 594.344 33.9695C594.432 34.1143 594.479 34.2807 594.479 34.4503C594.479 34.62 594.432 34.7864 594.344 34.9312C594.255 35.0759 594.129 35.1935 593.978 35.2708C581.883 41.3183 582.814 40.9035 582.5 40.9035ZM573.503 34.4503L582.5 38.9491L591.498 34.4503L582.5 29.9516L573.503 34.4503Z" fill="#00AAA8"/>
<path d="M582.5 53.8097C582.187 53.8097 583.108 54.2246 571.023 48.1771C570.871 48.1005 570.743 47.9833 570.653 47.8384C570.564 47.6936 570.516 47.5269 570.516 47.3566V34.4503C570.516 34.2932 570.557 34.1388 570.634 34.0018C570.711 33.8647 570.821 33.7497 570.955 33.6674C571.089 33.5852 571.242 33.5386 571.399 33.5321C571.556 33.5255 571.712 33.5591 571.852 33.6299L582.915 39.1611C583.067 39.2377 583.195 39.3549 583.284 39.4998C583.374 39.6446 583.421 39.8114 583.422 39.9816V52.8879C583.422 53.1324 583.325 53.3669 583.152 53.5397C582.979 53.7126 582.745 53.8097 582.5 53.8097ZM572.359 46.785L581.578 51.3944V40.5532L572.359 35.9438V46.785Z" fill="#00AAA8"/>
<path d="M582.5 53.8097C582.256 53.8097 582.021 53.7126 581.848 53.5397C581.675 53.3669 581.578 53.1324 581.578 52.8879V39.9816C581.579 39.8114 581.626 39.6446 581.716 39.4998C581.805 39.3549 581.933 39.2377 582.085 39.1611L593.148 33.6299C593.288 33.5591 593.444 33.5255 593.601 33.5321C593.758 33.5386 593.911 33.5852 594.045 33.6674C594.179 33.7497 594.289 33.8647 594.366 34.0018C594.443 34.1388 594.484 34.2932 594.484 34.4503V47.3566C594.484 47.5269 594.436 47.6936 594.347 47.8384C594.257 47.9833 594.129 48.1005 593.977 48.1771C581.882 54.2246 582.813 53.8097 582.5 53.8097ZM583.422 40.5532V51.3944L592.641 46.785V35.9438L583.422 40.5532Z" fill="#00AAA8"/>
<path d="M564.984 62.1067L553.922 67.6379V80.5442L564.984 86.0755L576.047 80.5442V67.6379L564.984 62.1067Z" fill="#93E6E5"/>
<path d="M564.985 74.0911C564.671 74.0911 565.602 74.5152 553.507 68.4584C553.356 68.3811 553.23 68.2635 553.141 68.1188C553.053 67.974 553.006 67.8076 553.006 67.638C553.006 67.4683 553.053 67.3019 553.141 67.1572C553.23 67.0124 553.356 66.8949 553.507 66.8175L564.57 61.2862C564.699 61.2214 564.841 61.1876 564.985 61.1876C565.129 61.1876 565.271 61.2214 565.4 61.2862L576.462 66.8175C576.613 66.8949 576.74 67.0124 576.828 67.1572C576.917 67.3019 576.964 67.4683 576.964 67.638C576.964 67.8076 576.917 67.974 576.828 68.1188C576.74 68.2635 576.613 68.3811 576.462 68.4584C564.367 74.5059 565.298 74.0911 564.985 74.0911ZM555.987 67.638L564.985 72.1367L573.982 67.638L564.985 63.1392L555.987 67.638Z" fill="#50D9D7"/>
<path d="M564.984 86.9974C564.671 86.9974 565.593 87.4122 553.507 81.3647C553.355 81.2881 553.227 81.1709 553.138 81.0261C553.048 80.8812 553.001 80.7145 553 80.5442V67.638C553 67.4808 553.041 67.3264 553.118 67.1894C553.195 67.0524 553.306 66.9373 553.44 66.8551C553.574 66.7729 553.726 66.7263 553.883 66.7197C554.04 66.7131 554.196 66.7468 554.337 66.8175L565.399 72.3487C565.551 72.4254 565.679 72.5426 565.769 72.6874C565.858 72.8322 565.906 72.999 565.906 73.1692V86.0755C565.906 86.32 565.809 86.5545 565.636 86.7274C565.463 86.9002 565.229 86.9974 564.984 86.9974ZM554.844 79.9727L564.063 84.5821V73.7408L554.844 69.1314V79.9727Z" fill="#50D9D7"/>
<path d="M564.984 86.9974C564.74 86.9974 564.505 86.9002 564.333 86.7274C564.16 86.5545 564.062 86.32 564.062 86.0755V73.1692C564.063 72.999 564.111 72.8322 564.2 72.6874C564.29 72.5426 564.418 72.4254 564.57 72.3487L575.632 66.8175C575.772 66.7468 575.928 66.7131 576.085 66.7197C576.242 66.7263 576.395 66.7729 576.529 66.8551C576.663 66.9373 576.774 67.0524 576.851 67.1894C576.928 67.3264 576.968 67.4808 576.969 67.638V80.5442C576.968 80.7145 576.921 80.8812 576.831 81.0261C576.742 81.1709 576.614 81.2881 576.462 81.3647C564.367 87.4122 565.298 86.9974 564.984 86.9974ZM565.906 73.7408V84.5821L575.125 79.9727V69.1314L565.906 73.7408Z" fill="#50D9D7"/>
<path d="M600.016 62.1067L588.953 67.6379V80.5442L600.016 86.0755L611.078 80.5442V67.6379L600.016 62.1067Z" fill="#50D9D7"/>
<path d="M600.016 74.0911C599.703 74.0911 600.634 74.5152 588.539 68.4584C588.388 68.3811 588.261 68.2635 588.172 68.1188C588.084 67.974 588.037 67.8076 588.037 67.638C588.037 67.4683 588.084 67.3019 588.172 67.1572C588.261 67.0124 588.388 66.8949 588.539 66.8175L599.601 61.2862C599.73 61.2214 599.872 61.1876 600.016 61.1876C600.16 61.1876 600.302 61.2214 600.431 61.2862L611.493 66.8175C611.644 66.8949 611.771 67.0124 611.86 67.1572C611.948 67.3019 611.995 67.4683 611.995 67.638C611.995 67.8076 611.948 67.974 611.86 68.1188C611.771 68.2635 611.644 68.3811 611.493 68.4584C599.398 74.5059 600.329 74.0911 600.016 74.0911ZM591.018 67.638L600.016 72.1367L609.014 67.638L600.016 63.1392L591.018 67.638Z" fill="#00BEBD"/>
<path d="M600.016 86.9974C599.702 86.9974 600.624 87.4122 588.538 81.3647C588.386 81.2881 588.258 81.1709 588.169 81.0261C588.079 80.8812 588.032 80.7145 588.031 80.5442V67.638C588.032 67.4808 588.072 67.3264 588.149 67.1894C588.226 67.0524 588.337 66.9373 588.471 66.8551C588.605 66.7729 588.758 66.7263 588.915 66.7197C589.072 66.7131 589.228 66.7468 589.368 66.8175L600.43 72.3487C600.583 72.4254 600.71 72.5426 600.8 72.6874C600.889 72.8322 600.937 72.999 600.938 73.1692V86.0755C600.938 86.32 600.84 86.5545 600.668 86.7274C600.495 86.9002 600.26 86.9974 600.016 86.9974ZM589.875 79.9727L599.094 84.5821V73.7408L589.875 69.1314V79.9727Z" fill="#00BEBD"/>
<path d="M600.016 86.9974C599.771 86.9974 599.537 86.9002 599.364 86.7274C599.191 86.5545 599.094 86.32 599.094 86.0755V73.1692C599.094 72.999 599.142 72.8322 599.231 72.6874C599.321 72.5426 599.449 72.4254 599.601 72.3487L610.663 66.8175C610.804 66.7468 610.96 66.7131 611.117 66.7197C611.274 66.7263 611.426 66.7729 611.56 66.8551C611.694 66.9373 611.805 67.0524 611.882 67.1894C611.959 67.3264 612 67.4808 612 67.638V80.5442C612 80.7145 611.952 80.8812 611.862 81.0261C611.773 81.1709 611.645 81.2881 611.493 81.3647C599.398 87.4122 600.329 86.9974 600.016 86.9974ZM600.938 73.7408V84.5821L610.156 79.9727V69.1314L600.938 73.7408Z" fill="#00BEBD"/>
<defs>
<linearGradient id="paint0_linear_415_2452" x1="266.846" y1="370.5" x2="474.156" y2="370.5" gradientUnits="userSpaceOnUse">
<stop stop-color="#1692C8"/>
<stop offset="1" stop-color="#00B457"/>
</linearGradient>
</defs>
</svg>
